M48
; DRILL file {KiCad 9.0.0} date 2025-07-08T12:35:50+0200
; FORMAT={-:-/ absolute / metric / decimal}
; #@! TF.CreationDate,2025-07-08T12:35:50+02:00
; #@! TF.GenerationSoftware,Kicad,Pcbnew,9.0.0
; #@! TF.FileFunction,Plated,1,2,PTH
FMAT,2
METRIC
; #@! TA.AperFunction,Plated,PTH,ViaDrill
T1C0.300
; #@! TA.AperFunction,Plated,PTH,ComponentDrill
T2C0.900
; #@! TA.AperFunction,Plated,PTH,ComponentDrill
T3C1.000
; #@! TA.AperFunction,Plated,PTH,ComponentDrill
T4C1.100
; #@! TA.AperFunction,Plated,PTH,ComponentDrill
T5C1.300
; #@! TA.AperFunction,Plated,PTH,ComponentDrill
T6C1.500
%
G90
G05
T1
X99.358Y-105.314
X101.136Y-104.298
X101.136Y-108.616
X102.152Y-82.454
X103.676Y-110.648
X103.93Y-82.454
X115.106Y-120.3
X120.186Y-111.664
X120.821Y-67.976
X120.948Y-110.902
X121.71Y-110.14
X122.472Y-76.358
X122.472Y-109.378
X123.234Y-108.616
X124.758Y-124.618
X127.552Y-127.158
X128.822Y-124.872
X130.331Y-97.425
X131.362Y-80.168
X133.14Y-80.168
X133.14Y-84.994
X133.394Y-100.234
X134.156Y-80.168
X134.156Y-100.996
X135.172Y-80.168
X136.788Y-84.994
X147.618Y-78.263
X149.142Y-78.898
X152.19Y-112.426
X152.825Y-81.565
X152.952Y-111.41
X158.286Y-108.87
T2
X135.91Y-65.35
X138.45Y-65.35
T3
X95.86Y-72.6
X95.86Y-87.6
X98.4Y-72.6
X98.4Y-87.6
X100.94Y-72.6
X100.94Y-87.6
X103.48Y-72.6
X103.48Y-87.6
X106.02Y-72.6
X106.02Y-87.6
X108.56Y-72.6
X108.56Y-87.6
X111.1Y-72.6
X111.1Y-87.6
X113.64Y-72.6
X113.64Y-87.6
X116.18Y-72.6
X116.18Y-87.6
X118.72Y-72.6
X118.72Y-87.6
X121.26Y-72.6
X121.26Y-87.6
X123.8Y-72.6
X123.8Y-87.6
X126.34Y-72.6
X126.34Y-87.6
X128.88Y-72.6
X128.88Y-87.6
X131.42Y-72.6
X131.42Y-87.6
X145.15Y-65.3
X147.69Y-65.3
X150.23Y-65.3
X177.1Y-98.57
X177.1Y-101.11
X177.1Y-103.65
X177.1Y-106.19
X177.1Y-108.73
X177.1Y-111.27
X177.1Y-113.81
X177.1Y-116.35
T4
X137.1Y-135.65
X137.1Y-140.15
X143.6Y-135.65
X143.6Y-140.15
X146.8Y-135.65
X146.8Y-140.15
X146.8Y-143.4
X146.8Y-147.9
X146.85Y-127.9
X146.85Y-132.4
X153.3Y-135.65
X153.3Y-140.15
X153.3Y-143.4
X153.3Y-147.9
X153.35Y-127.9
X153.35Y-132.4
X156.5Y-135.65
X156.5Y-140.15
X163.0Y-135.65
X163.0Y-140.15
T5
X162.85Y-73.95
X162.85Y-77.2
X162.85Y-84.45
X162.85Y-87.55
X185.55Y-73.95
X185.55Y-87.55
T6
X126.6Y-132.2
X131.75Y-132.2
M30
