%TF.GenerationSoftware,KiCad,Pcbnew,9.0.0*%
%TF.CreationDate,2025-07-08T12:35:53+02:00*%
%TF.ProjectId,capibarazeroPCB,63617069-6261-4726-917a-65726f504342,rev?*%
%TF.SameCoordinates,Original*%
%TF.FileFunction,Legend,Bot*%
%TF.FilePolarity,Positive*%
%FSLAX46Y46*%
G04 Gerber Fmt 4.6, Leading zero omitted, Abs format (unit mm)*
G04 Created by KiCad (PCBNEW 9.0.0) date 2025-07-08 12:35:53*
%MOMM*%
%LPD*%
G01*
G04 APERTURE LIST*
%ADD10C,0.100000*%
%ADD11C,0.120000*%
G04 APERTURE END LIST*
D10*
X118151734Y-94193808D02*
X118008877Y-94241427D01*
X118008877Y-94241427D02*
X117770782Y-94241427D01*
X117770782Y-94241427D02*
X117675544Y-94193808D01*
X117675544Y-94193808D02*
X117627925Y-94146188D01*
X117627925Y-94146188D02*
X117580306Y-94050950D01*
X117580306Y-94050950D02*
X117580306Y-93955712D01*
X117580306Y-93955712D02*
X117627925Y-93860474D01*
X117627925Y-93860474D02*
X117675544Y-93812855D01*
X117675544Y-93812855D02*
X117770782Y-93765236D01*
X117770782Y-93765236D02*
X117961258Y-93717617D01*
X117961258Y-93717617D02*
X118056496Y-93669998D01*
X118056496Y-93669998D02*
X118104115Y-93622379D01*
X118104115Y-93622379D02*
X118151734Y-93527141D01*
X118151734Y-93527141D02*
X118151734Y-93431903D01*
X118151734Y-93431903D02*
X118104115Y-93336665D01*
X118104115Y-93336665D02*
X118056496Y-93289046D01*
X118056496Y-93289046D02*
X117961258Y-93241427D01*
X117961258Y-93241427D02*
X117723163Y-93241427D01*
X117723163Y-93241427D02*
X117580306Y-93289046D01*
X117008877Y-94241427D02*
X117104115Y-94193808D01*
X117104115Y-94193808D02*
X117151734Y-94146188D01*
X117151734Y-94146188D02*
X117199353Y-94050950D01*
X117199353Y-94050950D02*
X117199353Y-93765236D01*
X117199353Y-93765236D02*
X117151734Y-93669998D01*
X117151734Y-93669998D02*
X117104115Y-93622379D01*
X117104115Y-93622379D02*
X117008877Y-93574760D01*
X117008877Y-93574760D02*
X116866020Y-93574760D01*
X116866020Y-93574760D02*
X116770782Y-93622379D01*
X116770782Y-93622379D02*
X116723163Y-93669998D01*
X116723163Y-93669998D02*
X116675544Y-93765236D01*
X116675544Y-93765236D02*
X116675544Y-94050950D01*
X116675544Y-94050950D02*
X116723163Y-94146188D01*
X116723163Y-94146188D02*
X116770782Y-94193808D01*
X116770782Y-94193808D02*
X116866020Y-94241427D01*
X116866020Y-94241427D02*
X117008877Y-94241427D01*
X116104115Y-94241427D02*
X116199353Y-94193808D01*
X116199353Y-94193808D02*
X116246972Y-94098569D01*
X116246972Y-94098569D02*
X116246972Y-93241427D01*
X115294591Y-94241427D02*
X115294591Y-93241427D01*
X115294591Y-94193808D02*
X115389829Y-94241427D01*
X115389829Y-94241427D02*
X115580305Y-94241427D01*
X115580305Y-94241427D02*
X115675543Y-94193808D01*
X115675543Y-94193808D02*
X115723162Y-94146188D01*
X115723162Y-94146188D02*
X115770781Y-94050950D01*
X115770781Y-94050950D02*
X115770781Y-93765236D01*
X115770781Y-93765236D02*
X115723162Y-93669998D01*
X115723162Y-93669998D02*
X115675543Y-93622379D01*
X115675543Y-93622379D02*
X115580305Y-93574760D01*
X115580305Y-93574760D02*
X115389829Y-93574760D01*
X115389829Y-93574760D02*
X115294591Y-93622379D01*
X114437448Y-94193808D02*
X114532686Y-94241427D01*
X114532686Y-94241427D02*
X114723162Y-94241427D01*
X114723162Y-94241427D02*
X114818400Y-94193808D01*
X114818400Y-94193808D02*
X114866019Y-94098569D01*
X114866019Y-94098569D02*
X114866019Y-93717617D01*
X114866019Y-93717617D02*
X114818400Y-93622379D01*
X114818400Y-93622379D02*
X114723162Y-93574760D01*
X114723162Y-93574760D02*
X114532686Y-93574760D01*
X114532686Y-93574760D02*
X114437448Y-93622379D01*
X114437448Y-93622379D02*
X114389829Y-93717617D01*
X114389829Y-93717617D02*
X114389829Y-93812855D01*
X114389829Y-93812855D02*
X114866019Y-93908093D01*
X113961257Y-94241427D02*
X113961257Y-93574760D01*
X113961257Y-93765236D02*
X113913638Y-93669998D01*
X113913638Y-93669998D02*
X113866019Y-93622379D01*
X113866019Y-93622379D02*
X113770781Y-93574760D01*
X113770781Y-93574760D02*
X113675543Y-93574760D01*
X113342209Y-94241427D02*
X113342209Y-93574760D01*
X113342209Y-93241427D02*
X113389828Y-93289046D01*
X113389828Y-93289046D02*
X113342209Y-93336665D01*
X113342209Y-93336665D02*
X113294590Y-93289046D01*
X113294590Y-93289046D02*
X113342209Y-93241427D01*
X113342209Y-93241427D02*
X113342209Y-93336665D01*
X112866019Y-93574760D02*
X112866019Y-94241427D01*
X112866019Y-93669998D02*
X112818400Y-93622379D01*
X112818400Y-93622379D02*
X112723162Y-93574760D01*
X112723162Y-93574760D02*
X112580305Y-93574760D01*
X112580305Y-93574760D02*
X112485067Y-93622379D01*
X112485067Y-93622379D02*
X112437448Y-93717617D01*
X112437448Y-93717617D02*
X112437448Y-94241427D01*
X111532686Y-93574760D02*
X111532686Y-94384284D01*
X111532686Y-94384284D02*
X111580305Y-94479522D01*
X111580305Y-94479522D02*
X111627924Y-94527141D01*
X111627924Y-94527141D02*
X111723162Y-94574760D01*
X111723162Y-94574760D02*
X111866019Y-94574760D01*
X111866019Y-94574760D02*
X111961257Y-94527141D01*
X111532686Y-94193808D02*
X111627924Y-94241427D01*
X111627924Y-94241427D02*
X111818400Y-94241427D01*
X111818400Y-94241427D02*
X111913638Y-94193808D01*
X111913638Y-94193808D02*
X111961257Y-94146188D01*
X111961257Y-94146188D02*
X112008876Y-94050950D01*
X112008876Y-94050950D02*
X112008876Y-93765236D01*
X112008876Y-93765236D02*
X111961257Y-93669998D01*
X111961257Y-93669998D02*
X111913638Y-93622379D01*
X111913638Y-93622379D02*
X111818400Y-93574760D01*
X111818400Y-93574760D02*
X111627924Y-93574760D01*
X111627924Y-93574760D02*
X111532686Y-93622379D01*
X110151733Y-94241427D02*
X110246971Y-94193808D01*
X110246971Y-94193808D02*
X110294590Y-94146188D01*
X110294590Y-94146188D02*
X110342209Y-94050950D01*
X110342209Y-94050950D02*
X110342209Y-93765236D01*
X110342209Y-93765236D02*
X110294590Y-93669998D01*
X110294590Y-93669998D02*
X110246971Y-93622379D01*
X110246971Y-93622379D02*
X110151733Y-93574760D01*
X110151733Y-93574760D02*
X110008876Y-93574760D01*
X110008876Y-93574760D02*
X109913638Y-93622379D01*
X109913638Y-93622379D02*
X109866019Y-93669998D01*
X109866019Y-93669998D02*
X109818400Y-93765236D01*
X109818400Y-93765236D02*
X109818400Y-94050950D01*
X109818400Y-94050950D02*
X109866019Y-94146188D01*
X109866019Y-94146188D02*
X109913638Y-94193808D01*
X109913638Y-94193808D02*
X110008876Y-94241427D01*
X110008876Y-94241427D02*
X110151733Y-94241427D01*
X109389828Y-94241427D02*
X109389828Y-93574760D01*
X109389828Y-93765236D02*
X109342209Y-93669998D01*
X109342209Y-93669998D02*
X109294590Y-93622379D01*
X109294590Y-93622379D02*
X109199352Y-93574760D01*
X109199352Y-93574760D02*
X109104114Y-93574760D01*
X108342209Y-94241427D02*
X108342209Y-93241427D01*
X108342209Y-94193808D02*
X108437447Y-94241427D01*
X108437447Y-94241427D02*
X108627923Y-94241427D01*
X108627923Y-94241427D02*
X108723161Y-94193808D01*
X108723161Y-94193808D02*
X108770780Y-94146188D01*
X108770780Y-94146188D02*
X108818399Y-94050950D01*
X108818399Y-94050950D02*
X108818399Y-93765236D01*
X108818399Y-93765236D02*
X108770780Y-93669998D01*
X108770780Y-93669998D02*
X108723161Y-93622379D01*
X108723161Y-93622379D02*
X108627923Y-93574760D01*
X108627923Y-93574760D02*
X108437447Y-93574760D01*
X108437447Y-93574760D02*
X108342209Y-93622379D01*
X107485066Y-94193808D02*
X107580304Y-94241427D01*
X107580304Y-94241427D02*
X107770780Y-94241427D01*
X107770780Y-94241427D02*
X107866018Y-94193808D01*
X107866018Y-94193808D02*
X107913637Y-94098569D01*
X107913637Y-94098569D02*
X107913637Y-93717617D01*
X107913637Y-93717617D02*
X107866018Y-93622379D01*
X107866018Y-93622379D02*
X107770780Y-93574760D01*
X107770780Y-93574760D02*
X107580304Y-93574760D01*
X107580304Y-93574760D02*
X107485066Y-93622379D01*
X107485066Y-93622379D02*
X107437447Y-93717617D01*
X107437447Y-93717617D02*
X107437447Y-93812855D01*
X107437447Y-93812855D02*
X107913637Y-93908093D01*
X107008875Y-94241427D02*
X107008875Y-93574760D01*
X107008875Y-93765236D02*
X106961256Y-93669998D01*
X106961256Y-93669998D02*
X106913637Y-93622379D01*
X106913637Y-93622379D02*
X106818399Y-93574760D01*
X106818399Y-93574760D02*
X106723161Y-93574760D01*
X106389827Y-94146188D02*
X106342208Y-94193808D01*
X106342208Y-94193808D02*
X106389827Y-94241427D01*
X106389827Y-94241427D02*
X106437446Y-94193808D01*
X106437446Y-94193808D02*
X106389827Y-94146188D01*
X106389827Y-94146188D02*
X106389827Y-94241427D01*
X106389827Y-93622379D02*
X106342208Y-93669998D01*
X106342208Y-93669998D02*
X106389827Y-93717617D01*
X106389827Y-93717617D02*
X106437446Y-93669998D01*
X106437446Y-93669998D02*
X106389827Y-93622379D01*
X106389827Y-93622379D02*
X106389827Y-93717617D01*
X117580306Y-95851371D02*
X118151734Y-95851371D01*
X117866020Y-95851371D02*
X117866020Y-94851371D01*
X117866020Y-94851371D02*
X117961258Y-94994228D01*
X117961258Y-94994228D02*
X118056496Y-95089466D01*
X118056496Y-95089466D02*
X118151734Y-95137085D01*
X117246972Y-96232323D02*
X117199353Y-96184704D01*
X117199353Y-96184704D02*
X117104115Y-96041847D01*
X117104115Y-96041847D02*
X117056496Y-95946609D01*
X117056496Y-95946609D02*
X117008877Y-95803752D01*
X117008877Y-95803752D02*
X116961258Y-95565656D01*
X116961258Y-95565656D02*
X116961258Y-95375180D01*
X116961258Y-95375180D02*
X117008877Y-95137085D01*
X117008877Y-95137085D02*
X117056496Y-94994228D01*
X117056496Y-94994228D02*
X117104115Y-94898990D01*
X117104115Y-94898990D02*
X117199353Y-94756132D01*
X117199353Y-94756132D02*
X117246972Y-94708513D01*
X114389829Y-95851371D02*
X114723162Y-95375180D01*
X114961257Y-95851371D02*
X114961257Y-94851371D01*
X114961257Y-94851371D02*
X114580305Y-94851371D01*
X114580305Y-94851371D02*
X114485067Y-94898990D01*
X114485067Y-94898990D02*
X114437448Y-94946609D01*
X114437448Y-94946609D02*
X114389829Y-95041847D01*
X114389829Y-95041847D02*
X114389829Y-95184704D01*
X114389829Y-95184704D02*
X114437448Y-95279942D01*
X114437448Y-95279942D02*
X114485067Y-95327561D01*
X114485067Y-95327561D02*
X114580305Y-95375180D01*
X114580305Y-95375180D02*
X114961257Y-95375180D01*
X113580305Y-95803752D02*
X113675543Y-95851371D01*
X113675543Y-95851371D02*
X113866019Y-95851371D01*
X113866019Y-95851371D02*
X113961257Y-95803752D01*
X113961257Y-95803752D02*
X114008876Y-95708513D01*
X114008876Y-95708513D02*
X114008876Y-95327561D01*
X114008876Y-95327561D02*
X113961257Y-95232323D01*
X113961257Y-95232323D02*
X113866019Y-95184704D01*
X113866019Y-95184704D02*
X113675543Y-95184704D01*
X113675543Y-95184704D02*
X113580305Y-95232323D01*
X113580305Y-95232323D02*
X113532686Y-95327561D01*
X113532686Y-95327561D02*
X113532686Y-95422799D01*
X113532686Y-95422799D02*
X114008876Y-95518037D01*
X113151733Y-95803752D02*
X113056495Y-95851371D01*
X113056495Y-95851371D02*
X112866019Y-95851371D01*
X112866019Y-95851371D02*
X112770781Y-95803752D01*
X112770781Y-95803752D02*
X112723162Y-95708513D01*
X112723162Y-95708513D02*
X112723162Y-95660894D01*
X112723162Y-95660894D02*
X112770781Y-95565656D01*
X112770781Y-95565656D02*
X112866019Y-95518037D01*
X112866019Y-95518037D02*
X113008876Y-95518037D01*
X113008876Y-95518037D02*
X113104114Y-95470418D01*
X113104114Y-95470418D02*
X113151733Y-95375180D01*
X113151733Y-95375180D02*
X113151733Y-95327561D01*
X113151733Y-95327561D02*
X113104114Y-95232323D01*
X113104114Y-95232323D02*
X113008876Y-95184704D01*
X113008876Y-95184704D02*
X112866019Y-95184704D01*
X112866019Y-95184704D02*
X112770781Y-95232323D01*
X112294590Y-95851371D02*
X112294590Y-95184704D01*
X112294590Y-94851371D02*
X112342209Y-94898990D01*
X112342209Y-94898990D02*
X112294590Y-94946609D01*
X112294590Y-94946609D02*
X112246971Y-94898990D01*
X112246971Y-94898990D02*
X112294590Y-94851371D01*
X112294590Y-94851371D02*
X112294590Y-94946609D01*
X111866019Y-95803752D02*
X111770781Y-95851371D01*
X111770781Y-95851371D02*
X111580305Y-95851371D01*
X111580305Y-95851371D02*
X111485067Y-95803752D01*
X111485067Y-95803752D02*
X111437448Y-95708513D01*
X111437448Y-95708513D02*
X111437448Y-95660894D01*
X111437448Y-95660894D02*
X111485067Y-95565656D01*
X111485067Y-95565656D02*
X111580305Y-95518037D01*
X111580305Y-95518037D02*
X111723162Y-95518037D01*
X111723162Y-95518037D02*
X111818400Y-95470418D01*
X111818400Y-95470418D02*
X111866019Y-95375180D01*
X111866019Y-95375180D02*
X111866019Y-95327561D01*
X111866019Y-95327561D02*
X111818400Y-95232323D01*
X111818400Y-95232323D02*
X111723162Y-95184704D01*
X111723162Y-95184704D02*
X111580305Y-95184704D01*
X111580305Y-95184704D02*
X111485067Y-95232323D01*
X111151733Y-95184704D02*
X110770781Y-95184704D01*
X111008876Y-94851371D02*
X111008876Y-95708513D01*
X111008876Y-95708513D02*
X110961257Y-95803752D01*
X110961257Y-95803752D02*
X110866019Y-95851371D01*
X110866019Y-95851371D02*
X110770781Y-95851371D01*
X110294590Y-95851371D02*
X110389828Y-95803752D01*
X110389828Y-95803752D02*
X110437447Y-95756132D01*
X110437447Y-95756132D02*
X110485066Y-95660894D01*
X110485066Y-95660894D02*
X110485066Y-95375180D01*
X110485066Y-95375180D02*
X110437447Y-95279942D01*
X110437447Y-95279942D02*
X110389828Y-95232323D01*
X110389828Y-95232323D02*
X110294590Y-95184704D01*
X110294590Y-95184704D02*
X110151733Y-95184704D01*
X110151733Y-95184704D02*
X110056495Y-95232323D01*
X110056495Y-95232323D02*
X110008876Y-95279942D01*
X110008876Y-95279942D02*
X109961257Y-95375180D01*
X109961257Y-95375180D02*
X109961257Y-95660894D01*
X109961257Y-95660894D02*
X110008876Y-95756132D01*
X110008876Y-95756132D02*
X110056495Y-95803752D01*
X110056495Y-95803752D02*
X110151733Y-95851371D01*
X110151733Y-95851371D02*
X110294590Y-95851371D01*
X109532685Y-95851371D02*
X109532685Y-95184704D01*
X109532685Y-95375180D02*
X109485066Y-95279942D01*
X109485066Y-95279942D02*
X109437447Y-95232323D01*
X109437447Y-95232323D02*
X109342209Y-95184704D01*
X109342209Y-95184704D02*
X109246971Y-95184704D01*
X108961256Y-95803752D02*
X108866018Y-95851371D01*
X108866018Y-95851371D02*
X108675542Y-95851371D01*
X108675542Y-95851371D02*
X108580304Y-95803752D01*
X108580304Y-95803752D02*
X108532685Y-95708513D01*
X108532685Y-95708513D02*
X108532685Y-95660894D01*
X108532685Y-95660894D02*
X108580304Y-95565656D01*
X108580304Y-95565656D02*
X108675542Y-95518037D01*
X108675542Y-95518037D02*
X108818399Y-95518037D01*
X108818399Y-95518037D02*
X108913637Y-95470418D01*
X108913637Y-95470418D02*
X108961256Y-95375180D01*
X108961256Y-95375180D02*
X108961256Y-95327561D01*
X108961256Y-95327561D02*
X108913637Y-95232323D01*
X108913637Y-95232323D02*
X108818399Y-95184704D01*
X108818399Y-95184704D02*
X108675542Y-95184704D01*
X108675542Y-95184704D02*
X108580304Y-95232323D01*
X106913637Y-95851371D02*
X106913637Y-95327561D01*
X106913637Y-95327561D02*
X106961256Y-95232323D01*
X106961256Y-95232323D02*
X107056494Y-95184704D01*
X107056494Y-95184704D02*
X107246970Y-95184704D01*
X107246970Y-95184704D02*
X107342208Y-95232323D01*
X106913637Y-95803752D02*
X107008875Y-95851371D01*
X107008875Y-95851371D02*
X107246970Y-95851371D01*
X107246970Y-95851371D02*
X107342208Y-95803752D01*
X107342208Y-95803752D02*
X107389827Y-95708513D01*
X107389827Y-95708513D02*
X107389827Y-95613275D01*
X107389827Y-95613275D02*
X107342208Y-95518037D01*
X107342208Y-95518037D02*
X107246970Y-95470418D01*
X107246970Y-95470418D02*
X107008875Y-95470418D01*
X107008875Y-95470418D02*
X106913637Y-95422799D01*
X106437446Y-95184704D02*
X106437446Y-95851371D01*
X106437446Y-95279942D02*
X106389827Y-95232323D01*
X106389827Y-95232323D02*
X106294589Y-95184704D01*
X106294589Y-95184704D02*
X106151732Y-95184704D01*
X106151732Y-95184704D02*
X106056494Y-95232323D01*
X106056494Y-95232323D02*
X106008875Y-95327561D01*
X106008875Y-95327561D02*
X106008875Y-95851371D01*
X105104113Y-95851371D02*
X105104113Y-94851371D01*
X105104113Y-95803752D02*
X105199351Y-95851371D01*
X105199351Y-95851371D02*
X105389827Y-95851371D01*
X105389827Y-95851371D02*
X105485065Y-95803752D01*
X105485065Y-95803752D02*
X105532684Y-95756132D01*
X105532684Y-95756132D02*
X105580303Y-95660894D01*
X105580303Y-95660894D02*
X105580303Y-95375180D01*
X105580303Y-95375180D02*
X105532684Y-95279942D01*
X105532684Y-95279942D02*
X105485065Y-95232323D01*
X105485065Y-95232323D02*
X105389827Y-95184704D01*
X105389827Y-95184704D02*
X105199351Y-95184704D01*
X105199351Y-95184704D02*
X105104113Y-95232323D01*
X103437446Y-95803752D02*
X103532684Y-95851371D01*
X103532684Y-95851371D02*
X103723160Y-95851371D01*
X103723160Y-95851371D02*
X103818398Y-95803752D01*
X103818398Y-95803752D02*
X103866017Y-95756132D01*
X103866017Y-95756132D02*
X103913636Y-95660894D01*
X103913636Y-95660894D02*
X103913636Y-95375180D01*
X103913636Y-95375180D02*
X103866017Y-95279942D01*
X103866017Y-95279942D02*
X103818398Y-95232323D01*
X103818398Y-95232323D02*
X103723160Y-95184704D01*
X103723160Y-95184704D02*
X103532684Y-95184704D01*
X103532684Y-95184704D02*
X103437446Y-95232323D01*
X102580303Y-95851371D02*
X102580303Y-95327561D01*
X102580303Y-95327561D02*
X102627922Y-95232323D01*
X102627922Y-95232323D02*
X102723160Y-95184704D01*
X102723160Y-95184704D02*
X102913636Y-95184704D01*
X102913636Y-95184704D02*
X103008874Y-95232323D01*
X102580303Y-95803752D02*
X102675541Y-95851371D01*
X102675541Y-95851371D02*
X102913636Y-95851371D01*
X102913636Y-95851371D02*
X103008874Y-95803752D01*
X103008874Y-95803752D02*
X103056493Y-95708513D01*
X103056493Y-95708513D02*
X103056493Y-95613275D01*
X103056493Y-95613275D02*
X103008874Y-95518037D01*
X103008874Y-95518037D02*
X102913636Y-95470418D01*
X102913636Y-95470418D02*
X102675541Y-95470418D01*
X102675541Y-95470418D02*
X102580303Y-95422799D01*
X102104112Y-95184704D02*
X102104112Y-96184704D01*
X102104112Y-95232323D02*
X102008874Y-95184704D01*
X102008874Y-95184704D02*
X101818398Y-95184704D01*
X101818398Y-95184704D02*
X101723160Y-95232323D01*
X101723160Y-95232323D02*
X101675541Y-95279942D01*
X101675541Y-95279942D02*
X101627922Y-95375180D01*
X101627922Y-95375180D02*
X101627922Y-95660894D01*
X101627922Y-95660894D02*
X101675541Y-95756132D01*
X101675541Y-95756132D02*
X101723160Y-95803752D01*
X101723160Y-95803752D02*
X101818398Y-95851371D01*
X101818398Y-95851371D02*
X102008874Y-95851371D01*
X102008874Y-95851371D02*
X102104112Y-95803752D01*
X100770779Y-95851371D02*
X100770779Y-95327561D01*
X100770779Y-95327561D02*
X100818398Y-95232323D01*
X100818398Y-95232323D02*
X100913636Y-95184704D01*
X100913636Y-95184704D02*
X101104112Y-95184704D01*
X101104112Y-95184704D02*
X101199350Y-95232323D01*
X100770779Y-95803752D02*
X100866017Y-95851371D01*
X100866017Y-95851371D02*
X101104112Y-95851371D01*
X101104112Y-95851371D02*
X101199350Y-95803752D01*
X101199350Y-95803752D02*
X101246969Y-95708513D01*
X101246969Y-95708513D02*
X101246969Y-95613275D01*
X101246969Y-95613275D02*
X101199350Y-95518037D01*
X101199350Y-95518037D02*
X101104112Y-95470418D01*
X101104112Y-95470418D02*
X100866017Y-95470418D01*
X100866017Y-95470418D02*
X100770779Y-95422799D01*
X99866017Y-95803752D02*
X99961255Y-95851371D01*
X99961255Y-95851371D02*
X100151731Y-95851371D01*
X100151731Y-95851371D02*
X100246969Y-95803752D01*
X100246969Y-95803752D02*
X100294588Y-95756132D01*
X100294588Y-95756132D02*
X100342207Y-95660894D01*
X100342207Y-95660894D02*
X100342207Y-95375180D01*
X100342207Y-95375180D02*
X100294588Y-95279942D01*
X100294588Y-95279942D02*
X100246969Y-95232323D01*
X100246969Y-95232323D02*
X100151731Y-95184704D01*
X100151731Y-95184704D02*
X99961255Y-95184704D01*
X99961255Y-95184704D02*
X99866017Y-95232323D01*
X99437445Y-95851371D02*
X99437445Y-95184704D01*
X99437445Y-94851371D02*
X99485064Y-94898990D01*
X99485064Y-94898990D02*
X99437445Y-94946609D01*
X99437445Y-94946609D02*
X99389826Y-94898990D01*
X99389826Y-94898990D02*
X99437445Y-94851371D01*
X99437445Y-94851371D02*
X99437445Y-94946609D01*
X99104112Y-95184704D02*
X98723160Y-95184704D01*
X98961255Y-94851371D02*
X98961255Y-95708513D01*
X98961255Y-95708513D02*
X98913636Y-95803752D01*
X98913636Y-95803752D02*
X98818398Y-95851371D01*
X98818398Y-95851371D02*
X98723160Y-95851371D01*
X98246969Y-95851371D02*
X98342207Y-95803752D01*
X98342207Y-95803752D02*
X98389826Y-95756132D01*
X98389826Y-95756132D02*
X98437445Y-95660894D01*
X98437445Y-95660894D02*
X98437445Y-95375180D01*
X98437445Y-95375180D02*
X98389826Y-95279942D01*
X98389826Y-95279942D02*
X98342207Y-95232323D01*
X98342207Y-95232323D02*
X98246969Y-95184704D01*
X98246969Y-95184704D02*
X98104112Y-95184704D01*
X98104112Y-95184704D02*
X98008874Y-95232323D01*
X98008874Y-95232323D02*
X97961255Y-95279942D01*
X97961255Y-95279942D02*
X97913636Y-95375180D01*
X97913636Y-95375180D02*
X97913636Y-95660894D01*
X97913636Y-95660894D02*
X97961255Y-95756132D01*
X97961255Y-95756132D02*
X98008874Y-95803752D01*
X98008874Y-95803752D02*
X98104112Y-95851371D01*
X98104112Y-95851371D02*
X98246969Y-95851371D01*
X97485064Y-95851371D02*
X97485064Y-95184704D01*
X97485064Y-95375180D02*
X97437445Y-95279942D01*
X97437445Y-95279942D02*
X97389826Y-95232323D01*
X97389826Y-95232323D02*
X97294588Y-95184704D01*
X97294588Y-95184704D02*
X97199350Y-95184704D01*
X96913635Y-95803752D02*
X96818397Y-95851371D01*
X96818397Y-95851371D02*
X96627921Y-95851371D01*
X96627921Y-95851371D02*
X96532683Y-95803752D01*
X96532683Y-95803752D02*
X96485064Y-95708513D01*
X96485064Y-95708513D02*
X96485064Y-95660894D01*
X96485064Y-95660894D02*
X96532683Y-95565656D01*
X96532683Y-95565656D02*
X96627921Y-95518037D01*
X96627921Y-95518037D02*
X96770778Y-95518037D01*
X96770778Y-95518037D02*
X96866016Y-95470418D01*
X96866016Y-95470418D02*
X96913635Y-95375180D01*
X96913635Y-95375180D02*
X96913635Y-95327561D01*
X96913635Y-95327561D02*
X96866016Y-95232323D01*
X96866016Y-95232323D02*
X96770778Y-95184704D01*
X96770778Y-95184704D02*
X96627921Y-95184704D01*
X96627921Y-95184704D02*
X96532683Y-95232323D01*
X118151734Y-96556553D02*
X118104115Y-96508934D01*
X118104115Y-96508934D02*
X118008877Y-96461315D01*
X118008877Y-96461315D02*
X117770782Y-96461315D01*
X117770782Y-96461315D02*
X117675544Y-96508934D01*
X117675544Y-96508934D02*
X117627925Y-96556553D01*
X117627925Y-96556553D02*
X117580306Y-96651791D01*
X117580306Y-96651791D02*
X117580306Y-96747029D01*
X117580306Y-96747029D02*
X117627925Y-96889886D01*
X117627925Y-96889886D02*
X118199353Y-97461315D01*
X118199353Y-97461315D02*
X117580306Y-97461315D01*
X117246972Y-97842267D02*
X117199353Y-97794648D01*
X117199353Y-97794648D02*
X117104115Y-97651791D01*
X117104115Y-97651791D02*
X117056496Y-97556553D01*
X117056496Y-97556553D02*
X117008877Y-97413696D01*
X117008877Y-97413696D02*
X116961258Y-97175600D01*
X116961258Y-97175600D02*
X116961258Y-96985124D01*
X116961258Y-96985124D02*
X117008877Y-96747029D01*
X117008877Y-96747029D02*
X117056496Y-96604172D01*
X117056496Y-96604172D02*
X117104115Y-96508934D01*
X117104115Y-96508934D02*
X117199353Y-96366076D01*
X117199353Y-96366076D02*
X117246972Y-96318457D01*
X114485067Y-97461315D02*
X114961257Y-97461315D01*
X114961257Y-97461315D02*
X114961257Y-96461315D01*
X114008876Y-97461315D02*
X114104114Y-97413696D01*
X114104114Y-97413696D02*
X114151733Y-97366076D01*
X114151733Y-97366076D02*
X114199352Y-97270838D01*
X114199352Y-97270838D02*
X114199352Y-96985124D01*
X114199352Y-96985124D02*
X114151733Y-96889886D01*
X114151733Y-96889886D02*
X114104114Y-96842267D01*
X114104114Y-96842267D02*
X114008876Y-96794648D01*
X114008876Y-96794648D02*
X113866019Y-96794648D01*
X113866019Y-96794648D02*
X113770781Y-96842267D01*
X113770781Y-96842267D02*
X113723162Y-96889886D01*
X113723162Y-96889886D02*
X113675543Y-96985124D01*
X113675543Y-96985124D02*
X113675543Y-97270838D01*
X113675543Y-97270838D02*
X113723162Y-97366076D01*
X113723162Y-97366076D02*
X113770781Y-97413696D01*
X113770781Y-97413696D02*
X113866019Y-97461315D01*
X113866019Y-97461315D02*
X114008876Y-97461315D01*
X112675543Y-97461315D02*
X113008876Y-96985124D01*
X113246971Y-97461315D02*
X113246971Y-96461315D01*
X113246971Y-96461315D02*
X112866019Y-96461315D01*
X112866019Y-96461315D02*
X112770781Y-96508934D01*
X112770781Y-96508934D02*
X112723162Y-96556553D01*
X112723162Y-96556553D02*
X112675543Y-96651791D01*
X112675543Y-96651791D02*
X112675543Y-96794648D01*
X112675543Y-96794648D02*
X112723162Y-96889886D01*
X112723162Y-96889886D02*
X112770781Y-96937505D01*
X112770781Y-96937505D02*
X112866019Y-96985124D01*
X112866019Y-96985124D02*
X113246971Y-96985124D01*
X111818400Y-97461315D02*
X111818400Y-96937505D01*
X111818400Y-96937505D02*
X111866019Y-96842267D01*
X111866019Y-96842267D02*
X111961257Y-96794648D01*
X111961257Y-96794648D02*
X112151733Y-96794648D01*
X112151733Y-96794648D02*
X112246971Y-96842267D01*
X111818400Y-97413696D02*
X111913638Y-97461315D01*
X111913638Y-97461315D02*
X112151733Y-97461315D01*
X112151733Y-97461315D02*
X112246971Y-97413696D01*
X112246971Y-97413696D02*
X112294590Y-97318457D01*
X112294590Y-97318457D02*
X112294590Y-97223219D01*
X112294590Y-97223219D02*
X112246971Y-97127981D01*
X112246971Y-97127981D02*
X112151733Y-97080362D01*
X112151733Y-97080362D02*
X111913638Y-97080362D01*
X111913638Y-97080362D02*
X111818400Y-97032743D01*
X118199353Y-98071259D02*
X117580306Y-98071259D01*
X117580306Y-98071259D02*
X117913639Y-98452211D01*
X117913639Y-98452211D02*
X117770782Y-98452211D01*
X117770782Y-98452211D02*
X117675544Y-98499830D01*
X117675544Y-98499830D02*
X117627925Y-98547449D01*
X117627925Y-98547449D02*
X117580306Y-98642687D01*
X117580306Y-98642687D02*
X117580306Y-98880782D01*
X117580306Y-98880782D02*
X117627925Y-98976020D01*
X117627925Y-98976020D02*
X117675544Y-99023640D01*
X117675544Y-99023640D02*
X117770782Y-99071259D01*
X117770782Y-99071259D02*
X118056496Y-99071259D01*
X118056496Y-99071259D02*
X118151734Y-99023640D01*
X118151734Y-99023640D02*
X118199353Y-98976020D01*
X117246972Y-99452211D02*
X117199353Y-99404592D01*
X117199353Y-99404592D02*
X117104115Y-99261735D01*
X117104115Y-99261735D02*
X117056496Y-99166497D01*
X117056496Y-99166497D02*
X117008877Y-99023640D01*
X117008877Y-99023640D02*
X116961258Y-98785544D01*
X116961258Y-98785544D02*
X116961258Y-98595068D01*
X116961258Y-98595068D02*
X117008877Y-98356973D01*
X117008877Y-98356973D02*
X117056496Y-98214116D01*
X117056496Y-98214116D02*
X117104115Y-98118878D01*
X117104115Y-98118878D02*
X117199353Y-97976020D01*
X117199353Y-97976020D02*
X117246972Y-97928401D01*
X114627924Y-98547449D02*
X114485067Y-98595068D01*
X114485067Y-98595068D02*
X114437448Y-98642687D01*
X114437448Y-98642687D02*
X114389829Y-98737925D01*
X114389829Y-98737925D02*
X114389829Y-98880782D01*
X114389829Y-98880782D02*
X114437448Y-98976020D01*
X114437448Y-98976020D02*
X114485067Y-99023640D01*
X114485067Y-99023640D02*
X114580305Y-99071259D01*
X114580305Y-99071259D02*
X114961257Y-99071259D01*
X114961257Y-99071259D02*
X114961257Y-98071259D01*
X114961257Y-98071259D02*
X114627924Y-98071259D01*
X114627924Y-98071259D02*
X114532686Y-98118878D01*
X114532686Y-98118878D02*
X114485067Y-98166497D01*
X114485067Y-98166497D02*
X114437448Y-98261735D01*
X114437448Y-98261735D02*
X114437448Y-98356973D01*
X114437448Y-98356973D02*
X114485067Y-98452211D01*
X114485067Y-98452211D02*
X114532686Y-98499830D01*
X114532686Y-98499830D02*
X114627924Y-98547449D01*
X114627924Y-98547449D02*
X114961257Y-98547449D01*
X113532686Y-98404592D02*
X113532686Y-99071259D01*
X113961257Y-98404592D02*
X113961257Y-98928401D01*
X113961257Y-98928401D02*
X113913638Y-99023640D01*
X113913638Y-99023640D02*
X113818400Y-99071259D01*
X113818400Y-99071259D02*
X113675543Y-99071259D01*
X113675543Y-99071259D02*
X113580305Y-99023640D01*
X113580305Y-99023640D02*
X113532686Y-98976020D01*
X113199352Y-98404592D02*
X112818400Y-98404592D01*
X113056495Y-98071259D02*
X113056495Y-98928401D01*
X113056495Y-98928401D02*
X113008876Y-99023640D01*
X113008876Y-99023640D02*
X112913638Y-99071259D01*
X112913638Y-99071259D02*
X112818400Y-99071259D01*
X112627923Y-98404592D02*
X112246971Y-98404592D01*
X112485066Y-98071259D02*
X112485066Y-98928401D01*
X112485066Y-98928401D02*
X112437447Y-99023640D01*
X112437447Y-99023640D02*
X112342209Y-99071259D01*
X112342209Y-99071259D02*
X112246971Y-99071259D01*
X111770780Y-99071259D02*
X111866018Y-99023640D01*
X111866018Y-99023640D02*
X111913637Y-98976020D01*
X111913637Y-98976020D02*
X111961256Y-98880782D01*
X111961256Y-98880782D02*
X111961256Y-98595068D01*
X111961256Y-98595068D02*
X111913637Y-98499830D01*
X111913637Y-98499830D02*
X111866018Y-98452211D01*
X111866018Y-98452211D02*
X111770780Y-98404592D01*
X111770780Y-98404592D02*
X111627923Y-98404592D01*
X111627923Y-98404592D02*
X111532685Y-98452211D01*
X111532685Y-98452211D02*
X111485066Y-98499830D01*
X111485066Y-98499830D02*
X111437447Y-98595068D01*
X111437447Y-98595068D02*
X111437447Y-98880782D01*
X111437447Y-98880782D02*
X111485066Y-98976020D01*
X111485066Y-98976020D02*
X111532685Y-99023640D01*
X111532685Y-99023640D02*
X111627923Y-99071259D01*
X111627923Y-99071259D02*
X111770780Y-99071259D01*
X111008875Y-98404592D02*
X111008875Y-99071259D01*
X111008875Y-98499830D02*
X110961256Y-98452211D01*
X110961256Y-98452211D02*
X110866018Y-98404592D01*
X110866018Y-98404592D02*
X110723161Y-98404592D01*
X110723161Y-98404592D02*
X110627923Y-98452211D01*
X110627923Y-98452211D02*
X110580304Y-98547449D01*
X110580304Y-98547449D02*
X110580304Y-99071259D01*
X110151732Y-99023640D02*
X110056494Y-99071259D01*
X110056494Y-99071259D02*
X109866018Y-99071259D01*
X109866018Y-99071259D02*
X109770780Y-99023640D01*
X109770780Y-99023640D02*
X109723161Y-98928401D01*
X109723161Y-98928401D02*
X109723161Y-98880782D01*
X109723161Y-98880782D02*
X109770780Y-98785544D01*
X109770780Y-98785544D02*
X109866018Y-98737925D01*
X109866018Y-98737925D02*
X110008875Y-98737925D01*
X110008875Y-98737925D02*
X110104113Y-98690306D01*
X110104113Y-98690306D02*
X110151732Y-98595068D01*
X110151732Y-98595068D02*
X110151732Y-98547449D01*
X110151732Y-98547449D02*
X110104113Y-98452211D01*
X110104113Y-98452211D02*
X110008875Y-98404592D01*
X110008875Y-98404592D02*
X109866018Y-98404592D01*
X109866018Y-98404592D02*
X109770780Y-98452211D01*
X109151732Y-98071259D02*
X109151732Y-98309354D01*
X109389827Y-98214116D02*
X109151732Y-98309354D01*
X109151732Y-98309354D02*
X108913637Y-98214116D01*
X109294589Y-98499830D02*
X109151732Y-98309354D01*
X109151732Y-98309354D02*
X109008875Y-98499830D01*
X117675544Y-100014536D02*
X117675544Y-100681203D01*
X117913639Y-99633584D02*
X118151734Y-100347869D01*
X118151734Y-100347869D02*
X117532687Y-100347869D01*
X117246972Y-101062155D02*
X117199353Y-101014536D01*
X117199353Y-101014536D02*
X117104115Y-100871679D01*
X117104115Y-100871679D02*
X117056496Y-100776441D01*
X117056496Y-100776441D02*
X117008877Y-100633584D01*
X117008877Y-100633584D02*
X116961258Y-100395488D01*
X116961258Y-100395488D02*
X116961258Y-100205012D01*
X116961258Y-100205012D02*
X117008877Y-99966917D01*
X117008877Y-99966917D02*
X117056496Y-99824060D01*
X117056496Y-99824060D02*
X117104115Y-99728822D01*
X117104115Y-99728822D02*
X117199353Y-99585964D01*
X117199353Y-99585964D02*
X117246972Y-99538345D01*
X114389829Y-100681203D02*
X114723162Y-100205012D01*
X114961257Y-100681203D02*
X114961257Y-99681203D01*
X114961257Y-99681203D02*
X114580305Y-99681203D01*
X114580305Y-99681203D02*
X114485067Y-99728822D01*
X114485067Y-99728822D02*
X114437448Y-99776441D01*
X114437448Y-99776441D02*
X114389829Y-99871679D01*
X114389829Y-99871679D02*
X114389829Y-100014536D01*
X114389829Y-100014536D02*
X114437448Y-100109774D01*
X114437448Y-100109774D02*
X114485067Y-100157393D01*
X114485067Y-100157393D02*
X114580305Y-100205012D01*
X114580305Y-100205012D02*
X114961257Y-100205012D01*
X113627924Y-100157393D02*
X113961257Y-100157393D01*
X113961257Y-100681203D02*
X113961257Y-99681203D01*
X113961257Y-99681203D02*
X113485067Y-99681203D01*
X113104114Y-100681203D02*
X113104114Y-99681203D01*
X112627924Y-100681203D02*
X112627924Y-99681203D01*
X112627924Y-99681203D02*
X112389829Y-99681203D01*
X112389829Y-99681203D02*
X112246972Y-99728822D01*
X112246972Y-99728822D02*
X112151734Y-99824060D01*
X112151734Y-99824060D02*
X112104115Y-99919298D01*
X112104115Y-99919298D02*
X112056496Y-100109774D01*
X112056496Y-100109774D02*
X112056496Y-100252631D01*
X112056496Y-100252631D02*
X112104115Y-100443107D01*
X112104115Y-100443107D02*
X112151734Y-100538345D01*
X112151734Y-100538345D02*
X112246972Y-100633584D01*
X112246972Y-100633584D02*
X112389829Y-100681203D01*
X112389829Y-100681203D02*
X112627924Y-100681203D01*
X117627925Y-101291147D02*
X118104115Y-101291147D01*
X118104115Y-101291147D02*
X118151734Y-101767337D01*
X118151734Y-101767337D02*
X118104115Y-101719718D01*
X118104115Y-101719718D02*
X118008877Y-101672099D01*
X118008877Y-101672099D02*
X117770782Y-101672099D01*
X117770782Y-101672099D02*
X117675544Y-101719718D01*
X117675544Y-101719718D02*
X117627925Y-101767337D01*
X117627925Y-101767337D02*
X117580306Y-101862575D01*
X117580306Y-101862575D02*
X117580306Y-102100670D01*
X117580306Y-102100670D02*
X117627925Y-102195908D01*
X117627925Y-102195908D02*
X117675544Y-102243528D01*
X117675544Y-102243528D02*
X117770782Y-102291147D01*
X117770782Y-102291147D02*
X118008877Y-102291147D01*
X118008877Y-102291147D02*
X118104115Y-102243528D01*
X118104115Y-102243528D02*
X118151734Y-102195908D01*
X117246972Y-102672099D02*
X117199353Y-102624480D01*
X117199353Y-102624480D02*
X117104115Y-102481623D01*
X117104115Y-102481623D02*
X117056496Y-102386385D01*
X117056496Y-102386385D02*
X117008877Y-102243528D01*
X117008877Y-102243528D02*
X116961258Y-102005432D01*
X116961258Y-102005432D02*
X116961258Y-101814956D01*
X116961258Y-101814956D02*
X117008877Y-101576861D01*
X117008877Y-101576861D02*
X117056496Y-101434004D01*
X117056496Y-101434004D02*
X117104115Y-101338766D01*
X117104115Y-101338766D02*
X117199353Y-101195908D01*
X117199353Y-101195908D02*
X117246972Y-101148289D01*
X114961257Y-102291147D02*
X114961257Y-101291147D01*
X114961257Y-101291147D02*
X114627924Y-102005432D01*
X114627924Y-102005432D02*
X114294591Y-101291147D01*
X114294591Y-101291147D02*
X114294591Y-102291147D01*
X113818400Y-102291147D02*
X113818400Y-101624480D01*
X113818400Y-101291147D02*
X113866019Y-101338766D01*
X113866019Y-101338766D02*
X113818400Y-101386385D01*
X113818400Y-101386385D02*
X113770781Y-101338766D01*
X113770781Y-101338766D02*
X113818400Y-101291147D01*
X113818400Y-101291147D02*
X113818400Y-101386385D01*
X112913639Y-102243528D02*
X113008877Y-102291147D01*
X113008877Y-102291147D02*
X113199353Y-102291147D01*
X113199353Y-102291147D02*
X113294591Y-102243528D01*
X113294591Y-102243528D02*
X113342210Y-102195908D01*
X113342210Y-102195908D02*
X113389829Y-102100670D01*
X113389829Y-102100670D02*
X113389829Y-101814956D01*
X113389829Y-101814956D02*
X113342210Y-101719718D01*
X113342210Y-101719718D02*
X113294591Y-101672099D01*
X113294591Y-101672099D02*
X113199353Y-101624480D01*
X113199353Y-101624480D02*
X113008877Y-101624480D01*
X113008877Y-101624480D02*
X112913639Y-101672099D01*
X112485067Y-102291147D02*
X112485067Y-101624480D01*
X112485067Y-101814956D02*
X112437448Y-101719718D01*
X112437448Y-101719718D02*
X112389829Y-101672099D01*
X112389829Y-101672099D02*
X112294591Y-101624480D01*
X112294591Y-101624480D02*
X112199353Y-101624480D01*
X111723162Y-102291147D02*
X111818400Y-102243528D01*
X111818400Y-102243528D02*
X111866019Y-102195908D01*
X111866019Y-102195908D02*
X111913638Y-102100670D01*
X111913638Y-102100670D02*
X111913638Y-101814956D01*
X111913638Y-101814956D02*
X111866019Y-101719718D01*
X111866019Y-101719718D02*
X111818400Y-101672099D01*
X111818400Y-101672099D02*
X111723162Y-101624480D01*
X111723162Y-101624480D02*
X111580305Y-101624480D01*
X111580305Y-101624480D02*
X111485067Y-101672099D01*
X111485067Y-101672099D02*
X111437448Y-101719718D01*
X111437448Y-101719718D02*
X111389829Y-101814956D01*
X111389829Y-101814956D02*
X111389829Y-102100670D01*
X111389829Y-102100670D02*
X111437448Y-102195908D01*
X111437448Y-102195908D02*
X111485067Y-102243528D01*
X111485067Y-102243528D02*
X111580305Y-102291147D01*
X111580305Y-102291147D02*
X111723162Y-102291147D01*
X110246971Y-102243528D02*
X110104114Y-102291147D01*
X110104114Y-102291147D02*
X109866019Y-102291147D01*
X109866019Y-102291147D02*
X109770781Y-102243528D01*
X109770781Y-102243528D02*
X109723162Y-102195908D01*
X109723162Y-102195908D02*
X109675543Y-102100670D01*
X109675543Y-102100670D02*
X109675543Y-102005432D01*
X109675543Y-102005432D02*
X109723162Y-101910194D01*
X109723162Y-101910194D02*
X109770781Y-101862575D01*
X109770781Y-101862575D02*
X109866019Y-101814956D01*
X109866019Y-101814956D02*
X110056495Y-101767337D01*
X110056495Y-101767337D02*
X110151733Y-101719718D01*
X110151733Y-101719718D02*
X110199352Y-101672099D01*
X110199352Y-101672099D02*
X110246971Y-101576861D01*
X110246971Y-101576861D02*
X110246971Y-101481623D01*
X110246971Y-101481623D02*
X110199352Y-101386385D01*
X110199352Y-101386385D02*
X110151733Y-101338766D01*
X110151733Y-101338766D02*
X110056495Y-101291147D01*
X110056495Y-101291147D02*
X109818400Y-101291147D01*
X109818400Y-101291147D02*
X109675543Y-101338766D01*
X109246971Y-102291147D02*
X109246971Y-101291147D01*
X109246971Y-101291147D02*
X109008876Y-101291147D01*
X109008876Y-101291147D02*
X108866019Y-101338766D01*
X108866019Y-101338766D02*
X108770781Y-101434004D01*
X108770781Y-101434004D02*
X108723162Y-101529242D01*
X108723162Y-101529242D02*
X108675543Y-101719718D01*
X108675543Y-101719718D02*
X108675543Y-101862575D01*
X108675543Y-101862575D02*
X108723162Y-102053051D01*
X108723162Y-102053051D02*
X108770781Y-102148289D01*
X108770781Y-102148289D02*
X108866019Y-102243528D01*
X108866019Y-102243528D02*
X109008876Y-102291147D01*
X109008876Y-102291147D02*
X109246971Y-102291147D01*
X107056495Y-102243528D02*
X107151733Y-102291147D01*
X107151733Y-102291147D02*
X107342209Y-102291147D01*
X107342209Y-102291147D02*
X107437447Y-102243528D01*
X107437447Y-102243528D02*
X107485066Y-102195908D01*
X107485066Y-102195908D02*
X107532685Y-102100670D01*
X107532685Y-102100670D02*
X107532685Y-101814956D01*
X107532685Y-101814956D02*
X107485066Y-101719718D01*
X107485066Y-101719718D02*
X107437447Y-101672099D01*
X107437447Y-101672099D02*
X107342209Y-101624480D01*
X107342209Y-101624480D02*
X107151733Y-101624480D01*
X107151733Y-101624480D02*
X107056495Y-101672099D01*
X106199352Y-102291147D02*
X106199352Y-101767337D01*
X106199352Y-101767337D02*
X106246971Y-101672099D01*
X106246971Y-101672099D02*
X106342209Y-101624480D01*
X106342209Y-101624480D02*
X106532685Y-101624480D01*
X106532685Y-101624480D02*
X106627923Y-101672099D01*
X106199352Y-102243528D02*
X106294590Y-102291147D01*
X106294590Y-102291147D02*
X106532685Y-102291147D01*
X106532685Y-102291147D02*
X106627923Y-102243528D01*
X106627923Y-102243528D02*
X106675542Y-102148289D01*
X106675542Y-102148289D02*
X106675542Y-102053051D01*
X106675542Y-102053051D02*
X106627923Y-101957813D01*
X106627923Y-101957813D02*
X106532685Y-101910194D01*
X106532685Y-101910194D02*
X106294590Y-101910194D01*
X106294590Y-101910194D02*
X106199352Y-101862575D01*
X105723161Y-102291147D02*
X105723161Y-101624480D01*
X105723161Y-101814956D02*
X105675542Y-101719718D01*
X105675542Y-101719718D02*
X105627923Y-101672099D01*
X105627923Y-101672099D02*
X105532685Y-101624480D01*
X105532685Y-101624480D02*
X105437447Y-101624480D01*
X104675542Y-102291147D02*
X104675542Y-101291147D01*
X104675542Y-102243528D02*
X104770780Y-102291147D01*
X104770780Y-102291147D02*
X104961256Y-102291147D01*
X104961256Y-102291147D02*
X105056494Y-102243528D01*
X105056494Y-102243528D02*
X105104113Y-102195908D01*
X105104113Y-102195908D02*
X105151732Y-102100670D01*
X105151732Y-102100670D02*
X105151732Y-101814956D01*
X105151732Y-101814956D02*
X105104113Y-101719718D01*
X105104113Y-101719718D02*
X105056494Y-101672099D01*
X105056494Y-101672099D02*
X104961256Y-101624480D01*
X104961256Y-101624480D02*
X104770780Y-101624480D01*
X104770780Y-101624480D02*
X104675542Y-101672099D01*
X103437446Y-102291147D02*
X103437446Y-101624480D01*
X103437446Y-101814956D02*
X103389827Y-101719718D01*
X103389827Y-101719718D02*
X103342208Y-101672099D01*
X103342208Y-101672099D02*
X103246970Y-101624480D01*
X103246970Y-101624480D02*
X103151732Y-101624480D01*
X102437446Y-102243528D02*
X102532684Y-102291147D01*
X102532684Y-102291147D02*
X102723160Y-102291147D01*
X102723160Y-102291147D02*
X102818398Y-102243528D01*
X102818398Y-102243528D02*
X102866017Y-102148289D01*
X102866017Y-102148289D02*
X102866017Y-101767337D01*
X102866017Y-101767337D02*
X102818398Y-101672099D01*
X102818398Y-101672099D02*
X102723160Y-101624480D01*
X102723160Y-101624480D02*
X102532684Y-101624480D01*
X102532684Y-101624480D02*
X102437446Y-101672099D01*
X102437446Y-101672099D02*
X102389827Y-101767337D01*
X102389827Y-101767337D02*
X102389827Y-101862575D01*
X102389827Y-101862575D02*
X102866017Y-101957813D01*
X101532684Y-102291147D02*
X101532684Y-101767337D01*
X101532684Y-101767337D02*
X101580303Y-101672099D01*
X101580303Y-101672099D02*
X101675541Y-101624480D01*
X101675541Y-101624480D02*
X101866017Y-101624480D01*
X101866017Y-101624480D02*
X101961255Y-101672099D01*
X101532684Y-102243528D02*
X101627922Y-102291147D01*
X101627922Y-102291147D02*
X101866017Y-102291147D01*
X101866017Y-102291147D02*
X101961255Y-102243528D01*
X101961255Y-102243528D02*
X102008874Y-102148289D01*
X102008874Y-102148289D02*
X102008874Y-102053051D01*
X102008874Y-102053051D02*
X101961255Y-101957813D01*
X101961255Y-101957813D02*
X101866017Y-101910194D01*
X101866017Y-101910194D02*
X101627922Y-101910194D01*
X101627922Y-101910194D02*
X101532684Y-101862575D01*
X100627922Y-102291147D02*
X100627922Y-101291147D01*
X100627922Y-102243528D02*
X100723160Y-102291147D01*
X100723160Y-102291147D02*
X100913636Y-102291147D01*
X100913636Y-102291147D02*
X101008874Y-102243528D01*
X101008874Y-102243528D02*
X101056493Y-102195908D01*
X101056493Y-102195908D02*
X101104112Y-102100670D01*
X101104112Y-102100670D02*
X101104112Y-101814956D01*
X101104112Y-101814956D02*
X101056493Y-101719718D01*
X101056493Y-101719718D02*
X101008874Y-101672099D01*
X101008874Y-101672099D02*
X100913636Y-101624480D01*
X100913636Y-101624480D02*
X100723160Y-101624480D01*
X100723160Y-101624480D02*
X100627922Y-101672099D01*
X99770779Y-102243528D02*
X99866017Y-102291147D01*
X99866017Y-102291147D02*
X100056493Y-102291147D01*
X100056493Y-102291147D02*
X100151731Y-102243528D01*
X100151731Y-102243528D02*
X100199350Y-102148289D01*
X100199350Y-102148289D02*
X100199350Y-101767337D01*
X100199350Y-101767337D02*
X100151731Y-101672099D01*
X100151731Y-101672099D02*
X100056493Y-101624480D01*
X100056493Y-101624480D02*
X99866017Y-101624480D01*
X99866017Y-101624480D02*
X99770779Y-101672099D01*
X99770779Y-101672099D02*
X99723160Y-101767337D01*
X99723160Y-101767337D02*
X99723160Y-101862575D01*
X99723160Y-101862575D02*
X100199350Y-101957813D01*
X99294588Y-102291147D02*
X99294588Y-101624480D01*
X99294588Y-101814956D02*
X99246969Y-101719718D01*
X99246969Y-101719718D02*
X99199350Y-101672099D01*
X99199350Y-101672099D02*
X99104112Y-101624480D01*
X99104112Y-101624480D02*
X99008874Y-101624480D01*
X117675544Y-102901091D02*
X117866020Y-102901091D01*
X117866020Y-102901091D02*
X117961258Y-102948710D01*
X117961258Y-102948710D02*
X118008877Y-102996329D01*
X118008877Y-102996329D02*
X118104115Y-103139186D01*
X118104115Y-103139186D02*
X118151734Y-103329662D01*
X118151734Y-103329662D02*
X118151734Y-103710614D01*
X118151734Y-103710614D02*
X118104115Y-103805852D01*
X118104115Y-103805852D02*
X118056496Y-103853472D01*
X118056496Y-103853472D02*
X117961258Y-103901091D01*
X117961258Y-103901091D02*
X117770782Y-103901091D01*
X117770782Y-103901091D02*
X117675544Y-103853472D01*
X117675544Y-103853472D02*
X117627925Y-103805852D01*
X117627925Y-103805852D02*
X117580306Y-103710614D01*
X117580306Y-103710614D02*
X117580306Y-103472519D01*
X117580306Y-103472519D02*
X117627925Y-103377281D01*
X117627925Y-103377281D02*
X117675544Y-103329662D01*
X117675544Y-103329662D02*
X117770782Y-103282043D01*
X117770782Y-103282043D02*
X117961258Y-103282043D01*
X117961258Y-103282043D02*
X118056496Y-103329662D01*
X118056496Y-103329662D02*
X118104115Y-103377281D01*
X118104115Y-103377281D02*
X118151734Y-103472519D01*
X117246972Y-104282043D02*
X117199353Y-104234424D01*
X117199353Y-104234424D02*
X117104115Y-104091567D01*
X117104115Y-104091567D02*
X117056496Y-103996329D01*
X117056496Y-103996329D02*
X117008877Y-103853472D01*
X117008877Y-103853472D02*
X116961258Y-103615376D01*
X116961258Y-103615376D02*
X116961258Y-103424900D01*
X116961258Y-103424900D02*
X117008877Y-103186805D01*
X117008877Y-103186805D02*
X117056496Y-103043948D01*
X117056496Y-103043948D02*
X117104115Y-102948710D01*
X117104115Y-102948710D02*
X117199353Y-102805852D01*
X117199353Y-102805852D02*
X117246972Y-102758233D01*
X114627924Y-103377281D02*
X114485067Y-103424900D01*
X114485067Y-103424900D02*
X114437448Y-103472519D01*
X114437448Y-103472519D02*
X114389829Y-103567757D01*
X114389829Y-103567757D02*
X114389829Y-103710614D01*
X114389829Y-103710614D02*
X114437448Y-103805852D01*
X114437448Y-103805852D02*
X114485067Y-103853472D01*
X114485067Y-103853472D02*
X114580305Y-103901091D01*
X114580305Y-103901091D02*
X114961257Y-103901091D01*
X114961257Y-103901091D02*
X114961257Y-102901091D01*
X114961257Y-102901091D02*
X114627924Y-102901091D01*
X114627924Y-102901091D02*
X114532686Y-102948710D01*
X114532686Y-102948710D02*
X114485067Y-102996329D01*
X114485067Y-102996329D02*
X114437448Y-103091567D01*
X114437448Y-103091567D02*
X114437448Y-103186805D01*
X114437448Y-103186805D02*
X114485067Y-103282043D01*
X114485067Y-103282043D02*
X114532686Y-103329662D01*
X114532686Y-103329662D02*
X114627924Y-103377281D01*
X114627924Y-103377281D02*
X114961257Y-103377281D01*
X113961257Y-103901091D02*
X113961257Y-102901091D01*
X113961257Y-102901091D02*
X113627924Y-103615376D01*
X113627924Y-103615376D02*
X113294591Y-102901091D01*
X113294591Y-102901091D02*
X113294591Y-103901091D01*
X112866019Y-103853472D02*
X112723162Y-103901091D01*
X112723162Y-103901091D02*
X112485067Y-103901091D01*
X112485067Y-103901091D02*
X112389829Y-103853472D01*
X112389829Y-103853472D02*
X112342210Y-103805852D01*
X112342210Y-103805852D02*
X112294591Y-103710614D01*
X112294591Y-103710614D02*
X112294591Y-103615376D01*
X112294591Y-103615376D02*
X112342210Y-103520138D01*
X112342210Y-103520138D02*
X112389829Y-103472519D01*
X112389829Y-103472519D02*
X112485067Y-103424900D01*
X112485067Y-103424900D02*
X112675543Y-103377281D01*
X112675543Y-103377281D02*
X112770781Y-103329662D01*
X112770781Y-103329662D02*
X112818400Y-103282043D01*
X112818400Y-103282043D02*
X112866019Y-103186805D01*
X112866019Y-103186805D02*
X112866019Y-103091567D01*
X112866019Y-103091567D02*
X112818400Y-102996329D01*
X112818400Y-102996329D02*
X112770781Y-102948710D01*
X112770781Y-102948710D02*
X112675543Y-102901091D01*
X112675543Y-102901091D02*
X112437448Y-102901091D01*
X112437448Y-102901091D02*
X112294591Y-102948710D01*
X118199353Y-104511035D02*
X117532687Y-104511035D01*
X117532687Y-104511035D02*
X117961258Y-105511035D01*
X117246972Y-105891987D02*
X117199353Y-105844368D01*
X117199353Y-105844368D02*
X117104115Y-105701511D01*
X117104115Y-105701511D02*
X117056496Y-105606273D01*
X117056496Y-105606273D02*
X117008877Y-105463416D01*
X117008877Y-105463416D02*
X116961258Y-105225320D01*
X116961258Y-105225320D02*
X116961258Y-105034844D01*
X116961258Y-105034844D02*
X117008877Y-104796749D01*
X117008877Y-104796749D02*
X117056496Y-104653892D01*
X117056496Y-104653892D02*
X117104115Y-104558654D01*
X117104115Y-104558654D02*
X117199353Y-104415796D01*
X117199353Y-104415796D02*
X117246972Y-104368177D01*
X114961257Y-105511035D02*
X114961257Y-104511035D01*
X114961257Y-104511035D02*
X114723162Y-104511035D01*
X114723162Y-104511035D02*
X114580305Y-104558654D01*
X114580305Y-104558654D02*
X114485067Y-104653892D01*
X114485067Y-104653892D02*
X114437448Y-104749130D01*
X114437448Y-104749130D02*
X114389829Y-104939606D01*
X114389829Y-104939606D02*
X114389829Y-105082463D01*
X114389829Y-105082463D02*
X114437448Y-105272939D01*
X114437448Y-105272939D02*
X114485067Y-105368177D01*
X114485067Y-105368177D02*
X114580305Y-105463416D01*
X114580305Y-105463416D02*
X114723162Y-105511035D01*
X114723162Y-105511035D02*
X114961257Y-105511035D01*
X113961257Y-105511035D02*
X113961257Y-104844368D01*
X113961257Y-104511035D02*
X114008876Y-104558654D01*
X114008876Y-104558654D02*
X113961257Y-104606273D01*
X113961257Y-104606273D02*
X113913638Y-104558654D01*
X113913638Y-104558654D02*
X113961257Y-104511035D01*
X113961257Y-104511035D02*
X113961257Y-104606273D01*
X113532686Y-105463416D02*
X113437448Y-105511035D01*
X113437448Y-105511035D02*
X113246972Y-105511035D01*
X113246972Y-105511035D02*
X113151734Y-105463416D01*
X113151734Y-105463416D02*
X113104115Y-105368177D01*
X113104115Y-105368177D02*
X113104115Y-105320558D01*
X113104115Y-105320558D02*
X113151734Y-105225320D01*
X113151734Y-105225320D02*
X113246972Y-105177701D01*
X113246972Y-105177701D02*
X113389829Y-105177701D01*
X113389829Y-105177701D02*
X113485067Y-105130082D01*
X113485067Y-105130082D02*
X113532686Y-105034844D01*
X113532686Y-105034844D02*
X113532686Y-104987225D01*
X113532686Y-104987225D02*
X113485067Y-104891987D01*
X113485067Y-104891987D02*
X113389829Y-104844368D01*
X113389829Y-104844368D02*
X113246972Y-104844368D01*
X113246972Y-104844368D02*
X113151734Y-104891987D01*
X112675543Y-104844368D02*
X112675543Y-105844368D01*
X112675543Y-104891987D02*
X112580305Y-104844368D01*
X112580305Y-104844368D02*
X112389829Y-104844368D01*
X112389829Y-104844368D02*
X112294591Y-104891987D01*
X112294591Y-104891987D02*
X112246972Y-104939606D01*
X112246972Y-104939606D02*
X112199353Y-105034844D01*
X112199353Y-105034844D02*
X112199353Y-105320558D01*
X112199353Y-105320558D02*
X112246972Y-105415796D01*
X112246972Y-105415796D02*
X112294591Y-105463416D01*
X112294591Y-105463416D02*
X112389829Y-105511035D01*
X112389829Y-105511035D02*
X112580305Y-105511035D01*
X112580305Y-105511035D02*
X112675543Y-105463416D01*
X111627924Y-105511035D02*
X111723162Y-105463416D01*
X111723162Y-105463416D02*
X111770781Y-105368177D01*
X111770781Y-105368177D02*
X111770781Y-104511035D01*
X110818400Y-105511035D02*
X110818400Y-104987225D01*
X110818400Y-104987225D02*
X110866019Y-104891987D01*
X110866019Y-104891987D02*
X110961257Y-104844368D01*
X110961257Y-104844368D02*
X111151733Y-104844368D01*
X111151733Y-104844368D02*
X111246971Y-104891987D01*
X110818400Y-105463416D02*
X110913638Y-105511035D01*
X110913638Y-105511035D02*
X111151733Y-105511035D01*
X111151733Y-105511035D02*
X111246971Y-105463416D01*
X111246971Y-105463416D02*
X111294590Y-105368177D01*
X111294590Y-105368177D02*
X111294590Y-105272939D01*
X111294590Y-105272939D02*
X111246971Y-105177701D01*
X111246971Y-105177701D02*
X111151733Y-105130082D01*
X111151733Y-105130082D02*
X110913638Y-105130082D01*
X110913638Y-105130082D02*
X110818400Y-105082463D01*
X110437447Y-104844368D02*
X110199352Y-105511035D01*
X109961257Y-104844368D02*
X110199352Y-105511035D01*
X110199352Y-105511035D02*
X110294590Y-105749130D01*
X110294590Y-105749130D02*
X110342209Y-105796749D01*
X110342209Y-105796749D02*
X110437447Y-105844368D01*
X109437447Y-104511035D02*
X109437447Y-104749130D01*
X109675542Y-104653892D02*
X109437447Y-104749130D01*
X109437447Y-104749130D02*
X109199352Y-104653892D01*
X109580304Y-104939606D02*
X109437447Y-104749130D01*
X109437447Y-104749130D02*
X109294590Y-104939606D01*
X108675542Y-104511035D02*
X108675542Y-104749130D01*
X108913637Y-104653892D02*
X108675542Y-104749130D01*
X108675542Y-104749130D02*
X108437447Y-104653892D01*
X108818399Y-104939606D02*
X108675542Y-104749130D01*
X108675542Y-104749130D02*
X108532685Y-104939606D01*
X117961258Y-106549550D02*
X118056496Y-106501931D01*
X118056496Y-106501931D02*
X118104115Y-106454312D01*
X118104115Y-106454312D02*
X118151734Y-106359074D01*
X118151734Y-106359074D02*
X118151734Y-106311455D01*
X118151734Y-106311455D02*
X118104115Y-106216217D01*
X118104115Y-106216217D02*
X118056496Y-106168598D01*
X118056496Y-106168598D02*
X117961258Y-106120979D01*
X117961258Y-106120979D02*
X117770782Y-106120979D01*
X117770782Y-106120979D02*
X117675544Y-106168598D01*
X117675544Y-106168598D02*
X117627925Y-106216217D01*
X117627925Y-106216217D02*
X117580306Y-106311455D01*
X117580306Y-106311455D02*
X117580306Y-106359074D01*
X117580306Y-106359074D02*
X117627925Y-106454312D01*
X117627925Y-106454312D02*
X117675544Y-106501931D01*
X117675544Y-106501931D02*
X117770782Y-106549550D01*
X117770782Y-106549550D02*
X117961258Y-106549550D01*
X117961258Y-106549550D02*
X118056496Y-106597169D01*
X118056496Y-106597169D02*
X118104115Y-106644788D01*
X118104115Y-106644788D02*
X118151734Y-106740026D01*
X118151734Y-106740026D02*
X118151734Y-106930502D01*
X118151734Y-106930502D02*
X118104115Y-107025740D01*
X118104115Y-107025740D02*
X118056496Y-107073360D01*
X118056496Y-107073360D02*
X117961258Y-107120979D01*
X117961258Y-107120979D02*
X117770782Y-107120979D01*
X117770782Y-107120979D02*
X117675544Y-107073360D01*
X117675544Y-107073360D02*
X117627925Y-107025740D01*
X117627925Y-107025740D02*
X117580306Y-106930502D01*
X117580306Y-106930502D02*
X117580306Y-106740026D01*
X117580306Y-106740026D02*
X117627925Y-106644788D01*
X117627925Y-106644788D02*
X117675544Y-106597169D01*
X117675544Y-106597169D02*
X117770782Y-106549550D01*
X117246972Y-107501931D02*
X117199353Y-107454312D01*
X117199353Y-107454312D02*
X117104115Y-107311455D01*
X117104115Y-107311455D02*
X117056496Y-107216217D01*
X117056496Y-107216217D02*
X117008877Y-107073360D01*
X117008877Y-107073360D02*
X116961258Y-106835264D01*
X116961258Y-106835264D02*
X116961258Y-106644788D01*
X116961258Y-106644788D02*
X117008877Y-106406693D01*
X117008877Y-106406693D02*
X117056496Y-106263836D01*
X117056496Y-106263836D02*
X117104115Y-106168598D01*
X117104115Y-106168598D02*
X117199353Y-106025740D01*
X117199353Y-106025740D02*
X117246972Y-105978121D01*
X114961257Y-107120979D02*
X114961257Y-106120979D01*
X113913639Y-107120979D02*
X114246972Y-106644788D01*
X114485067Y-107120979D02*
X114485067Y-106120979D01*
X114485067Y-106120979D02*
X114104115Y-106120979D01*
X114104115Y-106120979D02*
X114008877Y-106168598D01*
X114008877Y-106168598D02*
X113961258Y-106216217D01*
X113961258Y-106216217D02*
X113913639Y-106311455D01*
X113913639Y-106311455D02*
X113913639Y-106454312D01*
X113913639Y-106454312D02*
X113961258Y-106549550D01*
X113961258Y-106549550D02*
X114008877Y-106597169D01*
X114008877Y-106597169D02*
X114104115Y-106644788D01*
X114104115Y-106644788D02*
X114485067Y-106644788D01*
X112770781Y-107073360D02*
X112675543Y-107120979D01*
X112675543Y-107120979D02*
X112485067Y-107120979D01*
X112485067Y-107120979D02*
X112389829Y-107073360D01*
X112389829Y-107073360D02*
X112342210Y-106978121D01*
X112342210Y-106978121D02*
X112342210Y-106930502D01*
X112342210Y-106930502D02*
X112389829Y-106835264D01*
X112389829Y-106835264D02*
X112485067Y-106787645D01*
X112485067Y-106787645D02*
X112627924Y-106787645D01*
X112627924Y-106787645D02*
X112723162Y-106740026D01*
X112723162Y-106740026D02*
X112770781Y-106644788D01*
X112770781Y-106644788D02*
X112770781Y-106597169D01*
X112770781Y-106597169D02*
X112723162Y-106501931D01*
X112723162Y-106501931D02*
X112627924Y-106454312D01*
X112627924Y-106454312D02*
X112485067Y-106454312D01*
X112485067Y-106454312D02*
X112389829Y-106501931D01*
X112056495Y-106454312D02*
X111675543Y-106454312D01*
X111913638Y-106120979D02*
X111913638Y-106978121D01*
X111913638Y-106978121D02*
X111866019Y-107073360D01*
X111866019Y-107073360D02*
X111770781Y-107120979D01*
X111770781Y-107120979D02*
X111675543Y-107120979D01*
X110913638Y-106454312D02*
X110913638Y-107120979D01*
X111342209Y-106454312D02*
X111342209Y-106978121D01*
X111342209Y-106978121D02*
X111294590Y-107073360D01*
X111294590Y-107073360D02*
X111199352Y-107120979D01*
X111199352Y-107120979D02*
X111056495Y-107120979D01*
X111056495Y-107120979D02*
X110961257Y-107073360D01*
X110961257Y-107073360D02*
X110913638Y-107025740D01*
X110580304Y-106454312D02*
X110199352Y-106454312D01*
X110437447Y-107120979D02*
X110437447Y-106263836D01*
X110437447Y-106263836D02*
X110389828Y-106168598D01*
X110389828Y-106168598D02*
X110294590Y-106120979D01*
X110294590Y-106120979D02*
X110199352Y-106120979D01*
X110008875Y-106454312D02*
X109627923Y-106454312D01*
X109866018Y-107120979D02*
X109866018Y-106263836D01*
X109866018Y-106263836D02*
X109818399Y-106168598D01*
X109818399Y-106168598D02*
X109723161Y-106120979D01*
X109723161Y-106120979D02*
X109627923Y-106120979D01*
X118056496Y-108730923D02*
X117866020Y-108730923D01*
X117866020Y-108730923D02*
X117770782Y-108683304D01*
X117770782Y-108683304D02*
X117723163Y-108635684D01*
X117723163Y-108635684D02*
X117627925Y-108492827D01*
X117627925Y-108492827D02*
X117580306Y-108302351D01*
X117580306Y-108302351D02*
X117580306Y-107921399D01*
X117580306Y-107921399D02*
X117627925Y-107826161D01*
X117627925Y-107826161D02*
X117675544Y-107778542D01*
X117675544Y-107778542D02*
X117770782Y-107730923D01*
X117770782Y-107730923D02*
X117961258Y-107730923D01*
X117961258Y-107730923D02*
X118056496Y-107778542D01*
X118056496Y-107778542D02*
X118104115Y-107826161D01*
X118104115Y-107826161D02*
X118151734Y-107921399D01*
X118151734Y-107921399D02*
X118151734Y-108159494D01*
X118151734Y-108159494D02*
X118104115Y-108254732D01*
X118104115Y-108254732D02*
X118056496Y-108302351D01*
X118056496Y-108302351D02*
X117961258Y-108349970D01*
X117961258Y-108349970D02*
X117770782Y-108349970D01*
X117770782Y-108349970D02*
X117675544Y-108302351D01*
X117675544Y-108302351D02*
X117627925Y-108254732D01*
X117627925Y-108254732D02*
X117580306Y-108159494D01*
X117246972Y-109111875D02*
X117199353Y-109064256D01*
X117199353Y-109064256D02*
X117104115Y-108921399D01*
X117104115Y-108921399D02*
X117056496Y-108826161D01*
X117056496Y-108826161D02*
X117008877Y-108683304D01*
X117008877Y-108683304D02*
X116961258Y-108445208D01*
X116961258Y-108445208D02*
X116961258Y-108254732D01*
X116961258Y-108254732D02*
X117008877Y-108016637D01*
X117008877Y-108016637D02*
X117056496Y-107873780D01*
X117056496Y-107873780D02*
X117104115Y-107778542D01*
X117104115Y-107778542D02*
X117199353Y-107635684D01*
X117199353Y-107635684D02*
X117246972Y-107588065D01*
X115008876Y-108445208D02*
X114532686Y-108445208D01*
X115104114Y-108730923D02*
X114770781Y-107730923D01*
X114770781Y-107730923D02*
X114437448Y-108730923D01*
X114104114Y-108730923D02*
X114104114Y-108064256D01*
X114104114Y-108254732D02*
X114056495Y-108159494D01*
X114056495Y-108159494D02*
X114008876Y-108111875D01*
X114008876Y-108111875D02*
X113913638Y-108064256D01*
X113913638Y-108064256D02*
X113818400Y-108064256D01*
X113056495Y-108730923D02*
X113056495Y-107730923D01*
X113056495Y-108683304D02*
X113151733Y-108730923D01*
X113151733Y-108730923D02*
X113342209Y-108730923D01*
X113342209Y-108730923D02*
X113437447Y-108683304D01*
X113437447Y-108683304D02*
X113485066Y-108635684D01*
X113485066Y-108635684D02*
X113532685Y-108540446D01*
X113532685Y-108540446D02*
X113532685Y-108254732D01*
X113532685Y-108254732D02*
X113485066Y-108159494D01*
X113485066Y-108159494D02*
X113437447Y-108111875D01*
X113437447Y-108111875D02*
X113342209Y-108064256D01*
X113342209Y-108064256D02*
X113151733Y-108064256D01*
X113151733Y-108064256D02*
X113056495Y-108111875D01*
X112151733Y-108064256D02*
X112151733Y-108730923D01*
X112580304Y-108064256D02*
X112580304Y-108588065D01*
X112580304Y-108588065D02*
X112532685Y-108683304D01*
X112532685Y-108683304D02*
X112437447Y-108730923D01*
X112437447Y-108730923D02*
X112294590Y-108730923D01*
X112294590Y-108730923D02*
X112199352Y-108683304D01*
X112199352Y-108683304D02*
X112151733Y-108635684D01*
X111675542Y-108730923D02*
X111675542Y-108064256D01*
X111675542Y-107730923D02*
X111723161Y-107778542D01*
X111723161Y-107778542D02*
X111675542Y-107826161D01*
X111675542Y-107826161D02*
X111627923Y-107778542D01*
X111627923Y-107778542D02*
X111675542Y-107730923D01*
X111675542Y-107730923D02*
X111675542Y-107826161D01*
X111199352Y-108064256D02*
X111199352Y-108730923D01*
X111199352Y-108159494D02*
X111151733Y-108111875D01*
X111151733Y-108111875D02*
X111056495Y-108064256D01*
X111056495Y-108064256D02*
X110913638Y-108064256D01*
X110913638Y-108064256D02*
X110818400Y-108111875D01*
X110818400Y-108111875D02*
X110770781Y-108207113D01*
X110770781Y-108207113D02*
X110770781Y-108730923D01*
X110151733Y-108730923D02*
X110246971Y-108683304D01*
X110246971Y-108683304D02*
X110294590Y-108635684D01*
X110294590Y-108635684D02*
X110342209Y-108540446D01*
X110342209Y-108540446D02*
X110342209Y-108254732D01*
X110342209Y-108254732D02*
X110294590Y-108159494D01*
X110294590Y-108159494D02*
X110246971Y-108111875D01*
X110246971Y-108111875D02*
X110151733Y-108064256D01*
X110151733Y-108064256D02*
X110008876Y-108064256D01*
X110008876Y-108064256D02*
X109913638Y-108111875D01*
X109913638Y-108111875D02*
X109866019Y-108159494D01*
X109866019Y-108159494D02*
X109818400Y-108254732D01*
X109818400Y-108254732D02*
X109818400Y-108540446D01*
X109818400Y-108540446D02*
X109866019Y-108635684D01*
X109866019Y-108635684D02*
X109913638Y-108683304D01*
X109913638Y-108683304D02*
X110008876Y-108730923D01*
X110008876Y-108730923D02*
X110151733Y-108730923D01*
X117580306Y-110340867D02*
X118151734Y-110340867D01*
X117866020Y-110340867D02*
X117866020Y-109340867D01*
X117866020Y-109340867D02*
X117961258Y-109483724D01*
X117961258Y-109483724D02*
X118056496Y-109578962D01*
X118056496Y-109578962D02*
X118151734Y-109626581D01*
X116961258Y-109340867D02*
X116866020Y-109340867D01*
X116866020Y-109340867D02*
X116770782Y-109388486D01*
X116770782Y-109388486D02*
X116723163Y-109436105D01*
X116723163Y-109436105D02*
X116675544Y-109531343D01*
X116675544Y-109531343D02*
X116627925Y-109721819D01*
X116627925Y-109721819D02*
X116627925Y-109959914D01*
X116627925Y-109959914D02*
X116675544Y-110150390D01*
X116675544Y-110150390D02*
X116723163Y-110245628D01*
X116723163Y-110245628D02*
X116770782Y-110293248D01*
X116770782Y-110293248D02*
X116866020Y-110340867D01*
X116866020Y-110340867D02*
X116961258Y-110340867D01*
X116961258Y-110340867D02*
X117056496Y-110293248D01*
X117056496Y-110293248D02*
X117104115Y-110245628D01*
X117104115Y-110245628D02*
X117151734Y-110150390D01*
X117151734Y-110150390D02*
X117199353Y-109959914D01*
X117199353Y-109959914D02*
X117199353Y-109721819D01*
X117199353Y-109721819D02*
X117151734Y-109531343D01*
X117151734Y-109531343D02*
X117104115Y-109436105D01*
X117104115Y-109436105D02*
X117056496Y-109388486D01*
X117056496Y-109388486D02*
X116961258Y-109340867D01*
X116294591Y-110721819D02*
X116246972Y-110674200D01*
X116246972Y-110674200D02*
X116151734Y-110531343D01*
X116151734Y-110531343D02*
X116104115Y-110436105D01*
X116104115Y-110436105D02*
X116056496Y-110293248D01*
X116056496Y-110293248D02*
X116008877Y-110055152D01*
X116008877Y-110055152D02*
X116008877Y-109864676D01*
X116008877Y-109864676D02*
X116056496Y-109626581D01*
X116056496Y-109626581D02*
X116104115Y-109483724D01*
X116104115Y-109483724D02*
X116151734Y-109388486D01*
X116151734Y-109388486D02*
X116246972Y-109245628D01*
X116246972Y-109245628D02*
X116294591Y-109198009D01*
X114437448Y-109817057D02*
X114294591Y-109864676D01*
X114294591Y-109864676D02*
X114246972Y-109912295D01*
X114246972Y-109912295D02*
X114199353Y-110007533D01*
X114199353Y-110007533D02*
X114199353Y-110150390D01*
X114199353Y-110150390D02*
X114246972Y-110245628D01*
X114246972Y-110245628D02*
X114294591Y-110293248D01*
X114294591Y-110293248D02*
X114389829Y-110340867D01*
X114389829Y-110340867D02*
X114770781Y-110340867D01*
X114770781Y-110340867D02*
X114770781Y-109340867D01*
X114770781Y-109340867D02*
X114437448Y-109340867D01*
X114437448Y-109340867D02*
X114342210Y-109388486D01*
X114342210Y-109388486D02*
X114294591Y-109436105D01*
X114294591Y-109436105D02*
X114246972Y-109531343D01*
X114246972Y-109531343D02*
X114246972Y-109626581D01*
X114246972Y-109626581D02*
X114294591Y-109721819D01*
X114294591Y-109721819D02*
X114342210Y-109769438D01*
X114342210Y-109769438D02*
X114437448Y-109817057D01*
X114437448Y-109817057D02*
X114770781Y-109817057D01*
X113342210Y-110340867D02*
X113342210Y-109817057D01*
X113342210Y-109817057D02*
X113389829Y-109721819D01*
X113389829Y-109721819D02*
X113485067Y-109674200D01*
X113485067Y-109674200D02*
X113675543Y-109674200D01*
X113675543Y-109674200D02*
X113770781Y-109721819D01*
X113342210Y-110293248D02*
X113437448Y-110340867D01*
X113437448Y-110340867D02*
X113675543Y-110340867D01*
X113675543Y-110340867D02*
X113770781Y-110293248D01*
X113770781Y-110293248D02*
X113818400Y-110198009D01*
X113818400Y-110198009D02*
X113818400Y-110102771D01*
X113818400Y-110102771D02*
X113770781Y-110007533D01*
X113770781Y-110007533D02*
X113675543Y-109959914D01*
X113675543Y-109959914D02*
X113437448Y-109959914D01*
X113437448Y-109959914D02*
X113342210Y-109912295D01*
X113008876Y-109674200D02*
X112627924Y-109674200D01*
X112866019Y-109340867D02*
X112866019Y-110198009D01*
X112866019Y-110198009D02*
X112818400Y-110293248D01*
X112818400Y-110293248D02*
X112723162Y-110340867D01*
X112723162Y-110340867D02*
X112627924Y-110340867D01*
X112437447Y-109674200D02*
X112056495Y-109674200D01*
X112294590Y-109340867D02*
X112294590Y-110198009D01*
X112294590Y-110198009D02*
X112246971Y-110293248D01*
X112246971Y-110293248D02*
X112151733Y-110340867D01*
X112151733Y-110340867D02*
X112056495Y-110340867D01*
X111342209Y-110293248D02*
X111437447Y-110340867D01*
X111437447Y-110340867D02*
X111627923Y-110340867D01*
X111627923Y-110340867D02*
X111723161Y-110293248D01*
X111723161Y-110293248D02*
X111770780Y-110198009D01*
X111770780Y-110198009D02*
X111770780Y-109817057D01*
X111770780Y-109817057D02*
X111723161Y-109721819D01*
X111723161Y-109721819D02*
X111627923Y-109674200D01*
X111627923Y-109674200D02*
X111437447Y-109674200D01*
X111437447Y-109674200D02*
X111342209Y-109721819D01*
X111342209Y-109721819D02*
X111294590Y-109817057D01*
X111294590Y-109817057D02*
X111294590Y-109912295D01*
X111294590Y-109912295D02*
X111770780Y-110007533D01*
X110866018Y-110340867D02*
X110866018Y-109674200D01*
X110866018Y-109864676D02*
X110818399Y-109769438D01*
X110818399Y-109769438D02*
X110770780Y-109721819D01*
X110770780Y-109721819D02*
X110675542Y-109674200D01*
X110675542Y-109674200D02*
X110580304Y-109674200D01*
X110342208Y-109674200D02*
X110104113Y-110340867D01*
X109866018Y-109674200D02*
X110104113Y-110340867D01*
X110104113Y-110340867D02*
X110199351Y-110578962D01*
X110199351Y-110578962D02*
X110246970Y-110626581D01*
X110246970Y-110626581D02*
X110342208Y-110674200D01*
X108723160Y-110340867D02*
X108723160Y-109340867D01*
X108294589Y-110340867D02*
X108294589Y-109817057D01*
X108294589Y-109817057D02*
X108342208Y-109721819D01*
X108342208Y-109721819D02*
X108437446Y-109674200D01*
X108437446Y-109674200D02*
X108580303Y-109674200D01*
X108580303Y-109674200D02*
X108675541Y-109721819D01*
X108675541Y-109721819D02*
X108723160Y-109769438D01*
X107675541Y-110340867D02*
X107770779Y-110293248D01*
X107770779Y-110293248D02*
X107818398Y-110245628D01*
X107818398Y-110245628D02*
X107866017Y-110150390D01*
X107866017Y-110150390D02*
X107866017Y-109864676D01*
X107866017Y-109864676D02*
X107818398Y-109769438D01*
X107818398Y-109769438D02*
X107770779Y-109721819D01*
X107770779Y-109721819D02*
X107675541Y-109674200D01*
X107675541Y-109674200D02*
X107532684Y-109674200D01*
X107532684Y-109674200D02*
X107437446Y-109721819D01*
X107437446Y-109721819D02*
X107389827Y-109769438D01*
X107389827Y-109769438D02*
X107342208Y-109864676D01*
X107342208Y-109864676D02*
X107342208Y-110150390D01*
X107342208Y-110150390D02*
X107389827Y-110245628D01*
X107389827Y-110245628D02*
X107437446Y-110293248D01*
X107437446Y-110293248D02*
X107532684Y-110340867D01*
X107532684Y-110340867D02*
X107675541Y-110340867D01*
X106770779Y-110340867D02*
X106866017Y-110293248D01*
X106866017Y-110293248D02*
X106913636Y-110198009D01*
X106913636Y-110198009D02*
X106913636Y-109340867D01*
X105961255Y-110340867D02*
X105961255Y-109340867D01*
X105961255Y-110293248D02*
X106056493Y-110340867D01*
X106056493Y-110340867D02*
X106246969Y-110340867D01*
X106246969Y-110340867D02*
X106342207Y-110293248D01*
X106342207Y-110293248D02*
X106389826Y-110245628D01*
X106389826Y-110245628D02*
X106437445Y-110150390D01*
X106437445Y-110150390D02*
X106437445Y-109864676D01*
X106437445Y-109864676D02*
X106389826Y-109769438D01*
X106389826Y-109769438D02*
X106342207Y-109721819D01*
X106342207Y-109721819D02*
X106246969Y-109674200D01*
X106246969Y-109674200D02*
X106056493Y-109674200D01*
X106056493Y-109674200D02*
X105961255Y-109721819D01*
X105104112Y-110293248D02*
X105199350Y-110340867D01*
X105199350Y-110340867D02*
X105389826Y-110340867D01*
X105389826Y-110340867D02*
X105485064Y-110293248D01*
X105485064Y-110293248D02*
X105532683Y-110198009D01*
X105532683Y-110198009D02*
X105532683Y-109817057D01*
X105532683Y-109817057D02*
X105485064Y-109721819D01*
X105485064Y-109721819D02*
X105389826Y-109674200D01*
X105389826Y-109674200D02*
X105199350Y-109674200D01*
X105199350Y-109674200D02*
X105104112Y-109721819D01*
X105104112Y-109721819D02*
X105056493Y-109817057D01*
X105056493Y-109817057D02*
X105056493Y-109912295D01*
X105056493Y-109912295D02*
X105532683Y-110007533D01*
X104627921Y-110340867D02*
X104627921Y-109674200D01*
X104627921Y-109864676D02*
X104580302Y-109769438D01*
X104580302Y-109769438D02*
X104532683Y-109721819D01*
X104532683Y-109721819D02*
X104437445Y-109674200D01*
X104437445Y-109674200D02*
X104342207Y-109674200D01*
X118104115Y-113560755D02*
X118104115Y-112560755D01*
X117627925Y-113560755D02*
X117627925Y-112894088D01*
X117627925Y-112989326D02*
X117580306Y-112941707D01*
X117580306Y-112941707D02*
X117485068Y-112894088D01*
X117485068Y-112894088D02*
X117342211Y-112894088D01*
X117342211Y-112894088D02*
X117246973Y-112941707D01*
X117246973Y-112941707D02*
X117199354Y-113036945D01*
X117199354Y-113036945D02*
X117199354Y-113560755D01*
X117199354Y-113036945D02*
X117151735Y-112941707D01*
X117151735Y-112941707D02*
X117056497Y-112894088D01*
X117056497Y-112894088D02*
X116913640Y-112894088D01*
X116913640Y-112894088D02*
X116818401Y-112941707D01*
X116818401Y-112941707D02*
X116770782Y-113036945D01*
X116770782Y-113036945D02*
X116770782Y-113560755D01*
X116294592Y-112894088D02*
X116294592Y-113894088D01*
X116294592Y-112941707D02*
X116199354Y-112894088D01*
X116199354Y-112894088D02*
X116008878Y-112894088D01*
X116008878Y-112894088D02*
X115913640Y-112941707D01*
X115913640Y-112941707D02*
X115866021Y-112989326D01*
X115866021Y-112989326D02*
X115818402Y-113084564D01*
X115818402Y-113084564D02*
X115818402Y-113370278D01*
X115818402Y-113370278D02*
X115866021Y-113465516D01*
X115866021Y-113465516D02*
X115913640Y-113513136D01*
X115913640Y-113513136D02*
X116008878Y-113560755D01*
X116008878Y-113560755D02*
X116199354Y-113560755D01*
X116199354Y-113560755D02*
X116294592Y-113513136D01*
X115246973Y-113560755D02*
X115342211Y-113513136D01*
X115342211Y-113513136D02*
X115389830Y-113465516D01*
X115389830Y-113465516D02*
X115437449Y-113370278D01*
X115437449Y-113370278D02*
X115437449Y-113084564D01*
X115437449Y-113084564D02*
X115389830Y-112989326D01*
X115389830Y-112989326D02*
X115342211Y-112941707D01*
X115342211Y-112941707D02*
X115246973Y-112894088D01*
X115246973Y-112894088D02*
X115104116Y-112894088D01*
X115104116Y-112894088D02*
X115008878Y-112941707D01*
X115008878Y-112941707D02*
X114961259Y-112989326D01*
X114961259Y-112989326D02*
X114913640Y-113084564D01*
X114913640Y-113084564D02*
X114913640Y-113370278D01*
X114913640Y-113370278D02*
X114961259Y-113465516D01*
X114961259Y-113465516D02*
X115008878Y-113513136D01*
X115008878Y-113513136D02*
X115104116Y-113560755D01*
X115104116Y-113560755D02*
X115246973Y-113560755D01*
X114485068Y-113560755D02*
X114485068Y-112894088D01*
X114485068Y-113084564D02*
X114437449Y-112989326D01*
X114437449Y-112989326D02*
X114389830Y-112941707D01*
X114389830Y-112941707D02*
X114294592Y-112894088D01*
X114294592Y-112894088D02*
X114199354Y-112894088D01*
X114008877Y-112894088D02*
X113627925Y-112894088D01*
X113866020Y-112560755D02*
X113866020Y-113417897D01*
X113866020Y-113417897D02*
X113818401Y-113513136D01*
X113818401Y-113513136D02*
X113723163Y-113560755D01*
X113723163Y-113560755D02*
X113627925Y-113560755D01*
X112866020Y-113560755D02*
X112866020Y-113036945D01*
X112866020Y-113036945D02*
X112913639Y-112941707D01*
X112913639Y-112941707D02*
X113008877Y-112894088D01*
X113008877Y-112894088D02*
X113199353Y-112894088D01*
X113199353Y-112894088D02*
X113294591Y-112941707D01*
X112866020Y-113513136D02*
X112961258Y-113560755D01*
X112961258Y-113560755D02*
X113199353Y-113560755D01*
X113199353Y-113560755D02*
X113294591Y-113513136D01*
X113294591Y-113513136D02*
X113342210Y-113417897D01*
X113342210Y-113417897D02*
X113342210Y-113322659D01*
X113342210Y-113322659D02*
X113294591Y-113227421D01*
X113294591Y-113227421D02*
X113199353Y-113179802D01*
X113199353Y-113179802D02*
X112961258Y-113179802D01*
X112961258Y-113179802D02*
X112866020Y-113132183D01*
X112389829Y-112894088D02*
X112389829Y-113560755D01*
X112389829Y-112989326D02*
X112342210Y-112941707D01*
X112342210Y-112941707D02*
X112246972Y-112894088D01*
X112246972Y-112894088D02*
X112104115Y-112894088D01*
X112104115Y-112894088D02*
X112008877Y-112941707D01*
X112008877Y-112941707D02*
X111961258Y-113036945D01*
X111961258Y-113036945D02*
X111961258Y-113560755D01*
X111627924Y-112894088D02*
X111246972Y-112894088D01*
X111485067Y-112560755D02*
X111485067Y-113417897D01*
X111485067Y-113417897D02*
X111437448Y-113513136D01*
X111437448Y-113513136D02*
X111342210Y-113560755D01*
X111342210Y-113560755D02*
X111246972Y-113560755D01*
X110913638Y-113465516D02*
X110866019Y-113513136D01*
X110866019Y-113513136D02*
X110913638Y-113560755D01*
X110913638Y-113560755D02*
X110961257Y-113513136D01*
X110961257Y-113513136D02*
X110913638Y-113465516D01*
X110913638Y-113465516D02*
X110913638Y-113560755D01*
X110913638Y-113179802D02*
X110961257Y-112608374D01*
X110961257Y-112608374D02*
X110913638Y-112560755D01*
X110913638Y-112560755D02*
X110866019Y-112608374D01*
X110866019Y-112608374D02*
X110913638Y-113179802D01*
X110913638Y-113179802D02*
X110913638Y-112560755D01*
X117961258Y-114170699D02*
X117961258Y-114408794D01*
X118199353Y-114313556D02*
X117961258Y-114408794D01*
X117961258Y-114408794D02*
X117723163Y-114313556D01*
X118104115Y-114599270D02*
X117961258Y-114408794D01*
X117961258Y-114408794D02*
X117818401Y-114599270D01*
X116580305Y-115170699D02*
X116580305Y-114170699D01*
X116580305Y-114170699D02*
X116246972Y-114884984D01*
X116246972Y-114884984D02*
X115913639Y-114170699D01*
X115913639Y-114170699D02*
X115913639Y-115170699D01*
X115008877Y-115170699D02*
X115008877Y-114646889D01*
X115008877Y-114646889D02*
X115056496Y-114551651D01*
X115056496Y-114551651D02*
X115151734Y-114504032D01*
X115151734Y-114504032D02*
X115342210Y-114504032D01*
X115342210Y-114504032D02*
X115437448Y-114551651D01*
X115008877Y-115123080D02*
X115104115Y-115170699D01*
X115104115Y-115170699D02*
X115342210Y-115170699D01*
X115342210Y-115170699D02*
X115437448Y-115123080D01*
X115437448Y-115123080D02*
X115485067Y-115027841D01*
X115485067Y-115027841D02*
X115485067Y-114932603D01*
X115485067Y-114932603D02*
X115437448Y-114837365D01*
X115437448Y-114837365D02*
X115342210Y-114789746D01*
X115342210Y-114789746D02*
X115104115Y-114789746D01*
X115104115Y-114789746D02*
X115008877Y-114742127D01*
X114532686Y-115170699D02*
X114532686Y-114170699D01*
X114437448Y-114789746D02*
X114151734Y-115170699D01*
X114151734Y-114504032D02*
X114532686Y-114884984D01*
X113342210Y-115123080D02*
X113437448Y-115170699D01*
X113437448Y-115170699D02*
X113627924Y-115170699D01*
X113627924Y-115170699D02*
X113723162Y-115123080D01*
X113723162Y-115123080D02*
X113770781Y-115027841D01*
X113770781Y-115027841D02*
X113770781Y-114646889D01*
X113770781Y-114646889D02*
X113723162Y-114551651D01*
X113723162Y-114551651D02*
X113627924Y-114504032D01*
X113627924Y-114504032D02*
X113437448Y-114504032D01*
X113437448Y-114504032D02*
X113342210Y-114551651D01*
X113342210Y-114551651D02*
X113294591Y-114646889D01*
X113294591Y-114646889D02*
X113294591Y-114742127D01*
X113294591Y-114742127D02*
X113770781Y-114837365D01*
X112151733Y-115123080D02*
X112056495Y-115170699D01*
X112056495Y-115170699D02*
X111866019Y-115170699D01*
X111866019Y-115170699D02*
X111770781Y-115123080D01*
X111770781Y-115123080D02*
X111723162Y-115027841D01*
X111723162Y-115027841D02*
X111723162Y-114980222D01*
X111723162Y-114980222D02*
X111770781Y-114884984D01*
X111770781Y-114884984D02*
X111866019Y-114837365D01*
X111866019Y-114837365D02*
X112008876Y-114837365D01*
X112008876Y-114837365D02*
X112104114Y-114789746D01*
X112104114Y-114789746D02*
X112151733Y-114694508D01*
X112151733Y-114694508D02*
X112151733Y-114646889D01*
X112151733Y-114646889D02*
X112104114Y-114551651D01*
X112104114Y-114551651D02*
X112008876Y-114504032D01*
X112008876Y-114504032D02*
X111866019Y-114504032D01*
X111866019Y-114504032D02*
X111770781Y-114551651D01*
X110866019Y-114504032D02*
X110866019Y-115170699D01*
X111294590Y-114504032D02*
X111294590Y-115027841D01*
X111294590Y-115027841D02*
X111246971Y-115123080D01*
X111246971Y-115123080D02*
X111151733Y-115170699D01*
X111151733Y-115170699D02*
X111008876Y-115170699D01*
X111008876Y-115170699D02*
X110913638Y-115123080D01*
X110913638Y-115123080D02*
X110866019Y-115075460D01*
X110389828Y-115170699D02*
X110389828Y-114504032D01*
X110389828Y-114694508D02*
X110342209Y-114599270D01*
X110342209Y-114599270D02*
X110294590Y-114551651D01*
X110294590Y-114551651D02*
X110199352Y-114504032D01*
X110199352Y-114504032D02*
X110104114Y-114504032D01*
X109389828Y-115123080D02*
X109485066Y-115170699D01*
X109485066Y-115170699D02*
X109675542Y-115170699D01*
X109675542Y-115170699D02*
X109770780Y-115123080D01*
X109770780Y-115123080D02*
X109818399Y-115027841D01*
X109818399Y-115027841D02*
X109818399Y-114646889D01*
X109818399Y-114646889D02*
X109770780Y-114551651D01*
X109770780Y-114551651D02*
X109675542Y-114504032D01*
X109675542Y-114504032D02*
X109485066Y-114504032D01*
X109485066Y-114504032D02*
X109389828Y-114551651D01*
X109389828Y-114551651D02*
X109342209Y-114646889D01*
X109342209Y-114646889D02*
X109342209Y-114742127D01*
X109342209Y-114742127D02*
X109818399Y-114837365D01*
X108294589Y-114504032D02*
X107913637Y-114504032D01*
X108151732Y-114170699D02*
X108151732Y-115027841D01*
X108151732Y-115027841D02*
X108104113Y-115123080D01*
X108104113Y-115123080D02*
X108008875Y-115170699D01*
X108008875Y-115170699D02*
X107913637Y-115170699D01*
X107437446Y-115170699D02*
X107532684Y-115123080D01*
X107532684Y-115123080D02*
X107580303Y-115075460D01*
X107580303Y-115075460D02*
X107627922Y-114980222D01*
X107627922Y-114980222D02*
X107627922Y-114694508D01*
X107627922Y-114694508D02*
X107580303Y-114599270D01*
X107580303Y-114599270D02*
X107532684Y-114551651D01*
X107532684Y-114551651D02*
X107437446Y-114504032D01*
X107437446Y-114504032D02*
X107294589Y-114504032D01*
X107294589Y-114504032D02*
X107199351Y-114551651D01*
X107199351Y-114551651D02*
X107151732Y-114599270D01*
X107151732Y-114599270D02*
X107104113Y-114694508D01*
X107104113Y-114694508D02*
X107104113Y-114980222D01*
X107104113Y-114980222D02*
X107151732Y-115075460D01*
X107151732Y-115075460D02*
X107199351Y-115123080D01*
X107199351Y-115123080D02*
X107294589Y-115170699D01*
X107294589Y-115170699D02*
X107437446Y-115170699D01*
X105485065Y-115123080D02*
X105580303Y-115170699D01*
X105580303Y-115170699D02*
X105770779Y-115170699D01*
X105770779Y-115170699D02*
X105866017Y-115123080D01*
X105866017Y-115123080D02*
X105913636Y-115075460D01*
X105913636Y-115075460D02*
X105961255Y-114980222D01*
X105961255Y-114980222D02*
X105961255Y-114694508D01*
X105961255Y-114694508D02*
X105913636Y-114599270D01*
X105913636Y-114599270D02*
X105866017Y-114551651D01*
X105866017Y-114551651D02*
X105770779Y-114504032D01*
X105770779Y-114504032D02*
X105580303Y-114504032D01*
X105580303Y-114504032D02*
X105485065Y-114551651D01*
X104627922Y-114504032D02*
X104627922Y-115170699D01*
X105056493Y-114504032D02*
X105056493Y-115027841D01*
X105056493Y-115027841D02*
X105008874Y-115123080D01*
X105008874Y-115123080D02*
X104913636Y-115170699D01*
X104913636Y-115170699D02*
X104770779Y-115170699D01*
X104770779Y-115170699D02*
X104675541Y-115123080D01*
X104675541Y-115123080D02*
X104627922Y-115075460D01*
X104294588Y-114504032D02*
X103913636Y-114504032D01*
X104151731Y-114170699D02*
X104151731Y-115027841D01*
X104151731Y-115027841D02*
X104104112Y-115123080D01*
X104104112Y-115123080D02*
X104008874Y-115170699D01*
X104008874Y-115170699D02*
X103913636Y-115170699D01*
X102866016Y-115123080D02*
X102770778Y-115170699D01*
X102770778Y-115170699D02*
X102580302Y-115170699D01*
X102580302Y-115170699D02*
X102485064Y-115123080D01*
X102485064Y-115123080D02*
X102437445Y-115027841D01*
X102437445Y-115027841D02*
X102437445Y-114980222D01*
X102437445Y-114980222D02*
X102485064Y-114884984D01*
X102485064Y-114884984D02*
X102580302Y-114837365D01*
X102580302Y-114837365D02*
X102723159Y-114837365D01*
X102723159Y-114837365D02*
X102818397Y-114789746D01*
X102818397Y-114789746D02*
X102866016Y-114694508D01*
X102866016Y-114694508D02*
X102866016Y-114646889D01*
X102866016Y-114646889D02*
X102818397Y-114551651D01*
X102818397Y-114551651D02*
X102723159Y-114504032D01*
X102723159Y-114504032D02*
X102580302Y-114504032D01*
X102580302Y-114504032D02*
X102485064Y-114551651D01*
X101866016Y-115170699D02*
X101961254Y-115123080D01*
X101961254Y-115123080D02*
X102008873Y-115075460D01*
X102008873Y-115075460D02*
X102056492Y-114980222D01*
X102056492Y-114980222D02*
X102056492Y-114694508D01*
X102056492Y-114694508D02*
X102008873Y-114599270D01*
X102008873Y-114599270D02*
X101961254Y-114551651D01*
X101961254Y-114551651D02*
X101866016Y-114504032D01*
X101866016Y-114504032D02*
X101723159Y-114504032D01*
X101723159Y-114504032D02*
X101627921Y-114551651D01*
X101627921Y-114551651D02*
X101580302Y-114599270D01*
X101580302Y-114599270D02*
X101532683Y-114694508D01*
X101532683Y-114694508D02*
X101532683Y-114980222D01*
X101532683Y-114980222D02*
X101580302Y-115075460D01*
X101580302Y-115075460D02*
X101627921Y-115123080D01*
X101627921Y-115123080D02*
X101723159Y-115170699D01*
X101723159Y-115170699D02*
X101866016Y-115170699D01*
X101104111Y-115170699D02*
X101104111Y-114504032D01*
X101104111Y-114599270D02*
X101056492Y-114551651D01*
X101056492Y-114551651D02*
X100961254Y-114504032D01*
X100961254Y-114504032D02*
X100818397Y-114504032D01*
X100818397Y-114504032D02*
X100723159Y-114551651D01*
X100723159Y-114551651D02*
X100675540Y-114646889D01*
X100675540Y-114646889D02*
X100675540Y-115170699D01*
X100675540Y-114646889D02*
X100627921Y-114551651D01*
X100627921Y-114551651D02*
X100532683Y-114504032D01*
X100532683Y-114504032D02*
X100389826Y-114504032D01*
X100389826Y-114504032D02*
X100294587Y-114551651D01*
X100294587Y-114551651D02*
X100246968Y-114646889D01*
X100246968Y-114646889D02*
X100246968Y-115170699D01*
X99389826Y-115123080D02*
X99485064Y-115170699D01*
X99485064Y-115170699D02*
X99675540Y-115170699D01*
X99675540Y-115170699D02*
X99770778Y-115123080D01*
X99770778Y-115123080D02*
X99818397Y-115027841D01*
X99818397Y-115027841D02*
X99818397Y-114646889D01*
X99818397Y-114646889D02*
X99770778Y-114551651D01*
X99770778Y-114551651D02*
X99675540Y-114504032D01*
X99675540Y-114504032D02*
X99485064Y-114504032D01*
X99485064Y-114504032D02*
X99389826Y-114551651D01*
X99389826Y-114551651D02*
X99342207Y-114646889D01*
X99342207Y-114646889D02*
X99342207Y-114742127D01*
X99342207Y-114742127D02*
X99818397Y-114837365D01*
X98008873Y-115170699D02*
X98104111Y-115123080D01*
X98104111Y-115123080D02*
X98151730Y-115027841D01*
X98151730Y-115027841D02*
X98151730Y-114170699D01*
X97246968Y-115123080D02*
X97342206Y-115170699D01*
X97342206Y-115170699D02*
X97532682Y-115170699D01*
X97532682Y-115170699D02*
X97627920Y-115123080D01*
X97627920Y-115123080D02*
X97675539Y-115027841D01*
X97675539Y-115027841D02*
X97675539Y-114646889D01*
X97675539Y-114646889D02*
X97627920Y-114551651D01*
X97627920Y-114551651D02*
X97532682Y-114504032D01*
X97532682Y-114504032D02*
X97342206Y-114504032D01*
X97342206Y-114504032D02*
X97246968Y-114551651D01*
X97246968Y-114551651D02*
X97199349Y-114646889D01*
X97199349Y-114646889D02*
X97199349Y-114742127D01*
X97199349Y-114742127D02*
X97675539Y-114837365D01*
X96342206Y-114504032D02*
X96342206Y-115313556D01*
X96342206Y-115313556D02*
X96389825Y-115408794D01*
X96389825Y-115408794D02*
X96437444Y-115456413D01*
X96437444Y-115456413D02*
X96532682Y-115504032D01*
X96532682Y-115504032D02*
X96675539Y-115504032D01*
X96675539Y-115504032D02*
X96770777Y-115456413D01*
X96342206Y-115123080D02*
X96437444Y-115170699D01*
X96437444Y-115170699D02*
X96627920Y-115170699D01*
X96627920Y-115170699D02*
X96723158Y-115123080D01*
X96723158Y-115123080D02*
X96770777Y-115075460D01*
X96770777Y-115075460D02*
X96818396Y-114980222D01*
X96818396Y-114980222D02*
X96818396Y-114694508D01*
X96818396Y-114694508D02*
X96770777Y-114599270D01*
X96770777Y-114599270D02*
X96723158Y-114551651D01*
X96723158Y-114551651D02*
X96627920Y-114504032D01*
X96627920Y-114504032D02*
X96437444Y-114504032D01*
X96437444Y-114504032D02*
X96342206Y-114551651D01*
X95913634Y-115123080D02*
X95818396Y-115170699D01*
X95818396Y-115170699D02*
X95627920Y-115170699D01*
X95627920Y-115170699D02*
X95532682Y-115123080D01*
X95532682Y-115123080D02*
X95485063Y-115027841D01*
X95485063Y-115027841D02*
X95485063Y-114980222D01*
X95485063Y-114980222D02*
X95532682Y-114884984D01*
X95532682Y-114884984D02*
X95627920Y-114837365D01*
X95627920Y-114837365D02*
X95770777Y-114837365D01*
X95770777Y-114837365D02*
X95866015Y-114789746D01*
X95866015Y-114789746D02*
X95913634Y-114694508D01*
X95913634Y-114694508D02*
X95913634Y-114646889D01*
X95913634Y-114646889D02*
X95866015Y-114551651D01*
X95866015Y-114551651D02*
X95770777Y-114504032D01*
X95770777Y-114504032D02*
X95627920Y-114504032D01*
X95627920Y-114504032D02*
X95532682Y-114551651D01*
X118246972Y-116113976D02*
X117866020Y-116113976D01*
X118104115Y-115780643D02*
X118104115Y-116637785D01*
X118104115Y-116637785D02*
X118056496Y-116733024D01*
X118056496Y-116733024D02*
X117961258Y-116780643D01*
X117961258Y-116780643D02*
X117866020Y-116780643D01*
X117389829Y-116780643D02*
X117485067Y-116733024D01*
X117485067Y-116733024D02*
X117532686Y-116685404D01*
X117532686Y-116685404D02*
X117580305Y-116590166D01*
X117580305Y-116590166D02*
X117580305Y-116304452D01*
X117580305Y-116304452D02*
X117532686Y-116209214D01*
X117532686Y-116209214D02*
X117485067Y-116161595D01*
X117485067Y-116161595D02*
X117389829Y-116113976D01*
X117389829Y-116113976D02*
X117246972Y-116113976D01*
X117246972Y-116113976D02*
X117151734Y-116161595D01*
X117151734Y-116161595D02*
X117104115Y-116209214D01*
X117104115Y-116209214D02*
X117056496Y-116304452D01*
X117056496Y-116304452D02*
X117056496Y-116590166D01*
X117056496Y-116590166D02*
X117104115Y-116685404D01*
X117104115Y-116685404D02*
X117151734Y-116733024D01*
X117151734Y-116733024D02*
X117246972Y-116780643D01*
X117246972Y-116780643D02*
X117389829Y-116780643D01*
X115437448Y-116780643D02*
X115437448Y-116256833D01*
X115437448Y-116256833D02*
X115485067Y-116161595D01*
X115485067Y-116161595D02*
X115580305Y-116113976D01*
X115580305Y-116113976D02*
X115770781Y-116113976D01*
X115770781Y-116113976D02*
X115866019Y-116161595D01*
X115437448Y-116733024D02*
X115532686Y-116780643D01*
X115532686Y-116780643D02*
X115770781Y-116780643D01*
X115770781Y-116780643D02*
X115866019Y-116733024D01*
X115866019Y-116733024D02*
X115913638Y-116637785D01*
X115913638Y-116637785D02*
X115913638Y-116542547D01*
X115913638Y-116542547D02*
X115866019Y-116447309D01*
X115866019Y-116447309D02*
X115770781Y-116399690D01*
X115770781Y-116399690D02*
X115532686Y-116399690D01*
X115532686Y-116399690D02*
X115437448Y-116352071D01*
X115008876Y-116733024D02*
X114913638Y-116780643D01*
X114913638Y-116780643D02*
X114723162Y-116780643D01*
X114723162Y-116780643D02*
X114627924Y-116733024D01*
X114627924Y-116733024D02*
X114580305Y-116637785D01*
X114580305Y-116637785D02*
X114580305Y-116590166D01*
X114580305Y-116590166D02*
X114627924Y-116494928D01*
X114627924Y-116494928D02*
X114723162Y-116447309D01*
X114723162Y-116447309D02*
X114866019Y-116447309D01*
X114866019Y-116447309D02*
X114961257Y-116399690D01*
X114961257Y-116399690D02*
X115008876Y-116304452D01*
X115008876Y-116304452D02*
X115008876Y-116256833D01*
X115008876Y-116256833D02*
X114961257Y-116161595D01*
X114961257Y-116161595D02*
X114866019Y-116113976D01*
X114866019Y-116113976D02*
X114723162Y-116113976D01*
X114723162Y-116113976D02*
X114627924Y-116161595D01*
X114199352Y-116733024D02*
X114104114Y-116780643D01*
X114104114Y-116780643D02*
X113913638Y-116780643D01*
X113913638Y-116780643D02*
X113818400Y-116733024D01*
X113818400Y-116733024D02*
X113770781Y-116637785D01*
X113770781Y-116637785D02*
X113770781Y-116590166D01*
X113770781Y-116590166D02*
X113818400Y-116494928D01*
X113818400Y-116494928D02*
X113913638Y-116447309D01*
X113913638Y-116447309D02*
X114056495Y-116447309D01*
X114056495Y-116447309D02*
X114151733Y-116399690D01*
X114151733Y-116399690D02*
X114199352Y-116304452D01*
X114199352Y-116304452D02*
X114199352Y-116256833D01*
X114199352Y-116256833D02*
X114151733Y-116161595D01*
X114151733Y-116161595D02*
X114056495Y-116113976D01*
X114056495Y-116113976D02*
X113913638Y-116113976D01*
X113913638Y-116113976D02*
X113818400Y-116161595D01*
X112913638Y-116113976D02*
X112913638Y-116780643D01*
X113342209Y-116113976D02*
X113342209Y-116637785D01*
X113342209Y-116637785D02*
X113294590Y-116733024D01*
X113294590Y-116733024D02*
X113199352Y-116780643D01*
X113199352Y-116780643D02*
X113056495Y-116780643D01*
X113056495Y-116780643D02*
X112961257Y-116733024D01*
X112961257Y-116733024D02*
X112913638Y-116685404D01*
X112437447Y-116780643D02*
X112437447Y-116113976D01*
X112437447Y-116304452D02*
X112389828Y-116209214D01*
X112389828Y-116209214D02*
X112342209Y-116161595D01*
X112342209Y-116161595D02*
X112246971Y-116113976D01*
X112246971Y-116113976D02*
X112151733Y-116113976D01*
X111437447Y-116733024D02*
X111532685Y-116780643D01*
X111532685Y-116780643D02*
X111723161Y-116780643D01*
X111723161Y-116780643D02*
X111818399Y-116733024D01*
X111818399Y-116733024D02*
X111866018Y-116637785D01*
X111866018Y-116637785D02*
X111866018Y-116256833D01*
X111866018Y-116256833D02*
X111818399Y-116161595D01*
X111818399Y-116161595D02*
X111723161Y-116113976D01*
X111723161Y-116113976D02*
X111532685Y-116113976D01*
X111532685Y-116113976D02*
X111437447Y-116161595D01*
X111437447Y-116161595D02*
X111389828Y-116256833D01*
X111389828Y-116256833D02*
X111389828Y-116352071D01*
X111389828Y-116352071D02*
X111866018Y-116447309D01*
X110342208Y-116113976D02*
X109961256Y-116113976D01*
X110199351Y-115780643D02*
X110199351Y-116637785D01*
X110199351Y-116637785D02*
X110151732Y-116733024D01*
X110151732Y-116733024D02*
X110056494Y-116780643D01*
X110056494Y-116780643D02*
X109961256Y-116780643D01*
X109627922Y-116780643D02*
X109627922Y-115780643D01*
X109199351Y-116780643D02*
X109199351Y-116256833D01*
X109199351Y-116256833D02*
X109246970Y-116161595D01*
X109246970Y-116161595D02*
X109342208Y-116113976D01*
X109342208Y-116113976D02*
X109485065Y-116113976D01*
X109485065Y-116113976D02*
X109580303Y-116161595D01*
X109580303Y-116161595D02*
X109627922Y-116209214D01*
X108294589Y-116780643D02*
X108294589Y-116256833D01*
X108294589Y-116256833D02*
X108342208Y-116161595D01*
X108342208Y-116161595D02*
X108437446Y-116113976D01*
X108437446Y-116113976D02*
X108627922Y-116113976D01*
X108627922Y-116113976D02*
X108723160Y-116161595D01*
X108294589Y-116733024D02*
X108389827Y-116780643D01*
X108389827Y-116780643D02*
X108627922Y-116780643D01*
X108627922Y-116780643D02*
X108723160Y-116733024D01*
X108723160Y-116733024D02*
X108770779Y-116637785D01*
X108770779Y-116637785D02*
X108770779Y-116542547D01*
X108770779Y-116542547D02*
X108723160Y-116447309D01*
X108723160Y-116447309D02*
X108627922Y-116399690D01*
X108627922Y-116399690D02*
X108389827Y-116399690D01*
X108389827Y-116399690D02*
X108294589Y-116352071D01*
X107961255Y-116113976D02*
X107580303Y-116113976D01*
X107818398Y-115780643D02*
X107818398Y-116637785D01*
X107818398Y-116637785D02*
X107770779Y-116733024D01*
X107770779Y-116733024D02*
X107675541Y-116780643D01*
X107675541Y-116780643D02*
X107580303Y-116780643D01*
X106485064Y-116780643D02*
X106485064Y-115780643D01*
X106485064Y-115780643D02*
X105913636Y-116780643D01*
X105913636Y-116780643D02*
X105913636Y-115780643D01*
X105104112Y-116256833D02*
X105437445Y-116256833D01*
X105437445Y-116780643D02*
X105437445Y-115780643D01*
X105437445Y-115780643D02*
X104961255Y-115780643D01*
X104008874Y-116685404D02*
X104056493Y-116733024D01*
X104056493Y-116733024D02*
X104199350Y-116780643D01*
X104199350Y-116780643D02*
X104294588Y-116780643D01*
X104294588Y-116780643D02*
X104437445Y-116733024D01*
X104437445Y-116733024D02*
X104532683Y-116637785D01*
X104532683Y-116637785D02*
X104580302Y-116542547D01*
X104580302Y-116542547D02*
X104627921Y-116352071D01*
X104627921Y-116352071D02*
X104627921Y-116209214D01*
X104627921Y-116209214D02*
X104580302Y-116018738D01*
X104580302Y-116018738D02*
X104532683Y-115923500D01*
X104532683Y-115923500D02*
X104437445Y-115828262D01*
X104437445Y-115828262D02*
X104294588Y-115780643D01*
X104294588Y-115780643D02*
X104199350Y-115780643D01*
X104199350Y-115780643D02*
X104056493Y-115828262D01*
X104056493Y-115828262D02*
X104008874Y-115875881D01*
X102389826Y-116733024D02*
X102485064Y-116780643D01*
X102485064Y-116780643D02*
X102675540Y-116780643D01*
X102675540Y-116780643D02*
X102770778Y-116733024D01*
X102770778Y-116733024D02*
X102818397Y-116685404D01*
X102818397Y-116685404D02*
X102866016Y-116590166D01*
X102866016Y-116590166D02*
X102866016Y-116304452D01*
X102866016Y-116304452D02*
X102818397Y-116209214D01*
X102818397Y-116209214D02*
X102770778Y-116161595D01*
X102770778Y-116161595D02*
X102675540Y-116113976D01*
X102675540Y-116113976D02*
X102485064Y-116113976D01*
X102485064Y-116113976D02*
X102389826Y-116161595D01*
X101961254Y-116780643D02*
X101961254Y-115780643D01*
X101532683Y-116780643D02*
X101532683Y-116256833D01*
X101532683Y-116256833D02*
X101580302Y-116161595D01*
X101580302Y-116161595D02*
X101675540Y-116113976D01*
X101675540Y-116113976D02*
X101818397Y-116113976D01*
X101818397Y-116113976D02*
X101913635Y-116161595D01*
X101913635Y-116161595D02*
X101961254Y-116209214D01*
X101056492Y-116780643D02*
X101056492Y-116113976D01*
X101056492Y-115780643D02*
X101104111Y-115828262D01*
X101104111Y-115828262D02*
X101056492Y-115875881D01*
X101056492Y-115875881D02*
X101008873Y-115828262D01*
X101008873Y-115828262D02*
X101056492Y-115780643D01*
X101056492Y-115780643D02*
X101056492Y-115875881D01*
X100580302Y-116113976D02*
X100580302Y-117113976D01*
X100580302Y-116161595D02*
X100485064Y-116113976D01*
X100485064Y-116113976D02*
X100294588Y-116113976D01*
X100294588Y-116113976D02*
X100199350Y-116161595D01*
X100199350Y-116161595D02*
X100151731Y-116209214D01*
X100151731Y-116209214D02*
X100104112Y-116304452D01*
X100104112Y-116304452D02*
X100104112Y-116590166D01*
X100104112Y-116590166D02*
X100151731Y-116685404D01*
X100151731Y-116685404D02*
X100199350Y-116733024D01*
X100199350Y-116733024D02*
X100294588Y-116780643D01*
X100294588Y-116780643D02*
X100485064Y-116780643D01*
X100485064Y-116780643D02*
X100580302Y-116733024D01*
X117961258Y-118390587D02*
X118056496Y-118342968D01*
X118056496Y-118342968D02*
X118104115Y-118247729D01*
X118104115Y-118247729D02*
X118104115Y-117390587D01*
X117151734Y-118390587D02*
X117151734Y-117866777D01*
X117151734Y-117866777D02*
X117199353Y-117771539D01*
X117199353Y-117771539D02*
X117294591Y-117723920D01*
X117294591Y-117723920D02*
X117485067Y-117723920D01*
X117485067Y-117723920D02*
X117580305Y-117771539D01*
X117151734Y-118342968D02*
X117246972Y-118390587D01*
X117246972Y-118390587D02*
X117485067Y-118390587D01*
X117485067Y-118390587D02*
X117580305Y-118342968D01*
X117580305Y-118342968D02*
X117627924Y-118247729D01*
X117627924Y-118247729D02*
X117627924Y-118152491D01*
X117627924Y-118152491D02*
X117580305Y-118057253D01*
X117580305Y-118057253D02*
X117485067Y-118009634D01*
X117485067Y-118009634D02*
X117246972Y-118009634D01*
X117246972Y-118009634D02*
X117151734Y-117962015D01*
X116770781Y-117723920D02*
X116532686Y-118390587D01*
X116294591Y-117723920D02*
X116532686Y-118390587D01*
X116532686Y-118390587D02*
X116627924Y-118628682D01*
X116627924Y-118628682D02*
X116675543Y-118676301D01*
X116675543Y-118676301D02*
X116770781Y-118723920D01*
X115961257Y-118342968D02*
X115866019Y-118390587D01*
X115866019Y-118390587D02*
X115675543Y-118390587D01*
X115675543Y-118390587D02*
X115580305Y-118342968D01*
X115580305Y-118342968D02*
X115532686Y-118247729D01*
X115532686Y-118247729D02*
X115532686Y-118200110D01*
X115532686Y-118200110D02*
X115580305Y-118104872D01*
X115580305Y-118104872D02*
X115675543Y-118057253D01*
X115675543Y-118057253D02*
X115818400Y-118057253D01*
X115818400Y-118057253D02*
X115913638Y-118009634D01*
X115913638Y-118009634D02*
X115961257Y-117914396D01*
X115961257Y-117914396D02*
X115961257Y-117866777D01*
X115961257Y-117866777D02*
X115913638Y-117771539D01*
X115913638Y-117771539D02*
X115818400Y-117723920D01*
X115818400Y-117723920D02*
X115675543Y-117723920D01*
X115675543Y-117723920D02*
X115580305Y-117771539D01*
X114485066Y-117723920D02*
X114104114Y-117723920D01*
X114342209Y-118390587D02*
X114342209Y-117533444D01*
X114342209Y-117533444D02*
X114294590Y-117438206D01*
X114294590Y-117438206D02*
X114199352Y-117390587D01*
X114199352Y-117390587D02*
X114104114Y-117390587D01*
X113627923Y-118390587D02*
X113723161Y-118342968D01*
X113723161Y-118342968D02*
X113770780Y-118247729D01*
X113770780Y-118247729D02*
X113770780Y-117390587D01*
X112818399Y-118390587D02*
X112818399Y-117866777D01*
X112818399Y-117866777D02*
X112866018Y-117771539D01*
X112866018Y-117771539D02*
X112961256Y-117723920D01*
X112961256Y-117723920D02*
X113151732Y-117723920D01*
X113151732Y-117723920D02*
X113246970Y-117771539D01*
X112818399Y-118342968D02*
X112913637Y-118390587D01*
X112913637Y-118390587D02*
X113151732Y-118390587D01*
X113151732Y-118390587D02*
X113246970Y-118342968D01*
X113246970Y-118342968D02*
X113294589Y-118247729D01*
X113294589Y-118247729D02*
X113294589Y-118152491D01*
X113294589Y-118152491D02*
X113246970Y-118057253D01*
X113246970Y-118057253D02*
X113151732Y-118009634D01*
X113151732Y-118009634D02*
X112913637Y-118009634D01*
X112913637Y-118009634D02*
X112818399Y-117962015D01*
X112485065Y-117723920D02*
X112104113Y-117723920D01*
X112342208Y-117390587D02*
X112342208Y-118247729D01*
X112342208Y-118247729D02*
X112294589Y-118342968D01*
X112294589Y-118342968D02*
X112199351Y-118390587D01*
X112199351Y-118390587D02*
X112104113Y-118390587D01*
X117961258Y-119000531D02*
X117961258Y-119238626D01*
X118199353Y-119143388D02*
X117961258Y-119238626D01*
X117961258Y-119238626D02*
X117723163Y-119143388D01*
X118104115Y-119429102D02*
X117961258Y-119238626D01*
X117961258Y-119238626D02*
X117818401Y-119429102D01*
X117199353Y-119000531D02*
X117199353Y-119238626D01*
X117437448Y-119143388D02*
X117199353Y-119238626D01*
X117199353Y-119238626D02*
X116961258Y-119143388D01*
X117342210Y-119429102D02*
X117199353Y-119238626D01*
X117199353Y-119238626D02*
X117056496Y-119429102D01*
X115866019Y-119952912D02*
X115723162Y-120000531D01*
X115723162Y-120000531D02*
X115485067Y-120000531D01*
X115485067Y-120000531D02*
X115389829Y-119952912D01*
X115389829Y-119952912D02*
X115342210Y-119905292D01*
X115342210Y-119905292D02*
X115294591Y-119810054D01*
X115294591Y-119810054D02*
X115294591Y-119714816D01*
X115294591Y-119714816D02*
X115342210Y-119619578D01*
X115342210Y-119619578D02*
X115389829Y-119571959D01*
X115389829Y-119571959D02*
X115485067Y-119524340D01*
X115485067Y-119524340D02*
X115675543Y-119476721D01*
X115675543Y-119476721D02*
X115770781Y-119429102D01*
X115770781Y-119429102D02*
X115818400Y-119381483D01*
X115818400Y-119381483D02*
X115866019Y-119286245D01*
X115866019Y-119286245D02*
X115866019Y-119191007D01*
X115866019Y-119191007D02*
X115818400Y-119095769D01*
X115818400Y-119095769D02*
X115770781Y-119048150D01*
X115770781Y-119048150D02*
X115675543Y-119000531D01*
X115675543Y-119000531D02*
X115437448Y-119000531D01*
X115437448Y-119000531D02*
X115294591Y-119048150D01*
X114723162Y-120000531D02*
X114818400Y-119952912D01*
X114818400Y-119952912D02*
X114866019Y-119905292D01*
X114866019Y-119905292D02*
X114913638Y-119810054D01*
X114913638Y-119810054D02*
X114913638Y-119524340D01*
X114913638Y-119524340D02*
X114866019Y-119429102D01*
X114866019Y-119429102D02*
X114818400Y-119381483D01*
X114818400Y-119381483D02*
X114723162Y-119333864D01*
X114723162Y-119333864D02*
X114580305Y-119333864D01*
X114580305Y-119333864D02*
X114485067Y-119381483D01*
X114485067Y-119381483D02*
X114437448Y-119429102D01*
X114437448Y-119429102D02*
X114389829Y-119524340D01*
X114389829Y-119524340D02*
X114389829Y-119810054D01*
X114389829Y-119810054D02*
X114437448Y-119905292D01*
X114437448Y-119905292D02*
X114485067Y-119952912D01*
X114485067Y-119952912D02*
X114580305Y-120000531D01*
X114580305Y-120000531D02*
X114723162Y-120000531D01*
X113818400Y-120000531D02*
X113913638Y-119952912D01*
X113913638Y-119952912D02*
X113961257Y-119857673D01*
X113961257Y-119857673D02*
X113961257Y-119000531D01*
X113008876Y-120000531D02*
X113008876Y-119000531D01*
X113008876Y-119952912D02*
X113104114Y-120000531D01*
X113104114Y-120000531D02*
X113294590Y-120000531D01*
X113294590Y-120000531D02*
X113389828Y-119952912D01*
X113389828Y-119952912D02*
X113437447Y-119905292D01*
X113437447Y-119905292D02*
X113485066Y-119810054D01*
X113485066Y-119810054D02*
X113485066Y-119524340D01*
X113485066Y-119524340D02*
X113437447Y-119429102D01*
X113437447Y-119429102D02*
X113389828Y-119381483D01*
X113389828Y-119381483D02*
X113294590Y-119333864D01*
X113294590Y-119333864D02*
X113104114Y-119333864D01*
X113104114Y-119333864D02*
X113008876Y-119381483D01*
X112151733Y-119952912D02*
X112246971Y-120000531D01*
X112246971Y-120000531D02*
X112437447Y-120000531D01*
X112437447Y-120000531D02*
X112532685Y-119952912D01*
X112532685Y-119952912D02*
X112580304Y-119857673D01*
X112580304Y-119857673D02*
X112580304Y-119476721D01*
X112580304Y-119476721D02*
X112532685Y-119381483D01*
X112532685Y-119381483D02*
X112437447Y-119333864D01*
X112437447Y-119333864D02*
X112246971Y-119333864D01*
X112246971Y-119333864D02*
X112151733Y-119381483D01*
X112151733Y-119381483D02*
X112104114Y-119476721D01*
X112104114Y-119476721D02*
X112104114Y-119571959D01*
X112104114Y-119571959D02*
X112580304Y-119667197D01*
X111675542Y-120000531D02*
X111675542Y-119333864D01*
X111675542Y-119524340D02*
X111627923Y-119429102D01*
X111627923Y-119429102D02*
X111580304Y-119381483D01*
X111580304Y-119381483D02*
X111485066Y-119333864D01*
X111485066Y-119333864D02*
X111389828Y-119333864D01*
X110294589Y-119333864D02*
X110294589Y-120333864D01*
X110294589Y-119381483D02*
X110199351Y-119333864D01*
X110199351Y-119333864D02*
X110008875Y-119333864D01*
X110008875Y-119333864D02*
X109913637Y-119381483D01*
X109913637Y-119381483D02*
X109866018Y-119429102D01*
X109866018Y-119429102D02*
X109818399Y-119524340D01*
X109818399Y-119524340D02*
X109818399Y-119810054D01*
X109818399Y-119810054D02*
X109866018Y-119905292D01*
X109866018Y-119905292D02*
X109913637Y-119952912D01*
X109913637Y-119952912D02*
X110008875Y-120000531D01*
X110008875Y-120000531D02*
X110199351Y-120000531D01*
X110199351Y-120000531D02*
X110294589Y-119952912D01*
X109389827Y-120000531D02*
X109389827Y-119333864D01*
X109389827Y-119000531D02*
X109437446Y-119048150D01*
X109437446Y-119048150D02*
X109389827Y-119095769D01*
X109389827Y-119095769D02*
X109342208Y-119048150D01*
X109342208Y-119048150D02*
X109389827Y-119000531D01*
X109389827Y-119000531D02*
X109389827Y-119095769D01*
X108913637Y-119333864D02*
X108913637Y-120000531D01*
X108913637Y-119429102D02*
X108866018Y-119381483D01*
X108866018Y-119381483D02*
X108770780Y-119333864D01*
X108770780Y-119333864D02*
X108627923Y-119333864D01*
X108627923Y-119333864D02*
X108532685Y-119381483D01*
X108532685Y-119381483D02*
X108485066Y-119476721D01*
X108485066Y-119476721D02*
X108485066Y-120000531D01*
X108056494Y-119952912D02*
X107961256Y-120000531D01*
X107961256Y-120000531D02*
X107770780Y-120000531D01*
X107770780Y-120000531D02*
X107675542Y-119952912D01*
X107675542Y-119952912D02*
X107627923Y-119857673D01*
X107627923Y-119857673D02*
X107627923Y-119810054D01*
X107627923Y-119810054D02*
X107675542Y-119714816D01*
X107675542Y-119714816D02*
X107770780Y-119667197D01*
X107770780Y-119667197D02*
X107913637Y-119667197D01*
X107913637Y-119667197D02*
X108008875Y-119619578D01*
X108008875Y-119619578D02*
X108056494Y-119524340D01*
X108056494Y-119524340D02*
X108056494Y-119476721D01*
X108056494Y-119476721D02*
X108008875Y-119381483D01*
X108008875Y-119381483D02*
X107913637Y-119333864D01*
X107913637Y-119333864D02*
X107770780Y-119333864D01*
X107770780Y-119333864D02*
X107675542Y-119381483D01*
X106580303Y-119333864D02*
X106199351Y-119333864D01*
X106437446Y-120000531D02*
X106437446Y-119143388D01*
X106437446Y-119143388D02*
X106389827Y-119048150D01*
X106389827Y-119048150D02*
X106294589Y-119000531D01*
X106294589Y-119000531D02*
X106199351Y-119000531D01*
X105723160Y-120000531D02*
X105818398Y-119952912D01*
X105818398Y-119952912D02*
X105866017Y-119857673D01*
X105866017Y-119857673D02*
X105866017Y-119000531D01*
X104913636Y-120000531D02*
X104913636Y-119476721D01*
X104913636Y-119476721D02*
X104961255Y-119381483D01*
X104961255Y-119381483D02*
X105056493Y-119333864D01*
X105056493Y-119333864D02*
X105246969Y-119333864D01*
X105246969Y-119333864D02*
X105342207Y-119381483D01*
X104913636Y-119952912D02*
X105008874Y-120000531D01*
X105008874Y-120000531D02*
X105246969Y-120000531D01*
X105246969Y-120000531D02*
X105342207Y-119952912D01*
X105342207Y-119952912D02*
X105389826Y-119857673D01*
X105389826Y-119857673D02*
X105389826Y-119762435D01*
X105389826Y-119762435D02*
X105342207Y-119667197D01*
X105342207Y-119667197D02*
X105246969Y-119619578D01*
X105246969Y-119619578D02*
X105008874Y-119619578D01*
X105008874Y-119619578D02*
X104913636Y-119571959D01*
X104580302Y-119333864D02*
X104199350Y-119333864D01*
X104437445Y-119000531D02*
X104437445Y-119857673D01*
X104437445Y-119857673D02*
X104389826Y-119952912D01*
X104389826Y-119952912D02*
X104294588Y-120000531D01*
X104294588Y-120000531D02*
X104199350Y-120000531D01*
X103199349Y-119333864D02*
X103008873Y-120000531D01*
X103008873Y-120000531D02*
X102818397Y-119524340D01*
X102818397Y-119524340D02*
X102627921Y-120000531D01*
X102627921Y-120000531D02*
X102437445Y-119333864D01*
X102056492Y-120000531D02*
X102056492Y-119333864D01*
X102056492Y-119000531D02*
X102104111Y-119048150D01*
X102104111Y-119048150D02*
X102056492Y-119095769D01*
X102056492Y-119095769D02*
X102008873Y-119048150D01*
X102008873Y-119048150D02*
X102056492Y-119000531D01*
X102056492Y-119000531D02*
X102056492Y-119095769D01*
X101723159Y-119333864D02*
X101342207Y-119333864D01*
X101580302Y-119000531D02*
X101580302Y-119857673D01*
X101580302Y-119857673D02*
X101532683Y-119952912D01*
X101532683Y-119952912D02*
X101437445Y-120000531D01*
X101437445Y-120000531D02*
X101342207Y-120000531D01*
X101008873Y-120000531D02*
X101008873Y-119000531D01*
X100580302Y-120000531D02*
X100580302Y-119476721D01*
X100580302Y-119476721D02*
X100627921Y-119381483D01*
X100627921Y-119381483D02*
X100723159Y-119333864D01*
X100723159Y-119333864D02*
X100866016Y-119333864D01*
X100866016Y-119333864D02*
X100961254Y-119381483D01*
X100961254Y-119381483D02*
X101008873Y-119429102D01*
X99485063Y-119333864D02*
X99104111Y-119333864D01*
X99342206Y-119000531D02*
X99342206Y-119857673D01*
X99342206Y-119857673D02*
X99294587Y-119952912D01*
X99294587Y-119952912D02*
X99199349Y-120000531D01*
X99199349Y-120000531D02*
X99104111Y-120000531D01*
X98770777Y-120000531D02*
X98770777Y-119000531D01*
X98342206Y-120000531D02*
X98342206Y-119476721D01*
X98342206Y-119476721D02*
X98389825Y-119381483D01*
X98389825Y-119381483D02*
X98485063Y-119333864D01*
X98485063Y-119333864D02*
X98627920Y-119333864D01*
X98627920Y-119333864D02*
X98723158Y-119381483D01*
X98723158Y-119381483D02*
X98770777Y-119429102D01*
X97485063Y-119952912D02*
X97580301Y-120000531D01*
X97580301Y-120000531D02*
X97770777Y-120000531D01*
X97770777Y-120000531D02*
X97866015Y-119952912D01*
X97866015Y-119952912D02*
X97913634Y-119857673D01*
X97913634Y-119857673D02*
X97913634Y-119476721D01*
X97913634Y-119476721D02*
X97866015Y-119381483D01*
X97866015Y-119381483D02*
X97770777Y-119333864D01*
X97770777Y-119333864D02*
X97580301Y-119333864D01*
X97580301Y-119333864D02*
X97485063Y-119381483D01*
X97485063Y-119381483D02*
X97437444Y-119476721D01*
X97437444Y-119476721D02*
X97437444Y-119571959D01*
X97437444Y-119571959D02*
X97913634Y-119667197D01*
X118104115Y-121610475D02*
X118104115Y-120610475D01*
X118104115Y-120991427D02*
X118008877Y-120943808D01*
X118008877Y-120943808D02*
X117818401Y-120943808D01*
X117818401Y-120943808D02*
X117723163Y-120991427D01*
X117723163Y-120991427D02*
X117675544Y-121039046D01*
X117675544Y-121039046D02*
X117627925Y-121134284D01*
X117627925Y-121134284D02*
X117627925Y-121419998D01*
X117627925Y-121419998D02*
X117675544Y-121515236D01*
X117675544Y-121515236D02*
X117723163Y-121562856D01*
X117723163Y-121562856D02*
X117818401Y-121610475D01*
X117818401Y-121610475D02*
X118008877Y-121610475D01*
X118008877Y-121610475D02*
X118104115Y-121562856D01*
X117056496Y-121610475D02*
X117151734Y-121562856D01*
X117151734Y-121562856D02*
X117199353Y-121515236D01*
X117199353Y-121515236D02*
X117246972Y-121419998D01*
X117246972Y-121419998D02*
X117246972Y-121134284D01*
X117246972Y-121134284D02*
X117199353Y-121039046D01*
X117199353Y-121039046D02*
X117151734Y-120991427D01*
X117151734Y-120991427D02*
X117056496Y-120943808D01*
X117056496Y-120943808D02*
X116913639Y-120943808D01*
X116913639Y-120943808D02*
X116818401Y-120991427D01*
X116818401Y-120991427D02*
X116770782Y-121039046D01*
X116770782Y-121039046D02*
X116723163Y-121134284D01*
X116723163Y-121134284D02*
X116723163Y-121419998D01*
X116723163Y-121419998D02*
X116770782Y-121515236D01*
X116770782Y-121515236D02*
X116818401Y-121562856D01*
X116818401Y-121562856D02*
X116913639Y-121610475D01*
X116913639Y-121610475D02*
X117056496Y-121610475D01*
X116437448Y-120943808D02*
X116056496Y-120943808D01*
X116294591Y-120610475D02*
X116294591Y-121467617D01*
X116294591Y-121467617D02*
X116246972Y-121562856D01*
X116246972Y-121562856D02*
X116151734Y-121610475D01*
X116151734Y-121610475D02*
X116056496Y-121610475D01*
X115866019Y-120943808D02*
X115485067Y-120943808D01*
X115723162Y-120610475D02*
X115723162Y-121467617D01*
X115723162Y-121467617D02*
X115675543Y-121562856D01*
X115675543Y-121562856D02*
X115580305Y-121610475D01*
X115580305Y-121610475D02*
X115485067Y-121610475D01*
X115008876Y-121610475D02*
X115104114Y-121562856D01*
X115104114Y-121562856D02*
X115151733Y-121515236D01*
X115151733Y-121515236D02*
X115199352Y-121419998D01*
X115199352Y-121419998D02*
X115199352Y-121134284D01*
X115199352Y-121134284D02*
X115151733Y-121039046D01*
X115151733Y-121039046D02*
X115104114Y-120991427D01*
X115104114Y-120991427D02*
X115008876Y-120943808D01*
X115008876Y-120943808D02*
X114866019Y-120943808D01*
X114866019Y-120943808D02*
X114770781Y-120991427D01*
X114770781Y-120991427D02*
X114723162Y-121039046D01*
X114723162Y-121039046D02*
X114675543Y-121134284D01*
X114675543Y-121134284D02*
X114675543Y-121419998D01*
X114675543Y-121419998D02*
X114723162Y-121515236D01*
X114723162Y-121515236D02*
X114770781Y-121562856D01*
X114770781Y-121562856D02*
X114866019Y-121610475D01*
X114866019Y-121610475D02*
X115008876Y-121610475D01*
X114246971Y-121610475D02*
X114246971Y-120943808D01*
X114246971Y-121039046D02*
X114199352Y-120991427D01*
X114199352Y-120991427D02*
X114104114Y-120943808D01*
X114104114Y-120943808D02*
X113961257Y-120943808D01*
X113961257Y-120943808D02*
X113866019Y-120991427D01*
X113866019Y-120991427D02*
X113818400Y-121086665D01*
X113818400Y-121086665D02*
X113818400Y-121610475D01*
X113818400Y-121086665D02*
X113770781Y-120991427D01*
X113770781Y-120991427D02*
X113675543Y-120943808D01*
X113675543Y-120943808D02*
X113532686Y-120943808D01*
X113532686Y-120943808D02*
X113437447Y-120991427D01*
X113437447Y-120991427D02*
X113389828Y-121086665D01*
X113389828Y-121086665D02*
X113389828Y-121610475D01*
X112008876Y-121610475D02*
X112104114Y-121562856D01*
X112104114Y-121562856D02*
X112151733Y-121515236D01*
X112151733Y-121515236D02*
X112199352Y-121419998D01*
X112199352Y-121419998D02*
X112199352Y-121134284D01*
X112199352Y-121134284D02*
X112151733Y-121039046D01*
X112151733Y-121039046D02*
X112104114Y-120991427D01*
X112104114Y-120991427D02*
X112008876Y-120943808D01*
X112008876Y-120943808D02*
X111866019Y-120943808D01*
X111866019Y-120943808D02*
X111770781Y-120991427D01*
X111770781Y-120991427D02*
X111723162Y-121039046D01*
X111723162Y-121039046D02*
X111675543Y-121134284D01*
X111675543Y-121134284D02*
X111675543Y-121419998D01*
X111675543Y-121419998D02*
X111723162Y-121515236D01*
X111723162Y-121515236D02*
X111770781Y-121562856D01*
X111770781Y-121562856D02*
X111866019Y-121610475D01*
X111866019Y-121610475D02*
X112008876Y-121610475D01*
X111389828Y-120943808D02*
X111008876Y-120943808D01*
X111246971Y-121610475D02*
X111246971Y-120753332D01*
X111246971Y-120753332D02*
X111199352Y-120658094D01*
X111199352Y-120658094D02*
X111104114Y-120610475D01*
X111104114Y-120610475D02*
X111008876Y-120610475D01*
X110056494Y-120943808D02*
X109675542Y-120943808D01*
X109913637Y-120610475D02*
X109913637Y-121467617D01*
X109913637Y-121467617D02*
X109866018Y-121562856D01*
X109866018Y-121562856D02*
X109770780Y-121610475D01*
X109770780Y-121610475D02*
X109675542Y-121610475D01*
X109342208Y-121610475D02*
X109342208Y-120610475D01*
X108913637Y-121610475D02*
X108913637Y-121086665D01*
X108913637Y-121086665D02*
X108961256Y-120991427D01*
X108961256Y-120991427D02*
X109056494Y-120943808D01*
X109056494Y-120943808D02*
X109199351Y-120943808D01*
X109199351Y-120943808D02*
X109294589Y-120991427D01*
X109294589Y-120991427D02*
X109342208Y-121039046D01*
X108056494Y-121562856D02*
X108151732Y-121610475D01*
X108151732Y-121610475D02*
X108342208Y-121610475D01*
X108342208Y-121610475D02*
X108437446Y-121562856D01*
X108437446Y-121562856D02*
X108485065Y-121467617D01*
X108485065Y-121467617D02*
X108485065Y-121086665D01*
X108485065Y-121086665D02*
X108437446Y-120991427D01*
X108437446Y-120991427D02*
X108342208Y-120943808D01*
X108342208Y-120943808D02*
X108151732Y-120943808D01*
X108151732Y-120943808D02*
X108056494Y-120991427D01*
X108056494Y-120991427D02*
X108008875Y-121086665D01*
X108008875Y-121086665D02*
X108008875Y-121181903D01*
X108008875Y-121181903D02*
X108485065Y-121277141D01*
X106818398Y-121610475D02*
X106818398Y-120610475D01*
X106818398Y-120610475D02*
X106437446Y-120610475D01*
X106437446Y-120610475D02*
X106342208Y-120658094D01*
X106342208Y-120658094D02*
X106294589Y-120705713D01*
X106294589Y-120705713D02*
X106246970Y-120800951D01*
X106246970Y-120800951D02*
X106246970Y-120943808D01*
X106246970Y-120943808D02*
X106294589Y-121039046D01*
X106294589Y-121039046D02*
X106342208Y-121086665D01*
X106342208Y-121086665D02*
X106437446Y-121134284D01*
X106437446Y-121134284D02*
X106818398Y-121134284D01*
X105246970Y-121515236D02*
X105294589Y-121562856D01*
X105294589Y-121562856D02*
X105437446Y-121610475D01*
X105437446Y-121610475D02*
X105532684Y-121610475D01*
X105532684Y-121610475D02*
X105675541Y-121562856D01*
X105675541Y-121562856D02*
X105770779Y-121467617D01*
X105770779Y-121467617D02*
X105818398Y-121372379D01*
X105818398Y-121372379D02*
X105866017Y-121181903D01*
X105866017Y-121181903D02*
X105866017Y-121039046D01*
X105866017Y-121039046D02*
X105818398Y-120848570D01*
X105818398Y-120848570D02*
X105770779Y-120753332D01*
X105770779Y-120753332D02*
X105675541Y-120658094D01*
X105675541Y-120658094D02*
X105532684Y-120610475D01*
X105532684Y-120610475D02*
X105437446Y-120610475D01*
X105437446Y-120610475D02*
X105294589Y-120658094D01*
X105294589Y-120658094D02*
X105246970Y-120705713D01*
X104485065Y-121086665D02*
X104342208Y-121134284D01*
X104342208Y-121134284D02*
X104294589Y-121181903D01*
X104294589Y-121181903D02*
X104246970Y-121277141D01*
X104246970Y-121277141D02*
X104246970Y-121419998D01*
X104246970Y-121419998D02*
X104294589Y-121515236D01*
X104294589Y-121515236D02*
X104342208Y-121562856D01*
X104342208Y-121562856D02*
X104437446Y-121610475D01*
X104437446Y-121610475D02*
X104818398Y-121610475D01*
X104818398Y-121610475D02*
X104818398Y-120610475D01*
X104818398Y-120610475D02*
X104485065Y-120610475D01*
X104485065Y-120610475D02*
X104389827Y-120658094D01*
X104389827Y-120658094D02*
X104342208Y-120705713D01*
X104342208Y-120705713D02*
X104294589Y-120800951D01*
X104294589Y-120800951D02*
X104294589Y-120896189D01*
X104294589Y-120896189D02*
X104342208Y-120991427D01*
X104342208Y-120991427D02*
X104389827Y-121039046D01*
X104389827Y-121039046D02*
X104485065Y-121086665D01*
X104485065Y-121086665D02*
X104818398Y-121086665D01*
X103770779Y-121562856D02*
X103770779Y-121610475D01*
X103770779Y-121610475D02*
X103818398Y-121705713D01*
X103818398Y-121705713D02*
X103866017Y-121753332D01*
X102437446Y-121610475D02*
X102532684Y-121562856D01*
X102532684Y-121562856D02*
X102580303Y-121515236D01*
X102580303Y-121515236D02*
X102627922Y-121419998D01*
X102627922Y-121419998D02*
X102627922Y-121134284D01*
X102627922Y-121134284D02*
X102580303Y-121039046D01*
X102580303Y-121039046D02*
X102532684Y-120991427D01*
X102532684Y-120991427D02*
X102437446Y-120943808D01*
X102437446Y-120943808D02*
X102294589Y-120943808D01*
X102294589Y-120943808D02*
X102199351Y-120991427D01*
X102199351Y-120991427D02*
X102151732Y-121039046D01*
X102151732Y-121039046D02*
X102104113Y-121134284D01*
X102104113Y-121134284D02*
X102104113Y-121419998D01*
X102104113Y-121419998D02*
X102151732Y-121515236D01*
X102151732Y-121515236D02*
X102199351Y-121562856D01*
X102199351Y-121562856D02*
X102294589Y-121610475D01*
X102294589Y-121610475D02*
X102437446Y-121610475D01*
X101818398Y-120943808D02*
X101437446Y-120943808D01*
X101675541Y-120610475D02*
X101675541Y-121467617D01*
X101675541Y-121467617D02*
X101627922Y-121562856D01*
X101627922Y-121562856D02*
X101532684Y-121610475D01*
X101532684Y-121610475D02*
X101437446Y-121610475D01*
X101104112Y-121610475D02*
X101104112Y-120610475D01*
X100675541Y-121610475D02*
X100675541Y-121086665D01*
X100675541Y-121086665D02*
X100723160Y-120991427D01*
X100723160Y-120991427D02*
X100818398Y-120943808D01*
X100818398Y-120943808D02*
X100961255Y-120943808D01*
X100961255Y-120943808D02*
X101056493Y-120991427D01*
X101056493Y-120991427D02*
X101104112Y-121039046D01*
X99818398Y-121562856D02*
X99913636Y-121610475D01*
X99913636Y-121610475D02*
X100104112Y-121610475D01*
X100104112Y-121610475D02*
X100199350Y-121562856D01*
X100199350Y-121562856D02*
X100246969Y-121467617D01*
X100246969Y-121467617D02*
X100246969Y-121086665D01*
X100246969Y-121086665D02*
X100199350Y-120991427D01*
X100199350Y-120991427D02*
X100104112Y-120943808D01*
X100104112Y-120943808D02*
X99913636Y-120943808D01*
X99913636Y-120943808D02*
X99818398Y-120991427D01*
X99818398Y-120991427D02*
X99770779Y-121086665D01*
X99770779Y-121086665D02*
X99770779Y-121181903D01*
X99770779Y-121181903D02*
X100246969Y-121277141D01*
X99342207Y-121610475D02*
X99342207Y-120943808D01*
X99342207Y-121134284D02*
X99294588Y-121039046D01*
X99294588Y-121039046D02*
X99246969Y-120991427D01*
X99246969Y-120991427D02*
X99151731Y-120943808D01*
X99151731Y-120943808D02*
X99056493Y-120943808D01*
X98056492Y-120943808D02*
X97866016Y-121610475D01*
X97866016Y-121610475D02*
X97675540Y-121134284D01*
X97675540Y-121134284D02*
X97485064Y-121610475D01*
X97485064Y-121610475D02*
X97294588Y-120943808D01*
X96913635Y-121610475D02*
X96913635Y-120943808D01*
X96913635Y-120610475D02*
X96961254Y-120658094D01*
X96961254Y-120658094D02*
X96913635Y-120705713D01*
X96913635Y-120705713D02*
X96866016Y-120658094D01*
X96866016Y-120658094D02*
X96913635Y-120610475D01*
X96913635Y-120610475D02*
X96913635Y-120705713D01*
X96485064Y-121562856D02*
X96389826Y-121610475D01*
X96389826Y-121610475D02*
X96199350Y-121610475D01*
X96199350Y-121610475D02*
X96104112Y-121562856D01*
X96104112Y-121562856D02*
X96056493Y-121467617D01*
X96056493Y-121467617D02*
X96056493Y-121419998D01*
X96056493Y-121419998D02*
X96104112Y-121324760D01*
X96104112Y-121324760D02*
X96199350Y-121277141D01*
X96199350Y-121277141D02*
X96342207Y-121277141D01*
X96342207Y-121277141D02*
X96437445Y-121229522D01*
X96437445Y-121229522D02*
X96485064Y-121134284D01*
X96485064Y-121134284D02*
X96485064Y-121086665D01*
X96485064Y-121086665D02*
X96437445Y-120991427D01*
X96437445Y-120991427D02*
X96342207Y-120943808D01*
X96342207Y-120943808D02*
X96199350Y-120943808D01*
X96199350Y-120943808D02*
X96104112Y-120991427D01*
X95246969Y-121562856D02*
X95342207Y-121610475D01*
X95342207Y-121610475D02*
X95532683Y-121610475D01*
X95532683Y-121610475D02*
X95627921Y-121562856D01*
X95627921Y-121562856D02*
X95675540Y-121467617D01*
X95675540Y-121467617D02*
X95675540Y-121086665D01*
X95675540Y-121086665D02*
X95627921Y-120991427D01*
X95627921Y-120991427D02*
X95532683Y-120943808D01*
X95532683Y-120943808D02*
X95342207Y-120943808D01*
X95342207Y-120943808D02*
X95246969Y-120991427D01*
X95246969Y-120991427D02*
X95199350Y-121086665D01*
X95199350Y-121086665D02*
X95199350Y-121181903D01*
X95199350Y-121181903D02*
X95675540Y-121277141D01*
X117580306Y-123220419D02*
X118151734Y-123220419D01*
X117866020Y-123220419D02*
X117866020Y-122220419D01*
X117866020Y-122220419D02*
X117961258Y-122363276D01*
X117961258Y-122363276D02*
X118056496Y-122458514D01*
X118056496Y-122458514D02*
X118151734Y-122506133D01*
X117008877Y-122648990D02*
X117104115Y-122601371D01*
X117104115Y-122601371D02*
X117151734Y-122553752D01*
X117151734Y-122553752D02*
X117199353Y-122458514D01*
X117199353Y-122458514D02*
X117199353Y-122410895D01*
X117199353Y-122410895D02*
X117151734Y-122315657D01*
X117151734Y-122315657D02*
X117104115Y-122268038D01*
X117104115Y-122268038D02*
X117008877Y-122220419D01*
X117008877Y-122220419D02*
X116818401Y-122220419D01*
X116818401Y-122220419D02*
X116723163Y-122268038D01*
X116723163Y-122268038D02*
X116675544Y-122315657D01*
X116675544Y-122315657D02*
X116627925Y-122410895D01*
X116627925Y-122410895D02*
X116627925Y-122458514D01*
X116627925Y-122458514D02*
X116675544Y-122553752D01*
X116675544Y-122553752D02*
X116723163Y-122601371D01*
X116723163Y-122601371D02*
X116818401Y-122648990D01*
X116818401Y-122648990D02*
X117008877Y-122648990D01*
X117008877Y-122648990D02*
X117104115Y-122696609D01*
X117104115Y-122696609D02*
X117151734Y-122744228D01*
X117151734Y-122744228D02*
X117199353Y-122839466D01*
X117199353Y-122839466D02*
X117199353Y-123029942D01*
X117199353Y-123029942D02*
X117151734Y-123125180D01*
X117151734Y-123125180D02*
X117104115Y-123172800D01*
X117104115Y-123172800D02*
X117008877Y-123220419D01*
X117008877Y-123220419D02*
X116818401Y-123220419D01*
X116818401Y-123220419D02*
X116723163Y-123172800D01*
X116723163Y-123172800D02*
X116675544Y-123125180D01*
X116675544Y-123125180D02*
X116627925Y-123029942D01*
X116627925Y-123029942D02*
X116627925Y-122839466D01*
X116627925Y-122839466D02*
X116675544Y-122744228D01*
X116675544Y-122744228D02*
X116723163Y-122696609D01*
X116723163Y-122696609D02*
X116818401Y-122648990D01*
X115770782Y-122220419D02*
X115961258Y-122220419D01*
X115961258Y-122220419D02*
X116056496Y-122268038D01*
X116056496Y-122268038D02*
X116104115Y-122315657D01*
X116104115Y-122315657D02*
X116199353Y-122458514D01*
X116199353Y-122458514D02*
X116246972Y-122648990D01*
X116246972Y-122648990D02*
X116246972Y-123029942D01*
X116246972Y-123029942D02*
X116199353Y-123125180D01*
X116199353Y-123125180D02*
X116151734Y-123172800D01*
X116151734Y-123172800D02*
X116056496Y-123220419D01*
X116056496Y-123220419D02*
X115866020Y-123220419D01*
X115866020Y-123220419D02*
X115770782Y-123172800D01*
X115770782Y-123172800D02*
X115723163Y-123125180D01*
X115723163Y-123125180D02*
X115675544Y-123029942D01*
X115675544Y-123029942D02*
X115675544Y-122791847D01*
X115675544Y-122791847D02*
X115723163Y-122696609D01*
X115723163Y-122696609D02*
X115770782Y-122648990D01*
X115770782Y-122648990D02*
X115866020Y-122601371D01*
X115866020Y-122601371D02*
X116056496Y-122601371D01*
X116056496Y-122601371D02*
X116151734Y-122648990D01*
X116151734Y-122648990D02*
X116199353Y-122696609D01*
X116199353Y-122696609D02*
X116246972Y-122791847D01*
X114770782Y-122220419D02*
X115246972Y-122220419D01*
X115246972Y-122220419D02*
X115294591Y-122696609D01*
X115294591Y-122696609D02*
X115246972Y-122648990D01*
X115246972Y-122648990D02*
X115151734Y-122601371D01*
X115151734Y-122601371D02*
X114913639Y-122601371D01*
X114913639Y-122601371D02*
X114818401Y-122648990D01*
X114818401Y-122648990D02*
X114770782Y-122696609D01*
X114770782Y-122696609D02*
X114723163Y-122791847D01*
X114723163Y-122791847D02*
X114723163Y-123029942D01*
X114723163Y-123029942D02*
X114770782Y-123125180D01*
X114770782Y-123125180D02*
X114818401Y-123172800D01*
X114818401Y-123172800D02*
X114913639Y-123220419D01*
X114913639Y-123220419D02*
X115151734Y-123220419D01*
X115151734Y-123220419D02*
X115246972Y-123172800D01*
X115246972Y-123172800D02*
X115294591Y-123125180D01*
X114104115Y-122220419D02*
X114008877Y-122220419D01*
X114008877Y-122220419D02*
X113913639Y-122268038D01*
X113913639Y-122268038D02*
X113866020Y-122315657D01*
X113866020Y-122315657D02*
X113818401Y-122410895D01*
X113818401Y-122410895D02*
X113770782Y-122601371D01*
X113770782Y-122601371D02*
X113770782Y-122839466D01*
X113770782Y-122839466D02*
X113818401Y-123029942D01*
X113818401Y-123029942D02*
X113866020Y-123125180D01*
X113866020Y-123125180D02*
X113913639Y-123172800D01*
X113913639Y-123172800D02*
X114008877Y-123220419D01*
X114008877Y-123220419D02*
X114104115Y-123220419D01*
X114104115Y-123220419D02*
X114199353Y-123172800D01*
X114199353Y-123172800D02*
X114246972Y-123125180D01*
X114246972Y-123125180D02*
X114294591Y-123029942D01*
X114294591Y-123029942D02*
X114342210Y-122839466D01*
X114342210Y-122839466D02*
X114342210Y-122601371D01*
X114342210Y-122601371D02*
X114294591Y-122410895D01*
X114294591Y-122410895D02*
X114246972Y-122315657D01*
X114246972Y-122315657D02*
X114199353Y-122268038D01*
X114199353Y-122268038D02*
X114104115Y-122220419D01*
X112675543Y-122553752D02*
X112485067Y-123220419D01*
X112485067Y-123220419D02*
X112294591Y-122744228D01*
X112294591Y-122744228D02*
X112104115Y-123220419D01*
X112104115Y-123220419D02*
X111913639Y-122553752D01*
X111389829Y-123220419D02*
X111485067Y-123172800D01*
X111485067Y-123172800D02*
X111532686Y-123125180D01*
X111532686Y-123125180D02*
X111580305Y-123029942D01*
X111580305Y-123029942D02*
X111580305Y-122744228D01*
X111580305Y-122744228D02*
X111532686Y-122648990D01*
X111532686Y-122648990D02*
X111485067Y-122601371D01*
X111485067Y-122601371D02*
X111389829Y-122553752D01*
X111389829Y-122553752D02*
X111246972Y-122553752D01*
X111246972Y-122553752D02*
X111151734Y-122601371D01*
X111151734Y-122601371D02*
X111104115Y-122648990D01*
X111104115Y-122648990D02*
X111056496Y-122744228D01*
X111056496Y-122744228D02*
X111056496Y-123029942D01*
X111056496Y-123029942D02*
X111104115Y-123125180D01*
X111104115Y-123125180D02*
X111151734Y-123172800D01*
X111151734Y-123172800D02*
X111246972Y-123220419D01*
X111246972Y-123220419D02*
X111389829Y-123220419D01*
X110627924Y-122553752D02*
X110627924Y-123220419D01*
X110627924Y-122648990D02*
X110580305Y-122601371D01*
X110580305Y-122601371D02*
X110485067Y-122553752D01*
X110485067Y-122553752D02*
X110342210Y-122553752D01*
X110342210Y-122553752D02*
X110246972Y-122601371D01*
X110246972Y-122601371D02*
X110199353Y-122696609D01*
X110199353Y-122696609D02*
X110199353Y-123220419D01*
X109675543Y-122220419D02*
X109770781Y-122410895D01*
X109389829Y-122553752D02*
X109008877Y-122553752D01*
X109246972Y-122220419D02*
X109246972Y-123077561D01*
X109246972Y-123077561D02*
X109199353Y-123172800D01*
X109199353Y-123172800D02*
X109104115Y-123220419D01*
X109104115Y-123220419D02*
X109008877Y-123220419D01*
X108056495Y-122553752D02*
X107675543Y-122553752D01*
X107913638Y-123220419D02*
X107913638Y-122363276D01*
X107913638Y-122363276D02*
X107866019Y-122268038D01*
X107866019Y-122268038D02*
X107770781Y-122220419D01*
X107770781Y-122220419D02*
X107675543Y-122220419D01*
X107342209Y-123220419D02*
X107342209Y-122553752D01*
X107342209Y-122220419D02*
X107389828Y-122268038D01*
X107389828Y-122268038D02*
X107342209Y-122315657D01*
X107342209Y-122315657D02*
X107294590Y-122268038D01*
X107294590Y-122268038D02*
X107342209Y-122220419D01*
X107342209Y-122220419D02*
X107342209Y-122315657D01*
X107008876Y-122553752D02*
X106627924Y-122553752D01*
X106866019Y-122220419D02*
X106866019Y-123077561D01*
X106866019Y-123077561D02*
X106818400Y-123172800D01*
X106818400Y-123172800D02*
X106723162Y-123220419D01*
X106723162Y-123220419D02*
X106627924Y-123220419D01*
X120697000Y-90148000D02*
X163747000Y-90148000D01*
X163747000Y-131148000D01*
X120697000Y-131148000D01*
X120697000Y-90148000D01*
X150043734Y-82305800D02*
X149900877Y-82353419D01*
X149900877Y-82353419D02*
X149662782Y-82353419D01*
X149662782Y-82353419D02*
X149567544Y-82305800D01*
X149567544Y-82305800D02*
X149519925Y-82258180D01*
X149519925Y-82258180D02*
X149472306Y-82162942D01*
X149472306Y-82162942D02*
X149472306Y-82067704D01*
X149472306Y-82067704D02*
X149519925Y-81972466D01*
X149519925Y-81972466D02*
X149567544Y-81924847D01*
X149567544Y-81924847D02*
X149662782Y-81877228D01*
X149662782Y-81877228D02*
X149853258Y-81829609D01*
X149853258Y-81829609D02*
X149948496Y-81781990D01*
X149948496Y-81781990D02*
X149996115Y-81734371D01*
X149996115Y-81734371D02*
X150043734Y-81639133D01*
X150043734Y-81639133D02*
X150043734Y-81543895D01*
X150043734Y-81543895D02*
X149996115Y-81448657D01*
X149996115Y-81448657D02*
X149948496Y-81401038D01*
X149948496Y-81401038D02*
X149853258Y-81353419D01*
X149853258Y-81353419D02*
X149615163Y-81353419D01*
X149615163Y-81353419D02*
X149472306Y-81401038D01*
X149138972Y-81353419D02*
X148472306Y-82353419D01*
X148472306Y-81353419D02*
X149138972Y-82353419D01*
X147567544Y-82353419D02*
X148138972Y-82353419D01*
X147853258Y-82353419D02*
X147853258Y-81353419D01*
X147853258Y-81353419D02*
X147948496Y-81496276D01*
X147948496Y-81496276D02*
X148043734Y-81591514D01*
X148043734Y-81591514D02*
X148138972Y-81639133D01*
X147186591Y-81448657D02*
X147138972Y-81401038D01*
X147138972Y-81401038D02*
X147043734Y-81353419D01*
X147043734Y-81353419D02*
X146805639Y-81353419D01*
X146805639Y-81353419D02*
X146710401Y-81401038D01*
X146710401Y-81401038D02*
X146662782Y-81448657D01*
X146662782Y-81448657D02*
X146615163Y-81543895D01*
X146615163Y-81543895D02*
X146615163Y-81639133D01*
X146615163Y-81639133D02*
X146662782Y-81781990D01*
X146662782Y-81781990D02*
X147234210Y-82353419D01*
X147234210Y-82353419D02*
X146615163Y-82353419D01*
X146281829Y-81353419D02*
X145615163Y-81353419D01*
X145615163Y-81353419D02*
X146043734Y-82353419D01*
X144805639Y-81353419D02*
X144996115Y-81353419D01*
X144996115Y-81353419D02*
X145091353Y-81401038D01*
X145091353Y-81401038D02*
X145138972Y-81448657D01*
X145138972Y-81448657D02*
X145234210Y-81591514D01*
X145234210Y-81591514D02*
X145281829Y-81781990D01*
X145281829Y-81781990D02*
X145281829Y-82162942D01*
X145281829Y-82162942D02*
X145234210Y-82258180D01*
X145234210Y-82258180D02*
X145186591Y-82305800D01*
X145186591Y-82305800D02*
X145091353Y-82353419D01*
X145091353Y-82353419D02*
X144900877Y-82353419D01*
X144900877Y-82353419D02*
X144805639Y-82305800D01*
X144805639Y-82305800D02*
X144758020Y-82258180D01*
X144758020Y-82258180D02*
X144710401Y-82162942D01*
X144710401Y-82162942D02*
X144710401Y-81924847D01*
X144710401Y-81924847D02*
X144758020Y-81829609D01*
X144758020Y-81829609D02*
X144805639Y-81781990D01*
X144805639Y-81781990D02*
X144900877Y-81734371D01*
X144900877Y-81734371D02*
X145091353Y-81734371D01*
X145091353Y-81734371D02*
X145186591Y-81781990D01*
X145186591Y-81781990D02*
X145234210Y-81829609D01*
X145234210Y-81829609D02*
X145281829Y-81924847D01*
X153521306Y-114330419D02*
X154092734Y-114330419D01*
X153807020Y-114330419D02*
X153807020Y-113330419D01*
X153807020Y-113330419D02*
X153902258Y-113473276D01*
X153902258Y-113473276D02*
X153997496Y-113568514D01*
X153997496Y-113568514D02*
X154092734Y-113616133D01*
X153743544Y-106424752D02*
X153743544Y-107091419D01*
X153981639Y-106043800D02*
X154219734Y-106758085D01*
X154219734Y-106758085D02*
X153600687Y-106758085D01*
%TO.C,U1*%
X142992000Y-89906000D02*
X152492000Y-89906000D01*
X152492000Y-73556000D01*
X142992000Y-73556000D01*
X142992000Y-89906000D01*
%TO.C,J4*%
X154046000Y-112270000D02*
X154046000Y-108070000D01*
X154546000Y-115170000D02*
X157346000Y-115170000D01*
X157346000Y-115170000D02*
X157346000Y-113170000D01*
X157346000Y-105170000D02*
X154546000Y-105170000D01*
X157346000Y-105170000D02*
X157346000Y-107170000D01*
D11*
%TO.C,BT1*%
X166560000Y-68460000D02*
X166560000Y-145740000D01*
X166560000Y-145740000D02*
X173560000Y-145740000D01*
X173560000Y-68460000D02*
X166560000Y-68460000D01*
X175750000Y-138600000D02*
X178250000Y-138600000D01*
X177000000Y-73100000D02*
X177000000Y-75600000D01*
X177000000Y-139850000D02*
X177000000Y-137350000D01*
X180440000Y-68460000D02*
X187420000Y-68460000D01*
X180440000Y-145740000D02*
X180440000Y-150100000D01*
X187440000Y-68460000D02*
X187440000Y-145740000D01*
X187440000Y-145740000D02*
X180440000Y-145740000D01*
%TD*%
M02*
