%TF.GenerationSoftware,KiCad,Pcbnew,9.0.0*%
%TF.CreationDate,2025-06-04T20:24:48+02:00*%
%TF.ProjectId,capibarazeroPCB,63617069-6261-4726-917a-65726f504342,rev?*%
%TF.SameCoordinates,Original*%
%TF.FileFunction,Legend,Top*%
%TF.FilePolarity,Positive*%
%FSLAX46Y46*%
G04 Gerber Fmt 4.6, Leading zero omitted, Abs format (unit mm)*
G04 Created by KiCad (PCBNEW 9.0.0) date 2025-06-04 20:24:48*
%MOMM*%
%LPD*%
G01*
G04 APERTURE LIST*
%ADD10C,0.100000*%
%ADD11C,0.000000*%
%ADD12C,0.300000*%
%ADD13C,0.150000*%
%ADD14C,0.120000*%
G04 APERTURE END LIST*
D10*
X135361027Y-115765976D02*
X135741979Y-115765976D01*
X135503884Y-115432643D02*
X135503884Y-116289785D01*
X135503884Y-116289785D02*
X135551503Y-116385024D01*
X135551503Y-116385024D02*
X135646741Y-116432643D01*
X135646741Y-116432643D02*
X135741979Y-116432643D01*
X136075313Y-116432643D02*
X136075313Y-115765976D01*
X136075313Y-115432643D02*
X136027694Y-115480262D01*
X136027694Y-115480262D02*
X136075313Y-115527881D01*
X136075313Y-115527881D02*
X136122932Y-115480262D01*
X136122932Y-115480262D02*
X136075313Y-115432643D01*
X136075313Y-115432643D02*
X136075313Y-115527881D01*
X136408646Y-115765976D02*
X136789598Y-115765976D01*
X136551503Y-115432643D02*
X136551503Y-116289785D01*
X136551503Y-116289785D02*
X136599122Y-116385024D01*
X136599122Y-116385024D02*
X136694360Y-116432643D01*
X136694360Y-116432643D02*
X136789598Y-116432643D01*
X137265789Y-116432643D02*
X137170551Y-116385024D01*
X137170551Y-116385024D02*
X137122932Y-116289785D01*
X137122932Y-116289785D02*
X137122932Y-115432643D01*
X138027694Y-116385024D02*
X137932456Y-116432643D01*
X137932456Y-116432643D02*
X137741980Y-116432643D01*
X137741980Y-116432643D02*
X137646742Y-116385024D01*
X137646742Y-116385024D02*
X137599123Y-116289785D01*
X137599123Y-116289785D02*
X137599123Y-115908833D01*
X137599123Y-115908833D02*
X137646742Y-115813595D01*
X137646742Y-115813595D02*
X137741980Y-115765976D01*
X137741980Y-115765976D02*
X137932456Y-115765976D01*
X137932456Y-115765976D02*
X138027694Y-115813595D01*
X138027694Y-115813595D02*
X138075313Y-115908833D01*
X138075313Y-115908833D02*
X138075313Y-116004071D01*
X138075313Y-116004071D02*
X137599123Y-116099309D01*
X138503885Y-116337404D02*
X138551504Y-116385024D01*
X138551504Y-116385024D02*
X138503885Y-116432643D01*
X138503885Y-116432643D02*
X138456266Y-116385024D01*
X138456266Y-116385024D02*
X138503885Y-116337404D01*
X138503885Y-116337404D02*
X138503885Y-116432643D01*
X138503885Y-115813595D02*
X138551504Y-115861214D01*
X138551504Y-115861214D02*
X138503885Y-115908833D01*
X138503885Y-115908833D02*
X138456266Y-115861214D01*
X138456266Y-115861214D02*
X138503885Y-115813595D01*
X138503885Y-115813595D02*
X138503885Y-115908833D01*
X140313408Y-116337404D02*
X140265789Y-116385024D01*
X140265789Y-116385024D02*
X140122932Y-116432643D01*
X140122932Y-116432643D02*
X140027694Y-116432643D01*
X140027694Y-116432643D02*
X139884837Y-116385024D01*
X139884837Y-116385024D02*
X139789599Y-116289785D01*
X139789599Y-116289785D02*
X139741980Y-116194547D01*
X139741980Y-116194547D02*
X139694361Y-116004071D01*
X139694361Y-116004071D02*
X139694361Y-115861214D01*
X139694361Y-115861214D02*
X139741980Y-115670738D01*
X139741980Y-115670738D02*
X139789599Y-115575500D01*
X139789599Y-115575500D02*
X139884837Y-115480262D01*
X139884837Y-115480262D02*
X140027694Y-115432643D01*
X140027694Y-115432643D02*
X140122932Y-115432643D01*
X140122932Y-115432643D02*
X140265789Y-115480262D01*
X140265789Y-115480262D02*
X140313408Y-115527881D01*
X141170551Y-116432643D02*
X141170551Y-115908833D01*
X141170551Y-115908833D02*
X141122932Y-115813595D01*
X141122932Y-115813595D02*
X141027694Y-115765976D01*
X141027694Y-115765976D02*
X140837218Y-115765976D01*
X140837218Y-115765976D02*
X140741980Y-115813595D01*
X141170551Y-116385024D02*
X141075313Y-116432643D01*
X141075313Y-116432643D02*
X140837218Y-116432643D01*
X140837218Y-116432643D02*
X140741980Y-116385024D01*
X140741980Y-116385024D02*
X140694361Y-116289785D01*
X140694361Y-116289785D02*
X140694361Y-116194547D01*
X140694361Y-116194547D02*
X140741980Y-116099309D01*
X140741980Y-116099309D02*
X140837218Y-116051690D01*
X140837218Y-116051690D02*
X141075313Y-116051690D01*
X141075313Y-116051690D02*
X141170551Y-116004071D01*
X141646742Y-115765976D02*
X141646742Y-116765976D01*
X141646742Y-115813595D02*
X141741980Y-115765976D01*
X141741980Y-115765976D02*
X141932456Y-115765976D01*
X141932456Y-115765976D02*
X142027694Y-115813595D01*
X142027694Y-115813595D02*
X142075313Y-115861214D01*
X142075313Y-115861214D02*
X142122932Y-115956452D01*
X142122932Y-115956452D02*
X142122932Y-116242166D01*
X142122932Y-116242166D02*
X142075313Y-116337404D01*
X142075313Y-116337404D02*
X142027694Y-116385024D01*
X142027694Y-116385024D02*
X141932456Y-116432643D01*
X141932456Y-116432643D02*
X141741980Y-116432643D01*
X141741980Y-116432643D02*
X141646742Y-116385024D01*
X142551504Y-116432643D02*
X142551504Y-115765976D01*
X142551504Y-115432643D02*
X142503885Y-115480262D01*
X142503885Y-115480262D02*
X142551504Y-115527881D01*
X142551504Y-115527881D02*
X142599123Y-115480262D01*
X142599123Y-115480262D02*
X142551504Y-115432643D01*
X142551504Y-115432643D02*
X142551504Y-115527881D01*
X143027694Y-116432643D02*
X143027694Y-115432643D01*
X143027694Y-115813595D02*
X143122932Y-115765976D01*
X143122932Y-115765976D02*
X143313408Y-115765976D01*
X143313408Y-115765976D02*
X143408646Y-115813595D01*
X143408646Y-115813595D02*
X143456265Y-115861214D01*
X143456265Y-115861214D02*
X143503884Y-115956452D01*
X143503884Y-115956452D02*
X143503884Y-116242166D01*
X143503884Y-116242166D02*
X143456265Y-116337404D01*
X143456265Y-116337404D02*
X143408646Y-116385024D01*
X143408646Y-116385024D02*
X143313408Y-116432643D01*
X143313408Y-116432643D02*
X143122932Y-116432643D01*
X143122932Y-116432643D02*
X143027694Y-116385024D01*
X144361027Y-116432643D02*
X144361027Y-115908833D01*
X144361027Y-115908833D02*
X144313408Y-115813595D01*
X144313408Y-115813595D02*
X144218170Y-115765976D01*
X144218170Y-115765976D02*
X144027694Y-115765976D01*
X144027694Y-115765976D02*
X143932456Y-115813595D01*
X144361027Y-116385024D02*
X144265789Y-116432643D01*
X144265789Y-116432643D02*
X144027694Y-116432643D01*
X144027694Y-116432643D02*
X143932456Y-116385024D01*
X143932456Y-116385024D02*
X143884837Y-116289785D01*
X143884837Y-116289785D02*
X143884837Y-116194547D01*
X143884837Y-116194547D02*
X143932456Y-116099309D01*
X143932456Y-116099309D02*
X144027694Y-116051690D01*
X144027694Y-116051690D02*
X144265789Y-116051690D01*
X144265789Y-116051690D02*
X144361027Y-116004071D01*
X144837218Y-116432643D02*
X144837218Y-115765976D01*
X144837218Y-115956452D02*
X144884837Y-115861214D01*
X144884837Y-115861214D02*
X144932456Y-115813595D01*
X144932456Y-115813595D02*
X145027694Y-115765976D01*
X145027694Y-115765976D02*
X145122932Y-115765976D01*
X145884837Y-116432643D02*
X145884837Y-115908833D01*
X145884837Y-115908833D02*
X145837218Y-115813595D01*
X145837218Y-115813595D02*
X145741980Y-115765976D01*
X145741980Y-115765976D02*
X145551504Y-115765976D01*
X145551504Y-115765976D02*
X145456266Y-115813595D01*
X145884837Y-116385024D02*
X145789599Y-116432643D01*
X145789599Y-116432643D02*
X145551504Y-116432643D01*
X145551504Y-116432643D02*
X145456266Y-116385024D01*
X145456266Y-116385024D02*
X145408647Y-116289785D01*
X145408647Y-116289785D02*
X145408647Y-116194547D01*
X145408647Y-116194547D02*
X145456266Y-116099309D01*
X145456266Y-116099309D02*
X145551504Y-116051690D01*
X145551504Y-116051690D02*
X145789599Y-116051690D01*
X145789599Y-116051690D02*
X145884837Y-116004071D01*
X146265790Y-115432643D02*
X146932456Y-115432643D01*
X146932456Y-115432643D02*
X146265790Y-116432643D01*
X146265790Y-116432643D02*
X146932456Y-116432643D01*
X147694361Y-116385024D02*
X147599123Y-116432643D01*
X147599123Y-116432643D02*
X147408647Y-116432643D01*
X147408647Y-116432643D02*
X147313409Y-116385024D01*
X147313409Y-116385024D02*
X147265790Y-116289785D01*
X147265790Y-116289785D02*
X147265790Y-115908833D01*
X147265790Y-115908833D02*
X147313409Y-115813595D01*
X147313409Y-115813595D02*
X147408647Y-115765976D01*
X147408647Y-115765976D02*
X147599123Y-115765976D01*
X147599123Y-115765976D02*
X147694361Y-115813595D01*
X147694361Y-115813595D02*
X147741980Y-115908833D01*
X147741980Y-115908833D02*
X147741980Y-116004071D01*
X147741980Y-116004071D02*
X147265790Y-116099309D01*
X148170552Y-116432643D02*
X148170552Y-115765976D01*
X148170552Y-115956452D02*
X148218171Y-115861214D01*
X148218171Y-115861214D02*
X148265790Y-115813595D01*
X148265790Y-115813595D02*
X148361028Y-115765976D01*
X148361028Y-115765976D02*
X148456266Y-115765976D01*
X148932457Y-116432643D02*
X148837219Y-116385024D01*
X148837219Y-116385024D02*
X148789600Y-116337404D01*
X148789600Y-116337404D02*
X148741981Y-116242166D01*
X148741981Y-116242166D02*
X148741981Y-115956452D01*
X148741981Y-115956452D02*
X148789600Y-115861214D01*
X148789600Y-115861214D02*
X148837219Y-115813595D01*
X148837219Y-115813595D02*
X148932457Y-115765976D01*
X148932457Y-115765976D02*
X149075314Y-115765976D01*
X149075314Y-115765976D02*
X149170552Y-115813595D01*
X149170552Y-115813595D02*
X149218171Y-115861214D01*
X149218171Y-115861214D02*
X149265790Y-115956452D01*
X149265790Y-115956452D02*
X149265790Y-116242166D01*
X149265790Y-116242166D02*
X149218171Y-116337404D01*
X149218171Y-116337404D02*
X149170552Y-116385024D01*
X149170552Y-116385024D02*
X149075314Y-116432643D01*
X149075314Y-116432643D02*
X148932457Y-116432643D01*
X150456267Y-116432643D02*
X150456267Y-115432643D01*
X150456267Y-115432643D02*
X150837219Y-115432643D01*
X150837219Y-115432643D02*
X150932457Y-115480262D01*
X150932457Y-115480262D02*
X150980076Y-115527881D01*
X150980076Y-115527881D02*
X151027695Y-115623119D01*
X151027695Y-115623119D02*
X151027695Y-115765976D01*
X151027695Y-115765976D02*
X150980076Y-115861214D01*
X150980076Y-115861214D02*
X150932457Y-115908833D01*
X150932457Y-115908833D02*
X150837219Y-115956452D01*
X150837219Y-115956452D02*
X150456267Y-115956452D01*
X152027695Y-116337404D02*
X151980076Y-116385024D01*
X151980076Y-116385024D02*
X151837219Y-116432643D01*
X151837219Y-116432643D02*
X151741981Y-116432643D01*
X151741981Y-116432643D02*
X151599124Y-116385024D01*
X151599124Y-116385024D02*
X151503886Y-116289785D01*
X151503886Y-116289785D02*
X151456267Y-116194547D01*
X151456267Y-116194547D02*
X151408648Y-116004071D01*
X151408648Y-116004071D02*
X151408648Y-115861214D01*
X151408648Y-115861214D02*
X151456267Y-115670738D01*
X151456267Y-115670738D02*
X151503886Y-115575500D01*
X151503886Y-115575500D02*
X151599124Y-115480262D01*
X151599124Y-115480262D02*
X151741981Y-115432643D01*
X151741981Y-115432643D02*
X151837219Y-115432643D01*
X151837219Y-115432643D02*
X151980076Y-115480262D01*
X151980076Y-115480262D02*
X152027695Y-115527881D01*
X152789600Y-115908833D02*
X152932457Y-115956452D01*
X152932457Y-115956452D02*
X152980076Y-116004071D01*
X152980076Y-116004071D02*
X153027695Y-116099309D01*
X153027695Y-116099309D02*
X153027695Y-116242166D01*
X153027695Y-116242166D02*
X152980076Y-116337404D01*
X152980076Y-116337404D02*
X152932457Y-116385024D01*
X152932457Y-116385024D02*
X152837219Y-116432643D01*
X152837219Y-116432643D02*
X152456267Y-116432643D01*
X152456267Y-116432643D02*
X152456267Y-115432643D01*
X152456267Y-115432643D02*
X152789600Y-115432643D01*
X152789600Y-115432643D02*
X152884838Y-115480262D01*
X152884838Y-115480262D02*
X152932457Y-115527881D01*
X152932457Y-115527881D02*
X152980076Y-115623119D01*
X152980076Y-115623119D02*
X152980076Y-115718357D01*
X152980076Y-115718357D02*
X152932457Y-115813595D01*
X152932457Y-115813595D02*
X152884838Y-115861214D01*
X152884838Y-115861214D02*
X152789600Y-115908833D01*
X152789600Y-115908833D02*
X152456267Y-115908833D01*
X135932455Y-118042587D02*
X135932455Y-117042587D01*
X135932455Y-117994968D02*
X135837217Y-118042587D01*
X135837217Y-118042587D02*
X135646741Y-118042587D01*
X135646741Y-118042587D02*
X135551503Y-117994968D01*
X135551503Y-117994968D02*
X135503884Y-117947348D01*
X135503884Y-117947348D02*
X135456265Y-117852110D01*
X135456265Y-117852110D02*
X135456265Y-117566396D01*
X135456265Y-117566396D02*
X135503884Y-117471158D01*
X135503884Y-117471158D02*
X135551503Y-117423539D01*
X135551503Y-117423539D02*
X135646741Y-117375920D01*
X135646741Y-117375920D02*
X135837217Y-117375920D01*
X135837217Y-117375920D02*
X135932455Y-117423539D01*
X136837217Y-118042587D02*
X136837217Y-117518777D01*
X136837217Y-117518777D02*
X136789598Y-117423539D01*
X136789598Y-117423539D02*
X136694360Y-117375920D01*
X136694360Y-117375920D02*
X136503884Y-117375920D01*
X136503884Y-117375920D02*
X136408646Y-117423539D01*
X136837217Y-117994968D02*
X136741979Y-118042587D01*
X136741979Y-118042587D02*
X136503884Y-118042587D01*
X136503884Y-118042587D02*
X136408646Y-117994968D01*
X136408646Y-117994968D02*
X136361027Y-117899729D01*
X136361027Y-117899729D02*
X136361027Y-117804491D01*
X136361027Y-117804491D02*
X136408646Y-117709253D01*
X136408646Y-117709253D02*
X136503884Y-117661634D01*
X136503884Y-117661634D02*
X136741979Y-117661634D01*
X136741979Y-117661634D02*
X136837217Y-117614015D01*
X137170551Y-117375920D02*
X137551503Y-117375920D01*
X137313408Y-117042587D02*
X137313408Y-117899729D01*
X137313408Y-117899729D02*
X137361027Y-117994968D01*
X137361027Y-117994968D02*
X137456265Y-118042587D01*
X137456265Y-118042587D02*
X137551503Y-118042587D01*
X138265789Y-117994968D02*
X138170551Y-118042587D01*
X138170551Y-118042587D02*
X137980075Y-118042587D01*
X137980075Y-118042587D02*
X137884837Y-117994968D01*
X137884837Y-117994968D02*
X137837218Y-117899729D01*
X137837218Y-117899729D02*
X137837218Y-117518777D01*
X137837218Y-117518777D02*
X137884837Y-117423539D01*
X137884837Y-117423539D02*
X137980075Y-117375920D01*
X137980075Y-117375920D02*
X138170551Y-117375920D01*
X138170551Y-117375920D02*
X138265789Y-117423539D01*
X138265789Y-117423539D02*
X138313408Y-117518777D01*
X138313408Y-117518777D02*
X138313408Y-117614015D01*
X138313408Y-117614015D02*
X137837218Y-117709253D01*
X138741980Y-117947348D02*
X138789599Y-117994968D01*
X138789599Y-117994968D02*
X138741980Y-118042587D01*
X138741980Y-118042587D02*
X138694361Y-117994968D01*
X138694361Y-117994968D02*
X138741980Y-117947348D01*
X138741980Y-117947348D02*
X138741980Y-118042587D01*
X138741980Y-117423539D02*
X138789599Y-117471158D01*
X138789599Y-117471158D02*
X138741980Y-117518777D01*
X138741980Y-117518777D02*
X138694361Y-117471158D01*
X138694361Y-117471158D02*
X138741980Y-117423539D01*
X138741980Y-117423539D02*
X138741980Y-117518777D01*
X140408646Y-117375920D02*
X140408646Y-118042587D01*
X140170551Y-116994968D02*
X139932456Y-117709253D01*
X139932456Y-117709253D02*
X140551503Y-117709253D01*
X140932456Y-117947348D02*
X140980075Y-117994968D01*
X140980075Y-117994968D02*
X140932456Y-118042587D01*
X140932456Y-118042587D02*
X140884837Y-117994968D01*
X140884837Y-117994968D02*
X140932456Y-117947348D01*
X140932456Y-117947348D02*
X140932456Y-118042587D01*
X141599122Y-117042587D02*
X141694360Y-117042587D01*
X141694360Y-117042587D02*
X141789598Y-117090206D01*
X141789598Y-117090206D02*
X141837217Y-117137825D01*
X141837217Y-117137825D02*
X141884836Y-117233063D01*
X141884836Y-117233063D02*
X141932455Y-117423539D01*
X141932455Y-117423539D02*
X141932455Y-117661634D01*
X141932455Y-117661634D02*
X141884836Y-117852110D01*
X141884836Y-117852110D02*
X141837217Y-117947348D01*
X141837217Y-117947348D02*
X141789598Y-117994968D01*
X141789598Y-117994968D02*
X141694360Y-118042587D01*
X141694360Y-118042587D02*
X141599122Y-118042587D01*
X141599122Y-118042587D02*
X141503884Y-117994968D01*
X141503884Y-117994968D02*
X141456265Y-117947348D01*
X141456265Y-117947348D02*
X141408646Y-117852110D01*
X141408646Y-117852110D02*
X141361027Y-117661634D01*
X141361027Y-117661634D02*
X141361027Y-117423539D01*
X141361027Y-117423539D02*
X141408646Y-117233063D01*
X141408646Y-117233063D02*
X141456265Y-117137825D01*
X141456265Y-117137825D02*
X141503884Y-117090206D01*
X141503884Y-117090206D02*
X141599122Y-117042587D01*
X142789598Y-117042587D02*
X142599122Y-117042587D01*
X142599122Y-117042587D02*
X142503884Y-117090206D01*
X142503884Y-117090206D02*
X142456265Y-117137825D01*
X142456265Y-117137825D02*
X142361027Y-117280682D01*
X142361027Y-117280682D02*
X142313408Y-117471158D01*
X142313408Y-117471158D02*
X142313408Y-117852110D01*
X142313408Y-117852110D02*
X142361027Y-117947348D01*
X142361027Y-117947348D02*
X142408646Y-117994968D01*
X142408646Y-117994968D02*
X142503884Y-118042587D01*
X142503884Y-118042587D02*
X142694360Y-118042587D01*
X142694360Y-118042587D02*
X142789598Y-117994968D01*
X142789598Y-117994968D02*
X142837217Y-117947348D01*
X142837217Y-117947348D02*
X142884836Y-117852110D01*
X142884836Y-117852110D02*
X142884836Y-117614015D01*
X142884836Y-117614015D02*
X142837217Y-117518777D01*
X142837217Y-117518777D02*
X142789598Y-117471158D01*
X142789598Y-117471158D02*
X142694360Y-117423539D01*
X142694360Y-117423539D02*
X142503884Y-117423539D01*
X142503884Y-117423539D02*
X142408646Y-117471158D01*
X142408646Y-117471158D02*
X142361027Y-117518777D01*
X142361027Y-117518777D02*
X142313408Y-117614015D01*
X143313408Y-117947348D02*
X143361027Y-117994968D01*
X143361027Y-117994968D02*
X143313408Y-118042587D01*
X143313408Y-118042587D02*
X143265789Y-117994968D01*
X143265789Y-117994968D02*
X143313408Y-117947348D01*
X143313408Y-117947348D02*
X143313408Y-118042587D01*
X143741979Y-117137825D02*
X143789598Y-117090206D01*
X143789598Y-117090206D02*
X143884836Y-117042587D01*
X143884836Y-117042587D02*
X144122931Y-117042587D01*
X144122931Y-117042587D02*
X144218169Y-117090206D01*
X144218169Y-117090206D02*
X144265788Y-117137825D01*
X144265788Y-117137825D02*
X144313407Y-117233063D01*
X144313407Y-117233063D02*
X144313407Y-117328301D01*
X144313407Y-117328301D02*
X144265788Y-117471158D01*
X144265788Y-117471158D02*
X143694360Y-118042587D01*
X143694360Y-118042587D02*
X144313407Y-118042587D01*
X144932455Y-117042587D02*
X145027693Y-117042587D01*
X145027693Y-117042587D02*
X145122931Y-117090206D01*
X145122931Y-117090206D02*
X145170550Y-117137825D01*
X145170550Y-117137825D02*
X145218169Y-117233063D01*
X145218169Y-117233063D02*
X145265788Y-117423539D01*
X145265788Y-117423539D02*
X145265788Y-117661634D01*
X145265788Y-117661634D02*
X145218169Y-117852110D01*
X145218169Y-117852110D02*
X145170550Y-117947348D01*
X145170550Y-117947348D02*
X145122931Y-117994968D01*
X145122931Y-117994968D02*
X145027693Y-118042587D01*
X145027693Y-118042587D02*
X144932455Y-118042587D01*
X144932455Y-118042587D02*
X144837217Y-117994968D01*
X144837217Y-117994968D02*
X144789598Y-117947348D01*
X144789598Y-117947348D02*
X144741979Y-117852110D01*
X144741979Y-117852110D02*
X144694360Y-117661634D01*
X144694360Y-117661634D02*
X144694360Y-117423539D01*
X144694360Y-117423539D02*
X144741979Y-117233063D01*
X144741979Y-117233063D02*
X144789598Y-117137825D01*
X144789598Y-117137825D02*
X144837217Y-117090206D01*
X144837217Y-117090206D02*
X144932455Y-117042587D01*
X145646741Y-117137825D02*
X145694360Y-117090206D01*
X145694360Y-117090206D02*
X145789598Y-117042587D01*
X145789598Y-117042587D02*
X146027693Y-117042587D01*
X146027693Y-117042587D02*
X146122931Y-117090206D01*
X146122931Y-117090206D02*
X146170550Y-117137825D01*
X146170550Y-117137825D02*
X146218169Y-117233063D01*
X146218169Y-117233063D02*
X146218169Y-117328301D01*
X146218169Y-117328301D02*
X146170550Y-117471158D01*
X146170550Y-117471158D02*
X145599122Y-118042587D01*
X145599122Y-118042587D02*
X146218169Y-118042587D01*
X147122931Y-117042587D02*
X146646741Y-117042587D01*
X146646741Y-117042587D02*
X146599122Y-117518777D01*
X146599122Y-117518777D02*
X146646741Y-117471158D01*
X146646741Y-117471158D02*
X146741979Y-117423539D01*
X146741979Y-117423539D02*
X146980074Y-117423539D01*
X146980074Y-117423539D02*
X147075312Y-117471158D01*
X147075312Y-117471158D02*
X147122931Y-117518777D01*
X147122931Y-117518777D02*
X147170550Y-117614015D01*
X147170550Y-117614015D02*
X147170550Y-117852110D01*
X147170550Y-117852110D02*
X147122931Y-117947348D01*
X147122931Y-117947348D02*
X147075312Y-117994968D01*
X147075312Y-117994968D02*
X146980074Y-118042587D01*
X146980074Y-118042587D02*
X146741979Y-118042587D01*
X146741979Y-118042587D02*
X146646741Y-117994968D01*
X146646741Y-117994968D02*
X146599122Y-117947348D01*
X135503884Y-119652531D02*
X135503884Y-118985864D01*
X135503884Y-119176340D02*
X135551503Y-119081102D01*
X135551503Y-119081102D02*
X135599122Y-119033483D01*
X135599122Y-119033483D02*
X135694360Y-118985864D01*
X135694360Y-118985864D02*
X135789598Y-118985864D01*
X136503884Y-119604912D02*
X136408646Y-119652531D01*
X136408646Y-119652531D02*
X136218170Y-119652531D01*
X136218170Y-119652531D02*
X136122932Y-119604912D01*
X136122932Y-119604912D02*
X136075313Y-119509673D01*
X136075313Y-119509673D02*
X136075313Y-119128721D01*
X136075313Y-119128721D02*
X136122932Y-119033483D01*
X136122932Y-119033483D02*
X136218170Y-118985864D01*
X136218170Y-118985864D02*
X136408646Y-118985864D01*
X136408646Y-118985864D02*
X136503884Y-119033483D01*
X136503884Y-119033483D02*
X136551503Y-119128721D01*
X136551503Y-119128721D02*
X136551503Y-119223959D01*
X136551503Y-119223959D02*
X136075313Y-119319197D01*
X136884837Y-118985864D02*
X137122932Y-119652531D01*
X137122932Y-119652531D02*
X137361027Y-118985864D01*
X137741980Y-119557292D02*
X137789599Y-119604912D01*
X137789599Y-119604912D02*
X137741980Y-119652531D01*
X137741980Y-119652531D02*
X137694361Y-119604912D01*
X137694361Y-119604912D02*
X137741980Y-119557292D01*
X137741980Y-119557292D02*
X137741980Y-119652531D01*
X138218170Y-119557292D02*
X138265789Y-119604912D01*
X138265789Y-119604912D02*
X138218170Y-119652531D01*
X138218170Y-119652531D02*
X138170551Y-119604912D01*
X138170551Y-119604912D02*
X138218170Y-119557292D01*
X138218170Y-119557292D02*
X138218170Y-119652531D01*
X138218170Y-119033483D02*
X138265789Y-119081102D01*
X138265789Y-119081102D02*
X138218170Y-119128721D01*
X138218170Y-119128721D02*
X138170551Y-119081102D01*
X138170551Y-119081102D02*
X138218170Y-119033483D01*
X138218170Y-119033483D02*
X138218170Y-119128721D01*
X139980074Y-119652531D02*
X139408646Y-119652531D01*
X139694360Y-119652531D02*
X139694360Y-118652531D01*
X139694360Y-118652531D02*
X139599122Y-118795388D01*
X139599122Y-118795388D02*
X139503884Y-118890626D01*
X139503884Y-118890626D02*
X139408646Y-118938245D01*
X140408646Y-119557292D02*
X140456265Y-119604912D01*
X140456265Y-119604912D02*
X140408646Y-119652531D01*
X140408646Y-119652531D02*
X140361027Y-119604912D01*
X140361027Y-119604912D02*
X140408646Y-119557292D01*
X140408646Y-119557292D02*
X140408646Y-119652531D01*
X141361026Y-118652531D02*
X140884836Y-118652531D01*
X140884836Y-118652531D02*
X140837217Y-119128721D01*
X140837217Y-119128721D02*
X140884836Y-119081102D01*
X140884836Y-119081102D02*
X140980074Y-119033483D01*
X140980074Y-119033483D02*
X141218169Y-119033483D01*
X141218169Y-119033483D02*
X141313407Y-119081102D01*
X141313407Y-119081102D02*
X141361026Y-119128721D01*
X141361026Y-119128721D02*
X141408645Y-119223959D01*
X141408645Y-119223959D02*
X141408645Y-119462054D01*
X141408645Y-119462054D02*
X141361026Y-119557292D01*
X141361026Y-119557292D02*
X141313407Y-119604912D01*
X141313407Y-119604912D02*
X141218169Y-119652531D01*
X141218169Y-119652531D02*
X140980074Y-119652531D01*
X140980074Y-119652531D02*
X140884836Y-119604912D01*
X140884836Y-119604912D02*
X140837217Y-119557292D01*
X135932455Y-121214856D02*
X135837217Y-121262475D01*
X135837217Y-121262475D02*
X135646741Y-121262475D01*
X135646741Y-121262475D02*
X135551503Y-121214856D01*
X135551503Y-121214856D02*
X135503884Y-121167236D01*
X135503884Y-121167236D02*
X135456265Y-121071998D01*
X135456265Y-121071998D02*
X135456265Y-120786284D01*
X135456265Y-120786284D02*
X135503884Y-120691046D01*
X135503884Y-120691046D02*
X135551503Y-120643427D01*
X135551503Y-120643427D02*
X135646741Y-120595808D01*
X135646741Y-120595808D02*
X135837217Y-120595808D01*
X135837217Y-120595808D02*
X135932455Y-120643427D01*
X136361027Y-121262475D02*
X136361027Y-120595808D01*
X136361027Y-120786284D02*
X136408646Y-120691046D01*
X136408646Y-120691046D02*
X136456265Y-120643427D01*
X136456265Y-120643427D02*
X136551503Y-120595808D01*
X136551503Y-120595808D02*
X136646741Y-120595808D01*
X137361027Y-121214856D02*
X137265789Y-121262475D01*
X137265789Y-121262475D02*
X137075313Y-121262475D01*
X137075313Y-121262475D02*
X136980075Y-121214856D01*
X136980075Y-121214856D02*
X136932456Y-121119617D01*
X136932456Y-121119617D02*
X136932456Y-120738665D01*
X136932456Y-120738665D02*
X136980075Y-120643427D01*
X136980075Y-120643427D02*
X137075313Y-120595808D01*
X137075313Y-120595808D02*
X137265789Y-120595808D01*
X137265789Y-120595808D02*
X137361027Y-120643427D01*
X137361027Y-120643427D02*
X137408646Y-120738665D01*
X137408646Y-120738665D02*
X137408646Y-120833903D01*
X137408646Y-120833903D02*
X136932456Y-120929141D01*
X138265789Y-121262475D02*
X138265789Y-120262475D01*
X138265789Y-121214856D02*
X138170551Y-121262475D01*
X138170551Y-121262475D02*
X137980075Y-121262475D01*
X137980075Y-121262475D02*
X137884837Y-121214856D01*
X137884837Y-121214856D02*
X137837218Y-121167236D01*
X137837218Y-121167236D02*
X137789599Y-121071998D01*
X137789599Y-121071998D02*
X137789599Y-120786284D01*
X137789599Y-120786284D02*
X137837218Y-120691046D01*
X137837218Y-120691046D02*
X137884837Y-120643427D01*
X137884837Y-120643427D02*
X137980075Y-120595808D01*
X137980075Y-120595808D02*
X138170551Y-120595808D01*
X138170551Y-120595808D02*
X138265789Y-120643427D01*
X138741980Y-121262475D02*
X138741980Y-120595808D01*
X138741980Y-120262475D02*
X138694361Y-120310094D01*
X138694361Y-120310094D02*
X138741980Y-120357713D01*
X138741980Y-120357713D02*
X138789599Y-120310094D01*
X138789599Y-120310094D02*
X138741980Y-120262475D01*
X138741980Y-120262475D02*
X138741980Y-120357713D01*
X139075313Y-120595808D02*
X139456265Y-120595808D01*
X139218170Y-120262475D02*
X139218170Y-121119617D01*
X139218170Y-121119617D02*
X139265789Y-121214856D01*
X139265789Y-121214856D02*
X139361027Y-121262475D01*
X139361027Y-121262475D02*
X139456265Y-121262475D01*
X139741980Y-121214856D02*
X139837218Y-121262475D01*
X139837218Y-121262475D02*
X140027694Y-121262475D01*
X140027694Y-121262475D02*
X140122932Y-121214856D01*
X140122932Y-121214856D02*
X140170551Y-121119617D01*
X140170551Y-121119617D02*
X140170551Y-121071998D01*
X140170551Y-121071998D02*
X140122932Y-120976760D01*
X140122932Y-120976760D02*
X140027694Y-120929141D01*
X140027694Y-120929141D02*
X139884837Y-120929141D01*
X139884837Y-120929141D02*
X139789599Y-120881522D01*
X139789599Y-120881522D02*
X139741980Y-120786284D01*
X139741980Y-120786284D02*
X139741980Y-120738665D01*
X139741980Y-120738665D02*
X139789599Y-120643427D01*
X139789599Y-120643427D02*
X139884837Y-120595808D01*
X139884837Y-120595808D02*
X140027694Y-120595808D01*
X140027694Y-120595808D02*
X140122932Y-120643427D01*
X140599123Y-121167236D02*
X140646742Y-121214856D01*
X140646742Y-121214856D02*
X140599123Y-121262475D01*
X140599123Y-121262475D02*
X140551504Y-121214856D01*
X140551504Y-121214856D02*
X140599123Y-121167236D01*
X140599123Y-121167236D02*
X140599123Y-121262475D01*
X140599123Y-120643427D02*
X140646742Y-120691046D01*
X140646742Y-120691046D02*
X140599123Y-120738665D01*
X140599123Y-120738665D02*
X140551504Y-120691046D01*
X140551504Y-120691046D02*
X140599123Y-120643427D01*
X140599123Y-120643427D02*
X140599123Y-120738665D01*
X142265789Y-121214856D02*
X142170551Y-121262475D01*
X142170551Y-121262475D02*
X141980075Y-121262475D01*
X141980075Y-121262475D02*
X141884837Y-121214856D01*
X141884837Y-121214856D02*
X141837218Y-121167236D01*
X141837218Y-121167236D02*
X141789599Y-121071998D01*
X141789599Y-121071998D02*
X141789599Y-120786284D01*
X141789599Y-120786284D02*
X141837218Y-120691046D01*
X141837218Y-120691046D02*
X141884837Y-120643427D01*
X141884837Y-120643427D02*
X141980075Y-120595808D01*
X141980075Y-120595808D02*
X142170551Y-120595808D01*
X142170551Y-120595808D02*
X142265789Y-120643427D01*
X143122932Y-121262475D02*
X143122932Y-120738665D01*
X143122932Y-120738665D02*
X143075313Y-120643427D01*
X143075313Y-120643427D02*
X142980075Y-120595808D01*
X142980075Y-120595808D02*
X142789599Y-120595808D01*
X142789599Y-120595808D02*
X142694361Y-120643427D01*
X143122932Y-121214856D02*
X143027694Y-121262475D01*
X143027694Y-121262475D02*
X142789599Y-121262475D01*
X142789599Y-121262475D02*
X142694361Y-121214856D01*
X142694361Y-121214856D02*
X142646742Y-121119617D01*
X142646742Y-121119617D02*
X142646742Y-121024379D01*
X142646742Y-121024379D02*
X142694361Y-120929141D01*
X142694361Y-120929141D02*
X142789599Y-120881522D01*
X142789599Y-120881522D02*
X143027694Y-120881522D01*
X143027694Y-120881522D02*
X143122932Y-120833903D01*
X143599123Y-120595808D02*
X143599123Y-121595808D01*
X143599123Y-120643427D02*
X143694361Y-120595808D01*
X143694361Y-120595808D02*
X143884837Y-120595808D01*
X143884837Y-120595808D02*
X143980075Y-120643427D01*
X143980075Y-120643427D02*
X144027694Y-120691046D01*
X144027694Y-120691046D02*
X144075313Y-120786284D01*
X144075313Y-120786284D02*
X144075313Y-121071998D01*
X144075313Y-121071998D02*
X144027694Y-121167236D01*
X144027694Y-121167236D02*
X143980075Y-121214856D01*
X143980075Y-121214856D02*
X143884837Y-121262475D01*
X143884837Y-121262475D02*
X143694361Y-121262475D01*
X143694361Y-121262475D02*
X143599123Y-121214856D01*
X144503885Y-121262475D02*
X144503885Y-120595808D01*
X144503885Y-120262475D02*
X144456266Y-120310094D01*
X144456266Y-120310094D02*
X144503885Y-120357713D01*
X144503885Y-120357713D02*
X144551504Y-120310094D01*
X144551504Y-120310094D02*
X144503885Y-120262475D01*
X144503885Y-120262475D02*
X144503885Y-120357713D01*
X144980075Y-121262475D02*
X144980075Y-120262475D01*
X144980075Y-120643427D02*
X145075313Y-120595808D01*
X145075313Y-120595808D02*
X145265789Y-120595808D01*
X145265789Y-120595808D02*
X145361027Y-120643427D01*
X145361027Y-120643427D02*
X145408646Y-120691046D01*
X145408646Y-120691046D02*
X145456265Y-120786284D01*
X145456265Y-120786284D02*
X145456265Y-121071998D01*
X145456265Y-121071998D02*
X145408646Y-121167236D01*
X145408646Y-121167236D02*
X145361027Y-121214856D01*
X145361027Y-121214856D02*
X145265789Y-121262475D01*
X145265789Y-121262475D02*
X145075313Y-121262475D01*
X145075313Y-121262475D02*
X144980075Y-121214856D01*
X146313408Y-121262475D02*
X146313408Y-120738665D01*
X146313408Y-120738665D02*
X146265789Y-120643427D01*
X146265789Y-120643427D02*
X146170551Y-120595808D01*
X146170551Y-120595808D02*
X145980075Y-120595808D01*
X145980075Y-120595808D02*
X145884837Y-120643427D01*
X146313408Y-121214856D02*
X146218170Y-121262475D01*
X146218170Y-121262475D02*
X145980075Y-121262475D01*
X145980075Y-121262475D02*
X145884837Y-121214856D01*
X145884837Y-121214856D02*
X145837218Y-121119617D01*
X145837218Y-121119617D02*
X145837218Y-121024379D01*
X145837218Y-121024379D02*
X145884837Y-120929141D01*
X145884837Y-120929141D02*
X145980075Y-120881522D01*
X145980075Y-120881522D02*
X146218170Y-120881522D01*
X146218170Y-120881522D02*
X146313408Y-120833903D01*
X146789599Y-121262475D02*
X146789599Y-120595808D01*
X146789599Y-120786284D02*
X146837218Y-120691046D01*
X146837218Y-120691046D02*
X146884837Y-120643427D01*
X146884837Y-120643427D02*
X146980075Y-120595808D01*
X146980075Y-120595808D02*
X147075313Y-120595808D01*
X147837218Y-121262475D02*
X147837218Y-120738665D01*
X147837218Y-120738665D02*
X147789599Y-120643427D01*
X147789599Y-120643427D02*
X147694361Y-120595808D01*
X147694361Y-120595808D02*
X147503885Y-120595808D01*
X147503885Y-120595808D02*
X147408647Y-120643427D01*
X147837218Y-121214856D02*
X147741980Y-121262475D01*
X147741980Y-121262475D02*
X147503885Y-121262475D01*
X147503885Y-121262475D02*
X147408647Y-121214856D01*
X147408647Y-121214856D02*
X147361028Y-121119617D01*
X147361028Y-121119617D02*
X147361028Y-121024379D01*
X147361028Y-121024379D02*
X147408647Y-120929141D01*
X147408647Y-120929141D02*
X147503885Y-120881522D01*
X147503885Y-120881522D02*
X147741980Y-120881522D01*
X147741980Y-120881522D02*
X147837218Y-120833903D01*
X148218171Y-120595808D02*
X148741980Y-120595808D01*
X148741980Y-120595808D02*
X148218171Y-121262475D01*
X148218171Y-121262475D02*
X148741980Y-121262475D01*
X149503885Y-121214856D02*
X149408647Y-121262475D01*
X149408647Y-121262475D02*
X149218171Y-121262475D01*
X149218171Y-121262475D02*
X149122933Y-121214856D01*
X149122933Y-121214856D02*
X149075314Y-121119617D01*
X149075314Y-121119617D02*
X149075314Y-120738665D01*
X149075314Y-120738665D02*
X149122933Y-120643427D01*
X149122933Y-120643427D02*
X149218171Y-120595808D01*
X149218171Y-120595808D02*
X149408647Y-120595808D01*
X149408647Y-120595808D02*
X149503885Y-120643427D01*
X149503885Y-120643427D02*
X149551504Y-120738665D01*
X149551504Y-120738665D02*
X149551504Y-120833903D01*
X149551504Y-120833903D02*
X149075314Y-120929141D01*
X149980076Y-121262475D02*
X149980076Y-120595808D01*
X149980076Y-120786284D02*
X150027695Y-120691046D01*
X150027695Y-120691046D02*
X150075314Y-120643427D01*
X150075314Y-120643427D02*
X150170552Y-120595808D01*
X150170552Y-120595808D02*
X150265790Y-120595808D01*
X150741981Y-121262475D02*
X150646743Y-121214856D01*
X150646743Y-121214856D02*
X150599124Y-121167236D01*
X150599124Y-121167236D02*
X150551505Y-121071998D01*
X150551505Y-121071998D02*
X150551505Y-120786284D01*
X150551505Y-120786284D02*
X150599124Y-120691046D01*
X150599124Y-120691046D02*
X150646743Y-120643427D01*
X150646743Y-120643427D02*
X150741981Y-120595808D01*
X150741981Y-120595808D02*
X150884838Y-120595808D01*
X150884838Y-120595808D02*
X150980076Y-120643427D01*
X150980076Y-120643427D02*
X151027695Y-120691046D01*
X151027695Y-120691046D02*
X151075314Y-120786284D01*
X151075314Y-120786284D02*
X151075314Y-121071998D01*
X151075314Y-121071998D02*
X151027695Y-121167236D01*
X151027695Y-121167236D02*
X150980076Y-121214856D01*
X150980076Y-121214856D02*
X150884838Y-121262475D01*
X150884838Y-121262475D02*
X150741981Y-121262475D01*
X151503886Y-121167236D02*
X151551505Y-121214856D01*
X151551505Y-121214856D02*
X151503886Y-121262475D01*
X151503886Y-121262475D02*
X151456267Y-121214856D01*
X151456267Y-121214856D02*
X151503886Y-121167236D01*
X151503886Y-121167236D02*
X151503886Y-121262475D01*
X152408647Y-121214856D02*
X152313409Y-121262475D01*
X152313409Y-121262475D02*
X152122933Y-121262475D01*
X152122933Y-121262475D02*
X152027695Y-121214856D01*
X152027695Y-121214856D02*
X151980076Y-121167236D01*
X151980076Y-121167236D02*
X151932457Y-121071998D01*
X151932457Y-121071998D02*
X151932457Y-120786284D01*
X151932457Y-120786284D02*
X151980076Y-120691046D01*
X151980076Y-120691046D02*
X152027695Y-120643427D01*
X152027695Y-120643427D02*
X152122933Y-120595808D01*
X152122933Y-120595808D02*
X152313409Y-120595808D01*
X152313409Y-120595808D02*
X152408647Y-120643427D01*
X152980076Y-121262475D02*
X152884838Y-121214856D01*
X152884838Y-121214856D02*
X152837219Y-121167236D01*
X152837219Y-121167236D02*
X152789600Y-121071998D01*
X152789600Y-121071998D02*
X152789600Y-120786284D01*
X152789600Y-120786284D02*
X152837219Y-120691046D01*
X152837219Y-120691046D02*
X152884838Y-120643427D01*
X152884838Y-120643427D02*
X152980076Y-120595808D01*
X152980076Y-120595808D02*
X153122933Y-120595808D01*
X153122933Y-120595808D02*
X153218171Y-120643427D01*
X153218171Y-120643427D02*
X153265790Y-120691046D01*
X153265790Y-120691046D02*
X153313409Y-120786284D01*
X153313409Y-120786284D02*
X153313409Y-121071998D01*
X153313409Y-121071998D02*
X153265790Y-121167236D01*
X153265790Y-121167236D02*
X153218171Y-121214856D01*
X153218171Y-121214856D02*
X153122933Y-121262475D01*
X153122933Y-121262475D02*
X152980076Y-121262475D01*
X153741981Y-121262475D02*
X153741981Y-120595808D01*
X153741981Y-120691046D02*
X153789600Y-120643427D01*
X153789600Y-120643427D02*
X153884838Y-120595808D01*
X153884838Y-120595808D02*
X154027695Y-120595808D01*
X154027695Y-120595808D02*
X154122933Y-120643427D01*
X154122933Y-120643427D02*
X154170552Y-120738665D01*
X154170552Y-120738665D02*
X154170552Y-121262475D01*
X154170552Y-120738665D02*
X154218171Y-120643427D01*
X154218171Y-120643427D02*
X154313409Y-120595808D01*
X154313409Y-120595808D02*
X154456266Y-120595808D01*
X154456266Y-120595808D02*
X154551505Y-120643427D01*
X154551505Y-120643427D02*
X154599124Y-120738665D01*
X154599124Y-120738665D02*
X154599124Y-121262475D01*
X135503884Y-122872419D02*
X135503884Y-121872419D01*
X135503884Y-121872419D02*
X135837217Y-122586704D01*
X135837217Y-122586704D02*
X136170550Y-121872419D01*
X136170550Y-121872419D02*
X136170550Y-122872419D01*
X137075312Y-122872419D02*
X137075312Y-122348609D01*
X137075312Y-122348609D02*
X137027693Y-122253371D01*
X137027693Y-122253371D02*
X136932455Y-122205752D01*
X136932455Y-122205752D02*
X136741979Y-122205752D01*
X136741979Y-122205752D02*
X136646741Y-122253371D01*
X137075312Y-122824800D02*
X136980074Y-122872419D01*
X136980074Y-122872419D02*
X136741979Y-122872419D01*
X136741979Y-122872419D02*
X136646741Y-122824800D01*
X136646741Y-122824800D02*
X136599122Y-122729561D01*
X136599122Y-122729561D02*
X136599122Y-122634323D01*
X136599122Y-122634323D02*
X136646741Y-122539085D01*
X136646741Y-122539085D02*
X136741979Y-122491466D01*
X136741979Y-122491466D02*
X136980074Y-122491466D01*
X136980074Y-122491466D02*
X137075312Y-122443847D01*
X137980074Y-122872419D02*
X137980074Y-121872419D01*
X137980074Y-122824800D02*
X137884836Y-122872419D01*
X137884836Y-122872419D02*
X137694360Y-122872419D01*
X137694360Y-122872419D02*
X137599122Y-122824800D01*
X137599122Y-122824800D02*
X137551503Y-122777180D01*
X137551503Y-122777180D02*
X137503884Y-122681942D01*
X137503884Y-122681942D02*
X137503884Y-122396228D01*
X137503884Y-122396228D02*
X137551503Y-122300990D01*
X137551503Y-122300990D02*
X137599122Y-122253371D01*
X137599122Y-122253371D02*
X137694360Y-122205752D01*
X137694360Y-122205752D02*
X137884836Y-122205752D01*
X137884836Y-122205752D02*
X137980074Y-122253371D01*
X138837217Y-122824800D02*
X138741979Y-122872419D01*
X138741979Y-122872419D02*
X138551503Y-122872419D01*
X138551503Y-122872419D02*
X138456265Y-122824800D01*
X138456265Y-122824800D02*
X138408646Y-122729561D01*
X138408646Y-122729561D02*
X138408646Y-122348609D01*
X138408646Y-122348609D02*
X138456265Y-122253371D01*
X138456265Y-122253371D02*
X138551503Y-122205752D01*
X138551503Y-122205752D02*
X138741979Y-122205752D01*
X138741979Y-122205752D02*
X138837217Y-122253371D01*
X138837217Y-122253371D02*
X138884836Y-122348609D01*
X138884836Y-122348609D02*
X138884836Y-122443847D01*
X138884836Y-122443847D02*
X138408646Y-122539085D01*
X140075313Y-122872419D02*
X140075313Y-121872419D01*
X140075313Y-122253371D02*
X140170551Y-122205752D01*
X140170551Y-122205752D02*
X140361027Y-122205752D01*
X140361027Y-122205752D02*
X140456265Y-122253371D01*
X140456265Y-122253371D02*
X140503884Y-122300990D01*
X140503884Y-122300990D02*
X140551503Y-122396228D01*
X140551503Y-122396228D02*
X140551503Y-122681942D01*
X140551503Y-122681942D02*
X140503884Y-122777180D01*
X140503884Y-122777180D02*
X140456265Y-122824800D01*
X140456265Y-122824800D02*
X140361027Y-122872419D01*
X140361027Y-122872419D02*
X140170551Y-122872419D01*
X140170551Y-122872419D02*
X140075313Y-122824800D01*
X140884837Y-122205752D02*
X141122932Y-122872419D01*
X141361027Y-122205752D02*
X141122932Y-122872419D01*
X141122932Y-122872419D02*
X141027694Y-123110514D01*
X141027694Y-123110514D02*
X140980075Y-123158133D01*
X140980075Y-123158133D02*
X140884837Y-123205752D01*
X143027694Y-121920038D02*
X142932456Y-121872419D01*
X142932456Y-121872419D02*
X142789599Y-121872419D01*
X142789599Y-121872419D02*
X142646742Y-121920038D01*
X142646742Y-121920038D02*
X142551504Y-122015276D01*
X142551504Y-122015276D02*
X142503885Y-122110514D01*
X142503885Y-122110514D02*
X142456266Y-122300990D01*
X142456266Y-122300990D02*
X142456266Y-122443847D01*
X142456266Y-122443847D02*
X142503885Y-122634323D01*
X142503885Y-122634323D02*
X142551504Y-122729561D01*
X142551504Y-122729561D02*
X142646742Y-122824800D01*
X142646742Y-122824800D02*
X142789599Y-122872419D01*
X142789599Y-122872419D02*
X142884837Y-122872419D01*
X142884837Y-122872419D02*
X143027694Y-122824800D01*
X143027694Y-122824800D02*
X143075313Y-122777180D01*
X143075313Y-122777180D02*
X143075313Y-122443847D01*
X143075313Y-122443847D02*
X142884837Y-122443847D01*
X143646742Y-122872419D02*
X143551504Y-122824800D01*
X143551504Y-122824800D02*
X143503885Y-122729561D01*
X143503885Y-122729561D02*
X143503885Y-121872419D01*
X144027695Y-122872419D02*
X144027695Y-122205752D01*
X144027695Y-121872419D02*
X143980076Y-121920038D01*
X143980076Y-121920038D02*
X144027695Y-121967657D01*
X144027695Y-121967657D02*
X144075314Y-121920038D01*
X144075314Y-121920038D02*
X144027695Y-121872419D01*
X144027695Y-121872419D02*
X144027695Y-121967657D01*
X144503885Y-122205752D02*
X144503885Y-122872419D01*
X144503885Y-122300990D02*
X144551504Y-122253371D01*
X144551504Y-122253371D02*
X144646742Y-122205752D01*
X144646742Y-122205752D02*
X144789599Y-122205752D01*
X144789599Y-122205752D02*
X144884837Y-122253371D01*
X144884837Y-122253371D02*
X144932456Y-122348609D01*
X144932456Y-122348609D02*
X144932456Y-122872419D01*
X145789599Y-122824800D02*
X145694361Y-122872419D01*
X145694361Y-122872419D02*
X145503885Y-122872419D01*
X145503885Y-122872419D02*
X145408647Y-122824800D01*
X145408647Y-122824800D02*
X145361028Y-122729561D01*
X145361028Y-122729561D02*
X145361028Y-122348609D01*
X145361028Y-122348609D02*
X145408647Y-122253371D01*
X145408647Y-122253371D02*
X145503885Y-122205752D01*
X145503885Y-122205752D02*
X145694361Y-122205752D01*
X145694361Y-122205752D02*
X145789599Y-122253371D01*
X145789599Y-122253371D02*
X145837218Y-122348609D01*
X145837218Y-122348609D02*
X145837218Y-122443847D01*
X145837218Y-122443847D02*
X145361028Y-122539085D01*
X146265790Y-122872419D02*
X146265790Y-121872419D01*
X146361028Y-122491466D02*
X146646742Y-122872419D01*
X146646742Y-122205752D02*
X146265790Y-122586704D01*
X148265790Y-122205752D02*
X148265790Y-122872419D01*
X147837219Y-122205752D02*
X147837219Y-122729561D01*
X147837219Y-122729561D02*
X147884838Y-122824800D01*
X147884838Y-122824800D02*
X147980076Y-122872419D01*
X147980076Y-122872419D02*
X148122933Y-122872419D01*
X148122933Y-122872419D02*
X148218171Y-122824800D01*
X148218171Y-122824800D02*
X148265790Y-122777180D01*
X148741981Y-122205752D02*
X148741981Y-122872419D01*
X148741981Y-122300990D02*
X148789600Y-122253371D01*
X148789600Y-122253371D02*
X148884838Y-122205752D01*
X148884838Y-122205752D02*
X149027695Y-122205752D01*
X149027695Y-122205752D02*
X149122933Y-122253371D01*
X149122933Y-122253371D02*
X149170552Y-122348609D01*
X149170552Y-122348609D02*
X149170552Y-122872419D01*
X150075314Y-122872419D02*
X150075314Y-121872419D01*
X150075314Y-122824800D02*
X149980076Y-122872419D01*
X149980076Y-122872419D02*
X149789600Y-122872419D01*
X149789600Y-122872419D02*
X149694362Y-122824800D01*
X149694362Y-122824800D02*
X149646743Y-122777180D01*
X149646743Y-122777180D02*
X149599124Y-122681942D01*
X149599124Y-122681942D02*
X149599124Y-122396228D01*
X149599124Y-122396228D02*
X149646743Y-122300990D01*
X149646743Y-122300990D02*
X149694362Y-122253371D01*
X149694362Y-122253371D02*
X149789600Y-122205752D01*
X149789600Y-122205752D02*
X149980076Y-122205752D01*
X149980076Y-122205752D02*
X150075314Y-122253371D01*
X150932457Y-122824800D02*
X150837219Y-122872419D01*
X150837219Y-122872419D02*
X150646743Y-122872419D01*
X150646743Y-122872419D02*
X150551505Y-122824800D01*
X150551505Y-122824800D02*
X150503886Y-122729561D01*
X150503886Y-122729561D02*
X150503886Y-122348609D01*
X150503886Y-122348609D02*
X150551505Y-122253371D01*
X150551505Y-122253371D02*
X150646743Y-122205752D01*
X150646743Y-122205752D02*
X150837219Y-122205752D01*
X150837219Y-122205752D02*
X150932457Y-122253371D01*
X150932457Y-122253371D02*
X150980076Y-122348609D01*
X150980076Y-122348609D02*
X150980076Y-122443847D01*
X150980076Y-122443847D02*
X150503886Y-122539085D01*
X151408648Y-122872419D02*
X151408648Y-122205752D01*
X151408648Y-122396228D02*
X151456267Y-122300990D01*
X151456267Y-122300990D02*
X151503886Y-122253371D01*
X151503886Y-122253371D02*
X151599124Y-122205752D01*
X151599124Y-122205752D02*
X151694362Y-122205752D01*
X152741982Y-122586704D02*
X153218172Y-122586704D01*
X152646744Y-122872419D02*
X152980077Y-121872419D01*
X152980077Y-121872419D02*
X153313410Y-122872419D01*
X153646744Y-122872419D02*
X153646744Y-121872419D01*
X153646744Y-121872419D02*
X154218172Y-122872419D01*
X154218172Y-122872419D02*
X154218172Y-121872419D01*
X154694363Y-121872419D02*
X154694363Y-122681942D01*
X154694363Y-122681942D02*
X154741982Y-122777180D01*
X154741982Y-122777180D02*
X154789601Y-122824800D01*
X154789601Y-122824800D02*
X154884839Y-122872419D01*
X154884839Y-122872419D02*
X155075315Y-122872419D01*
X155075315Y-122872419D02*
X155170553Y-122824800D01*
X155170553Y-122824800D02*
X155218172Y-122777180D01*
X155218172Y-122777180D02*
X155265791Y-122681942D01*
X155265791Y-122681942D02*
X155265791Y-121872419D01*
X155884839Y-122872419D02*
X155789601Y-122824800D01*
X155789601Y-122824800D02*
X155741982Y-122729561D01*
X155741982Y-122729561D02*
X155741982Y-121872419D01*
X156694363Y-122872419D02*
X156694363Y-122348609D01*
X156694363Y-122348609D02*
X156646744Y-122253371D01*
X156646744Y-122253371D02*
X156551506Y-122205752D01*
X156551506Y-122205752D02*
X156361030Y-122205752D01*
X156361030Y-122205752D02*
X156265792Y-122253371D01*
X156694363Y-122824800D02*
X156599125Y-122872419D01*
X156599125Y-122872419D02*
X156361030Y-122872419D01*
X156361030Y-122872419D02*
X156265792Y-122824800D01*
X156265792Y-122824800D02*
X156218173Y-122729561D01*
X156218173Y-122729561D02*
X156218173Y-122634323D01*
X156218173Y-122634323D02*
X156265792Y-122539085D01*
X156265792Y-122539085D02*
X156361030Y-122491466D01*
X156361030Y-122491466D02*
X156599125Y-122491466D01*
X156599125Y-122491466D02*
X156694363Y-122443847D01*
X157170554Y-122872419D02*
X157170554Y-121872419D01*
X157170554Y-122253371D02*
X157265792Y-122205752D01*
X157265792Y-122205752D02*
X157456268Y-122205752D01*
X157456268Y-122205752D02*
X157551506Y-122253371D01*
X157551506Y-122253371D02*
X157599125Y-122300990D01*
X157599125Y-122300990D02*
X157646744Y-122396228D01*
X157646744Y-122396228D02*
X157646744Y-122681942D01*
X157646744Y-122681942D02*
X157599125Y-122777180D01*
X157599125Y-122777180D02*
X157551506Y-122824800D01*
X157551506Y-122824800D02*
X157456268Y-122872419D01*
X157456268Y-122872419D02*
X157265792Y-122872419D01*
X157265792Y-122872419D02*
X157170554Y-122824800D01*
X159027697Y-121872419D02*
X159218173Y-121872419D01*
X159218173Y-121872419D02*
X159313411Y-121920038D01*
X159313411Y-121920038D02*
X159408649Y-122015276D01*
X159408649Y-122015276D02*
X159456268Y-122205752D01*
X159456268Y-122205752D02*
X159456268Y-122539085D01*
X159456268Y-122539085D02*
X159408649Y-122729561D01*
X159408649Y-122729561D02*
X159313411Y-122824800D01*
X159313411Y-122824800D02*
X159218173Y-122872419D01*
X159218173Y-122872419D02*
X159027697Y-122872419D01*
X159027697Y-122872419D02*
X158932459Y-122824800D01*
X158932459Y-122824800D02*
X158837221Y-122729561D01*
X158837221Y-122729561D02*
X158789602Y-122539085D01*
X158789602Y-122539085D02*
X158789602Y-122205752D01*
X158789602Y-122205752D02*
X158837221Y-122015276D01*
X158837221Y-122015276D02*
X158932459Y-121920038D01*
X158932459Y-121920038D02*
X159027697Y-121872419D01*
X159884840Y-122872419D02*
X159884840Y-122205752D01*
X159884840Y-122396228D02*
X159932459Y-122300990D01*
X159932459Y-122300990D02*
X159980078Y-122253371D01*
X159980078Y-122253371D02*
X160075316Y-122205752D01*
X160075316Y-122205752D02*
X160170554Y-122205752D01*
X160932459Y-122205752D02*
X160932459Y-123015276D01*
X160932459Y-123015276D02*
X160884840Y-123110514D01*
X160884840Y-123110514D02*
X160837221Y-123158133D01*
X160837221Y-123158133D02*
X160741983Y-123205752D01*
X160741983Y-123205752D02*
X160599126Y-123205752D01*
X160599126Y-123205752D02*
X160503888Y-123158133D01*
X160932459Y-122824800D02*
X160837221Y-122872419D01*
X160837221Y-122872419D02*
X160646745Y-122872419D01*
X160646745Y-122872419D02*
X160551507Y-122824800D01*
X160551507Y-122824800D02*
X160503888Y-122777180D01*
X160503888Y-122777180D02*
X160456269Y-122681942D01*
X160456269Y-122681942D02*
X160456269Y-122396228D01*
X160456269Y-122396228D02*
X160503888Y-122300990D01*
X160503888Y-122300990D02*
X160551507Y-122253371D01*
X160551507Y-122253371D02*
X160646745Y-122205752D01*
X160646745Y-122205752D02*
X160837221Y-122205752D01*
X160837221Y-122205752D02*
X160932459Y-122253371D01*
X161837221Y-122872419D02*
X161837221Y-122348609D01*
X161837221Y-122348609D02*
X161789602Y-122253371D01*
X161789602Y-122253371D02*
X161694364Y-122205752D01*
X161694364Y-122205752D02*
X161503888Y-122205752D01*
X161503888Y-122205752D02*
X161408650Y-122253371D01*
X161837221Y-122824800D02*
X161741983Y-122872419D01*
X161741983Y-122872419D02*
X161503888Y-122872419D01*
X161503888Y-122872419D02*
X161408650Y-122824800D01*
X161408650Y-122824800D02*
X161361031Y-122729561D01*
X161361031Y-122729561D02*
X161361031Y-122634323D01*
X161361031Y-122634323D02*
X161408650Y-122539085D01*
X161408650Y-122539085D02*
X161503888Y-122491466D01*
X161503888Y-122491466D02*
X161741983Y-122491466D01*
X161741983Y-122491466D02*
X161837221Y-122443847D01*
X162313412Y-122205752D02*
X162313412Y-122872419D01*
X162313412Y-122300990D02*
X162361031Y-122253371D01*
X162361031Y-122253371D02*
X162456269Y-122205752D01*
X162456269Y-122205752D02*
X162599126Y-122205752D01*
X162599126Y-122205752D02*
X162694364Y-122253371D01*
X162694364Y-122253371D02*
X162741983Y-122348609D01*
X162741983Y-122348609D02*
X162741983Y-122872419D01*
X163218174Y-122872419D02*
X163218174Y-122205752D01*
X163218174Y-121872419D02*
X163170555Y-121920038D01*
X163170555Y-121920038D02*
X163218174Y-121967657D01*
X163218174Y-121967657D02*
X163265793Y-121920038D01*
X163265793Y-121920038D02*
X163218174Y-121872419D01*
X163218174Y-121872419D02*
X163218174Y-121967657D01*
X163599126Y-122205752D02*
X164122935Y-122205752D01*
X164122935Y-122205752D02*
X163599126Y-122872419D01*
X163599126Y-122872419D02*
X164122935Y-122872419D01*
X164932459Y-122872419D02*
X164932459Y-122348609D01*
X164932459Y-122348609D02*
X164884840Y-122253371D01*
X164884840Y-122253371D02*
X164789602Y-122205752D01*
X164789602Y-122205752D02*
X164599126Y-122205752D01*
X164599126Y-122205752D02*
X164503888Y-122253371D01*
X164932459Y-122824800D02*
X164837221Y-122872419D01*
X164837221Y-122872419D02*
X164599126Y-122872419D01*
X164599126Y-122872419D02*
X164503888Y-122824800D01*
X164503888Y-122824800D02*
X164456269Y-122729561D01*
X164456269Y-122729561D02*
X164456269Y-122634323D01*
X164456269Y-122634323D02*
X164503888Y-122539085D01*
X164503888Y-122539085D02*
X164599126Y-122491466D01*
X164599126Y-122491466D02*
X164837221Y-122491466D01*
X164837221Y-122491466D02*
X164932459Y-122443847D01*
X165265793Y-122205752D02*
X165646745Y-122205752D01*
X165408650Y-121872419D02*
X165408650Y-122729561D01*
X165408650Y-122729561D02*
X165456269Y-122824800D01*
X165456269Y-122824800D02*
X165551507Y-122872419D01*
X165551507Y-122872419D02*
X165646745Y-122872419D01*
X165980079Y-122872419D02*
X165980079Y-122205752D01*
X165980079Y-121872419D02*
X165932460Y-121920038D01*
X165932460Y-121920038D02*
X165980079Y-121967657D01*
X165980079Y-121967657D02*
X166027698Y-121920038D01*
X166027698Y-121920038D02*
X165980079Y-121872419D01*
X165980079Y-121872419D02*
X165980079Y-121967657D01*
X166599126Y-122872419D02*
X166503888Y-122824800D01*
X166503888Y-122824800D02*
X166456269Y-122777180D01*
X166456269Y-122777180D02*
X166408650Y-122681942D01*
X166408650Y-122681942D02*
X166408650Y-122396228D01*
X166408650Y-122396228D02*
X166456269Y-122300990D01*
X166456269Y-122300990D02*
X166503888Y-122253371D01*
X166503888Y-122253371D02*
X166599126Y-122205752D01*
X166599126Y-122205752D02*
X166741983Y-122205752D01*
X166741983Y-122205752D02*
X166837221Y-122253371D01*
X166837221Y-122253371D02*
X166884840Y-122300990D01*
X166884840Y-122300990D02*
X166932459Y-122396228D01*
X166932459Y-122396228D02*
X166932459Y-122681942D01*
X166932459Y-122681942D02*
X166884840Y-122777180D01*
X166884840Y-122777180D02*
X166837221Y-122824800D01*
X166837221Y-122824800D02*
X166741983Y-122872419D01*
X166741983Y-122872419D02*
X166599126Y-122872419D01*
X167361031Y-122205752D02*
X167361031Y-122872419D01*
X167361031Y-122300990D02*
X167408650Y-122253371D01*
X167408650Y-122253371D02*
X167503888Y-122205752D01*
X167503888Y-122205752D02*
X167646745Y-122205752D01*
X167646745Y-122205752D02*
X167741983Y-122253371D01*
X167741983Y-122253371D02*
X167789602Y-122348609D01*
X167789602Y-122348609D02*
X167789602Y-122872419D01*
X164889598Y-148372419D02*
X164889598Y-149086704D01*
X164889598Y-149086704D02*
X164841979Y-149229561D01*
X164841979Y-149229561D02*
X164746741Y-149324800D01*
X164746741Y-149324800D02*
X164603884Y-149372419D01*
X164603884Y-149372419D02*
X164508646Y-149372419D01*
X165841979Y-149372419D02*
X165365789Y-149372419D01*
X165365789Y-149372419D02*
X165365789Y-148372419D01*
X166746741Y-149277180D02*
X166699122Y-149324800D01*
X166699122Y-149324800D02*
X166556265Y-149372419D01*
X166556265Y-149372419D02*
X166461027Y-149372419D01*
X166461027Y-149372419D02*
X166318170Y-149324800D01*
X166318170Y-149324800D02*
X166222932Y-149229561D01*
X166222932Y-149229561D02*
X166175313Y-149134323D01*
X166175313Y-149134323D02*
X166127694Y-148943847D01*
X166127694Y-148943847D02*
X166127694Y-148800990D01*
X166127694Y-148800990D02*
X166175313Y-148610514D01*
X166175313Y-148610514D02*
X166222932Y-148515276D01*
X166222932Y-148515276D02*
X166318170Y-148420038D01*
X166318170Y-148420038D02*
X166461027Y-148372419D01*
X166461027Y-148372419D02*
X166556265Y-148372419D01*
X166556265Y-148372419D02*
X166699122Y-148420038D01*
X166699122Y-148420038D02*
X166746741Y-148467657D01*
X167175313Y-149372419D02*
X167175313Y-148372419D01*
X167175313Y-148372419D02*
X167556265Y-148372419D01*
X167556265Y-148372419D02*
X167651503Y-148420038D01*
X167651503Y-148420038D02*
X167699122Y-148467657D01*
X167699122Y-148467657D02*
X167746741Y-148562895D01*
X167746741Y-148562895D02*
X167746741Y-148705752D01*
X167746741Y-148705752D02*
X167699122Y-148800990D01*
X167699122Y-148800990D02*
X167651503Y-148848609D01*
X167651503Y-148848609D02*
X167556265Y-148896228D01*
X167556265Y-148896228D02*
X167175313Y-148896228D01*
X168746741Y-149277180D02*
X168699122Y-149324800D01*
X168699122Y-149324800D02*
X168556265Y-149372419D01*
X168556265Y-149372419D02*
X168461027Y-149372419D01*
X168461027Y-149372419D02*
X168318170Y-149324800D01*
X168318170Y-149324800D02*
X168222932Y-149229561D01*
X168222932Y-149229561D02*
X168175313Y-149134323D01*
X168175313Y-149134323D02*
X168127694Y-148943847D01*
X168127694Y-148943847D02*
X168127694Y-148800990D01*
X168127694Y-148800990D02*
X168175313Y-148610514D01*
X168175313Y-148610514D02*
X168222932Y-148515276D01*
X168222932Y-148515276D02*
X168318170Y-148420038D01*
X168318170Y-148420038D02*
X168461027Y-148372419D01*
X168461027Y-148372419D02*
X168556265Y-148372419D01*
X168556265Y-148372419D02*
X168699122Y-148420038D01*
X168699122Y-148420038D02*
X168746741Y-148467657D01*
X169508646Y-148848609D02*
X169651503Y-148896228D01*
X169651503Y-148896228D02*
X169699122Y-148943847D01*
X169699122Y-148943847D02*
X169746741Y-149039085D01*
X169746741Y-149039085D02*
X169746741Y-149181942D01*
X169746741Y-149181942D02*
X169699122Y-149277180D01*
X169699122Y-149277180D02*
X169651503Y-149324800D01*
X169651503Y-149324800D02*
X169556265Y-149372419D01*
X169556265Y-149372419D02*
X169175313Y-149372419D01*
X169175313Y-149372419D02*
X169175313Y-148372419D01*
X169175313Y-148372419D02*
X169508646Y-148372419D01*
X169508646Y-148372419D02*
X169603884Y-148420038D01*
X169603884Y-148420038D02*
X169651503Y-148467657D01*
X169651503Y-148467657D02*
X169699122Y-148562895D01*
X169699122Y-148562895D02*
X169699122Y-148658133D01*
X169699122Y-148658133D02*
X169651503Y-148753371D01*
X169651503Y-148753371D02*
X169603884Y-148800990D01*
X169603884Y-148800990D02*
X169508646Y-148848609D01*
X169508646Y-148848609D02*
X169175313Y-148848609D01*
X170937218Y-148705752D02*
X170937218Y-149372419D01*
X170937218Y-148800990D02*
X170984837Y-148753371D01*
X170984837Y-148753371D02*
X171080075Y-148705752D01*
X171080075Y-148705752D02*
X171222932Y-148705752D01*
X171222932Y-148705752D02*
X171318170Y-148753371D01*
X171318170Y-148753371D02*
X171365789Y-148848609D01*
X171365789Y-148848609D02*
X171365789Y-149372419D01*
X172270551Y-148705752D02*
X172270551Y-149372419D01*
X171841980Y-148705752D02*
X171841980Y-149229561D01*
X171841980Y-149229561D02*
X171889599Y-149324800D01*
X171889599Y-149324800D02*
X171984837Y-149372419D01*
X171984837Y-149372419D02*
X172127694Y-149372419D01*
X172127694Y-149372419D02*
X172222932Y-149324800D01*
X172222932Y-149324800D02*
X172270551Y-149277180D01*
X172746742Y-149372419D02*
X172746742Y-148705752D01*
X172746742Y-148800990D02*
X172794361Y-148753371D01*
X172794361Y-148753371D02*
X172889599Y-148705752D01*
X172889599Y-148705752D02*
X173032456Y-148705752D01*
X173032456Y-148705752D02*
X173127694Y-148753371D01*
X173127694Y-148753371D02*
X173175313Y-148848609D01*
X173175313Y-148848609D02*
X173175313Y-149372419D01*
X173175313Y-148848609D02*
X173222932Y-148753371D01*
X173222932Y-148753371D02*
X173318170Y-148705752D01*
X173318170Y-148705752D02*
X173461027Y-148705752D01*
X173461027Y-148705752D02*
X173556266Y-148753371D01*
X173556266Y-148753371D02*
X173603885Y-148848609D01*
X173603885Y-148848609D02*
X173603885Y-149372419D01*
X174080075Y-149277180D02*
X174127694Y-149324800D01*
X174127694Y-149324800D02*
X174080075Y-149372419D01*
X174080075Y-149372419D02*
X174032456Y-149324800D01*
X174032456Y-149324800D02*
X174080075Y-149277180D01*
X174080075Y-149277180D02*
X174080075Y-149372419D01*
X174556265Y-149277180D02*
X174603884Y-149324800D01*
X174603884Y-149324800D02*
X174556265Y-149372419D01*
X174556265Y-149372419D02*
X174508646Y-149324800D01*
X174508646Y-149324800D02*
X174556265Y-149277180D01*
X174556265Y-149277180D02*
X174556265Y-149372419D01*
X174556265Y-148753371D02*
X174603884Y-148800990D01*
X174603884Y-148800990D02*
X174556265Y-148848609D01*
X174556265Y-148848609D02*
X174508646Y-148800990D01*
X174508646Y-148800990D02*
X174556265Y-148753371D01*
X174556265Y-148753371D02*
X174556265Y-148848609D01*
X176080074Y-148372419D02*
X176080074Y-149086704D01*
X176080074Y-149086704D02*
X176032455Y-149229561D01*
X176032455Y-149229561D02*
X175937217Y-149324800D01*
X175937217Y-149324800D02*
X175794360Y-149372419D01*
X175794360Y-149372419D02*
X175699122Y-149372419D01*
X177032455Y-149372419D02*
X176556265Y-149372419D01*
X176556265Y-149372419D02*
X176556265Y-148372419D01*
X177937217Y-149277180D02*
X177889598Y-149324800D01*
X177889598Y-149324800D02*
X177746741Y-149372419D01*
X177746741Y-149372419D02*
X177651503Y-149372419D01*
X177651503Y-149372419D02*
X177508646Y-149324800D01*
X177508646Y-149324800D02*
X177413408Y-149229561D01*
X177413408Y-149229561D02*
X177365789Y-149134323D01*
X177365789Y-149134323D02*
X177318170Y-148943847D01*
X177318170Y-148943847D02*
X177318170Y-148800990D01*
X177318170Y-148800990D02*
X177365789Y-148610514D01*
X177365789Y-148610514D02*
X177413408Y-148515276D01*
X177413408Y-148515276D02*
X177508646Y-148420038D01*
X177508646Y-148420038D02*
X177651503Y-148372419D01*
X177651503Y-148372419D02*
X177746741Y-148372419D01*
X177746741Y-148372419D02*
X177889598Y-148420038D01*
X177889598Y-148420038D02*
X177937217Y-148467657D01*
X178651503Y-148372419D02*
X178651503Y-149086704D01*
X178651503Y-149086704D02*
X178603884Y-149229561D01*
X178603884Y-149229561D02*
X178508646Y-149324800D01*
X178508646Y-149324800D02*
X178365789Y-149372419D01*
X178365789Y-149372419D02*
X178270551Y-149372419D01*
X179603884Y-149372419D02*
X179127694Y-149372419D01*
X179127694Y-149372419D02*
X179127694Y-148372419D01*
X180508646Y-149277180D02*
X180461027Y-149324800D01*
X180461027Y-149324800D02*
X180318170Y-149372419D01*
X180318170Y-149372419D02*
X180222932Y-149372419D01*
X180222932Y-149372419D02*
X180080075Y-149324800D01*
X180080075Y-149324800D02*
X179984837Y-149229561D01*
X179984837Y-149229561D02*
X179937218Y-149134323D01*
X179937218Y-149134323D02*
X179889599Y-148943847D01*
X179889599Y-148943847D02*
X179889599Y-148800990D01*
X179889599Y-148800990D02*
X179937218Y-148610514D01*
X179937218Y-148610514D02*
X179984837Y-148515276D01*
X179984837Y-148515276D02*
X180080075Y-148420038D01*
X180080075Y-148420038D02*
X180222932Y-148372419D01*
X180222932Y-148372419D02*
X180318170Y-148372419D01*
X180318170Y-148372419D02*
X180461027Y-148420038D01*
X180461027Y-148420038D02*
X180508646Y-148467657D01*
X181222932Y-148372419D02*
X181222932Y-149086704D01*
X181222932Y-149086704D02*
X181175313Y-149229561D01*
X181175313Y-149229561D02*
X181080075Y-149324800D01*
X181080075Y-149324800D02*
X180937218Y-149372419D01*
X180937218Y-149372419D02*
X180841980Y-149372419D01*
X182175313Y-149372419D02*
X181699123Y-149372419D01*
X181699123Y-149372419D02*
X181699123Y-148372419D01*
X183080075Y-149277180D02*
X183032456Y-149324800D01*
X183032456Y-149324800D02*
X182889599Y-149372419D01*
X182889599Y-149372419D02*
X182794361Y-149372419D01*
X182794361Y-149372419D02*
X182651504Y-149324800D01*
X182651504Y-149324800D02*
X182556266Y-149229561D01*
X182556266Y-149229561D02*
X182508647Y-149134323D01*
X182508647Y-149134323D02*
X182461028Y-148943847D01*
X182461028Y-148943847D02*
X182461028Y-148800990D01*
X182461028Y-148800990D02*
X182508647Y-148610514D01*
X182508647Y-148610514D02*
X182556266Y-148515276D01*
X182556266Y-148515276D02*
X182651504Y-148420038D01*
X182651504Y-148420038D02*
X182794361Y-148372419D01*
X182794361Y-148372419D02*
X182889599Y-148372419D01*
X182889599Y-148372419D02*
X183032456Y-148420038D01*
X183032456Y-148420038D02*
X183080075Y-148467657D01*
X183794361Y-148372419D02*
X183794361Y-149086704D01*
X183794361Y-149086704D02*
X183746742Y-149229561D01*
X183746742Y-149229561D02*
X183651504Y-149324800D01*
X183651504Y-149324800D02*
X183508647Y-149372419D01*
X183508647Y-149372419D02*
X183413409Y-149372419D01*
X184746742Y-149372419D02*
X184270552Y-149372419D01*
X184270552Y-149372419D02*
X184270552Y-148372419D01*
X185651504Y-149277180D02*
X185603885Y-149324800D01*
X185603885Y-149324800D02*
X185461028Y-149372419D01*
X185461028Y-149372419D02*
X185365790Y-149372419D01*
X185365790Y-149372419D02*
X185222933Y-149324800D01*
X185222933Y-149324800D02*
X185127695Y-149229561D01*
X185127695Y-149229561D02*
X185080076Y-149134323D01*
X185080076Y-149134323D02*
X185032457Y-148943847D01*
X185032457Y-148943847D02*
X185032457Y-148800990D01*
X185032457Y-148800990D02*
X185080076Y-148610514D01*
X185080076Y-148610514D02*
X185127695Y-148515276D01*
X185127695Y-148515276D02*
X185222933Y-148420038D01*
X185222933Y-148420038D02*
X185365790Y-148372419D01*
X185365790Y-148372419D02*
X185461028Y-148372419D01*
X185461028Y-148372419D02*
X185603885Y-148420038D01*
X185603885Y-148420038D02*
X185651504Y-148467657D01*
D11*
G36*
X133535227Y-146482984D02*
G01*
X133673727Y-146484952D01*
X133823438Y-146489131D01*
X134187504Y-146501870D01*
X134250999Y-146529484D01*
X134264954Y-146535945D01*
X134280296Y-146543745D01*
X134296522Y-146552585D01*
X134313129Y-146562170D01*
X134329618Y-146572199D01*
X134345485Y-146582378D01*
X134360228Y-146592406D01*
X134373347Y-146601988D01*
X134432203Y-146646879D01*
X134473725Y-146734088D01*
X134478013Y-146743428D01*
X134482294Y-146753403D01*
X134490728Y-146774893D01*
X134498812Y-146797842D01*
X134506329Y-146821529D01*
X134513063Y-146845236D01*
X134518798Y-146868245D01*
X134523319Y-146889837D01*
X134525056Y-146899877D01*
X134526408Y-146909294D01*
X134537568Y-146997288D01*
X134510911Y-147088977D01*
X134484257Y-147180665D01*
X134409501Y-147249574D01*
X134334742Y-147318484D01*
X134263642Y-147339785D01*
X134192542Y-147361087D01*
X134272315Y-147384347D01*
X134352091Y-147407608D01*
X134431941Y-147487457D01*
X134511787Y-147567303D01*
X134531687Y-147646298D01*
X134536422Y-147666403D01*
X134540473Y-147686402D01*
X134543839Y-147706309D01*
X134546521Y-147726136D01*
X134548518Y-147745895D01*
X134549830Y-147765598D01*
X134550457Y-147785257D01*
X134550399Y-147804884D01*
X134549655Y-147824492D01*
X134548224Y-147844093D01*
X134546108Y-147863699D01*
X134543306Y-147883323D01*
X134539816Y-147902976D01*
X134535640Y-147922671D01*
X134530777Y-147942419D01*
X134525227Y-147962234D01*
X134498872Y-148050982D01*
X134437483Y-148118936D01*
X134423818Y-148133550D01*
X134409996Y-148147294D01*
X134395955Y-148160200D01*
X134381634Y-148172302D01*
X134366971Y-148183633D01*
X134351904Y-148194228D01*
X134336372Y-148204119D01*
X134320314Y-148213340D01*
X134303668Y-148221925D01*
X134286373Y-148229907D01*
X134268367Y-148237320D01*
X134249588Y-148244196D01*
X134229974Y-148250570D01*
X134209466Y-148256476D01*
X134188000Y-148261945D01*
X134165516Y-148267013D01*
X134075782Y-148286032D01*
X133477293Y-148286032D01*
X132878803Y-148286032D01*
X132869202Y-148261010D01*
X132804410Y-148077838D01*
X132662116Y-147672580D01*
X132519079Y-147268013D01*
X132472793Y-147139764D01*
X132452500Y-147086509D01*
X132440360Y-147063853D01*
X132299116Y-147467511D01*
X132086536Y-148074368D01*
X132015205Y-148277569D01*
X131302189Y-148281988D01*
X130589173Y-148286407D01*
X130589167Y-147388769D01*
X130589167Y-146491119D01*
X130758501Y-146491119D01*
X130927836Y-146491119D01*
X130927836Y-147227719D01*
X130927836Y-147964319D01*
X131348994Y-147964319D01*
X131770155Y-147964319D01*
X131995130Y-147375885D01*
X132275355Y-146643519D01*
X132330604Y-146499585D01*
X132444239Y-146499585D01*
X132557874Y-146499585D01*
X132894331Y-147378714D01*
X133134436Y-148002084D01*
X133209411Y-148193649D01*
X133239243Y-148266302D01*
X133240106Y-148262551D01*
X133240945Y-148249849D01*
X133242531Y-148199404D01*
X133245221Y-148010993D01*
X133245523Y-147964319D01*
X133586381Y-147964319D01*
X133802280Y-147963119D01*
X134018180Y-147961920D01*
X134077436Y-147940484D01*
X134136701Y-147919226D01*
X134176310Y-147861337D01*
X134215919Y-147803451D01*
X134208418Y-147722845D01*
X134200916Y-147642242D01*
X134168815Y-147606210D01*
X134165261Y-147602419D01*
X134161253Y-147598500D01*
X134156834Y-147594483D01*
X134152048Y-147590398D01*
X134146941Y-147586276D01*
X134141557Y-147582146D01*
X134135940Y-147578039D01*
X134130134Y-147573986D01*
X134124184Y-147570016D01*
X134118134Y-147566160D01*
X134112029Y-147562449D01*
X134105912Y-147558911D01*
X134099829Y-147555579D01*
X134093824Y-147552481D01*
X134087941Y-147549649D01*
X134082224Y-147547113D01*
X134027735Y-147524051D01*
X133807056Y-147524051D01*
X133586381Y-147524051D01*
X133586381Y-147744183D01*
X133586381Y-147964319D01*
X133245523Y-147964319D01*
X133246945Y-147744183D01*
X133247036Y-147729980D01*
X133247703Y-147385275D01*
X133247703Y-147204876D01*
X133586353Y-147204876D01*
X133822245Y-147199356D01*
X134058140Y-147193835D01*
X134105897Y-147158368D01*
X134110865Y-147154439D01*
X134115900Y-147150007D01*
X134120966Y-147145119D01*
X134126029Y-147139826D01*
X134131055Y-147134176D01*
X134136007Y-147128219D01*
X134140852Y-147122004D01*
X134145555Y-147115579D01*
X134150080Y-147108993D01*
X134154393Y-147102297D01*
X134158459Y-147095539D01*
X134162243Y-147088768D01*
X134165710Y-147082033D01*
X134168825Y-147075384D01*
X134171555Y-147068869D01*
X134173863Y-147062538D01*
X134194090Y-147002192D01*
X134177049Y-146940509D01*
X134160008Y-146878822D01*
X134106013Y-146845900D01*
X134052018Y-146812977D01*
X133819184Y-146812913D01*
X133586353Y-146812851D01*
X133586353Y-147008862D01*
X133586353Y-147204876D01*
X133247703Y-147204876D01*
X133247703Y-147008862D01*
X133247703Y-146495791D01*
X133353538Y-146486091D01*
X133382228Y-146484401D01*
X133423358Y-146483329D01*
X133475000Y-146482861D01*
X133535227Y-146482984D01*
G37*
G36*
X128523348Y-145913601D02*
G01*
X128523348Y-147147952D01*
X128557606Y-147258867D01*
X128591863Y-147369781D01*
X128675797Y-147461618D01*
X128759733Y-147553454D01*
X128845336Y-147590280D01*
X128854646Y-147594103D01*
X128864853Y-147597961D01*
X128887547Y-147605675D01*
X128912600Y-147613213D01*
X128939194Y-147620368D01*
X128966513Y-147626931D01*
X128993739Y-147632696D01*
X129020055Y-147637452D01*
X129044642Y-147640994D01*
X129158346Y-147654895D01*
X129271549Y-147640875D01*
X129298435Y-147637088D01*
X129324544Y-147632473D01*
X129349906Y-147627017D01*
X129374554Y-147620705D01*
X129398517Y-147613521D01*
X129421826Y-147605452D01*
X129444514Y-147596482D01*
X129466610Y-147586597D01*
X129488146Y-147575782D01*
X129509153Y-147564022D01*
X129529662Y-147551302D01*
X129549703Y-147537609D01*
X129569309Y-147522926D01*
X129588509Y-147507239D01*
X129607335Y-147490534D01*
X129625819Y-147472796D01*
X129703826Y-147395056D01*
X129744352Y-147294456D01*
X129784878Y-147193858D01*
X129789718Y-145936558D01*
X129794558Y-144679258D01*
X130133390Y-144679258D01*
X130472224Y-144679258D01*
X130466683Y-145978891D01*
X130461143Y-147278524D01*
X130423728Y-147413989D01*
X130414680Y-147444312D01*
X130403278Y-147478614D01*
X130389982Y-147515714D01*
X130375254Y-147554431D01*
X130359555Y-147593584D01*
X130343347Y-147631994D01*
X130327092Y-147668479D01*
X130311250Y-147701858D01*
X130236187Y-147854257D01*
X130138827Y-147953878D01*
X130105553Y-147986866D01*
X130072113Y-148017848D01*
X130038348Y-148046908D01*
X130004097Y-148074130D01*
X129969201Y-148099595D01*
X129933499Y-148123387D01*
X129896831Y-148145590D01*
X129859038Y-148166287D01*
X129819960Y-148185561D01*
X129779436Y-148203495D01*
X129737306Y-148220173D01*
X129693411Y-148235677D01*
X129647591Y-148250090D01*
X129599684Y-148263497D01*
X129549532Y-148275980D01*
X129496975Y-148287622D01*
X129344575Y-148319479D01*
X129149842Y-148318280D01*
X129108075Y-148317515D01*
X129063988Y-148315887D01*
X129018913Y-148313495D01*
X128974181Y-148310435D01*
X128931123Y-148306807D01*
X128891071Y-148302709D01*
X128855355Y-148298239D01*
X128825306Y-148293496D01*
X128825300Y-148293393D01*
X128774925Y-148283367D01*
X128725614Y-148271719D01*
X128677389Y-148258461D01*
X128630273Y-148243604D01*
X128584289Y-148227161D01*
X128539461Y-148209143D01*
X128495811Y-148189563D01*
X128453361Y-148168432D01*
X128412136Y-148145763D01*
X128372157Y-148121567D01*
X128333448Y-148095856D01*
X128296031Y-148068643D01*
X128259930Y-148039939D01*
X128225167Y-148009757D01*
X128191765Y-147978108D01*
X128159748Y-147945004D01*
X128067214Y-147845059D01*
X127989838Y-147688788D01*
X127912461Y-147532519D01*
X127879440Y-147371652D01*
X127846415Y-147210785D01*
X127846215Y-145945019D01*
X127846015Y-144679254D01*
X128184683Y-144679254D01*
X128523348Y-144679254D01*
X128523348Y-145913601D01*
G37*
G36*
X127604768Y-146478418D02*
G01*
X127600448Y-148277585D01*
X127184528Y-148282104D01*
X126768609Y-148286624D01*
X126134661Y-146996512D01*
X125500715Y-145706399D01*
X125496375Y-146996222D01*
X125492036Y-148286047D01*
X124833814Y-148286047D01*
X124175596Y-148286047D01*
X124122475Y-148137878D01*
X123689878Y-146905978D01*
X123310400Y-145822245D01*
X123300805Y-145847645D01*
X122876598Y-147058377D01*
X122579783Y-147902981D01*
X122448389Y-148269110D01*
X122447035Y-148271897D01*
X122445779Y-148274993D01*
X122444624Y-148278366D01*
X122443576Y-148281983D01*
X122442637Y-148285812D01*
X122441813Y-148289820D01*
X122441106Y-148293975D01*
X122440521Y-148298244D01*
X122440061Y-148302595D01*
X122439732Y-148306995D01*
X122439535Y-148311412D01*
X122439477Y-148315814D01*
X122439559Y-148320167D01*
X122439788Y-148324439D01*
X122440165Y-148328598D01*
X122440696Y-148332611D01*
X122446598Y-148370712D01*
X128381396Y-148370712D01*
X134316193Y-148370712D01*
X134365867Y-148396399D01*
X134371060Y-148399272D01*
X134376369Y-148402570D01*
X134381756Y-148406256D01*
X134387181Y-148410289D01*
X134392606Y-148414632D01*
X134397992Y-148419245D01*
X134403301Y-148424090D01*
X134408494Y-148429129D01*
X134413533Y-148434323D01*
X134418378Y-148439632D01*
X134422991Y-148445019D01*
X134427334Y-148450444D01*
X134431368Y-148455869D01*
X134435054Y-148461256D01*
X134438353Y-148466565D01*
X134441227Y-148471759D01*
X134466914Y-148521432D01*
X134466914Y-148700915D01*
X134466914Y-148880398D01*
X134441227Y-148930072D01*
X134438354Y-148935265D01*
X134435055Y-148940574D01*
X134431370Y-148945960D01*
X134427337Y-148951386D01*
X134422994Y-148956811D01*
X134418381Y-148962197D01*
X134413535Y-148967506D01*
X134408497Y-148972699D01*
X134403303Y-148977738D01*
X134397994Y-148982583D01*
X134392607Y-148987196D01*
X134387182Y-148991539D01*
X134381756Y-148995573D01*
X134376369Y-148999258D01*
X134371060Y-149002558D01*
X134365867Y-149005432D01*
X134316193Y-149031118D01*
X128088120Y-149031054D01*
X121860046Y-149030993D01*
X121807884Y-148999191D01*
X121802462Y-148995690D01*
X121796979Y-148991770D01*
X121791471Y-148987474D01*
X121785977Y-148982845D01*
X121780533Y-148977923D01*
X121775177Y-148972752D01*
X121769947Y-148967375D01*
X121764880Y-148961833D01*
X121760014Y-148956169D01*
X121755386Y-148950425D01*
X121751033Y-148944643D01*
X121746994Y-148938867D01*
X121743305Y-148933137D01*
X121740005Y-148927498D01*
X121737130Y-148921990D01*
X121734719Y-148916656D01*
X121713703Y-148865921D01*
X121719135Y-148563287D01*
X121724567Y-148260653D01*
X122409531Y-146469954D01*
X123094495Y-144679254D01*
X123309751Y-144679254D01*
X123525007Y-144679254D01*
X123571845Y-144802020D01*
X124224764Y-146508053D01*
X124830843Y-148091320D01*
X124831344Y-146385287D01*
X124831844Y-144679255D01*
X125250944Y-144679271D01*
X125670043Y-144679286D01*
X126309216Y-145995836D01*
X126948388Y-147312385D01*
X126948451Y-145995819D01*
X126948513Y-144679252D01*
X127278790Y-144679252D01*
X127609068Y-144679252D01*
X127604768Y-146478418D01*
G37*
G36*
X127862902Y-149242785D02*
G01*
X127862902Y-149285119D01*
X127820568Y-149285119D01*
X127778236Y-149285119D01*
X127778236Y-149242785D01*
X127778236Y-149200454D01*
X127820568Y-149200454D01*
X127862902Y-149200454D01*
X127862902Y-149242785D01*
G37*
G36*
X123494099Y-149242785D02*
G01*
X123494099Y-149285119D01*
X123443299Y-149285119D01*
X123392500Y-149285119D01*
X123392500Y-149242785D01*
X123392500Y-149200454D01*
X123443299Y-149200454D01*
X123494099Y-149200454D01*
X123494099Y-149242785D01*
G37*
G36*
X120187894Y-145416983D02*
G01*
X121241964Y-146021963D01*
X121241964Y-147270025D01*
X121241964Y-148518084D01*
X120187864Y-149121808D01*
X119133764Y-149725534D01*
X119082964Y-149725369D01*
X119032165Y-149725204D01*
X117986532Y-149121957D01*
X116940898Y-148518716D01*
X116940898Y-147275609D01*
X116940898Y-146104022D01*
X117067899Y-146104022D01*
X117111258Y-146140944D01*
X117118060Y-146146022D01*
X117129352Y-146153544D01*
X117164374Y-146175322D01*
X117214258Y-146205082D01*
X117276943Y-146241632D01*
X117432456Y-146330329D01*
X117614404Y-146431866D01*
X118074189Y-146685865D01*
X118074809Y-147841174D01*
X118075428Y-148996484D01*
X118113528Y-149019619D01*
X118259816Y-149104719D01*
X118558028Y-149276837D01*
X118857484Y-149451118D01*
X118958257Y-149511109D01*
X119006762Y-149541424D01*
X119015481Y-149547323D01*
X119024384Y-149552610D01*
X119033412Y-149557279D01*
X119042503Y-149561321D01*
X119051598Y-149564728D01*
X119060636Y-149567492D01*
X119069557Y-149569606D01*
X119078300Y-149571062D01*
X119086805Y-149571851D01*
X119095012Y-149571967D01*
X119102860Y-149571401D01*
X119110289Y-149570144D01*
X119117239Y-149568191D01*
X119120516Y-149566950D01*
X119123649Y-149565532D01*
X119126633Y-149563935D01*
X119129460Y-149562159D01*
X119132121Y-149560203D01*
X119134609Y-149558065D01*
X119134612Y-149558044D01*
X119174656Y-149532727D01*
X119270335Y-149475787D01*
X119565145Y-149303801D01*
X119892127Y-149115602D01*
X120124366Y-148984710D01*
X120207750Y-148937977D01*
X120340901Y-148861928D01*
X120683166Y-148663974D01*
X121114965Y-148412484D01*
X121114965Y-147278642D01*
X121114965Y-146144799D01*
X121072631Y-146130180D01*
X121030299Y-146115561D01*
X120550004Y-146387599D01*
X120069709Y-146659636D01*
X119644070Y-146412359D01*
X119477025Y-146314692D01*
X119336848Y-146231560D01*
X119238243Y-146171766D01*
X119209126Y-146153372D01*
X119195916Y-146144113D01*
X119173402Y-146123144D01*
X119619250Y-145873710D01*
X119794311Y-145774993D01*
X119941378Y-145690598D01*
X120045012Y-145629485D01*
X120075716Y-145610460D01*
X120089773Y-145600616D01*
X120114446Y-145576957D01*
X120095698Y-145558218D01*
X120076948Y-145539479D01*
X119590905Y-145813247D01*
X119400439Y-145918877D01*
X119241143Y-146004104D01*
X119178394Y-146036346D01*
X119129690Y-146060223D01*
X119097115Y-146074648D01*
X119087528Y-146077976D01*
X119082754Y-146078532D01*
X118923763Y-145989268D01*
X118604212Y-145803747D01*
X118287460Y-145617430D01*
X118136868Y-145525778D01*
X118135023Y-145524177D01*
X118133052Y-145522771D01*
X118130968Y-145521556D01*
X118128782Y-145520528D01*
X118126507Y-145519682D01*
X118124155Y-145519013D01*
X118121737Y-145518517D01*
X118119267Y-145518189D01*
X118116755Y-145518025D01*
X118114214Y-145518020D01*
X118111656Y-145518170D01*
X118109094Y-145518470D01*
X118106538Y-145518915D01*
X118104002Y-145519501D01*
X118101498Y-145520224D01*
X118099037Y-145521078D01*
X118096631Y-145522060D01*
X118094293Y-145523164D01*
X118092035Y-145524387D01*
X118089869Y-145525723D01*
X118087807Y-145527168D01*
X118085860Y-145528717D01*
X118084042Y-145530367D01*
X118082363Y-145532112D01*
X118080837Y-145533947D01*
X118079475Y-145535869D01*
X118078290Y-145537873D01*
X118077293Y-145539954D01*
X118076497Y-145542107D01*
X118075913Y-145544329D01*
X118075554Y-145546614D01*
X118075431Y-145548958D01*
X118076022Y-145550305D01*
X118077773Y-145552337D01*
X118084646Y-145558380D01*
X118095818Y-145566938D01*
X118111057Y-145577861D01*
X118152812Y-145606207D01*
X118208058Y-145642228D01*
X118274945Y-145684734D01*
X118351620Y-145732532D01*
X118436232Y-145784433D01*
X118526928Y-145839245D01*
X118702142Y-145945662D01*
X118845449Y-146035160D01*
X118900520Y-146070626D01*
X118942073Y-146098336D01*
X118968261Y-146117115D01*
X118975016Y-146122789D01*
X118977238Y-146125789D01*
X118967287Y-146134192D01*
X118939600Y-146151740D01*
X118840938Y-146208923D01*
X118539939Y-146374239D01*
X118233034Y-146536238D01*
X118126989Y-146589275D01*
X118094503Y-146604128D01*
X118079015Y-146609422D01*
X118074534Y-146608142D01*
X118065747Y-146604337D01*
X118036191Y-146589670D01*
X117992221Y-146566451D01*
X117935714Y-146535710D01*
X117868545Y-146498478D01*
X117792589Y-146455786D01*
X117709720Y-146408663D01*
X117621816Y-146358142D01*
X117302599Y-146174341D01*
X117146513Y-146085640D01*
X117106595Y-146064663D01*
X117087247Y-146084343D01*
X117067899Y-146104022D01*
X116940898Y-146104022D01*
X116940898Y-146032501D01*
X116970532Y-146002185D01*
X116997221Y-145984380D01*
X117062206Y-145945126D01*
X117289910Y-145812185D01*
X117619333Y-145623187D01*
X118016165Y-145397955D01*
X119032165Y-144824041D01*
X119082995Y-144818022D01*
X119133825Y-144812002D01*
X120187894Y-145416983D01*
G37*
G36*
X119145479Y-146208514D02*
G01*
X119173408Y-146223601D01*
X119272582Y-146279011D01*
X119417010Y-146361018D01*
X119591689Y-146461160D01*
X120039698Y-146719072D01*
X120039698Y-147036894D01*
X120038696Y-147160176D01*
X120035968Y-147260900D01*
X120034086Y-147299560D01*
X120031930Y-147328690D01*
X120029549Y-147346991D01*
X120028292Y-147351676D01*
X120026998Y-147353167D01*
X120023552Y-147351798D01*
X120015979Y-147348070D01*
X119989331Y-147334026D01*
X119896162Y-147282989D01*
X119761519Y-147207843D01*
X119599432Y-147116371D01*
X119599433Y-147116374D01*
X119436010Y-147024253D01*
X119297729Y-146947329D01*
X119199175Y-146893646D01*
X119169353Y-146878034D01*
X119154932Y-146871248D01*
X119125298Y-146861367D01*
X119125298Y-146532307D01*
X119126024Y-146404540D01*
X119127998Y-146299910D01*
X119130921Y-146229215D01*
X119132643Y-146209966D01*
X119133553Y-146204957D01*
X119134489Y-146203250D01*
X119145479Y-146208514D01*
G37*
G36*
X119144629Y-146947970D02*
G01*
X119227109Y-146991750D01*
X119472862Y-147126283D01*
X119721374Y-147265344D01*
X119807301Y-147314784D01*
X119846682Y-147339209D01*
X119847896Y-147340276D01*
X119849095Y-147341447D01*
X119851440Y-147344081D01*
X119853705Y-147347078D01*
X119855878Y-147350404D01*
X119857948Y-147354028D01*
X119859901Y-147357914D01*
X119861725Y-147362032D01*
X119863409Y-147366346D01*
X119864941Y-147370824D01*
X119866307Y-147375433D01*
X119867497Y-147380140D01*
X119868498Y-147384911D01*
X119869297Y-147389713D01*
X119869883Y-147394514D01*
X119870244Y-147399279D01*
X119870367Y-147403976D01*
X119870367Y-147449087D01*
X119523470Y-147647436D01*
X119176576Y-147845785D01*
X119129771Y-147844384D01*
X119082966Y-147842984D01*
X118922100Y-147749542D01*
X118570128Y-147543939D01*
X118449682Y-147472514D01*
X118374299Y-147426742D01*
X118309097Y-147386013D01*
X118704499Y-147158781D01*
X118858829Y-147070546D01*
X118986740Y-146998276D01*
X119074925Y-146949431D01*
X119099961Y-146936123D01*
X119110075Y-146931469D01*
X119144629Y-146947970D01*
G37*
G36*
X118300000Y-147500000D02*
G01*
X118306559Y-147502173D01*
X118316567Y-147506355D01*
X118329834Y-147512445D01*
X118365368Y-147529945D01*
X118411621Y-147553863D01*
X118467049Y-147583389D01*
X118530111Y-147617712D01*
X118599266Y-147656022D01*
X118672971Y-147697509D01*
X119038873Y-147905050D01*
X119039753Y-148315683D01*
X119039091Y-148475081D01*
X119036643Y-148605534D01*
X119034870Y-148655701D01*
X119032795Y-148693585D01*
X119030467Y-148717505D01*
X119029223Y-148723702D01*
X119027934Y-148725778D01*
X119024724Y-148724577D01*
X119017844Y-148721128D01*
X118993858Y-148707947D01*
X118957542Y-148687157D01*
X118910465Y-148659683D01*
X118790292Y-148588374D01*
X118645875Y-148501410D01*
X118276518Y-148277585D01*
X118281809Y-147893747D01*
X118284651Y-147743922D01*
X118288479Y-147619731D01*
X118292790Y-147534096D01*
X118294971Y-147509775D01*
X118296040Y-147502945D01*
X118297085Y-147499939D01*
X118298075Y-147499699D01*
X118300000Y-147500000D01*
G37*
G36*
X120022765Y-148641650D02*
G01*
X120022506Y-148692666D01*
X120021763Y-148740246D01*
X120020589Y-148783348D01*
X120019035Y-148820933D01*
X120017154Y-148851961D01*
X120014997Y-148875391D01*
X120012617Y-148890183D01*
X120011359Y-148894015D01*
X120010065Y-148895297D01*
X120007696Y-148894597D01*
X120003280Y-148892613D01*
X119988766Y-148885060D01*
X119967426Y-148873164D01*
X119940162Y-148857451D01*
X119907878Y-148838446D01*
X119871476Y-148816678D01*
X119831860Y-148792671D01*
X119789932Y-148766952D01*
X119789933Y-148766952D01*
X119748264Y-148740950D01*
X119709390Y-148716128D01*
X119674163Y-148693071D01*
X119643433Y-148672361D01*
X119618051Y-148654583D01*
X119598867Y-148640320D01*
X119586733Y-148630156D01*
X119583575Y-148626793D01*
X119582499Y-148624673D01*
X119583624Y-148622548D01*
X119586907Y-148619305D01*
X119599393Y-148609774D01*
X119644178Y-148580710D01*
X119708015Y-148542461D01*
X119782060Y-148500003D01*
X119857471Y-148458315D01*
X119925408Y-148422375D01*
X119977026Y-148397160D01*
X119993954Y-148390131D01*
X120003486Y-148387649D01*
X120022765Y-148387649D01*
X120022765Y-148641650D01*
G37*
G36*
X122373452Y-149255481D02*
G01*
X122368043Y-149293582D01*
X122253742Y-149298581D01*
X122139442Y-149303579D01*
X122139442Y-149624539D01*
X122139442Y-149945498D01*
X122097108Y-149945498D01*
X122054774Y-149945498D01*
X122054775Y-149623779D01*
X122054775Y-149302047D01*
X121944709Y-149302047D01*
X121834641Y-149302047D01*
X121834641Y-149259713D01*
X121834641Y-149217379D01*
X122106753Y-149217379D01*
X122378864Y-149217379D01*
X122373452Y-149255481D01*
G37*
G36*
X130623034Y-149259713D02*
G01*
X130623034Y-149302047D01*
X130419834Y-149302047D01*
X130216634Y-149302047D01*
X130216634Y-149412112D01*
X130216634Y-149522177D01*
X130394434Y-149522177D01*
X130572234Y-149522177D01*
X130572234Y-149564511D01*
X130572234Y-149606845D01*
X130394434Y-149606845D01*
X130216634Y-149606845D01*
X130216634Y-149733844D01*
X130216634Y-149860843D01*
X130428300Y-149860843D01*
X130639965Y-149860843D01*
X130639965Y-149903174D01*
X130639965Y-149945508D01*
X130385966Y-149945508D01*
X130131966Y-149945508D01*
X130131966Y-149581448D01*
X130131966Y-149217379D01*
X130377500Y-149217379D01*
X130623034Y-149217379D01*
X130623034Y-149259713D01*
G37*
G36*
X130871259Y-149355798D02*
G01*
X130919370Y-149361297D01*
X130988569Y-149606833D01*
X131057768Y-149852365D01*
X131117448Y-149857486D01*
X131177125Y-149862607D01*
X131231254Y-149662759D01*
X131274554Y-149505450D01*
X131291675Y-149445014D01*
X131302653Y-149407876D01*
X131319932Y-149352844D01*
X131360951Y-149352844D01*
X131365131Y-149352910D01*
X131369199Y-149353103D01*
X131373132Y-149353418D01*
X131376909Y-149353847D01*
X131380510Y-149354383D01*
X131383912Y-149355022D01*
X131387095Y-149355755D01*
X131390038Y-149356576D01*
X131392718Y-149357480D01*
X131395115Y-149358458D01*
X131397209Y-149359505D01*
X131398976Y-149360615D01*
X131400397Y-149361780D01*
X131401450Y-149362995D01*
X131401831Y-149363619D01*
X131402113Y-149364252D01*
X131402292Y-149364895D01*
X131402366Y-149365545D01*
X131400826Y-149373884D01*
X131396271Y-149392855D01*
X131379405Y-149457830D01*
X131354345Y-149550746D01*
X131323670Y-149661877D01*
X131244581Y-149945511D01*
X131119547Y-149945511D01*
X130994511Y-149945511D01*
X130987302Y-149924347D01*
X130979032Y-149896755D01*
X130961838Y-149837272D01*
X130910728Y-149657647D01*
X130832247Y-149381204D01*
X130823147Y-149350299D01*
X130871259Y-149355798D01*
G37*
G36*
X126657691Y-149256570D02*
G01*
X126694509Y-149295761D01*
X126694509Y-149405581D01*
X126694509Y-149515402D01*
X126674032Y-149535879D01*
X126653556Y-149556356D01*
X126690966Y-149582559D01*
X126728376Y-149608764D01*
X126728376Y-149729644D01*
X126728376Y-149850525D01*
X126682876Y-149898016D01*
X126637374Y-149945511D01*
X126395008Y-149945511D01*
X126152642Y-149945511D01*
X126152642Y-149860846D01*
X126254244Y-149860846D01*
X126440510Y-149860846D01*
X126626775Y-149860846D01*
X126626775Y-149733847D01*
X126626775Y-149606848D01*
X126440510Y-149606848D01*
X126254244Y-149606848D01*
X126254244Y-149733847D01*
X126254244Y-149860846D01*
X126152642Y-149860846D01*
X126152642Y-149733847D01*
X126152642Y-149581448D01*
X126152642Y-149522177D01*
X126254235Y-149522177D01*
X126432035Y-149522177D01*
X126609835Y-149522177D01*
X126609835Y-149412112D01*
X126609835Y-149302047D01*
X126432035Y-149302047D01*
X126254235Y-149302047D01*
X126254235Y-149412112D01*
X126254235Y-149522177D01*
X126152642Y-149522177D01*
X126152642Y-149412112D01*
X126152642Y-149217379D01*
X126386758Y-149217379D01*
X126620873Y-149217379D01*
X126657691Y-149256570D01*
G37*
G36*
X133294907Y-149381134D02*
G01*
X133212440Y-149678814D01*
X133138215Y-149945514D01*
X133010920Y-149945486D01*
X132883625Y-149945459D01*
X132810941Y-149687256D01*
X132756645Y-149493309D01*
X132728181Y-149389599D01*
X132718101Y-149350149D01*
X132765797Y-149355728D01*
X132813493Y-149361306D01*
X132882047Y-149611071D01*
X132950602Y-149860840D01*
X133010319Y-149860840D01*
X133070036Y-149860840D01*
X133138636Y-149611071D01*
X133207237Y-149361306D01*
X133255192Y-149355728D01*
X133303147Y-149350149D01*
X133294907Y-149381134D01*
G37*
G36*
X132502631Y-149581448D02*
G01*
X132502631Y-149945514D01*
X132451832Y-149945514D01*
X132401032Y-149945514D01*
X132401032Y-149581448D01*
X132401032Y-149217379D01*
X132451832Y-149217379D01*
X132502631Y-149217379D01*
X132502631Y-149581448D01*
G37*
G36*
X132092915Y-149408685D02*
G01*
X132147038Y-149464526D01*
X132147038Y-149657525D01*
X132147038Y-149850528D01*
X132101536Y-149898019D01*
X132056034Y-149945514D01*
X131893192Y-149945514D01*
X131730347Y-149945514D01*
X131676222Y-149889673D01*
X131648280Y-149860846D01*
X131723698Y-149860846D01*
X131884565Y-149860846D01*
X132045432Y-149860846D01*
X132045432Y-149649179D01*
X132045432Y-149437512D01*
X131884565Y-149437512D01*
X131723698Y-149437512D01*
X131723698Y-149649179D01*
X131723698Y-149860846D01*
X131648280Y-149860846D01*
X131622099Y-149833835D01*
X131622099Y-149649179D01*
X131622099Y-149647461D01*
X131622099Y-149461090D01*
X131677940Y-149406970D01*
X131733781Y-149352847D01*
X131886286Y-149352847D01*
X132038792Y-149352847D01*
X132092915Y-149408685D01*
G37*
G36*
X129403834Y-149894714D02*
G01*
X129403834Y-149945514D01*
X129353034Y-149945514D01*
X129302235Y-149945514D01*
X129302235Y-149894714D01*
X129302235Y-149843914D01*
X129353034Y-149843914D01*
X129403834Y-149843914D01*
X129403834Y-149894714D01*
G37*
G36*
X129031301Y-149581448D02*
G01*
X129031301Y-149945514D01*
X128814489Y-149945514D01*
X128597677Y-149945514D01*
X128543557Y-149889673D01*
X128515616Y-149860846D01*
X128591035Y-149860846D01*
X128760366Y-149860846D01*
X128929701Y-149860846D01*
X128929701Y-149649179D01*
X128929701Y-149437512D01*
X128760366Y-149437512D01*
X128591035Y-149437512D01*
X128591035Y-149649179D01*
X128591035Y-149860846D01*
X128515616Y-149860846D01*
X128489436Y-149833835D01*
X128489436Y-149649179D01*
X128489436Y-149647461D01*
X128489436Y-149461090D01*
X128545274Y-149406970D01*
X128601113Y-149352847D01*
X128765408Y-149352847D01*
X128929702Y-149352847D01*
X128929702Y-149285113D01*
X128929702Y-149217379D01*
X128980502Y-149217379D01*
X129031301Y-149217379D01*
X129031301Y-149581448D01*
G37*
G36*
X128235435Y-149581448D02*
G01*
X128235435Y-149945514D01*
X128184635Y-149945514D01*
X128133836Y-149945514D01*
X128133836Y-149581448D01*
X128133836Y-149217379D01*
X128184635Y-149217379D01*
X128235435Y-149217379D01*
X128235435Y-149581448D01*
G37*
G36*
X127862902Y-149649179D02*
G01*
X127862902Y-149945514D01*
X127820568Y-149945514D01*
X127778236Y-149945514D01*
X127778236Y-149649179D01*
X127778236Y-149352847D01*
X127820568Y-149352847D01*
X127862902Y-149352847D01*
X127862902Y-149649179D01*
G37*
G36*
X127452267Y-149355957D02*
G01*
X127498835Y-149361316D01*
X127503475Y-149653415D01*
X127508115Y-149945514D01*
X127290749Y-149945514D01*
X127073385Y-149945514D01*
X127027869Y-149898019D01*
X126982368Y-149850528D01*
X126982368Y-149601687D01*
X126982368Y-149352847D01*
X127024702Y-149352847D01*
X127067036Y-149352847D01*
X127067036Y-149606848D01*
X127067036Y-149860849D01*
X127236367Y-149860849D01*
X127405701Y-149860849D01*
X127405701Y-149605722D01*
X127405701Y-149350598D01*
X127452267Y-149355957D01*
G37*
G36*
X125441441Y-149894714D02*
G01*
X125441441Y-149945514D01*
X125390641Y-149945514D01*
X125339842Y-149945514D01*
X125339842Y-149894714D01*
X125339842Y-149843914D01*
X125390641Y-149843914D01*
X125441441Y-149843914D01*
X125441441Y-149894714D01*
G37*
G36*
X124235853Y-149408685D02*
G01*
X124289974Y-149464526D01*
X124289974Y-149705020D01*
X124289974Y-149945514D01*
X124239175Y-149945514D01*
X124188375Y-149945514D01*
X124188375Y-149691513D01*
X124188375Y-149437512D01*
X124019042Y-149437512D01*
X123849709Y-149437512D01*
X123849709Y-149691513D01*
X123849709Y-149945514D01*
X123807375Y-149945514D01*
X123765041Y-149945514D01*
X123765041Y-149649179D01*
X123765041Y-149352847D01*
X123973386Y-149352847D01*
X124181731Y-149352847D01*
X124235853Y-149408685D01*
G37*
G36*
X123494108Y-149649179D02*
G01*
X123494108Y-149945514D01*
X123443308Y-149945514D01*
X123392509Y-149945514D01*
X123392509Y-149649179D01*
X123392509Y-149352847D01*
X123443308Y-149352847D01*
X123494108Y-149352847D01*
X123494108Y-149649179D01*
G37*
G36*
X122698241Y-149285113D02*
G01*
X122698241Y-149352847D01*
X122864253Y-149352847D01*
X123030264Y-149352847D01*
X123084385Y-149408685D01*
X123138506Y-149464526D01*
X123138506Y-149705020D01*
X123138506Y-149945514D01*
X123087707Y-149945514D01*
X123036907Y-149945514D01*
X123036907Y-149691513D01*
X123036907Y-149437512D01*
X122867576Y-149437512D01*
X122698241Y-149437512D01*
X122698241Y-149691513D01*
X122698241Y-149945514D01*
X122655907Y-149945514D01*
X122613575Y-149945514D01*
X122613575Y-149581448D01*
X122613575Y-149217379D01*
X122655907Y-149217379D01*
X122698241Y-149217379D01*
X122698241Y-149285113D01*
G37*
G36*
X134416099Y-149894717D02*
G01*
X134416099Y-149945517D01*
X134365299Y-149945517D01*
X134314500Y-149945517D01*
X134314500Y-149894717D01*
X134314500Y-149843918D01*
X134365299Y-149843918D01*
X134416099Y-149843918D01*
X134416099Y-149894717D01*
G37*
G36*
X134026633Y-149513717D02*
G01*
X134026633Y-149674585D01*
X133823432Y-149674585D01*
X133620231Y-149674585D01*
X133620231Y-149767718D01*
X133620231Y-149860852D01*
X133814964Y-149860852D01*
X134009696Y-149860852D01*
X134009696Y-149903183D01*
X134009696Y-149945517D01*
X133809666Y-149945517D01*
X133609635Y-149945517D01*
X133564134Y-149898022D01*
X133518632Y-149850531D01*
X133518632Y-149655813D01*
X133518632Y-149608120D01*
X133620231Y-149608120D01*
X133776865Y-149603259D01*
X133933497Y-149598398D01*
X133938660Y-149517950D01*
X133943821Y-149437515D01*
X133782026Y-149437515D01*
X133620231Y-149437515D01*
X133620231Y-149522818D01*
X133620231Y-149608120D01*
X133518632Y-149608120D01*
X133518632Y-149522818D01*
X133518632Y-149461093D01*
X133574473Y-149406973D01*
X133630311Y-149352850D01*
X133828474Y-149352850D01*
X134026633Y-149352850D01*
X134026633Y-149513717D01*
G37*
G36*
X124645574Y-149412112D02*
G01*
X124645574Y-149606845D01*
X124736655Y-149606845D01*
X124827737Y-149606845D01*
X124910223Y-149480063D01*
X124992709Y-149353280D01*
X125039275Y-149353079D01*
X125044019Y-149353117D01*
X125048630Y-149353270D01*
X125053083Y-149353534D01*
X125057356Y-149353903D01*
X125061425Y-149354370D01*
X125065265Y-149354930D01*
X125068852Y-149355578D01*
X125072163Y-149356307D01*
X125075174Y-149357111D01*
X125077861Y-149357986D01*
X125080200Y-149358925D01*
X125082168Y-149359922D01*
X125083740Y-149360972D01*
X125084892Y-149362068D01*
X125085303Y-149362633D01*
X125085601Y-149363206D01*
X125085781Y-149363789D01*
X125085842Y-149364380D01*
X125085729Y-149365134D01*
X125085393Y-149366203D01*
X125084076Y-149369249D01*
X125081935Y-149373449D01*
X125079014Y-149378731D01*
X125071012Y-149392265D01*
X125060424Y-149409288D01*
X125047604Y-149429242D01*
X125032909Y-149451566D01*
X125016692Y-149475697D01*
X124999310Y-149501077D01*
X124912777Y-149626251D01*
X125001748Y-149773184D01*
X125066649Y-149880687D01*
X125097746Y-149932818D01*
X125098039Y-149933469D01*
X125098197Y-149934111D01*
X125098223Y-149934744D01*
X125098118Y-149935368D01*
X125097887Y-149935981D01*
X125097532Y-149936582D01*
X125097055Y-149937171D01*
X125096459Y-149937747D01*
X125095748Y-149938309D01*
X125094924Y-149938857D01*
X125093990Y-149939389D01*
X125092948Y-149939904D01*
X125091802Y-149940403D01*
X125090554Y-149940883D01*
X125089207Y-149941344D01*
X125087764Y-149941786D01*
X125086228Y-149942208D01*
X125084601Y-149942608D01*
X125082887Y-149942986D01*
X125081088Y-149943341D01*
X125077246Y-149943980D01*
X125073098Y-149944517D01*
X125068668Y-149944946D01*
X125063976Y-149945260D01*
X125059047Y-149945454D01*
X125053901Y-149945520D01*
X125003030Y-149945520D01*
X124921847Y-149810052D01*
X124840664Y-149674585D01*
X124743122Y-149674585D01*
X124645576Y-149674585D01*
X124645576Y-149810052D01*
X124645576Y-149945520D01*
X124603243Y-149945520D01*
X124560909Y-149945520D01*
X124560908Y-149581448D01*
X124560908Y-149217379D01*
X124603242Y-149217379D01*
X124645574Y-149217379D01*
X124645574Y-149412112D01*
G37*
D10*
X94450000Y-104850000D02*
X113450000Y-104850000D01*
X113450000Y-122850000D01*
X94450000Y-122850000D01*
X94450000Y-104850000D01*
X135200000Y-90670000D02*
X179300000Y-90670000D01*
X179300000Y-123670000D01*
X135200000Y-123670000D01*
X135200000Y-90670000D01*
D12*
X94400828Y-81945489D02*
X95615114Y-81945489D01*
X95615114Y-81945489D02*
X95757971Y-81874060D01*
X95757971Y-81874060D02*
X95829400Y-81802632D01*
X95829400Y-81802632D02*
X95900828Y-81659774D01*
X95900828Y-81659774D02*
X95900828Y-81374060D01*
X95900828Y-81374060D02*
X95829400Y-81231203D01*
X95829400Y-81231203D02*
X95757971Y-81159774D01*
X95757971Y-81159774D02*
X95615114Y-81088346D01*
X95615114Y-81088346D02*
X94400828Y-81088346D01*
X95829400Y-80445488D02*
X95900828Y-80231203D01*
X95900828Y-80231203D02*
X95900828Y-79874060D01*
X95900828Y-79874060D02*
X95829400Y-79731203D01*
X95829400Y-79731203D02*
X95757971Y-79659774D01*
X95757971Y-79659774D02*
X95615114Y-79588345D01*
X95615114Y-79588345D02*
X95472257Y-79588345D01*
X95472257Y-79588345D02*
X95329400Y-79659774D01*
X95329400Y-79659774D02*
X95257971Y-79731203D01*
X95257971Y-79731203D02*
X95186542Y-79874060D01*
X95186542Y-79874060D02*
X95115114Y-80159774D01*
X95115114Y-80159774D02*
X95043685Y-80302631D01*
X95043685Y-80302631D02*
X94972257Y-80374060D01*
X94972257Y-80374060D02*
X94829400Y-80445488D01*
X94829400Y-80445488D02*
X94686542Y-80445488D01*
X94686542Y-80445488D02*
X94543685Y-80374060D01*
X94543685Y-80374060D02*
X94472257Y-80302631D01*
X94472257Y-80302631D02*
X94400828Y-80159774D01*
X94400828Y-80159774D02*
X94400828Y-79802631D01*
X94400828Y-79802631D02*
X94472257Y-79588345D01*
X95115114Y-78445489D02*
X95186542Y-78231203D01*
X95186542Y-78231203D02*
X95257971Y-78159774D01*
X95257971Y-78159774D02*
X95400828Y-78088346D01*
X95400828Y-78088346D02*
X95615114Y-78088346D01*
X95615114Y-78088346D02*
X95757971Y-78159774D01*
X95757971Y-78159774D02*
X95829400Y-78231203D01*
X95829400Y-78231203D02*
X95900828Y-78374060D01*
X95900828Y-78374060D02*
X95900828Y-78945489D01*
X95900828Y-78945489D02*
X94400828Y-78945489D01*
X94400828Y-78945489D02*
X94400828Y-78445489D01*
X94400828Y-78445489D02*
X94472257Y-78302632D01*
X94472257Y-78302632D02*
X94543685Y-78231203D01*
X94543685Y-78231203D02*
X94686542Y-78159774D01*
X94686542Y-78159774D02*
X94829400Y-78159774D01*
X94829400Y-78159774D02*
X94972257Y-78231203D01*
X94972257Y-78231203D02*
X95043685Y-78302632D01*
X95043685Y-78302632D02*
X95115114Y-78445489D01*
X95115114Y-78445489D02*
X95115114Y-78945489D01*
D13*
X144283333Y-71754819D02*
X143950000Y-71278628D01*
X143711905Y-71754819D02*
X143711905Y-70754819D01*
X143711905Y-70754819D02*
X144092857Y-70754819D01*
X144092857Y-70754819D02*
X144188095Y-70802438D01*
X144188095Y-70802438D02*
X144235714Y-70850057D01*
X144235714Y-70850057D02*
X144283333Y-70945295D01*
X144283333Y-70945295D02*
X144283333Y-71088152D01*
X144283333Y-71088152D02*
X144235714Y-71183390D01*
X144235714Y-71183390D02*
X144188095Y-71231009D01*
X144188095Y-71231009D02*
X144092857Y-71278628D01*
X144092857Y-71278628D02*
X143711905Y-71278628D01*
X145140476Y-71088152D02*
X145140476Y-71754819D01*
X144902381Y-70707200D02*
X144664286Y-71421485D01*
X144664286Y-71421485D02*
X145283333Y-71421485D01*
X132504819Y-65516666D02*
X132028628Y-65849999D01*
X132504819Y-66088094D02*
X131504819Y-66088094D01*
X131504819Y-66088094D02*
X131504819Y-65707142D01*
X131504819Y-65707142D02*
X131552438Y-65611904D01*
X131552438Y-65611904D02*
X131600057Y-65564285D01*
X131600057Y-65564285D02*
X131695295Y-65516666D01*
X131695295Y-65516666D02*
X131838152Y-65516666D01*
X131838152Y-65516666D02*
X131933390Y-65564285D01*
X131933390Y-65564285D02*
X131981009Y-65611904D01*
X131981009Y-65611904D02*
X132028628Y-65707142D01*
X132028628Y-65707142D02*
X132028628Y-66088094D01*
X131504819Y-65183332D02*
X131504819Y-64564285D01*
X131504819Y-64564285D02*
X131885771Y-64897618D01*
X131885771Y-64897618D02*
X131885771Y-64754761D01*
X131885771Y-64754761D02*
X131933390Y-64659523D01*
X131933390Y-64659523D02*
X131981009Y-64611904D01*
X131981009Y-64611904D02*
X132076247Y-64564285D01*
X132076247Y-64564285D02*
X132314342Y-64564285D01*
X132314342Y-64564285D02*
X132409580Y-64611904D01*
X132409580Y-64611904D02*
X132457200Y-64659523D01*
X132457200Y-64659523D02*
X132504819Y-64754761D01*
X132504819Y-64754761D02*
X132504819Y-65040475D01*
X132504819Y-65040475D02*
X132457200Y-65135713D01*
X132457200Y-65135713D02*
X132409580Y-65183332D01*
X170383333Y-81904819D02*
X170050000Y-81428628D01*
X169811905Y-81904819D02*
X169811905Y-80904819D01*
X169811905Y-80904819D02*
X170192857Y-80904819D01*
X170192857Y-80904819D02*
X170288095Y-80952438D01*
X170288095Y-80952438D02*
X170335714Y-81000057D01*
X170335714Y-81000057D02*
X170383333Y-81095295D01*
X170383333Y-81095295D02*
X170383333Y-81238152D01*
X170383333Y-81238152D02*
X170335714Y-81333390D01*
X170335714Y-81333390D02*
X170288095Y-81381009D01*
X170288095Y-81381009D02*
X170192857Y-81428628D01*
X170192857Y-81428628D02*
X169811905Y-81428628D01*
X170764286Y-81000057D02*
X170811905Y-80952438D01*
X170811905Y-80952438D02*
X170907143Y-80904819D01*
X170907143Y-80904819D02*
X171145238Y-80904819D01*
X171145238Y-80904819D02*
X171240476Y-80952438D01*
X171240476Y-80952438D02*
X171288095Y-81000057D01*
X171288095Y-81000057D02*
X171335714Y-81095295D01*
X171335714Y-81095295D02*
X171335714Y-81190533D01*
X171335714Y-81190533D02*
X171288095Y-81333390D01*
X171288095Y-81333390D02*
X170716667Y-81904819D01*
X170716667Y-81904819D02*
X171335714Y-81904819D01*
X170383333Y-86854819D02*
X170050000Y-86378628D01*
X169811905Y-86854819D02*
X169811905Y-85854819D01*
X169811905Y-85854819D02*
X170192857Y-85854819D01*
X170192857Y-85854819D02*
X170288095Y-85902438D01*
X170288095Y-85902438D02*
X170335714Y-85950057D01*
X170335714Y-85950057D02*
X170383333Y-86045295D01*
X170383333Y-86045295D02*
X170383333Y-86188152D01*
X170383333Y-86188152D02*
X170335714Y-86283390D01*
X170335714Y-86283390D02*
X170288095Y-86331009D01*
X170288095Y-86331009D02*
X170192857Y-86378628D01*
X170192857Y-86378628D02*
X169811905Y-86378628D01*
X171335714Y-86854819D02*
X170764286Y-86854819D01*
X171050000Y-86854819D02*
X171050000Y-85854819D01*
X171050000Y-85854819D02*
X170954762Y-85997676D01*
X170954762Y-85997676D02*
X170859524Y-86092914D01*
X170859524Y-86092914D02*
X170764286Y-86140533D01*
X147483333Y-68359580D02*
X147435714Y-68407200D01*
X147435714Y-68407200D02*
X147292857Y-68454819D01*
X147292857Y-68454819D02*
X147197619Y-68454819D01*
X147197619Y-68454819D02*
X147054762Y-68407200D01*
X147054762Y-68407200D02*
X146959524Y-68311961D01*
X146959524Y-68311961D02*
X146911905Y-68216723D01*
X146911905Y-68216723D02*
X146864286Y-68026247D01*
X146864286Y-68026247D02*
X146864286Y-67883390D01*
X146864286Y-67883390D02*
X146911905Y-67692914D01*
X146911905Y-67692914D02*
X146959524Y-67597676D01*
X146959524Y-67597676D02*
X147054762Y-67502438D01*
X147054762Y-67502438D02*
X147197619Y-67454819D01*
X147197619Y-67454819D02*
X147292857Y-67454819D01*
X147292857Y-67454819D02*
X147435714Y-67502438D01*
X147435714Y-67502438D02*
X147483333Y-67550057D01*
X148435714Y-68454819D02*
X147864286Y-68454819D01*
X148150000Y-68454819D02*
X148150000Y-67454819D01*
X148150000Y-67454819D02*
X148054762Y-67597676D01*
X148054762Y-67597676D02*
X147959524Y-67692914D01*
X147959524Y-67692914D02*
X147864286Y-67740533D01*
D10*
X164614360Y-74092419D02*
X164804836Y-74092419D01*
X164804836Y-74092419D02*
X164900074Y-74140038D01*
X164900074Y-74140038D02*
X164995312Y-74235276D01*
X164995312Y-74235276D02*
X165042931Y-74425752D01*
X165042931Y-74425752D02*
X165042931Y-74759085D01*
X165042931Y-74759085D02*
X164995312Y-74949561D01*
X164995312Y-74949561D02*
X164900074Y-75044800D01*
X164900074Y-75044800D02*
X164804836Y-75092419D01*
X164804836Y-75092419D02*
X164614360Y-75092419D01*
X164614360Y-75092419D02*
X164519122Y-75044800D01*
X164519122Y-75044800D02*
X164423884Y-74949561D01*
X164423884Y-74949561D02*
X164376265Y-74759085D01*
X164376265Y-74759085D02*
X164376265Y-74425752D01*
X164376265Y-74425752D02*
X164423884Y-74235276D01*
X164423884Y-74235276D02*
X164519122Y-74140038D01*
X164519122Y-74140038D02*
X164614360Y-74092419D01*
X165471503Y-74092419D02*
X165471503Y-74901942D01*
X165471503Y-74901942D02*
X165519122Y-74997180D01*
X165519122Y-74997180D02*
X165566741Y-75044800D01*
X165566741Y-75044800D02*
X165661979Y-75092419D01*
X165661979Y-75092419D02*
X165852455Y-75092419D01*
X165852455Y-75092419D02*
X165947693Y-75044800D01*
X165947693Y-75044800D02*
X165995312Y-74997180D01*
X165995312Y-74997180D02*
X166042931Y-74901942D01*
X166042931Y-74901942D02*
X166042931Y-74092419D01*
X166376265Y-74092419D02*
X166947693Y-74092419D01*
X166661979Y-75092419D02*
X166661979Y-74092419D01*
X167281027Y-74711466D02*
X168042932Y-74711466D01*
X164757217Y-83798609D02*
X164900074Y-83846228D01*
X164900074Y-83846228D02*
X164947693Y-83893847D01*
X164947693Y-83893847D02*
X164995312Y-83989085D01*
X164995312Y-83989085D02*
X164995312Y-84131942D01*
X164995312Y-84131942D02*
X164947693Y-84227180D01*
X164947693Y-84227180D02*
X164900074Y-84274800D01*
X164900074Y-84274800D02*
X164804836Y-84322419D01*
X164804836Y-84322419D02*
X164423884Y-84322419D01*
X164423884Y-84322419D02*
X164423884Y-83322419D01*
X164423884Y-83322419D02*
X164757217Y-83322419D01*
X164757217Y-83322419D02*
X164852455Y-83370038D01*
X164852455Y-83370038D02*
X164900074Y-83417657D01*
X164900074Y-83417657D02*
X164947693Y-83512895D01*
X164947693Y-83512895D02*
X164947693Y-83608133D01*
X164947693Y-83608133D02*
X164900074Y-83703371D01*
X164900074Y-83703371D02*
X164852455Y-83750990D01*
X164852455Y-83750990D02*
X164757217Y-83798609D01*
X164757217Y-83798609D02*
X164423884Y-83798609D01*
X165852455Y-84322419D02*
X165852455Y-83798609D01*
X165852455Y-83798609D02*
X165804836Y-83703371D01*
X165804836Y-83703371D02*
X165709598Y-83655752D01*
X165709598Y-83655752D02*
X165519122Y-83655752D01*
X165519122Y-83655752D02*
X165423884Y-83703371D01*
X165852455Y-84274800D02*
X165757217Y-84322419D01*
X165757217Y-84322419D02*
X165519122Y-84322419D01*
X165519122Y-84322419D02*
X165423884Y-84274800D01*
X165423884Y-84274800D02*
X165376265Y-84179561D01*
X165376265Y-84179561D02*
X165376265Y-84084323D01*
X165376265Y-84084323D02*
X165423884Y-83989085D01*
X165423884Y-83989085D02*
X165519122Y-83941466D01*
X165519122Y-83941466D02*
X165757217Y-83941466D01*
X165757217Y-83941466D02*
X165852455Y-83893847D01*
X166185789Y-83655752D02*
X166566741Y-83655752D01*
X166328646Y-83322419D02*
X166328646Y-84179561D01*
X166328646Y-84179561D02*
X166376265Y-84274800D01*
X166376265Y-84274800D02*
X166471503Y-84322419D01*
X166471503Y-84322419D02*
X166566741Y-84322419D01*
X166900075Y-83941466D02*
X167661980Y-83941466D01*
X167281027Y-84322419D02*
X167281027Y-83560514D01*
X164757217Y-77818609D02*
X164900074Y-77866228D01*
X164900074Y-77866228D02*
X164947693Y-77913847D01*
X164947693Y-77913847D02*
X164995312Y-78009085D01*
X164995312Y-78009085D02*
X164995312Y-78151942D01*
X164995312Y-78151942D02*
X164947693Y-78247180D01*
X164947693Y-78247180D02*
X164900074Y-78294800D01*
X164900074Y-78294800D02*
X164804836Y-78342419D01*
X164804836Y-78342419D02*
X164423884Y-78342419D01*
X164423884Y-78342419D02*
X164423884Y-77342419D01*
X164423884Y-77342419D02*
X164757217Y-77342419D01*
X164757217Y-77342419D02*
X164852455Y-77390038D01*
X164852455Y-77390038D02*
X164900074Y-77437657D01*
X164900074Y-77437657D02*
X164947693Y-77532895D01*
X164947693Y-77532895D02*
X164947693Y-77628133D01*
X164947693Y-77628133D02*
X164900074Y-77723371D01*
X164900074Y-77723371D02*
X164852455Y-77770990D01*
X164852455Y-77770990D02*
X164757217Y-77818609D01*
X164757217Y-77818609D02*
X164423884Y-77818609D01*
X165852455Y-78342419D02*
X165852455Y-77818609D01*
X165852455Y-77818609D02*
X165804836Y-77723371D01*
X165804836Y-77723371D02*
X165709598Y-77675752D01*
X165709598Y-77675752D02*
X165519122Y-77675752D01*
X165519122Y-77675752D02*
X165423884Y-77723371D01*
X165852455Y-78294800D02*
X165757217Y-78342419D01*
X165757217Y-78342419D02*
X165519122Y-78342419D01*
X165519122Y-78342419D02*
X165423884Y-78294800D01*
X165423884Y-78294800D02*
X165376265Y-78199561D01*
X165376265Y-78199561D02*
X165376265Y-78104323D01*
X165376265Y-78104323D02*
X165423884Y-78009085D01*
X165423884Y-78009085D02*
X165519122Y-77961466D01*
X165519122Y-77961466D02*
X165757217Y-77961466D01*
X165757217Y-77961466D02*
X165852455Y-77913847D01*
X166185789Y-77675752D02*
X166566741Y-77675752D01*
X166328646Y-77342419D02*
X166328646Y-78199561D01*
X166328646Y-78199561D02*
X166376265Y-78294800D01*
X166376265Y-78294800D02*
X166471503Y-78342419D01*
X166471503Y-78342419D02*
X166566741Y-78342419D01*
X166900075Y-77961466D02*
X167661980Y-77961466D01*
X181653884Y-74992419D02*
X181653884Y-73992419D01*
X182130074Y-74992419D02*
X182130074Y-73992419D01*
X182130074Y-73992419D02*
X182701502Y-74992419D01*
X182701502Y-74992419D02*
X182701502Y-73992419D01*
X183177693Y-74611466D02*
X183939598Y-74611466D01*
X181653884Y-87322419D02*
X181653884Y-86322419D01*
X182130074Y-87322419D02*
X182130074Y-86322419D01*
X182130074Y-86322419D02*
X182701502Y-87322419D01*
X182701502Y-87322419D02*
X182701502Y-86322419D01*
X183177693Y-86941466D02*
X183939598Y-86941466D01*
X183558645Y-87322419D02*
X183558645Y-86560514D01*
X164614360Y-86422419D02*
X164804836Y-86422419D01*
X164804836Y-86422419D02*
X164900074Y-86470038D01*
X164900074Y-86470038D02*
X164995312Y-86565276D01*
X164995312Y-86565276D02*
X165042931Y-86755752D01*
X165042931Y-86755752D02*
X165042931Y-87089085D01*
X165042931Y-87089085D02*
X164995312Y-87279561D01*
X164995312Y-87279561D02*
X164900074Y-87374800D01*
X164900074Y-87374800D02*
X164804836Y-87422419D01*
X164804836Y-87422419D02*
X164614360Y-87422419D01*
X164614360Y-87422419D02*
X164519122Y-87374800D01*
X164519122Y-87374800D02*
X164423884Y-87279561D01*
X164423884Y-87279561D02*
X164376265Y-87089085D01*
X164376265Y-87089085D02*
X164376265Y-86755752D01*
X164376265Y-86755752D02*
X164423884Y-86565276D01*
X164423884Y-86565276D02*
X164519122Y-86470038D01*
X164519122Y-86470038D02*
X164614360Y-86422419D01*
X165471503Y-86422419D02*
X165471503Y-87231942D01*
X165471503Y-87231942D02*
X165519122Y-87327180D01*
X165519122Y-87327180D02*
X165566741Y-87374800D01*
X165566741Y-87374800D02*
X165661979Y-87422419D01*
X165661979Y-87422419D02*
X165852455Y-87422419D01*
X165852455Y-87422419D02*
X165947693Y-87374800D01*
X165947693Y-87374800D02*
X165995312Y-87327180D01*
X165995312Y-87327180D02*
X166042931Y-87231942D01*
X166042931Y-87231942D02*
X166042931Y-86422419D01*
X166376265Y-86422419D02*
X166947693Y-86422419D01*
X166661979Y-87422419D02*
X166661979Y-86422419D01*
X167281027Y-87041466D02*
X168042932Y-87041466D01*
X167661979Y-87422419D02*
X167661979Y-86660514D01*
D14*
%TO.C,SW5_B1*%
X146550000Y-144900000D02*
X146550000Y-146400000D01*
X147800000Y-148900000D02*
X152300000Y-148900000D01*
X152300000Y-142400000D02*
X147800000Y-142400000D01*
X153550000Y-146400000D02*
X153550000Y-144900000D01*
%TO.C,SW4_T1*%
X146600000Y-129400000D02*
X146600000Y-130900000D01*
X147850000Y-133400000D02*
X152350000Y-133400000D01*
X152350000Y-126900000D02*
X147850000Y-126900000D01*
X153600000Y-130900000D02*
X153600000Y-129400000D01*
%TO.C,SW3_M1*%
X146550000Y-137150000D02*
X146550000Y-138650000D01*
X147800000Y-141150000D02*
X152300000Y-141150000D01*
X152300000Y-134650000D02*
X147800000Y-134650000D01*
X153550000Y-138650000D02*
X153550000Y-137150000D01*
%TO.C,SW2_L1*%
X136850000Y-137150000D02*
X136850000Y-138650000D01*
X138100000Y-141150000D02*
X142600000Y-141150000D01*
X142600000Y-134650000D02*
X138100000Y-134650000D01*
X143850000Y-138650000D02*
X143850000Y-137150000D01*
%TO.C,SW1_R1*%
X156250000Y-137150000D02*
X156250000Y-138650000D01*
X157500000Y-141150000D02*
X162000000Y-141150000D01*
X162000000Y-134650000D02*
X157500000Y-134650000D01*
X163250000Y-138650000D02*
X163250000Y-137150000D01*
%TO.C,R4*%
X143540000Y-72027064D02*
X143540000Y-70572936D01*
X145360000Y-72027064D02*
X145360000Y-70572936D01*
%TO.C,R3*%
X132777064Y-66260000D02*
X131322936Y-66260000D01*
X132777064Y-64440000D02*
X131322936Y-64440000D01*
%TO.C,R2*%
X169640000Y-82177064D02*
X169640000Y-80722936D01*
X171460000Y-82177064D02*
X171460000Y-80722936D01*
%TO.C,R1*%
X169640000Y-87127064D02*
X169640000Y-85672936D01*
X171460000Y-87127064D02*
X171460000Y-85672936D01*
%TO.C,D1*%
X135620000Y-64114000D02*
X135620000Y-64270000D01*
X135620000Y-66430000D02*
X135620000Y-66586000D01*
X135620000Y-64114484D02*
G75*
G02*
X138851397Y-64269939I1560000J-1235516D01*
G01*
X136139039Y-64270000D02*
G75*
G02*
X138220910Y-64269951I1040961J-1080000D01*
G01*
X138220910Y-66430049D02*
G75*
G02*
X136139039Y-66430000I-1040910J1080049D01*
G01*
X138851397Y-66430061D02*
G75*
G02*
X135620000Y-66585516I-1671397J1080061D01*
G01*
%TO.C,C1*%
X144853733Y-67490000D02*
X145146267Y-67490000D01*
X144853733Y-68510000D02*
X145146267Y-68510000D01*
%TO.C,BMS1*%
D10*
X160850000Y-71950000D02*
X187350000Y-71950000D01*
X187350000Y-89450000D01*
X160850000Y-89450000D01*
X160850000Y-71950000D01*
%TD*%
M02*
