%TF.GenerationSoftware,KiCad,Pcbnew,9.0.0*%
%TF.CreationDate,2025-06-04T20:24:47+02:00*%
%TF.ProjectId,capibarazeroPCB,63617069-6261-4726-917a-65726f504342,rev?*%
%TF.SameCoordinates,Original*%
%TF.FileFunction,Copper,L2,Bot*%
%TF.FilePolarity,Positive*%
%FSLAX46Y46*%
G04 Gerber Fmt 4.6, Leading zero omitted, Abs format (unit mm)*
G04 Created by KiCad (PCBNEW 9.0.0) date 2025-06-04 20:24:47*
%MOMM*%
%LPD*%
G01*
G04 APERTURE LIST*
G04 Aperture macros list*
%AMRoundRect*
0 Rectangle with rounded corners*
0 $1 Rounding radius*
0 $2 $3 $4 $5 $6 $7 $8 $9 X,Y pos of 4 corners*
0 Add a 4 corners polygon primitive as box body*
4,1,4,$2,$3,$4,$5,$6,$7,$8,$9,$2,$3,0*
0 Add four circle primitives for the rounded corners*
1,1,$1+$1,$2,$3*
1,1,$1+$1,$4,$5*
1,1,$1+$1,$6,$7*
1,1,$1+$1,$8,$9*
0 Add four rect primitives between the rounded corners*
20,1,$1+$1,$2,$3,$4,$5,0*
20,1,$1+$1,$4,$5,$6,$7,0*
20,1,$1+$1,$6,$7,$8,$9,0*
20,1,$1+$1,$8,$9,$2,$3,0*%
G04 Aperture macros list end*
%TA.AperFunction,SMDPad,CuDef*%
%ADD10R,6.350000X7.340000*%
%TD*%
%TA.AperFunction,ComponentPad*%
%ADD11C,2.540000*%
%TD*%
%TA.AperFunction,ComponentPad*%
%ADD12R,1.700000X1.700000*%
%TD*%
%TA.AperFunction,ComponentPad*%
%ADD13O,1.700000X1.700000*%
%TD*%
%TA.AperFunction,SMDPad,CuDef*%
%ADD14RoundRect,0.250000X-1.500000X-0.500000X1.500000X-0.500000X1.500000X0.500000X-1.500000X0.500000X0*%
%TD*%
%TA.AperFunction,ComponentPad*%
%ADD15C,2.000000*%
%TD*%
%TA.AperFunction,ComponentPad*%
%ADD16R,1.800000X1.800000*%
%TD*%
%TA.AperFunction,ComponentPad*%
%ADD17C,1.800000*%
%TD*%
%TA.AperFunction,ComponentPad*%
%ADD18R,2.540000X2.540000*%
%TD*%
%TA.AperFunction,ViaPad*%
%ADD19C,0.600000*%
%TD*%
%TA.AperFunction,Conductor*%
%ADD20C,0.600000*%
%TD*%
%TA.AperFunction,Conductor*%
%ADD21C,0.200000*%
%TD*%
G04 APERTURE END LIST*
D10*
%TO.P,BT1,1,+*%
%TO.N,tp_bat+*%
X177000000Y-146430000D03*
%TO.P,BT1,2,-*%
%TO.N,tp_bat-*%
X177000000Y-67770000D03*
%TD*%
D11*
%TO.P,SW1,1,1*%
%TO.N,VIN*%
X126600000Y-132200000D03*
%TO.P,SW1,2,2*%
%TO.N,tp_V+*%
X131750000Y-132200000D03*
%TD*%
D12*
%TO.P,J3,1*%
%TO.N,GND*%
X111600000Y-107570000D03*
D13*
%TO.P,J3,2*%
%TO.N,D12*%
X111600000Y-110110000D03*
%TO.P,J3,3*%
%TO.N,D13*%
X111600000Y-112650000D03*
%TO.P,J3,4*%
%TO.N,D11*%
X111600000Y-115190000D03*
%TO.P,J3,5*%
%TO.N,D10*%
X111600000Y-117730000D03*
%TO.P,J3,6*%
%TO.N,+3.3V*%
X111600000Y-120270000D03*
%TD*%
D12*
%TO.P,J6,1*%
%TO.N,+3.3V*%
X145150000Y-65300000D03*
D13*
%TO.P,J6,2*%
%TO.N,GND*%
X147690000Y-65300000D03*
%TO.P,J6,3*%
%TO.N,D8*%
X150230000Y-65300000D03*
%TD*%
D12*
%TO.P,J4,1*%
%TO.N,A6*%
X155619000Y-114077000D03*
D13*
%TO.P,J4,2*%
%TO.N,A7*%
X155619000Y-111537000D03*
%TO.P,J4,3*%
%TO.N,+3.3V*%
X155619000Y-108997000D03*
%TO.P,J4,4*%
%TO.N,GND*%
X155619000Y-106457000D03*
%TD*%
D12*
%TO.P,J5,1*%
%TO.N,GND*%
X177100000Y-98570000D03*
D13*
%TO.P,J5,2*%
%TO.N,+3.3V*%
X177100000Y-101110000D03*
%TO.P,J5,3*%
%TO.N,D4*%
X177100000Y-103650000D03*
%TO.P,J5,4*%
%TO.N,D2*%
X177100000Y-106190000D03*
%TO.P,J5,5*%
%TO.N,unconnected-(J5-Pad5)*%
X177100000Y-108730000D03*
%TO.P,J5,6*%
%TO.N,D5*%
X177100000Y-111270000D03*
%TO.P,J5,7*%
%TO.N,D6*%
X177100000Y-113810000D03*
%TO.P,J5,8*%
%TO.N,+3.3V*%
X177100000Y-116350000D03*
%TD*%
D12*
%TO.P,J1,1,Pin_1*%
%TO.N,D12*%
X95860000Y-72600000D03*
D13*
%TO.P,J1,2,Pin_2*%
%TO.N,D11*%
X98400000Y-72600000D03*
%TO.P,J1,3,Pin_3*%
%TO.N,D10*%
X100940000Y-72600000D03*
%TO.P,J1,4,Pin_4*%
%TO.N,D9*%
X103480000Y-72600000D03*
%TO.P,J1,5,Pin_5*%
%TO.N,D8*%
X106020000Y-72600000D03*
%TO.P,J1,6,Pin_6*%
%TO.N,D7*%
X108560000Y-72600000D03*
%TO.P,J1,7,Pin_7*%
%TO.N,D6*%
X111100000Y-72600000D03*
%TO.P,J1,8,Pin_8*%
%TO.N,D5*%
X113640000Y-72600000D03*
%TO.P,J1,9,Pin_9*%
%TO.N,D4*%
X116180000Y-72600000D03*
%TO.P,J1,10,Pin_10*%
%TO.N,D3*%
X118720000Y-72600000D03*
%TO.P,J1,11,Pin_11*%
%TO.N,D2*%
X121260000Y-72600000D03*
%TO.P,J1,12,Pin_12*%
%TO.N,unconnected-(J1-Pin_12-Pad12)*%
X123800000Y-72600000D03*
%TO.P,J1,13,Pin_13*%
%TO.N,RST*%
X126340000Y-72600000D03*
%TO.P,J1,14,Pin_14*%
%TO.N,D0*%
X128880000Y-72600000D03*
%TO.P,J1,15,Pin_15*%
%TO.N,D1*%
X131420000Y-72600000D03*
%TD*%
D12*
%TO.P,J2,1,Pin_1*%
%TO.N,D13*%
X95860000Y-87600000D03*
D13*
%TO.P,J2,2,Pin_2*%
%TO.N,+3.3V*%
X98400000Y-87600000D03*
%TO.P,J2,3,Pin_3*%
%TO.N,unconnected-(J2-Pin_3-Pad3)*%
X100940000Y-87600000D03*
%TO.P,J2,4,Pin_4*%
%TO.N,A0*%
X103480000Y-87600000D03*
%TO.P,J2,5,Pin_5*%
%TO.N,A1*%
X106020000Y-87600000D03*
%TO.P,J2,6,Pin_6*%
%TO.N,A2*%
X108560000Y-87600000D03*
%TO.P,J2,7,Pin_7*%
%TO.N,A3*%
X111100000Y-87600000D03*
%TO.P,J2,8,Pin_8*%
%TO.N,A4*%
X113640000Y-87600000D03*
%TO.P,J2,9,Pin_9*%
%TO.N,A5*%
X116180000Y-87600000D03*
%TO.P,J2,10,Pin_10*%
%TO.N,A6*%
X118720000Y-87600000D03*
%TO.P,J2,11,Pin_11*%
%TO.N,A7*%
X121260000Y-87600000D03*
%TO.P,J2,12,Pin_12*%
%TO.N,unconnected-(J2-Pin_12-Pad12)*%
X123800000Y-87600000D03*
%TO.P,J2,13,Pin_13*%
%TO.N,unconnected-(J2-Pin_13-Pad13)*%
X126340000Y-87600000D03*
%TO.P,J2,14,Pin_14*%
%TO.N,GND*%
X128880000Y-87600000D03*
%TO.P,J2,15,Pin_15*%
%TO.N,VIN*%
X131420000Y-87600000D03*
%TD*%
D14*
%TO.P,U1,1,ANT*%
%TO.N,unconnected-(U1-ANT-Pad1)*%
X139992000Y-88406000D03*
%TO.P,U1,2,GND*%
%TO.N,GND*%
X139992000Y-86606000D03*
%TO.P,U1,3,DIO3*%
%TO.N,unconnected-(U1-DIO3-Pad3)*%
X139992000Y-84806000D03*
%TO.P,U1,4,DIO4*%
%TO.N,unconnected-(U1-DIO4-Pad4)*%
X139992000Y-83006000D03*
%TO.P,U1,5,VCC*%
%TO.N,+3.3V*%
X139992000Y-81206000D03*
%TO.P,U1,6,DI0*%
%TO.N,unconnected-(U1-DI0-Pad6)*%
X139992000Y-79406000D03*
%TO.P,U1,7,DI1*%
%TO.N,D0*%
X139992000Y-77606000D03*
%TO.P,U1,8,DI2*%
%TO.N,D1*%
X139992000Y-75806000D03*
%TO.P,U1,9,GND*%
%TO.N,GND*%
X155492000Y-75806000D03*
%TO.P,U1,10,MISO*%
%TO.N,D9*%
X155492000Y-77606000D03*
%TO.P,U1,11,MOSI*%
%TO.N,D11*%
X155492000Y-79406000D03*
%TO.P,U1,12,SCK*%
%TO.N,D13*%
X155492000Y-81206000D03*
%TO.P,U1,13,NSS*%
%TO.N,D7*%
X155492000Y-83006000D03*
%TO.P,U1,14,RST*%
%TO.N,unconnected-(U1-RST-Pad14)*%
X155492000Y-84806000D03*
%TO.P,U1,15,DI5*%
%TO.N,unconnected-(U1-DI5-Pad15)*%
X155492000Y-86606000D03*
%TO.P,U1,16,GND*%
%TO.N,GND*%
X155492000Y-88406000D03*
%TD*%
D15*
%TO.P,SW5_B1,1,1*%
%TO.N,GND*%
X146800000Y-143400000D03*
X153300000Y-143400000D03*
%TO.P,SW5_B1,2,2*%
%TO.N,A2*%
X146800000Y-147900000D03*
X153300000Y-147900000D03*
%TD*%
%TO.P,SW4_T1,1,1*%
%TO.N,GND*%
X146850000Y-127900000D03*
X153350000Y-127900000D03*
%TO.P,SW4_T1,2,2*%
%TO.N,A5*%
X146850000Y-132400000D03*
X153350000Y-132400000D03*
%TD*%
%TO.P,SW3_M1,1,1*%
%TO.N,GND*%
X146800000Y-135650000D03*
X153300000Y-135650000D03*
%TO.P,SW3_M1,2,2*%
%TO.N,A3*%
X146800000Y-140150000D03*
X153300000Y-140150000D03*
%TD*%
%TO.P,SW2_L1,1,1*%
%TO.N,GND*%
X137100000Y-135650000D03*
X143600000Y-135650000D03*
%TO.P,SW2_L1,2,2*%
%TO.N,A4*%
X137100000Y-140150000D03*
X143600000Y-140150000D03*
%TD*%
%TO.P,SW1_R1,1,1*%
%TO.N,GND*%
X156500000Y-135650000D03*
X163000000Y-135650000D03*
%TO.P,SW1_R1,2,2*%
%TO.N,A1*%
X156500000Y-140150000D03*
X163000000Y-140150000D03*
%TD*%
D16*
%TO.P,D1,1,K*%
%TO.N,Net-(D1-K)*%
X135910000Y-65350000D03*
D17*
%TO.P,D1,2,A*%
%TO.N,D3*%
X138450000Y-65350000D03*
%TD*%
D18*
%TO.P,BMS1,1,OUT-*%
%TO.N,GND*%
X162850000Y-73950000D03*
%TO.P,BMS1,2,Bat-*%
%TO.N,tp_bat-*%
X162850000Y-77200000D03*
%TO.P,BMS1,3,Bat+*%
%TO.N,tp_bat+*%
X162850000Y-84450000D03*
%TO.P,BMS1,4,OUT+*%
%TO.N,tp_V+*%
X162850000Y-87550000D03*
%TO.P,BMS1,5,IN-*%
%TO.N,unconnected-(BMS1-IN--Pad5)*%
X185550000Y-73950000D03*
%TO.P,BMS1,6,IN+*%
%TO.N,unconnected-(BMS1-IN+-Pad6)*%
X185550000Y-87550000D03*
%TD*%
D19*
%TO.N,A5*%
X123234000Y-108616000D03*
%TO.N,A4*%
X122472000Y-109378000D03*
%TO.N,A3*%
X121710000Y-110140000D03*
%TO.N,A2*%
X120948000Y-110902000D03*
%TO.N,A1*%
X120186000Y-111664000D03*
%TO.N,A5*%
X128822000Y-124872000D03*
%TO.N,A4*%
X127552000Y-127158000D03*
%TO.N,A1*%
X124758000Y-124618000D03*
%TO.N,A0*%
X136788000Y-84994000D03*
X133140000Y-84994000D03*
%TO.N,D4*%
X122472000Y-76358000D03*
X135172000Y-80168000D03*
%TO.N,D2*%
X134156000Y-80168000D03*
%TO.N,D5*%
X133140000Y-80168000D03*
%TO.N,D6*%
X131362000Y-80168000D03*
%TO.N,A6*%
X134156000Y-100996000D03*
%TO.N,A7*%
X133394000Y-100234000D03*
%TO.N,D11*%
X103930000Y-82454000D03*
X148634000Y-79406000D03*
%TO.N,D13*%
X130330582Y-97424582D03*
%TO.N,D10*%
X101136000Y-104298000D03*
X101136000Y-108616000D03*
%TO.N,D11*%
X102152000Y-82454000D03*
X103676000Y-110648000D03*
%TO.N,D13*%
X99358000Y-105314000D03*
%TO.N,D9*%
X147618000Y-78263000D03*
%TO.N,D7*%
X152444000Y-82200000D03*
%TO.N,D8*%
X120821000Y-67976000D03*
%TD*%
D20*
%TO.N,+3.3V*%
X144346000Y-120270000D02*
X111600000Y-120270000D01*
X155619000Y-108997000D02*
X144346000Y-120270000D01*
D21*
%TO.N,A5*%
X116180000Y-100292000D02*
X116180000Y-87600000D01*
X121964000Y-107346000D02*
X121964000Y-106076000D01*
X123234000Y-108616000D02*
X121964000Y-107346000D01*
X121964000Y-106076000D02*
X116180000Y-100292000D01*
%TO.N,A4*%
X113582000Y-98964000D02*
X113582000Y-87658000D01*
X113582000Y-87658000D02*
X113640000Y-87600000D01*
X121202000Y-106584000D02*
X113582000Y-98964000D01*
X121202000Y-108108000D02*
X121202000Y-106584000D01*
X122472000Y-109378000D02*
X121202000Y-108108000D01*
%TO.N,A3*%
X111100000Y-98006000D02*
X111100000Y-87600000D01*
X120440000Y-108870000D02*
X120440000Y-107346000D01*
X121710000Y-110140000D02*
X120440000Y-108870000D01*
X120440000Y-107346000D02*
X111100000Y-98006000D01*
%TO.N,A2*%
X108560000Y-96736000D02*
X108560000Y-87600000D01*
X119678000Y-109632000D02*
X119678000Y-107854000D01*
X120948000Y-110902000D02*
X119678000Y-109632000D01*
X119678000Y-107854000D02*
X108560000Y-96736000D01*
%TO.N,A1*%
X142284000Y-137826000D02*
X154176000Y-137826000D01*
X136950000Y-127666000D02*
X136950000Y-132492000D01*
X125266000Y-126142000D02*
X135426000Y-126142000D01*
X124758000Y-125634000D02*
X125266000Y-126142000D01*
X135426000Y-126142000D02*
X136950000Y-127666000D01*
X136950000Y-132492000D02*
X142284000Y-137826000D01*
X154176000Y-137826000D02*
X156500000Y-140150000D01*
X124758000Y-124618000D02*
X124758000Y-125634000D01*
X106020000Y-95466000D02*
X106020000Y-87600000D01*
X118916000Y-110394000D02*
X118916000Y-108362000D01*
X120186000Y-111664000D02*
X118916000Y-110394000D01*
X118916000Y-108362000D02*
X106020000Y-95466000D01*
%TO.N,A5*%
X135680000Y-125380000D02*
X142700000Y-132400000D01*
X128822000Y-124964000D02*
X129238000Y-125380000D01*
X142700000Y-132400000D02*
X146850000Y-132400000D01*
X128822000Y-124872000D02*
X128822000Y-124964000D01*
X129238000Y-125380000D02*
X135680000Y-125380000D01*
%TO.N,A4*%
X126790000Y-140112000D02*
X124504000Y-137826000D01*
X124504000Y-130206000D02*
X127552000Y-127158000D01*
X137062000Y-140112000D02*
X126790000Y-140112000D01*
X137100000Y-140150000D02*
X137062000Y-140112000D01*
X124504000Y-137826000D02*
X124504000Y-130206000D01*
%TO.N,A0*%
X133140000Y-84994000D02*
X136788000Y-84994000D01*
%TO.N,D4*%
X124121000Y-78007000D02*
X122472000Y-76358000D01*
X133011000Y-78007000D02*
X124121000Y-78007000D01*
X135172000Y-80168000D02*
X133011000Y-78007000D01*
%TO.N,D2*%
X121260000Y-77432000D02*
X121260000Y-72600000D01*
X122472000Y-78644000D02*
X121260000Y-77432000D01*
X134156000Y-80168000D02*
X132632000Y-78644000D01*
X132632000Y-78644000D02*
X122472000Y-78644000D01*
%TO.N,D6*%
X111100000Y-77178000D02*
X111100000Y-72600000D01*
X131362000Y-80168000D02*
X114090000Y-80168000D01*
X114090000Y-80168000D02*
X111100000Y-77178000D01*
%TO.N,D5*%
X113640000Y-77686000D02*
X113640000Y-72600000D01*
X115360000Y-79406000D02*
X113640000Y-77686000D01*
X132378000Y-79406000D02*
X115360000Y-79406000D01*
X133140000Y-80168000D02*
X132378000Y-79406000D01*
%TO.N,D11*%
X148634000Y-79406000D02*
X155492000Y-79406000D01*
X103930000Y-82454000D02*
X102152000Y-82454000D01*
%TO.N,A6*%
X118720000Y-92164000D02*
X118720000Y-87600000D01*
X134156000Y-100996000D02*
X127552000Y-100996000D01*
X127552000Y-100996000D02*
X118720000Y-92164000D01*
%TO.N,A7*%
X121260000Y-93688000D02*
X121260000Y-87600000D01*
X127806000Y-100234000D02*
X121260000Y-93688000D01*
X133394000Y-100234000D02*
X127806000Y-100234000D01*
%TO.N,D13*%
X152422000Y-81206000D02*
X155492000Y-81206000D01*
X144062000Y-89566000D02*
X152422000Y-81206000D01*
X138189164Y-89566000D02*
X144062000Y-89566000D01*
X130330582Y-97424582D02*
X138189164Y-89566000D01*
%TO.N,D1*%
X133096000Y-75806000D02*
X131420000Y-74130000D01*
X139992000Y-75806000D02*
X133096000Y-75806000D01*
X131420000Y-74130000D02*
X131420000Y-72600000D01*
%TO.N,D10*%
X101136000Y-108616000D02*
X101136000Y-104298000D01*
%TO.N,D11*%
X102202800Y-82504800D02*
X102152000Y-82454000D01*
X102202800Y-109174800D02*
X102202800Y-82504800D01*
X103676000Y-110648000D02*
X102202800Y-109174800D01*
D20*
%TO.N,+3.3V*%
X143563000Y-65300000D02*
X145150000Y-65300000D01*
X142538000Y-66325000D02*
X143563000Y-65300000D01*
X142538000Y-80410000D02*
X142538000Y-66325000D01*
X141742000Y-81206000D02*
X142538000Y-80410000D01*
X139992000Y-81206000D02*
X141742000Y-81206000D01*
X98400000Y-83793000D02*
X98400000Y-87600000D01*
X100987000Y-81206000D02*
X98400000Y-83793000D01*
X139992000Y-81206000D02*
X100987000Y-81206000D01*
%TO.N,tp_bat+*%
X178697000Y-84450000D02*
X162850000Y-84450000D01*
X186861000Y-92614000D02*
X178697000Y-84450000D01*
X186861000Y-137318000D02*
X186861000Y-92614000D01*
X185210000Y-138969000D02*
X186861000Y-137318000D01*
X178987000Y-138969000D02*
X185210000Y-138969000D01*
X177000000Y-140956000D02*
X178987000Y-138969000D01*
X177000000Y-146430000D02*
X177000000Y-140956000D01*
%TO.N,tp_bat-*%
X171922000Y-77200000D02*
X162850000Y-77200000D01*
X177000000Y-72122000D02*
X171922000Y-77200000D01*
X177000000Y-67770000D02*
X177000000Y-72122000D01*
D21*
%TO.N,D9*%
X148253000Y-77628000D02*
X155492000Y-77628000D01*
X155492000Y-77628000D02*
X155492000Y-77606000D01*
X147618000Y-78263000D02*
X148253000Y-77628000D01*
%TO.N,D7*%
X153250000Y-83006000D02*
X155492000Y-83006000D01*
X152444000Y-82200000D02*
X153250000Y-83006000D01*
%TO.N,D8*%
X106020000Y-69315000D02*
X106020000Y-72600000D01*
X107359000Y-67976000D02*
X106020000Y-69315000D01*
X120821000Y-67976000D02*
X107359000Y-67976000D01*
%TO.N,D13*%
X95860000Y-101816000D02*
X95860000Y-87600000D01*
X99358000Y-105314000D02*
X95860000Y-101816000D01*
%TO.N,D0*%
X128880000Y-74066500D02*
X128880000Y-72600000D01*
X139992000Y-77606000D02*
X132419500Y-77606000D01*
X132419500Y-77606000D02*
X128880000Y-74066500D01*
%TD*%
%TA.AperFunction,Conductor*%
%TO.N,GND*%
G36*
X145236630Y-135810873D02*
G01*
X145294863Y-135849482D01*
X145322473Y-135909941D01*
X145336934Y-136001248D01*
X145409897Y-136225802D01*
X145517087Y-136436174D01*
X145577338Y-136519104D01*
X145577340Y-136519105D01*
X146276212Y-135820233D01*
X146287482Y-135862292D01*
X146359890Y-135987708D01*
X146462292Y-136090110D01*
X146587708Y-136162518D01*
X146629765Y-136173787D01*
X145930893Y-136872658D01*
X146013828Y-136932914D01*
X146127857Y-136991015D01*
X146178653Y-137038990D01*
X146195448Y-137106811D01*
X146172911Y-137172945D01*
X146118196Y-137216397D01*
X146071562Y-137225500D01*
X144328438Y-137225500D01*
X144261399Y-137205815D01*
X144215644Y-137153011D01*
X144205700Y-137083853D01*
X144234725Y-137020297D01*
X144272143Y-136991015D01*
X144386163Y-136932918D01*
X144386169Y-136932914D01*
X144469104Y-136872658D01*
X144469105Y-136872658D01*
X143770233Y-136173787D01*
X143812292Y-136162518D01*
X143937708Y-136090110D01*
X144040110Y-135987708D01*
X144112518Y-135862292D01*
X144123787Y-135820234D01*
X144822658Y-136519105D01*
X144822658Y-136519104D01*
X144882914Y-136436169D01*
X144882918Y-136436163D01*
X144990102Y-136225802D01*
X145063065Y-136001248D01*
X145077527Y-135909941D01*
X145107456Y-135846807D01*
X145166767Y-135809875D01*
X145236630Y-135810873D01*
G37*
%TD.AperFunction*%
%TA.AperFunction,Conductor*%
G36*
X186304418Y-63000816D02*
G01*
X186504561Y-63015130D01*
X186522063Y-63017647D01*
X186713797Y-63059355D01*
X186730755Y-63064334D01*
X186914609Y-63132909D01*
X186930701Y-63140259D01*
X187102904Y-63234288D01*
X187117784Y-63243849D01*
X187274867Y-63361441D01*
X187288237Y-63373027D01*
X187426972Y-63511762D01*
X187438558Y-63525132D01*
X187536679Y-63656206D01*
X187556146Y-63682210D01*
X187565711Y-63697095D01*
X187659740Y-63869298D01*
X187667090Y-63885390D01*
X187735662Y-64069236D01*
X187740646Y-64086212D01*
X187782351Y-64277931D01*
X187784869Y-64295442D01*
X187799184Y-64495580D01*
X187799500Y-64504427D01*
X187799500Y-92168928D01*
X187779815Y-92235967D01*
X187727011Y-92281722D01*
X187657853Y-92291666D01*
X187594297Y-92262641D01*
X187572398Y-92237819D01*
X187482789Y-92103711D01*
X187482786Y-92103707D01*
X184911258Y-89532180D01*
X184877773Y-89470857D01*
X184882757Y-89401165D01*
X184924629Y-89345232D01*
X184990093Y-89320815D01*
X184998939Y-89320499D01*
X186867871Y-89320499D01*
X186867872Y-89320499D01*
X186927483Y-89314091D01*
X187062331Y-89263796D01*
X187177546Y-89177546D01*
X187263796Y-89062331D01*
X187314091Y-88927483D01*
X187320500Y-88867873D01*
X187320499Y-86232128D01*
X187314091Y-86172517D01*
X187270643Y-86056028D01*
X187263797Y-86037671D01*
X187263793Y-86037664D01*
X187177547Y-85922455D01*
X187177544Y-85922452D01*
X187062335Y-85836206D01*
X187062328Y-85836202D01*
X186927482Y-85785908D01*
X186927483Y-85785908D01*
X186867883Y-85779501D01*
X186867881Y-85779500D01*
X186867873Y-85779500D01*
X186867864Y-85779500D01*
X184232129Y-85779500D01*
X184232123Y-85779501D01*
X184172516Y-85785908D01*
X184037671Y-85836202D01*
X184037664Y-85836206D01*
X183922455Y-85922452D01*
X183922452Y-85922455D01*
X183836206Y-86037664D01*
X183836202Y-86037671D01*
X183785908Y-86172517D01*
X183780317Y-86224524D01*
X183779501Y-86232123D01*
X183779500Y-86232135D01*
X183779500Y-88101059D01*
X183759815Y-88168098D01*
X183707011Y-88213853D01*
X183637853Y-88223797D01*
X183574297Y-88194772D01*
X183567819Y-88188740D01*
X179207292Y-83828213D01*
X179207288Y-83828210D01*
X179076185Y-83740609D01*
X179076172Y-83740602D01*
X178930501Y-83680264D01*
X178930489Y-83680261D01*
X178775845Y-83649500D01*
X178775842Y-83649500D01*
X164744499Y-83649500D01*
X164677460Y-83629815D01*
X164631705Y-83577011D01*
X164620499Y-83525500D01*
X164620499Y-83132129D01*
X164620498Y-83132123D01*
X164620497Y-83132116D01*
X164614091Y-83072517D01*
X164609937Y-83061380D01*
X164563797Y-82937671D01*
X164563793Y-82937664D01*
X164477547Y-82822455D01*
X164477544Y-82822452D01*
X164362335Y-82736206D01*
X164362328Y-82736202D01*
X164227482Y-82685908D01*
X164227483Y-82685908D01*
X164167883Y-82679501D01*
X164167881Y-82679500D01*
X164167873Y-82679500D01*
X164167864Y-82679500D01*
X161532129Y-82679500D01*
X161532123Y-82679501D01*
X161472516Y-82685908D01*
X161337671Y-82736202D01*
X161337664Y-82736206D01*
X161222455Y-82822452D01*
X161222452Y-82822455D01*
X161136206Y-82937664D01*
X161136202Y-82937671D01*
X161085908Y-83072517D01*
X161079501Y-83132116D01*
X161079501Y-83132123D01*
X161079500Y-83132135D01*
X161079500Y-85767870D01*
X161079501Y-85767876D01*
X161085908Y-85827483D01*
X161134091Y-85956667D01*
X161139075Y-86026359D01*
X161134091Y-86043333D01*
X161085908Y-86172517D01*
X161080317Y-86224524D01*
X161079501Y-86232123D01*
X161079500Y-86232135D01*
X161079500Y-88867870D01*
X161079501Y-88867876D01*
X161085908Y-88927483D01*
X161136202Y-89062328D01*
X161136206Y-89062335D01*
X161222452Y-89177544D01*
X161222455Y-89177547D01*
X161337664Y-89263793D01*
X161337671Y-89263797D01*
X161472517Y-89314091D01*
X161472516Y-89314091D01*
X161479444Y-89314835D01*
X161532127Y-89320500D01*
X164167872Y-89320499D01*
X164227483Y-89314091D01*
X164362331Y-89263796D01*
X164477546Y-89177546D01*
X164563796Y-89062331D01*
X164614091Y-88927483D01*
X164620500Y-88867873D01*
X164620499Y-86232128D01*
X164614091Y-86172517D01*
X164565907Y-86043330D01*
X164560924Y-85973642D01*
X164565904Y-85956677D01*
X164614091Y-85827483D01*
X164620500Y-85767873D01*
X164620500Y-85374500D01*
X164640185Y-85307461D01*
X164692989Y-85261706D01*
X164744500Y-85250500D01*
X178314060Y-85250500D01*
X178381099Y-85270185D01*
X178401741Y-85286819D01*
X186024181Y-92909259D01*
X186057666Y-92970582D01*
X186060500Y-92996940D01*
X186060500Y-136935060D01*
X186040815Y-137002099D01*
X186024181Y-137022741D01*
X184914741Y-138132181D01*
X184853418Y-138165666D01*
X184827060Y-138168500D01*
X178908154Y-138168500D01*
X178753509Y-138199261D01*
X178753497Y-138199264D01*
X178710832Y-138216936D01*
X178710833Y-138216937D01*
X178607823Y-138259604D01*
X178607814Y-138259609D01*
X178476712Y-138347209D01*
X178476711Y-138347211D01*
X178476710Y-138347212D01*
X176489711Y-140334211D01*
X176433960Y-140389962D01*
X176378209Y-140445712D01*
X176290609Y-140576814D01*
X176290602Y-140576827D01*
X176230264Y-140722498D01*
X176230261Y-140722510D01*
X176199500Y-140877153D01*
X176199500Y-142135500D01*
X176179815Y-142202539D01*
X176127011Y-142248294D01*
X176075500Y-142259500D01*
X173777129Y-142259500D01*
X173777123Y-142259501D01*
X173717516Y-142265908D01*
X173582671Y-142316202D01*
X173582664Y-142316206D01*
X173467455Y-142402452D01*
X173467452Y-142402455D01*
X173381206Y-142517664D01*
X173381202Y-142517671D01*
X173330908Y-142652517D01*
X173324501Y-142712116D01*
X173324501Y-142712123D01*
X173324500Y-142712135D01*
X173324500Y-150147870D01*
X173324501Y-150147876D01*
X173330908Y-150207483D01*
X173381202Y-150342328D01*
X173381206Y-150342335D01*
X173467452Y-150457544D01*
X173467455Y-150457547D01*
X173582664Y-150543793D01*
X173582671Y-150543797D01*
X173717517Y-150594091D01*
X173717516Y-150594091D01*
X173724444Y-150594835D01*
X173777127Y-150600500D01*
X180222872Y-150600499D01*
X180282483Y-150594091D01*
X180417331Y-150543796D01*
X180532546Y-150457546D01*
X180618796Y-150342331D01*
X180669091Y-150207483D01*
X180675500Y-150147873D01*
X180675499Y-142916231D01*
X183554500Y-142916231D01*
X183554500Y-143143768D01*
X183590093Y-143368490D01*
X183660400Y-143584876D01*
X183660401Y-143584879D01*
X183746346Y-143753554D01*
X183763697Y-143787607D01*
X183897434Y-143971680D01*
X184058320Y-144132566D01*
X184242393Y-144266303D01*
X184341825Y-144316966D01*
X184445120Y-144369598D01*
X184445123Y-144369599D01*
X184553316Y-144404752D01*
X184661511Y-144439907D01*
X184765591Y-144456391D01*
X184886232Y-144475500D01*
X184886237Y-144475500D01*
X185113768Y-144475500D01*
X185222710Y-144458244D01*
X185338489Y-144439907D01*
X185554879Y-144369598D01*
X185757607Y-144266303D01*
X185941680Y-144132566D01*
X186102566Y-143971680D01*
X186236303Y-143787607D01*
X186339598Y-143584879D01*
X186409907Y-143368489D01*
X186438540Y-143187708D01*
X186445500Y-143143768D01*
X186445500Y-142916231D01*
X186424793Y-142785499D01*
X186409907Y-142691511D01*
X186339598Y-142475121D01*
X186339598Y-142475120D01*
X186236302Y-142272392D01*
X186226936Y-142259501D01*
X186102566Y-142088320D01*
X185941680Y-141927434D01*
X185757607Y-141793697D01*
X185554879Y-141690401D01*
X185554876Y-141690400D01*
X185338490Y-141620093D01*
X185113768Y-141584500D01*
X185113763Y-141584500D01*
X184886237Y-141584500D01*
X184886232Y-141584500D01*
X184661509Y-141620093D01*
X184445123Y-141690400D01*
X184445120Y-141690401D01*
X184242392Y-141793697D01*
X184137372Y-141869998D01*
X184058320Y-141927434D01*
X184058318Y-141927436D01*
X184058317Y-141927436D01*
X183897436Y-142088317D01*
X183897436Y-142088318D01*
X183897434Y-142088320D01*
X183876536Y-142117084D01*
X183763697Y-142272392D01*
X183660401Y-142475120D01*
X183660400Y-142475123D01*
X183590093Y-142691509D01*
X183554500Y-142916231D01*
X180675499Y-142916231D01*
X180675499Y-142712128D01*
X180669091Y-142652517D01*
X180618796Y-142517669D01*
X180618795Y-142517668D01*
X180618793Y-142517664D01*
X180532547Y-142402455D01*
X180532544Y-142402452D01*
X180417335Y-142316206D01*
X180417328Y-142316202D01*
X180282482Y-142265908D01*
X180282483Y-142265908D01*
X180222883Y-142259501D01*
X180222881Y-142259500D01*
X180222873Y-142259500D01*
X180222865Y-142259500D01*
X177924500Y-142259500D01*
X177857461Y-142239815D01*
X177811706Y-142187011D01*
X177800500Y-142135500D01*
X177800500Y-141338940D01*
X177820185Y-141271901D01*
X177836819Y-141251259D01*
X179282259Y-139805819D01*
X179343582Y-139772334D01*
X179369940Y-139769500D01*
X185288844Y-139769500D01*
X185288845Y-139769499D01*
X185443497Y-139738737D01*
X185589179Y-139678394D01*
X185720289Y-139590789D01*
X187482789Y-137828289D01*
X187570394Y-137697179D01*
X187570393Y-137697179D01*
X187572398Y-137694180D01*
X187626010Y-137649375D01*
X187695335Y-137640668D01*
X187758362Y-137670822D01*
X187795082Y-137730265D01*
X187799500Y-137763071D01*
X187799500Y-149495572D01*
X187799184Y-149504418D01*
X187799184Y-149504419D01*
X187784869Y-149704557D01*
X187782351Y-149722068D01*
X187740646Y-149913787D01*
X187735662Y-149930763D01*
X187667090Y-150114609D01*
X187659740Y-150130701D01*
X187565711Y-150302904D01*
X187556146Y-150317789D01*
X187438558Y-150474867D01*
X187426972Y-150488237D01*
X187288237Y-150626972D01*
X187274867Y-150638558D01*
X187117789Y-150756146D01*
X187102904Y-150765711D01*
X186930701Y-150859740D01*
X186914609Y-150867090D01*
X186730763Y-150935662D01*
X186713787Y-150940646D01*
X186522068Y-150982351D01*
X186504557Y-150984869D01*
X186323779Y-150997799D01*
X186304417Y-150999184D01*
X186295572Y-150999500D01*
X117304428Y-150999500D01*
X117295582Y-150999184D01*
X117273622Y-150997613D01*
X117095442Y-150984869D01*
X117077931Y-150982351D01*
X116886212Y-150940646D01*
X116869236Y-150935662D01*
X116685390Y-150867090D01*
X116669298Y-150859740D01*
X116497095Y-150765711D01*
X116482210Y-150756146D01*
X116325132Y-150638558D01*
X116311762Y-150626972D01*
X116173027Y-150488237D01*
X116161441Y-150474867D01*
X116043849Y-150317784D01*
X116034288Y-150302904D01*
X115940259Y-150130701D01*
X115932909Y-150114609D01*
X115872091Y-149951551D01*
X115864334Y-149930755D01*
X115859355Y-149913797D01*
X115817647Y-149722063D01*
X115815130Y-149704556D01*
X115800816Y-149504418D01*
X115800500Y-149495572D01*
X115800500Y-147781902D01*
X145299500Y-147781902D01*
X145299500Y-148018097D01*
X145336446Y-148251368D01*
X145409433Y-148475996D01*
X145516657Y-148686433D01*
X145655483Y-148877510D01*
X145822490Y-149044517D01*
X146013567Y-149183343D01*
X146112991Y-149234002D01*
X146224003Y-149290566D01*
X146224005Y-149290566D01*
X146224008Y-149290568D01*
X146344412Y-149329689D01*
X146448631Y-149363553D01*
X146681903Y-149400500D01*
X146681908Y-149400500D01*
X146918097Y-149400500D01*
X147151368Y-149363553D01*
X147375992Y-149290568D01*
X147586433Y-149183343D01*
X147777510Y-149044517D01*
X147944517Y-148877510D01*
X148083343Y-148686433D01*
X148190568Y-148475992D01*
X148263553Y-148251368D01*
X148300500Y-148018097D01*
X148300500Y-147781902D01*
X151799500Y-147781902D01*
X151799500Y-148018097D01*
X151836446Y-148251368D01*
X151909433Y-148475996D01*
X152016657Y-148686433D01*
X152155483Y-148877510D01*
X152322490Y-149044517D01*
X152513567Y-149183343D01*
X152612991Y-149234002D01*
X152724003Y-149290566D01*
X152724005Y-149290566D01*
X152724008Y-149290568D01*
X152844412Y-149329689D01*
X152948631Y-149363553D01*
X153181903Y-149400500D01*
X153181908Y-149400500D01*
X153418097Y-149400500D01*
X153651368Y-149363553D01*
X153875992Y-149290568D01*
X154086433Y-149183343D01*
X154277510Y-149044517D01*
X154444517Y-148877510D01*
X154583343Y-148686433D01*
X154690568Y-148475992D01*
X154763553Y-148251368D01*
X154800500Y-148018097D01*
X154800500Y-147781902D01*
X154763553Y-147548631D01*
X154690566Y-147324003D01*
X154583342Y-147113566D01*
X154444517Y-146922490D01*
X154277510Y-146755483D01*
X154086433Y-146616657D01*
X153875996Y-146509433D01*
X153651368Y-146436446D01*
X153418097Y-146399500D01*
X153418092Y-146399500D01*
X153181908Y-146399500D01*
X153181903Y-146399500D01*
X152948631Y-146436446D01*
X152724003Y-146509433D01*
X152513566Y-146616657D01*
X152404550Y-146695862D01*
X152322490Y-146755483D01*
X152322488Y-146755485D01*
X152322487Y-146755485D01*
X152155485Y-146922487D01*
X152155485Y-146922488D01*
X152155483Y-146922490D01*
X152095862Y-147004550D01*
X152016657Y-147113566D01*
X151909433Y-147324003D01*
X151836446Y-147548631D01*
X151799500Y-147781902D01*
X148300500Y-147781902D01*
X148263553Y-147548631D01*
X148190566Y-147324003D01*
X148083342Y-147113566D01*
X147944517Y-146922490D01*
X147777510Y-146755483D01*
X147586433Y-146616657D01*
X147375996Y-146509433D01*
X147151368Y-146436446D01*
X146918097Y-146399500D01*
X146918092Y-146399500D01*
X146681908Y-146399500D01*
X146681903Y-146399500D01*
X146448631Y-146436446D01*
X146224003Y-146509433D01*
X146013566Y-146616657D01*
X145904550Y-146695862D01*
X145822490Y-146755483D01*
X145822488Y-146755485D01*
X145822487Y-146755485D01*
X145655485Y-146922487D01*
X145655485Y-146922488D01*
X145655483Y-146922490D01*
X145595862Y-147004550D01*
X145516657Y-147113566D01*
X145409433Y-147324003D01*
X145336446Y-147548631D01*
X145299500Y-147781902D01*
X115800500Y-147781902D01*
X115800500Y-143281947D01*
X145300000Y-143281947D01*
X145300000Y-143518052D01*
X145336934Y-143751247D01*
X145409897Y-143975802D01*
X145517087Y-144186174D01*
X145577338Y-144269104D01*
X145577340Y-144269105D01*
X146276212Y-143570233D01*
X146287482Y-143612292D01*
X146359890Y-143737708D01*
X146462292Y-143840110D01*
X146587708Y-143912518D01*
X146629765Y-143923787D01*
X145930893Y-144622658D01*
X146013828Y-144682914D01*
X146224197Y-144790102D01*
X146448752Y-144863065D01*
X146448751Y-144863065D01*
X146681948Y-144900000D01*
X146918052Y-144900000D01*
X147151247Y-144863065D01*
X147375802Y-144790102D01*
X147586163Y-144682918D01*
X147586169Y-144682914D01*
X147669104Y-144622658D01*
X147669105Y-144622658D01*
X146970233Y-143923787D01*
X147012292Y-143912518D01*
X147137708Y-143840110D01*
X147240110Y-143737708D01*
X147312518Y-143612292D01*
X147323787Y-143570234D01*
X148022658Y-144269105D01*
X148022658Y-144269104D01*
X148082914Y-144186169D01*
X148082918Y-144186163D01*
X148190102Y-143975802D01*
X148263065Y-143751247D01*
X148300000Y-143518052D01*
X148300000Y-143281947D01*
X151800000Y-143281947D01*
X151800000Y-143518052D01*
X151836934Y-143751247D01*
X151909897Y-143975802D01*
X152017087Y-144186174D01*
X152077338Y-144269104D01*
X152077340Y-144269105D01*
X152776212Y-143570233D01*
X152787482Y-143612292D01*
X152859890Y-143737708D01*
X152962292Y-143840110D01*
X153087708Y-143912518D01*
X153129765Y-143923787D01*
X152430893Y-144622658D01*
X152513828Y-144682914D01*
X152724197Y-144790102D01*
X152948752Y-144863065D01*
X152948751Y-144863065D01*
X153181948Y-144900000D01*
X153418052Y-144900000D01*
X153651247Y-144863065D01*
X153875802Y-144790102D01*
X154086163Y-144682918D01*
X154086169Y-144682914D01*
X154169104Y-144622658D01*
X154169105Y-144622658D01*
X153470233Y-143923787D01*
X153512292Y-143912518D01*
X153637708Y-143840110D01*
X153740110Y-143737708D01*
X153812518Y-143612292D01*
X153823787Y-143570234D01*
X154522658Y-144269105D01*
X154522658Y-144269104D01*
X154582914Y-144186169D01*
X154582918Y-144186163D01*
X154690102Y-143975802D01*
X154763065Y-143751247D01*
X154800000Y-143518052D01*
X154800000Y-143281947D01*
X154763065Y-143048752D01*
X154690102Y-142824197D01*
X154582914Y-142613828D01*
X154522658Y-142530894D01*
X154522658Y-142530893D01*
X153823787Y-143229765D01*
X153812518Y-143187708D01*
X153740110Y-143062292D01*
X153637708Y-142959890D01*
X153512292Y-142887482D01*
X153470234Y-142876212D01*
X154169105Y-142177340D01*
X154169104Y-142177338D01*
X154086174Y-142117087D01*
X153875802Y-142009897D01*
X153651247Y-141936934D01*
X153651248Y-141936934D01*
X153418052Y-141900000D01*
X153181948Y-141900000D01*
X152948752Y-141936934D01*
X152724197Y-142009897D01*
X152513830Y-142117084D01*
X152430894Y-142177340D01*
X153129766Y-142876212D01*
X153087708Y-142887482D01*
X152962292Y-142959890D01*
X152859890Y-143062292D01*
X152787482Y-143187708D01*
X152776212Y-143229766D01*
X152077340Y-142530894D01*
X152017084Y-142613830D01*
X151909897Y-142824197D01*
X151836934Y-143048752D01*
X151800000Y-143281947D01*
X148300000Y-143281947D01*
X148263065Y-143048752D01*
X148190102Y-142824197D01*
X148082914Y-142613828D01*
X148022658Y-142530894D01*
X148022658Y-142530893D01*
X147323787Y-143229765D01*
X147312518Y-143187708D01*
X147240110Y-143062292D01*
X147137708Y-142959890D01*
X147012292Y-142887482D01*
X146970234Y-142876212D01*
X147669105Y-142177340D01*
X147669104Y-142177339D01*
X147586174Y-142117087D01*
X147375802Y-142009897D01*
X147151247Y-141936934D01*
X147151248Y-141936934D01*
X146918052Y-141900000D01*
X146681948Y-141900000D01*
X146448752Y-141936934D01*
X146224197Y-142009897D01*
X146013830Y-142117084D01*
X145930894Y-142177340D01*
X146629766Y-142876212D01*
X146587708Y-142887482D01*
X146462292Y-142959890D01*
X146359890Y-143062292D01*
X146287482Y-143187708D01*
X146276212Y-143229766D01*
X145577340Y-142530894D01*
X145517084Y-142613830D01*
X145409897Y-142824197D01*
X145336934Y-143048752D01*
X145300000Y-143281947D01*
X115800500Y-143281947D01*
X115800500Y-137905054D01*
X123903498Y-137905054D01*
X123944423Y-138057785D01*
X123961716Y-138087737D01*
X123961715Y-138087737D01*
X123961716Y-138087738D01*
X124023475Y-138194709D01*
X124023481Y-138194717D01*
X124142349Y-138313585D01*
X124142355Y-138313590D01*
X126305139Y-140476374D01*
X126305149Y-140476385D01*
X126309479Y-140480715D01*
X126309480Y-140480716D01*
X126421284Y-140592520D01*
X126487101Y-140630519D01*
X126558215Y-140671577D01*
X126710942Y-140712500D01*
X126710943Y-140712500D01*
X135626571Y-140712500D01*
X135693610Y-140732185D01*
X135737054Y-140780204D01*
X135767231Y-140839429D01*
X135816655Y-140936431D01*
X135858365Y-140993839D01*
X135955483Y-141127510D01*
X136122490Y-141294517D01*
X136313567Y-141433343D01*
X136412991Y-141484002D01*
X136524003Y-141540566D01*
X136524005Y-141540566D01*
X136524008Y-141540568D01*
X136644412Y-141579689D01*
X136748631Y-141613553D01*
X136981903Y-141650500D01*
X136981908Y-141650500D01*
X137218097Y-141650500D01*
X137451368Y-141613553D01*
X137675992Y-141540568D01*
X137886433Y-141433343D01*
X138077510Y-141294517D01*
X138244517Y-141127510D01*
X138383343Y-140936433D01*
X138490568Y-140725992D01*
X138563553Y-140501368D01*
X138577527Y-140413141D01*
X138600500Y-140268097D01*
X138600500Y-140031902D01*
X138563553Y-139798631D01*
X138501534Y-139607758D01*
X138490568Y-139574008D01*
X138490566Y-139574005D01*
X138490566Y-139574003D01*
X138424221Y-139443795D01*
X138383343Y-139363567D01*
X138244517Y-139172490D01*
X138077510Y-139005483D01*
X137886433Y-138866657D01*
X137675996Y-138759433D01*
X137451368Y-138686446D01*
X137218097Y-138649500D01*
X137218092Y-138649500D01*
X136981908Y-138649500D01*
X136981903Y-138649500D01*
X136748631Y-138686446D01*
X136524003Y-138759433D01*
X136313566Y-138866657D01*
X136204550Y-138945862D01*
X136122490Y-139005483D01*
X136122488Y-139005485D01*
X136122487Y-139005485D01*
X135955485Y-139172487D01*
X135955485Y-139172488D01*
X135955483Y-139172490D01*
X135895862Y-139254550D01*
X135816657Y-139363566D01*
X135775779Y-139443795D01*
X135727805Y-139494591D01*
X135665294Y-139511500D01*
X127090097Y-139511500D01*
X127023058Y-139491815D01*
X127002416Y-139475181D01*
X125140819Y-137613584D01*
X125107334Y-137552261D01*
X125104500Y-137525903D01*
X125104500Y-133507729D01*
X125124185Y-133440690D01*
X125176989Y-133394935D01*
X125246147Y-133384991D01*
X125309703Y-133414016D01*
X125316181Y-133420048D01*
X125430117Y-133533984D01*
X125430124Y-133533990D01*
X125614254Y-133675278D01*
X125614256Y-133675279D01*
X125815237Y-133791314D01*
X125815240Y-133791315D01*
X125815248Y-133791320D01*
X126029670Y-133880137D01*
X126253851Y-133940206D01*
X126483955Y-133970500D01*
X126483962Y-133970500D01*
X126716038Y-133970500D01*
X126716045Y-133970500D01*
X126946149Y-133940206D01*
X127170330Y-133880137D01*
X127384752Y-133791320D01*
X127518749Y-133713957D01*
X127585743Y-133675279D01*
X127585745Y-133675278D01*
X127585748Y-133675276D01*
X127769877Y-133533989D01*
X127933989Y-133369877D01*
X128075276Y-133185748D01*
X128191320Y-132984752D01*
X128280137Y-132770330D01*
X128340206Y-132546149D01*
X128370500Y-132316045D01*
X128370500Y-132083955D01*
X128370499Y-132083947D01*
X129979500Y-132083947D01*
X129979500Y-132316052D01*
X130009794Y-132546148D01*
X130069862Y-132770328D01*
X130158677Y-132984745D01*
X130158685Y-132984762D01*
X130274720Y-133185743D01*
X130274721Y-133185745D01*
X130416009Y-133369875D01*
X130416015Y-133369882D01*
X130580117Y-133533984D01*
X130580124Y-133533990D01*
X130764254Y-133675278D01*
X130764256Y-133675279D01*
X130965237Y-133791314D01*
X130965240Y-133791315D01*
X130965248Y-133791320D01*
X131179670Y-133880137D01*
X131403851Y-133940206D01*
X131633955Y-133970500D01*
X131633962Y-133970500D01*
X131866038Y-133970500D01*
X131866045Y-133970500D01*
X132096149Y-133940206D01*
X132320330Y-133880137D01*
X132534752Y-133791320D01*
X132668749Y-133713957D01*
X132735743Y-133675279D01*
X132735745Y-133675278D01*
X132735748Y-133675276D01*
X132919877Y-133533989D01*
X133083989Y-133369877D01*
X133225276Y-133185748D01*
X133341320Y-132984752D01*
X133430137Y-132770330D01*
X133490206Y-132546149D01*
X133520500Y-132316045D01*
X133520500Y-132083955D01*
X133490206Y-131853851D01*
X133430137Y-131629670D01*
X133341320Y-131415248D01*
X133245500Y-131249281D01*
X133225279Y-131214256D01*
X133225278Y-131214254D01*
X133083990Y-131030124D01*
X133083984Y-131030117D01*
X132919882Y-130866015D01*
X132919875Y-130866009D01*
X132735745Y-130724721D01*
X132735743Y-130724720D01*
X132534762Y-130608685D01*
X132534754Y-130608681D01*
X132534752Y-130608680D01*
X132320330Y-130519863D01*
X132320331Y-130519863D01*
X132320328Y-130519862D01*
X132178203Y-130481780D01*
X132096149Y-130459794D01*
X132067386Y-130456007D01*
X131866052Y-130429500D01*
X131866045Y-130429500D01*
X131633955Y-130429500D01*
X131633947Y-130429500D01*
X131403851Y-130459794D01*
X131179671Y-130519862D01*
X130965254Y-130608677D01*
X130965237Y-130608685D01*
X130764256Y-130724720D01*
X130764254Y-130724721D01*
X130580124Y-130866009D01*
X130580117Y-130866015D01*
X130416015Y-131030117D01*
X130416009Y-131030124D01*
X130274721Y-131214254D01*
X130274720Y-131214256D01*
X130158685Y-131415237D01*
X130158677Y-131415254D01*
X130069862Y-131629671D01*
X130009794Y-131853851D01*
X129979500Y-132083947D01*
X128370499Y-132083947D01*
X128340206Y-131853851D01*
X128280137Y-131629670D01*
X128191320Y-131415248D01*
X128095500Y-131249281D01*
X128075279Y-131214256D01*
X128075278Y-131214254D01*
X127933990Y-131030124D01*
X127933984Y-131030117D01*
X127769882Y-130866015D01*
X127769875Y-130866009D01*
X127585745Y-130724721D01*
X127585743Y-130724720D01*
X127384762Y-130608685D01*
X127384754Y-130608681D01*
X127384752Y-130608680D01*
X127170330Y-130519863D01*
X127170331Y-130519863D01*
X127170328Y-130519862D01*
X127028203Y-130481780D01*
X126946149Y-130459794D01*
X126917386Y-130456007D01*
X126716052Y-130429500D01*
X126716045Y-130429500D01*
X126483955Y-130429500D01*
X126483947Y-130429500D01*
X126253851Y-130459794D01*
X126029671Y-130519862D01*
X125815254Y-130608677D01*
X125815237Y-130608685D01*
X125614256Y-130724720D01*
X125614254Y-130724721D01*
X125430124Y-130866009D01*
X125430117Y-130866015D01*
X125316181Y-130979952D01*
X125254858Y-131013437D01*
X125185166Y-131008453D01*
X125129233Y-130966581D01*
X125104816Y-130901117D01*
X125104500Y-130892271D01*
X125104500Y-130506097D01*
X125124185Y-130439058D01*
X125140819Y-130418416D01*
X126269133Y-129290102D01*
X127566662Y-127992572D01*
X127627983Y-127959089D01*
X127630150Y-127958638D01*
X127688085Y-127947113D01*
X127785497Y-127927737D01*
X127931179Y-127867394D01*
X128062289Y-127779789D01*
X128173789Y-127668289D01*
X128261394Y-127537179D01*
X128321737Y-127391497D01*
X128352500Y-127236842D01*
X128352500Y-127079158D01*
X128352500Y-127079155D01*
X128352499Y-127079153D01*
X128321738Y-126924510D01*
X128321737Y-126924503D01*
X128317367Y-126913952D01*
X128309898Y-126844482D01*
X128341174Y-126782003D01*
X128401263Y-126746352D01*
X128431928Y-126742500D01*
X135125903Y-126742500D01*
X135192942Y-126762185D01*
X135213584Y-126778819D01*
X136313181Y-127878416D01*
X136346666Y-127939739D01*
X136349500Y-127966097D01*
X136349500Y-132405330D01*
X136349499Y-132405348D01*
X136349499Y-132571056D01*
X136390421Y-132723781D01*
X136390422Y-132723783D01*
X136390423Y-132723785D01*
X136390817Y-132724468D01*
X136390827Y-132724504D01*
X136390836Y-132724500D01*
X136469477Y-132860712D01*
X136469481Y-132860717D01*
X136588349Y-132979585D01*
X136588355Y-132979590D01*
X137596267Y-133987502D01*
X137629752Y-134048825D01*
X137624768Y-134118517D01*
X137582896Y-134174450D01*
X137517432Y-134198867D01*
X137470269Y-134193115D01*
X137451244Y-134186933D01*
X137218052Y-134150000D01*
X136981948Y-134150000D01*
X136748752Y-134186934D01*
X136524197Y-134259897D01*
X136313830Y-134367084D01*
X136230894Y-134427340D01*
X136929766Y-135126212D01*
X136887708Y-135137482D01*
X136762292Y-135209890D01*
X136659890Y-135312292D01*
X136587482Y-135437708D01*
X136576212Y-135479766D01*
X135877340Y-134780894D01*
X135817084Y-134863830D01*
X135709897Y-135074197D01*
X135636934Y-135298752D01*
X135600000Y-135531947D01*
X135600000Y-135768052D01*
X135636934Y-136001247D01*
X135709897Y-136225802D01*
X135817087Y-136436174D01*
X135877338Y-136519104D01*
X135877340Y-136519105D01*
X136576212Y-135820233D01*
X136587482Y-135862292D01*
X136659890Y-135987708D01*
X136762292Y-136090110D01*
X136887708Y-136162518D01*
X136929765Y-136173787D01*
X136230893Y-136872658D01*
X136313828Y-136932914D01*
X136524197Y-137040102D01*
X136748752Y-137113065D01*
X136748751Y-137113065D01*
X136981948Y-137150000D01*
X137218052Y-137150000D01*
X137451247Y-137113065D01*
X137675802Y-137040102D01*
X137886163Y-136932918D01*
X137886169Y-136932914D01*
X137969104Y-136872658D01*
X137969105Y-136872658D01*
X137270233Y-136173787D01*
X137312292Y-136162518D01*
X137437708Y-136090110D01*
X137540110Y-135987708D01*
X137612518Y-135862292D01*
X137623787Y-135820233D01*
X138322658Y-136519105D01*
X138322658Y-136519104D01*
X138382914Y-136436169D01*
X138382918Y-136436163D01*
X138490102Y-136225802D01*
X138563065Y-136001247D01*
X138600000Y-135768052D01*
X138600000Y-135531947D01*
X138563066Y-135298756D01*
X138556885Y-135279733D01*
X138554889Y-135209891D01*
X138590969Y-135150058D01*
X138653670Y-135119229D01*
X138723084Y-135127193D01*
X138762497Y-135153732D01*
X141799139Y-138190374D01*
X141799149Y-138190385D01*
X141803479Y-138194715D01*
X141803480Y-138194716D01*
X141915284Y-138306520D01*
X141985765Y-138347211D01*
X142002095Y-138356639D01*
X142002097Y-138356641D01*
X142040151Y-138378611D01*
X142052215Y-138385577D01*
X142204943Y-138426500D01*
X142363057Y-138426500D01*
X143314304Y-138426500D01*
X143381343Y-138446185D01*
X143427098Y-138498989D01*
X143437042Y-138568147D01*
X143408017Y-138631703D01*
X143349239Y-138669477D01*
X143333702Y-138672973D01*
X143248631Y-138686446D01*
X143024003Y-138759433D01*
X142813566Y-138866657D01*
X142704550Y-138945862D01*
X142622490Y-139005483D01*
X142622488Y-139005485D01*
X142622487Y-139005485D01*
X142455485Y-139172487D01*
X142455485Y-139172488D01*
X142455483Y-139172490D01*
X142395862Y-139254550D01*
X142316657Y-139363566D01*
X142209433Y-139574003D01*
X142136446Y-139798631D01*
X142099500Y-140031902D01*
X142099500Y-140268097D01*
X142136446Y-140501368D01*
X142209433Y-140725996D01*
X142237055Y-140780206D01*
X142316657Y-140936433D01*
X142455483Y-141127510D01*
X142622490Y-141294517D01*
X142813567Y-141433343D01*
X142912991Y-141484002D01*
X143024003Y-141540566D01*
X143024005Y-141540566D01*
X143024008Y-141540568D01*
X143144412Y-141579689D01*
X143248631Y-141613553D01*
X143481903Y-141650500D01*
X143481908Y-141650500D01*
X143718097Y-141650500D01*
X143951368Y-141613553D01*
X144175992Y-141540568D01*
X144386433Y-141433343D01*
X144577510Y-141294517D01*
X144744517Y-141127510D01*
X144883343Y-140936433D01*
X144990568Y-140725992D01*
X145063553Y-140501368D01*
X145077527Y-140413141D01*
X145107456Y-140350006D01*
X145166768Y-140313075D01*
X145236630Y-140314073D01*
X145294863Y-140352683D01*
X145322473Y-140413141D01*
X145336446Y-140501368D01*
X145409433Y-140725996D01*
X145437055Y-140780206D01*
X145516657Y-140936433D01*
X145655483Y-141127510D01*
X145822490Y-141294517D01*
X146013567Y-141433343D01*
X146112991Y-141484002D01*
X146224003Y-141540566D01*
X146224005Y-141540566D01*
X146224008Y-141540568D01*
X146344412Y-141579689D01*
X146448631Y-141613553D01*
X146681903Y-141650500D01*
X146681908Y-141650500D01*
X146918097Y-141650500D01*
X147151368Y-141613553D01*
X147375992Y-141540568D01*
X147586433Y-141433343D01*
X147777510Y-141294517D01*
X147944517Y-141127510D01*
X148083343Y-140936433D01*
X148190568Y-140725992D01*
X148263553Y-140501368D01*
X148277527Y-140413141D01*
X148300500Y-140268097D01*
X148300500Y-140031902D01*
X148263553Y-139798631D01*
X148201534Y-139607758D01*
X148190568Y-139574008D01*
X148190566Y-139574005D01*
X148190566Y-139574003D01*
X148124221Y-139443795D01*
X148083343Y-139363567D01*
X147944517Y-139172490D01*
X147777510Y-139005483D01*
X147586433Y-138866657D01*
X147375996Y-138759433D01*
X147151368Y-138686446D01*
X147066298Y-138672973D01*
X147003163Y-138643044D01*
X146966232Y-138583732D01*
X146967230Y-138513870D01*
X147005840Y-138455637D01*
X147069804Y-138427523D01*
X147085696Y-138426500D01*
X153014304Y-138426500D01*
X153081343Y-138446185D01*
X153127098Y-138498989D01*
X153137042Y-138568147D01*
X153108017Y-138631703D01*
X153049239Y-138669477D01*
X153033702Y-138672973D01*
X152948631Y-138686446D01*
X152724003Y-138759433D01*
X152513566Y-138866657D01*
X152404550Y-138945862D01*
X152322490Y-139005483D01*
X152322488Y-139005485D01*
X152322487Y-139005485D01*
X152155485Y-139172487D01*
X152155485Y-139172488D01*
X152155483Y-139172490D01*
X152095862Y-139254550D01*
X152016657Y-139363566D01*
X151909433Y-139574003D01*
X151836446Y-139798631D01*
X151799500Y-140031902D01*
X151799500Y-140268097D01*
X151836446Y-140501368D01*
X151909433Y-140725996D01*
X151937055Y-140780206D01*
X152016657Y-140936433D01*
X152155483Y-141127510D01*
X152322490Y-141294517D01*
X152513567Y-141433343D01*
X152612991Y-141484002D01*
X152724003Y-141540566D01*
X152724005Y-141540566D01*
X152724008Y-141540568D01*
X152844412Y-141579689D01*
X152948631Y-141613553D01*
X153181903Y-141650500D01*
X153181908Y-141650500D01*
X153418097Y-141650500D01*
X153651368Y-141613553D01*
X153875992Y-141540568D01*
X154086433Y-141433343D01*
X154277510Y-141294517D01*
X154444517Y-141127510D01*
X154583343Y-140936433D01*
X154690568Y-140725992D01*
X154763553Y-140501368D01*
X154777527Y-140413141D01*
X154807456Y-140350006D01*
X154866768Y-140313075D01*
X154936630Y-140314073D01*
X154994863Y-140352683D01*
X155022473Y-140413141D01*
X155036446Y-140501368D01*
X155109433Y-140725996D01*
X155137055Y-140780206D01*
X155216657Y-140936433D01*
X155355483Y-141127510D01*
X155522490Y-141294517D01*
X155713567Y-141433343D01*
X155812991Y-141484002D01*
X155924003Y-141540566D01*
X155924005Y-141540566D01*
X155924008Y-141540568D01*
X156044412Y-141579689D01*
X156148631Y-141613553D01*
X156381903Y-141650500D01*
X156381908Y-141650500D01*
X156618097Y-141650500D01*
X156851368Y-141613553D01*
X157075992Y-141540568D01*
X157286433Y-141433343D01*
X157477510Y-141294517D01*
X157644517Y-141127510D01*
X157783343Y-140936433D01*
X157890568Y-140725992D01*
X157963553Y-140501368D01*
X157977527Y-140413141D01*
X158000500Y-140268097D01*
X158000500Y-140031902D01*
X161499500Y-140031902D01*
X161499500Y-140268097D01*
X161536446Y-140501368D01*
X161609433Y-140725996D01*
X161637055Y-140780206D01*
X161716657Y-140936433D01*
X161855483Y-141127510D01*
X162022490Y-141294517D01*
X162213567Y-141433343D01*
X162312991Y-141484002D01*
X162424003Y-141540566D01*
X162424005Y-141540566D01*
X162424008Y-141540568D01*
X162544412Y-141579689D01*
X162648631Y-141613553D01*
X162881903Y-141650500D01*
X162881908Y-141650500D01*
X163118097Y-141650500D01*
X163351368Y-141613553D01*
X163575992Y-141540568D01*
X163786433Y-141433343D01*
X163977510Y-141294517D01*
X164144517Y-141127510D01*
X164283343Y-140936433D01*
X164390568Y-140725992D01*
X164463553Y-140501368D01*
X164477527Y-140413141D01*
X164500500Y-140268097D01*
X164500500Y-140031902D01*
X164463553Y-139798631D01*
X164401534Y-139607758D01*
X164390568Y-139574008D01*
X164390566Y-139574005D01*
X164390566Y-139574003D01*
X164324221Y-139443795D01*
X164283343Y-139363567D01*
X164144517Y-139172490D01*
X163977510Y-139005483D01*
X163786433Y-138866657D01*
X163575996Y-138759433D01*
X163351368Y-138686446D01*
X163118097Y-138649500D01*
X163118092Y-138649500D01*
X162881908Y-138649500D01*
X162881903Y-138649500D01*
X162648631Y-138686446D01*
X162424003Y-138759433D01*
X162213566Y-138866657D01*
X162104550Y-138945862D01*
X162022490Y-139005483D01*
X162022488Y-139005485D01*
X162022487Y-139005485D01*
X161855485Y-139172487D01*
X161855485Y-139172488D01*
X161855483Y-139172490D01*
X161795862Y-139254550D01*
X161716657Y-139363566D01*
X161609433Y-139574003D01*
X161536446Y-139798631D01*
X161499500Y-140031902D01*
X158000500Y-140031902D01*
X157963553Y-139798631D01*
X157901534Y-139607758D01*
X157890568Y-139574008D01*
X157890566Y-139574005D01*
X157890566Y-139574003D01*
X157824221Y-139443795D01*
X157783343Y-139363567D01*
X157644517Y-139172490D01*
X157477510Y-139005483D01*
X157286433Y-138866657D01*
X157075996Y-138759433D01*
X156851368Y-138686446D01*
X156618097Y-138649500D01*
X156618092Y-138649500D01*
X156381908Y-138649500D01*
X156381903Y-138649500D01*
X156148628Y-138686447D01*
X156022433Y-138727450D01*
X155952592Y-138729445D01*
X155896435Y-138697200D01*
X154663590Y-137464355D01*
X154663588Y-137464352D01*
X154544717Y-137345481D01*
X154544716Y-137345480D01*
X154457904Y-137295360D01*
X154457904Y-137295359D01*
X154457900Y-137295358D01*
X154407785Y-137266423D01*
X154255057Y-137225499D01*
X154096943Y-137225499D01*
X154089347Y-137225499D01*
X154089331Y-137225500D01*
X154028438Y-137225500D01*
X153961399Y-137205815D01*
X153915644Y-137153011D01*
X153905700Y-137083853D01*
X153934725Y-137020297D01*
X153972143Y-136991015D01*
X154086163Y-136932918D01*
X154086169Y-136932914D01*
X154169104Y-136872658D01*
X154169105Y-136872658D01*
X153470233Y-136173787D01*
X153512292Y-136162518D01*
X153637708Y-136090110D01*
X153740110Y-135987708D01*
X153812518Y-135862292D01*
X153823787Y-135820234D01*
X154522658Y-136519105D01*
X154522658Y-136519104D01*
X154582914Y-136436169D01*
X154582918Y-136436163D01*
X154690102Y-136225802D01*
X154763065Y-136001248D01*
X154777527Y-135909941D01*
X154807456Y-135846807D01*
X154866767Y-135809875D01*
X154936630Y-135810873D01*
X154994863Y-135849482D01*
X155022473Y-135909941D01*
X155036934Y-136001248D01*
X155109897Y-136225802D01*
X155217087Y-136436174D01*
X155277338Y-136519104D01*
X155277340Y-136519105D01*
X155976212Y-135820233D01*
X155987482Y-135862292D01*
X156059890Y-135987708D01*
X156162292Y-136090110D01*
X156287708Y-136162518D01*
X156329765Y-136173787D01*
X155630893Y-136872658D01*
X155713828Y-136932914D01*
X155924197Y-137040102D01*
X156148752Y-137113065D01*
X156148751Y-137113065D01*
X156381948Y-137150000D01*
X156618052Y-137150000D01*
X156851247Y-137113065D01*
X157075802Y-137040102D01*
X157286163Y-136932918D01*
X157286169Y-136932914D01*
X157369104Y-136872658D01*
X157369105Y-136872658D01*
X156670233Y-136173787D01*
X156712292Y-136162518D01*
X156837708Y-136090110D01*
X156940110Y-135987708D01*
X157012518Y-135862292D01*
X157023787Y-135820234D01*
X157722658Y-136519105D01*
X157722658Y-136519104D01*
X157782914Y-136436169D01*
X157782918Y-136436163D01*
X157890102Y-136225802D01*
X157963065Y-136001247D01*
X158000000Y-135768052D01*
X158000000Y-135531947D01*
X161500000Y-135531947D01*
X161500000Y-135768052D01*
X161536934Y-136001247D01*
X161609897Y-136225802D01*
X161717087Y-136436174D01*
X161777338Y-136519104D01*
X161777340Y-136519105D01*
X162476212Y-135820233D01*
X162487482Y-135862292D01*
X162559890Y-135987708D01*
X162662292Y-136090110D01*
X162787708Y-136162518D01*
X162829765Y-136173787D01*
X162130893Y-136872658D01*
X162213828Y-136932914D01*
X162424197Y-137040102D01*
X162648752Y-137113065D01*
X162648751Y-137113065D01*
X162881948Y-137150000D01*
X163118052Y-137150000D01*
X163351247Y-137113065D01*
X163575802Y-137040102D01*
X163786163Y-136932918D01*
X163786169Y-136932914D01*
X163869104Y-136872658D01*
X163869105Y-136872658D01*
X163170233Y-136173787D01*
X163212292Y-136162518D01*
X163337708Y-136090110D01*
X163440110Y-135987708D01*
X163512518Y-135862292D01*
X163523787Y-135820234D01*
X164222658Y-136519105D01*
X164222658Y-136519104D01*
X164282914Y-136436169D01*
X164282918Y-136436163D01*
X164390102Y-136225802D01*
X164463065Y-136001247D01*
X164500000Y-135768052D01*
X164500000Y-135531947D01*
X164463065Y-135298752D01*
X164390102Y-135074197D01*
X164282914Y-134863828D01*
X164222658Y-134780894D01*
X164222658Y-134780893D01*
X163523787Y-135479765D01*
X163512518Y-135437708D01*
X163440110Y-135312292D01*
X163337708Y-135209890D01*
X163212292Y-135137482D01*
X163170234Y-135126212D01*
X163725921Y-134570525D01*
X167024500Y-134570525D01*
X167024500Y-134829474D01*
X167024501Y-134829491D01*
X167058299Y-135086217D01*
X167058300Y-135086222D01*
X167058301Y-135086228D01*
X167075404Y-135150058D01*
X167125324Y-135336364D01*
X167224423Y-135575609D01*
X167224427Y-135575619D01*
X167353906Y-135799883D01*
X167511551Y-136005331D01*
X167511557Y-136005338D01*
X167694661Y-136188442D01*
X167694668Y-136188448D01*
X167900116Y-136346093D01*
X168124380Y-136475572D01*
X168124381Y-136475572D01*
X168124384Y-136475574D01*
X168363634Y-136574675D01*
X168613772Y-136641699D01*
X168870519Y-136675500D01*
X168870526Y-136675500D01*
X169129474Y-136675500D01*
X169129481Y-136675500D01*
X169386228Y-136641699D01*
X169636366Y-136574675D01*
X169875616Y-136475574D01*
X170099884Y-136346093D01*
X170305333Y-136188447D01*
X170488447Y-136005333D01*
X170646093Y-135799884D01*
X170775574Y-135575616D01*
X170874675Y-135336366D01*
X170941699Y-135086228D01*
X170975500Y-134829481D01*
X170975500Y-134570519D01*
X170941699Y-134313772D01*
X170874675Y-134063634D01*
X170775574Y-133824384D01*
X170756050Y-133790568D01*
X170646093Y-133600116D01*
X170488448Y-133394668D01*
X170488442Y-133394661D01*
X170305338Y-133211557D01*
X170305331Y-133211551D01*
X170099883Y-133053906D01*
X169875614Y-132924425D01*
X169875609Y-132924423D01*
X169636364Y-132825324D01*
X169511297Y-132791813D01*
X169386228Y-132758301D01*
X169386222Y-132758300D01*
X169386217Y-132758299D01*
X169129491Y-132724501D01*
X169129486Y-132724500D01*
X169129481Y-132724500D01*
X168870519Y-132724500D01*
X168870513Y-132724500D01*
X168870508Y-132724501D01*
X168613782Y-132758299D01*
X168613775Y-132758300D01*
X168613772Y-132758301D01*
X168568879Y-132770330D01*
X168363635Y-132825324D01*
X168124390Y-132924423D01*
X168124386Y-132924425D01*
X167900116Y-133053906D01*
X167694668Y-133211551D01*
X167694661Y-133211557D01*
X167511557Y-133394661D01*
X167511551Y-133394668D01*
X167353906Y-133600116D01*
X167224427Y-133824380D01*
X167224423Y-133824390D01*
X167125324Y-134063635D01*
X167058302Y-134313769D01*
X167058299Y-134313782D01*
X167024501Y-134570508D01*
X167024500Y-134570525D01*
X163725921Y-134570525D01*
X163817667Y-134478779D01*
X163869105Y-134427340D01*
X163869104Y-134427338D01*
X163786174Y-134367087D01*
X163575802Y-134259897D01*
X163351247Y-134186934D01*
X163351248Y-134186934D01*
X163118052Y-134150000D01*
X162881948Y-134150000D01*
X162648752Y-134186934D01*
X162424197Y-134259897D01*
X162213830Y-134367084D01*
X162130894Y-134427340D01*
X162829766Y-135126212D01*
X162787708Y-135137482D01*
X162662292Y-135209890D01*
X162559890Y-135312292D01*
X162487482Y-135437708D01*
X162476212Y-135479765D01*
X161777340Y-134780894D01*
X161717084Y-134863830D01*
X161609897Y-135074197D01*
X161536934Y-135298752D01*
X161500000Y-135531947D01*
X158000000Y-135531947D01*
X157963065Y-135298752D01*
X157890102Y-135074197D01*
X157782914Y-134863828D01*
X157722658Y-134780894D01*
X157722658Y-134780893D01*
X157023787Y-135479765D01*
X157012518Y-135437708D01*
X156940110Y-135312292D01*
X156837708Y-135209890D01*
X156712292Y-135137482D01*
X156670234Y-135126212D01*
X157369105Y-134427340D01*
X157369104Y-134427339D01*
X157286174Y-134367087D01*
X157075802Y-134259897D01*
X156851247Y-134186934D01*
X156851248Y-134186934D01*
X156618052Y-134150000D01*
X156381948Y-134150000D01*
X156148752Y-134186934D01*
X155924197Y-134259897D01*
X155713830Y-134367084D01*
X155630894Y-134427340D01*
X156329766Y-135126212D01*
X156287708Y-135137482D01*
X156162292Y-135209890D01*
X156059890Y-135312292D01*
X155987482Y-135437708D01*
X155976212Y-135479766D01*
X155277340Y-134780894D01*
X155217084Y-134863830D01*
X155109897Y-135074197D01*
X155036934Y-135298752D01*
X155022473Y-135390058D01*
X154992544Y-135453193D01*
X154933232Y-135490124D01*
X154863370Y-135489126D01*
X154805137Y-135450516D01*
X154777527Y-135390058D01*
X154763065Y-135298752D01*
X154690102Y-135074197D01*
X154582914Y-134863828D01*
X154522658Y-134780894D01*
X154522658Y-134780893D01*
X153823787Y-135479765D01*
X153812518Y-135437708D01*
X153740110Y-135312292D01*
X153637708Y-135209890D01*
X153512292Y-135137482D01*
X153470234Y-135126212D01*
X154169105Y-134427340D01*
X154169104Y-134427339D01*
X154086174Y-134367087D01*
X153875802Y-134259897D01*
X153651247Y-134186934D01*
X153651248Y-134186934D01*
X153418052Y-134150000D01*
X153181948Y-134150000D01*
X152948752Y-134186934D01*
X152724197Y-134259897D01*
X152513830Y-134367084D01*
X152430894Y-134427340D01*
X153129766Y-135126212D01*
X153087708Y-135137482D01*
X152962292Y-135209890D01*
X152859890Y-135312292D01*
X152787482Y-135437708D01*
X152776212Y-135479766D01*
X152077340Y-134780894D01*
X152017084Y-134863830D01*
X151909897Y-135074197D01*
X151836934Y-135298752D01*
X151800000Y-135531947D01*
X151800000Y-135768052D01*
X151836934Y-136001247D01*
X151909897Y-136225802D01*
X152017087Y-136436174D01*
X152077338Y-136519104D01*
X152077340Y-136519105D01*
X152776212Y-135820233D01*
X152787482Y-135862292D01*
X152859890Y-135987708D01*
X152962292Y-136090110D01*
X153087708Y-136162518D01*
X153129765Y-136173787D01*
X152430893Y-136872658D01*
X152513828Y-136932914D01*
X152627857Y-136991015D01*
X152678653Y-137038990D01*
X152695448Y-137106811D01*
X152672911Y-137172945D01*
X152618196Y-137216397D01*
X152571562Y-137225500D01*
X147528438Y-137225500D01*
X147461399Y-137205815D01*
X147415644Y-137153011D01*
X147405700Y-137083853D01*
X147434725Y-137020297D01*
X147472143Y-136991015D01*
X147586163Y-136932918D01*
X147586169Y-136932914D01*
X147669104Y-136872658D01*
X147669105Y-136872658D01*
X146970233Y-136173787D01*
X147012292Y-136162518D01*
X147137708Y-136090110D01*
X147240110Y-135987708D01*
X147312518Y-135862292D01*
X147323787Y-135820234D01*
X148022658Y-136519105D01*
X148022658Y-136519104D01*
X148082914Y-136436169D01*
X148082918Y-136436163D01*
X148190102Y-136225802D01*
X148263065Y-136001247D01*
X148300000Y-135768052D01*
X148300000Y-135531947D01*
X148263065Y-135298752D01*
X148190102Y-135074197D01*
X148082914Y-134863828D01*
X148022658Y-134780894D01*
X148022658Y-134780893D01*
X147323787Y-135479765D01*
X147312518Y-135437708D01*
X147240110Y-135312292D01*
X147137708Y-135209890D01*
X147012292Y-135137482D01*
X146970234Y-135126212D01*
X147669105Y-134427340D01*
X147669104Y-134427339D01*
X147586174Y-134367087D01*
X147375802Y-134259897D01*
X147151247Y-134186934D01*
X147151248Y-134186934D01*
X146918052Y-134150000D01*
X146681948Y-134150000D01*
X146448752Y-134186934D01*
X146224197Y-134259897D01*
X146013830Y-134367084D01*
X145930894Y-134427340D01*
X146629766Y-135126212D01*
X146587708Y-135137482D01*
X146462292Y-135209890D01*
X146359890Y-135312292D01*
X146287482Y-135437708D01*
X146276212Y-135479766D01*
X145577340Y-134780894D01*
X145517084Y-134863830D01*
X145409897Y-135074197D01*
X145336934Y-135298752D01*
X145322473Y-135390058D01*
X145292544Y-135453193D01*
X145233232Y-135490124D01*
X145163370Y-135489126D01*
X145105137Y-135450516D01*
X145077527Y-135390058D01*
X145063065Y-135298752D01*
X144990102Y-135074197D01*
X144882914Y-134863828D01*
X144822658Y-134780894D01*
X144822658Y-134780893D01*
X144123787Y-135479765D01*
X144112518Y-135437708D01*
X144040110Y-135312292D01*
X143937708Y-135209890D01*
X143812292Y-135137482D01*
X143770234Y-135126212D01*
X144469105Y-134427340D01*
X144469104Y-134427339D01*
X144386174Y-134367087D01*
X144175802Y-134259897D01*
X143951247Y-134186934D01*
X143951248Y-134186934D01*
X143718052Y-134150000D01*
X143481948Y-134150000D01*
X143248752Y-134186934D01*
X143024197Y-134259897D01*
X142813830Y-134367084D01*
X142730894Y-134427340D01*
X143429766Y-135126212D01*
X143387708Y-135137482D01*
X143262292Y-135209890D01*
X143159890Y-135312292D01*
X143087482Y-135437708D01*
X143076212Y-135479766D01*
X142377340Y-134780894D01*
X142317084Y-134863830D01*
X142209897Y-135074197D01*
X142136934Y-135298752D01*
X142100000Y-135531947D01*
X142100000Y-135768052D01*
X142136934Y-136001247D01*
X142209897Y-136225802D01*
X142317087Y-136436174D01*
X142377338Y-136519104D01*
X142377340Y-136519105D01*
X143076212Y-135820233D01*
X143087482Y-135862292D01*
X143159890Y-135987708D01*
X143262292Y-136090110D01*
X143387708Y-136162518D01*
X143429765Y-136173787D01*
X142730893Y-136872658D01*
X142813828Y-136932914D01*
X142927857Y-136991015D01*
X142978653Y-137038990D01*
X142995448Y-137106811D01*
X142972911Y-137172945D01*
X142918196Y-137216397D01*
X142871562Y-137225500D01*
X142584097Y-137225500D01*
X142517058Y-137205815D01*
X142496416Y-137189181D01*
X137586819Y-132279584D01*
X137553334Y-132218261D01*
X137550500Y-132191903D01*
X137550500Y-128399097D01*
X137570185Y-128332058D01*
X137622989Y-128286303D01*
X137692147Y-128276359D01*
X137755703Y-128305384D01*
X137762181Y-128311416D01*
X142215139Y-132764374D01*
X142215149Y-132764385D01*
X142219479Y-132768715D01*
X142219480Y-132768716D01*
X142331284Y-132880520D01*
X142407332Y-132924426D01*
X142468215Y-132959577D01*
X142620942Y-133000500D01*
X142620943Y-133000500D01*
X145395932Y-133000500D01*
X145462971Y-133020185D01*
X145506416Y-133068203D01*
X145566657Y-133186433D01*
X145705483Y-133377510D01*
X145872490Y-133544517D01*
X146063567Y-133683343D01*
X146162991Y-133734002D01*
X146274003Y-133790566D01*
X146274005Y-133790566D01*
X146274008Y-133790568D01*
X146378070Y-133824380D01*
X146498631Y-133863553D01*
X146731903Y-133900500D01*
X146731908Y-133900500D01*
X146968097Y-133900500D01*
X147201368Y-133863553D01*
X147425992Y-133790568D01*
X147636433Y-133683343D01*
X147827510Y-133544517D01*
X147994517Y-133377510D01*
X148133343Y-133186433D01*
X148240568Y-132975992D01*
X148313553Y-132751368D01*
X148317808Y-132724501D01*
X148350500Y-132518097D01*
X148350500Y-132281902D01*
X151849500Y-132281902D01*
X151849500Y-132518097D01*
X151886446Y-132751368D01*
X151959433Y-132975996D01*
X152048459Y-133150718D01*
X152066657Y-133186433D01*
X152205483Y-133377510D01*
X152372490Y-133544517D01*
X152563567Y-133683343D01*
X152662991Y-133734002D01*
X152774003Y-133790566D01*
X152774005Y-133790566D01*
X152774008Y-133790568D01*
X152878070Y-133824380D01*
X152998631Y-133863553D01*
X153231903Y-133900500D01*
X153231908Y-133900500D01*
X153468097Y-133900500D01*
X153701368Y-133863553D01*
X153925992Y-133790568D01*
X154136433Y-133683343D01*
X154327510Y-133544517D01*
X154494517Y-133377510D01*
X154633343Y-133186433D01*
X154740568Y-132975992D01*
X154813553Y-132751368D01*
X154817808Y-132724501D01*
X154850500Y-132518097D01*
X154850500Y-132281902D01*
X154813553Y-132048631D01*
X154779689Y-131944412D01*
X154740568Y-131824008D01*
X154740566Y-131824005D01*
X154740566Y-131824003D01*
X154641548Y-131629671D01*
X154633343Y-131613567D01*
X154494517Y-131422490D01*
X154327510Y-131255483D01*
X154136433Y-131116657D01*
X153925996Y-131009433D01*
X153701368Y-130936446D01*
X153468097Y-130899500D01*
X153468092Y-130899500D01*
X153231908Y-130899500D01*
X153231903Y-130899500D01*
X152998631Y-130936446D01*
X152774003Y-131009433D01*
X152563566Y-131116657D01*
X152454550Y-131195862D01*
X152372490Y-131255483D01*
X152372488Y-131255485D01*
X152372487Y-131255485D01*
X152205485Y-131422487D01*
X152205485Y-131422488D01*
X152205483Y-131422490D01*
X152145862Y-131504550D01*
X152066657Y-131613566D01*
X151959433Y-131824003D01*
X151886446Y-132048631D01*
X151849500Y-132281902D01*
X148350500Y-132281902D01*
X148313553Y-132048631D01*
X148279689Y-131944412D01*
X148240568Y-131824008D01*
X148240566Y-131824005D01*
X148240566Y-131824003D01*
X148141548Y-131629671D01*
X148133343Y-131613567D01*
X147994517Y-131422490D01*
X147827510Y-131255483D01*
X147636433Y-131116657D01*
X147425996Y-131009433D01*
X147201368Y-130936446D01*
X146968097Y-130899500D01*
X146968092Y-130899500D01*
X146731908Y-130899500D01*
X146731903Y-130899500D01*
X146498631Y-130936446D01*
X146274003Y-131009433D01*
X146063566Y-131116657D01*
X145954550Y-131195862D01*
X145872490Y-131255483D01*
X145872488Y-131255485D01*
X145872487Y-131255485D01*
X145705485Y-131422487D01*
X145705485Y-131422488D01*
X145705483Y-131422490D01*
X145645862Y-131504550D01*
X145566657Y-131613566D01*
X145506417Y-131731795D01*
X145458442Y-131782591D01*
X145395932Y-131799500D01*
X143000097Y-131799500D01*
X142933058Y-131779815D01*
X142912416Y-131763181D01*
X138931182Y-127781947D01*
X145350000Y-127781947D01*
X145350000Y-128018052D01*
X145386934Y-128251247D01*
X145459897Y-128475802D01*
X145567087Y-128686174D01*
X145627338Y-128769104D01*
X145627340Y-128769105D01*
X146326212Y-128070233D01*
X146337482Y-128112292D01*
X146409890Y-128237708D01*
X146512292Y-128340110D01*
X146637708Y-128412518D01*
X146679765Y-128423787D01*
X145980893Y-129122658D01*
X146063828Y-129182914D01*
X146274197Y-129290102D01*
X146498752Y-129363065D01*
X146498751Y-129363065D01*
X146731948Y-129400000D01*
X146968052Y-129400000D01*
X147201247Y-129363065D01*
X147425802Y-129290102D01*
X147636163Y-129182918D01*
X147636169Y-129182914D01*
X147719104Y-129122658D01*
X147719105Y-129122658D01*
X147020233Y-128423787D01*
X147062292Y-128412518D01*
X147187708Y-128340110D01*
X147290110Y-128237708D01*
X147362518Y-128112292D01*
X147373787Y-128070233D01*
X148072658Y-128769105D01*
X148072658Y-128769104D01*
X148132914Y-128686169D01*
X148132918Y-128686163D01*
X148240102Y-128475802D01*
X148313065Y-128251247D01*
X148350000Y-128018052D01*
X148350000Y-127781947D01*
X151850000Y-127781947D01*
X151850000Y-128018052D01*
X151886934Y-128251247D01*
X151959897Y-128475802D01*
X152067087Y-128686174D01*
X152127338Y-128769104D01*
X152127340Y-128769105D01*
X152826212Y-128070233D01*
X152837482Y-128112292D01*
X152909890Y-128237708D01*
X153012292Y-128340110D01*
X153137708Y-128412518D01*
X153179765Y-128423787D01*
X152480893Y-129122658D01*
X152563828Y-129182914D01*
X152774197Y-129290102D01*
X152998752Y-129363065D01*
X152998751Y-129363065D01*
X153231948Y-129400000D01*
X153468052Y-129400000D01*
X153701247Y-129363065D01*
X153925802Y-129290102D01*
X154136163Y-129182918D01*
X154136169Y-129182914D01*
X154219104Y-129122658D01*
X154219105Y-129122658D01*
X153520233Y-128423787D01*
X153562292Y-128412518D01*
X153687708Y-128340110D01*
X153790110Y-128237708D01*
X153862518Y-128112292D01*
X153873787Y-128070234D01*
X154572658Y-128769105D01*
X154572658Y-128769104D01*
X154632914Y-128686169D01*
X154632918Y-128686163D01*
X154740102Y-128475802D01*
X154813065Y-128251247D01*
X154850000Y-128018052D01*
X154850000Y-127781947D01*
X154813065Y-127548752D01*
X154740102Y-127324197D01*
X154632914Y-127113828D01*
X154572658Y-127030894D01*
X154572658Y-127030893D01*
X153873787Y-127729765D01*
X153862518Y-127687708D01*
X153790110Y-127562292D01*
X153687708Y-127459890D01*
X153562292Y-127387482D01*
X153520234Y-127376212D01*
X154219105Y-126677340D01*
X154219104Y-126677338D01*
X154136174Y-126617087D01*
X153925802Y-126509897D01*
X153701247Y-126436934D01*
X153701248Y-126436934D01*
X153468052Y-126400000D01*
X153231948Y-126400000D01*
X152998752Y-126436934D01*
X152774197Y-126509897D01*
X152563830Y-126617084D01*
X152480894Y-126677340D01*
X153179766Y-127376212D01*
X153137708Y-127387482D01*
X153012292Y-127459890D01*
X152909890Y-127562292D01*
X152837482Y-127687708D01*
X152826212Y-127729766D01*
X152127340Y-127030894D01*
X152067084Y-127113830D01*
X151959897Y-127324197D01*
X151886934Y-127548752D01*
X151850000Y-127781947D01*
X148350000Y-127781947D01*
X148313065Y-127548752D01*
X148240102Y-127324197D01*
X148132914Y-127113828D01*
X148072658Y-127030894D01*
X148072658Y-127030893D01*
X147373787Y-127729765D01*
X147362518Y-127687708D01*
X147290110Y-127562292D01*
X147187708Y-127459890D01*
X147062292Y-127387482D01*
X147020234Y-127376212D01*
X147719105Y-126677340D01*
X147719104Y-126677339D01*
X147636174Y-126617087D01*
X147425802Y-126509897D01*
X147201247Y-126436934D01*
X147201248Y-126436934D01*
X146968052Y-126400000D01*
X146731948Y-126400000D01*
X146498752Y-126436934D01*
X146274197Y-126509897D01*
X146063830Y-126617084D01*
X145980894Y-126677340D01*
X146679766Y-127376212D01*
X146637708Y-127387482D01*
X146512292Y-127459890D01*
X146409890Y-127562292D01*
X146337482Y-127687708D01*
X146326212Y-127729766D01*
X145627340Y-127030894D01*
X145567084Y-127113830D01*
X145459897Y-127324197D01*
X145386934Y-127548752D01*
X145350000Y-127781947D01*
X138931182Y-127781947D01*
X136167590Y-125018355D01*
X136167588Y-125018352D01*
X136048717Y-124899481D01*
X136048716Y-124899480D01*
X135961904Y-124849360D01*
X135961904Y-124849359D01*
X135961900Y-124849358D01*
X135911785Y-124820423D01*
X135759057Y-124779499D01*
X135600943Y-124779499D01*
X135593347Y-124779499D01*
X135593331Y-124779500D01*
X129721547Y-124779500D01*
X129654508Y-124759815D01*
X129608753Y-124707011D01*
X129599930Y-124679694D01*
X129591737Y-124638503D01*
X129576651Y-124602082D01*
X129531397Y-124492827D01*
X129531390Y-124492814D01*
X129443789Y-124361711D01*
X129443786Y-124361707D01*
X129332292Y-124250213D01*
X129332288Y-124250210D01*
X129201185Y-124162609D01*
X129201172Y-124162602D01*
X129055501Y-124102264D01*
X129055489Y-124102261D01*
X128900845Y-124071500D01*
X128900842Y-124071500D01*
X128743158Y-124071500D01*
X128743155Y-124071500D01*
X128588510Y-124102261D01*
X128588498Y-124102264D01*
X128442827Y-124162602D01*
X128442814Y-124162609D01*
X128311711Y-124250210D01*
X128311707Y-124250213D01*
X128200213Y-124361707D01*
X128200210Y-124361711D01*
X128112609Y-124492814D01*
X128112602Y-124492827D01*
X128052264Y-124638498D01*
X128052261Y-124638510D01*
X128021500Y-124793153D01*
X128021500Y-124950846D01*
X128052261Y-125105489D01*
X128052264Y-125105501D01*
X128112602Y-125251172D01*
X128112609Y-125251185D01*
X128177706Y-125348609D01*
X128198584Y-125415287D01*
X128180099Y-125482667D01*
X128128121Y-125529357D01*
X128074604Y-125541500D01*
X125566097Y-125541500D01*
X125536656Y-125532855D01*
X125506670Y-125526332D01*
X125501654Y-125522577D01*
X125499058Y-125521815D01*
X125478416Y-125505181D01*
X125394819Y-125421584D01*
X125361334Y-125360261D01*
X125358500Y-125333903D01*
X125358500Y-125197765D01*
X125378185Y-125130726D01*
X125379398Y-125128874D01*
X125467390Y-124997185D01*
X125467390Y-124997184D01*
X125467394Y-124997179D01*
X125527737Y-124851497D01*
X125558500Y-124696842D01*
X125558500Y-124539158D01*
X125558500Y-124539155D01*
X125558499Y-124539153D01*
X125549283Y-124492821D01*
X125527737Y-124384503D01*
X125472112Y-124250211D01*
X125467397Y-124238827D01*
X125467390Y-124238814D01*
X125379789Y-124107711D01*
X125379786Y-124107707D01*
X125268292Y-123996213D01*
X125268288Y-123996210D01*
X125137185Y-123908609D01*
X125137172Y-123908602D01*
X124991501Y-123848264D01*
X124991489Y-123848261D01*
X124836845Y-123817500D01*
X124836842Y-123817500D01*
X124679158Y-123817500D01*
X124679155Y-123817500D01*
X124524510Y-123848261D01*
X124524498Y-123848264D01*
X124378827Y-123908602D01*
X124378814Y-123908609D01*
X124247711Y-123996210D01*
X124247707Y-123996213D01*
X124136213Y-124107707D01*
X124136210Y-124107711D01*
X124048609Y-124238814D01*
X124048602Y-124238827D01*
X123988264Y-124384498D01*
X123988261Y-124384510D01*
X123957500Y-124539153D01*
X123957500Y-124696846D01*
X123988261Y-124851489D01*
X123988264Y-124851501D01*
X124048602Y-124997172D01*
X124048609Y-124997185D01*
X124136602Y-125128874D01*
X124157480Y-125195551D01*
X124157500Y-125197765D01*
X124157500Y-125547330D01*
X124157499Y-125547348D01*
X124157499Y-125713054D01*
X124157498Y-125713054D01*
X124198423Y-125865785D01*
X124224074Y-125910214D01*
X124224076Y-125910216D01*
X124277479Y-126002714D01*
X124277481Y-126002717D01*
X124396349Y-126121585D01*
X124396355Y-126121590D01*
X124781139Y-126506374D01*
X124781149Y-126506385D01*
X124785479Y-126510715D01*
X124785480Y-126510716D01*
X124897284Y-126622520D01*
X124897286Y-126622521D01*
X124897290Y-126622524D01*
X124992232Y-126677338D01*
X125034216Y-126701577D01*
X125146019Y-126731534D01*
X125186942Y-126742500D01*
X125186943Y-126742500D01*
X126672072Y-126742500D01*
X126739111Y-126762185D01*
X126784866Y-126814989D01*
X126794810Y-126884147D01*
X126793079Y-126893578D01*
X126790736Y-126904045D01*
X126782263Y-126924503D01*
X126751500Y-127079158D01*
X126751500Y-127079388D01*
X126750751Y-127082736D01*
X126734520Y-127112044D01*
X126718976Y-127141761D01*
X126717425Y-127143339D01*
X124023481Y-129837282D01*
X124023479Y-129837285D01*
X123973361Y-129924094D01*
X123973359Y-129924096D01*
X123944425Y-129974209D01*
X123944424Y-129974210D01*
X123944423Y-129974215D01*
X123903499Y-130126943D01*
X123903499Y-130285057D01*
X123903499Y-130285059D01*
X123903500Y-130295053D01*
X123903500Y-137739330D01*
X123903499Y-137739348D01*
X123903499Y-137905054D01*
X123903498Y-137905054D01*
X115800500Y-137905054D01*
X115800500Y-126348745D01*
X115792235Y-126280680D01*
X115764037Y-126048449D01*
X115691643Y-125754734D01*
X115691642Y-125754731D01*
X115691641Y-125754727D01*
X115584371Y-125471882D01*
X115443793Y-125204035D01*
X115443787Y-125204026D01*
X115439465Y-125197765D01*
X115375772Y-125105489D01*
X115271952Y-124955078D01*
X115271947Y-124955072D01*
X115071353Y-124728648D01*
X115071351Y-124728646D01*
X114844927Y-124528052D01*
X114844921Y-124528047D01*
X114595973Y-124356212D01*
X114595964Y-124356206D01*
X114328117Y-124215628D01*
X114045272Y-124108358D01*
X113929820Y-124079902D01*
X113751551Y-124035963D01*
X113571371Y-124014085D01*
X113451254Y-123999500D01*
X113451252Y-123999500D01*
X113365892Y-123999500D01*
X95304428Y-123999500D01*
X95295582Y-123999184D01*
X95254001Y-123996210D01*
X95095442Y-123984869D01*
X95077931Y-123982351D01*
X94886212Y-123940646D01*
X94869236Y-123935662D01*
X94685390Y-123867090D01*
X94669298Y-123859740D01*
X94497095Y-123765711D01*
X94482210Y-123756146D01*
X94325132Y-123638558D01*
X94311762Y-123626972D01*
X94173027Y-123488237D01*
X94161441Y-123474867D01*
X94043849Y-123317784D01*
X94034288Y-123302904D01*
X93940259Y-123130701D01*
X93932909Y-123114609D01*
X93872091Y-122951551D01*
X93864334Y-122930755D01*
X93859355Y-122913797D01*
X93817647Y-122722063D01*
X93815130Y-122704556D01*
X93800816Y-122504418D01*
X93800500Y-122495572D01*
X93800500Y-71702135D01*
X94509500Y-71702135D01*
X94509500Y-73497870D01*
X94509501Y-73497876D01*
X94515908Y-73557483D01*
X94566202Y-73692328D01*
X94566206Y-73692335D01*
X94652452Y-73807544D01*
X94652455Y-73807547D01*
X94767664Y-73893793D01*
X94767671Y-73893797D01*
X94902517Y-73944091D01*
X94902516Y-73944091D01*
X94909444Y-73944835D01*
X94962127Y-73950500D01*
X96757872Y-73950499D01*
X96817483Y-73944091D01*
X96952331Y-73893796D01*
X97067546Y-73807546D01*
X97153796Y-73692331D01*
X97202810Y-73560916D01*
X97244681Y-73504984D01*
X97310145Y-73480566D01*
X97378418Y-73495417D01*
X97406673Y-73516569D01*
X97520213Y-73630109D01*
X97692179Y-73755048D01*
X97692181Y-73755049D01*
X97692184Y-73755051D01*
X97881588Y-73851557D01*
X98083757Y-73917246D01*
X98293713Y-73950500D01*
X98293714Y-73950500D01*
X98506286Y-73950500D01*
X98506287Y-73950500D01*
X98716243Y-73917246D01*
X98918412Y-73851557D01*
X99107816Y-73755051D01*
X99194138Y-73692335D01*
X99279786Y-73630109D01*
X99279788Y-73630106D01*
X99279792Y-73630104D01*
X99430104Y-73479792D01*
X99430106Y-73479788D01*
X99430109Y-73479786D01*
X99555048Y-73307820D01*
X99555047Y-73307820D01*
X99555051Y-73307816D01*
X99559514Y-73299054D01*
X99607488Y-73248259D01*
X99675308Y-73231463D01*
X99741444Y-73253999D01*
X99780486Y-73299056D01*
X99784951Y-73307820D01*
X99909890Y-73479786D01*
X100060213Y-73630109D01*
X100232179Y-73755048D01*
X100232181Y-73755049D01*
X100232184Y-73755051D01*
X100421588Y-73851557D01*
X100623757Y-73917246D01*
X100833713Y-73950500D01*
X100833714Y-73950500D01*
X101046286Y-73950500D01*
X101046287Y-73950500D01*
X101256243Y-73917246D01*
X101458412Y-73851557D01*
X101647816Y-73755051D01*
X101734138Y-73692335D01*
X101819786Y-73630109D01*
X101819788Y-73630106D01*
X101819792Y-73630104D01*
X101970104Y-73479792D01*
X101970106Y-73479788D01*
X101970109Y-73479786D01*
X102095048Y-73307820D01*
X102095047Y-73307820D01*
X102095051Y-73307816D01*
X102099514Y-73299054D01*
X102147488Y-73248259D01*
X102215308Y-73231463D01*
X102281444Y-73253999D01*
X102320486Y-73299056D01*
X102324951Y-73307820D01*
X102449890Y-73479786D01*
X102600213Y-73630109D01*
X102772179Y-73755048D01*
X102772181Y-73755049D01*
X102772184Y-73755051D01*
X102961588Y-73851557D01*
X103163757Y-73917246D01*
X103373713Y-73950500D01*
X103373714Y-73950500D01*
X103586286Y-73950500D01*
X103586287Y-73950500D01*
X103796243Y-73917246D01*
X103998412Y-73851557D01*
X104187816Y-73755051D01*
X104274138Y-73692335D01*
X104359786Y-73630109D01*
X104359788Y-73630106D01*
X104359792Y-73630104D01*
X104510104Y-73479792D01*
X104510106Y-73479788D01*
X104510109Y-73479786D01*
X104635048Y-73307820D01*
X104635047Y-73307820D01*
X104635051Y-73307816D01*
X104639514Y-73299054D01*
X104687488Y-73248259D01*
X104755308Y-73231463D01*
X104821444Y-73253999D01*
X104860486Y-73299056D01*
X104864951Y-73307820D01*
X104989890Y-73479786D01*
X105140213Y-73630109D01*
X105312179Y-73755048D01*
X105312181Y-73755049D01*
X105312184Y-73755051D01*
X105501588Y-73851557D01*
X105703757Y-73917246D01*
X105913713Y-73950500D01*
X105913714Y-73950500D01*
X106126286Y-73950500D01*
X106126287Y-73950500D01*
X106336243Y-73917246D01*
X106538412Y-73851557D01*
X106727816Y-73755051D01*
X106814138Y-73692335D01*
X106899786Y-73630109D01*
X106899788Y-73630106D01*
X106899792Y-73630104D01*
X107050104Y-73479792D01*
X107050106Y-73479788D01*
X107050109Y-73479786D01*
X107175048Y-73307820D01*
X107175047Y-73307820D01*
X107175051Y-73307816D01*
X107179514Y-73299054D01*
X107227488Y-73248259D01*
X107295308Y-73231463D01*
X107361444Y-73253999D01*
X107400486Y-73299056D01*
X107404951Y-73307820D01*
X107529890Y-73479786D01*
X107680213Y-73630109D01*
X107852179Y-73755048D01*
X107852181Y-73755049D01*
X107852184Y-73755051D01*
X108041588Y-73851557D01*
X108243757Y-73917246D01*
X108453713Y-73950500D01*
X108453714Y-73950500D01*
X108666286Y-73950500D01*
X108666287Y-73950500D01*
X108876243Y-73917246D01*
X109078412Y-73851557D01*
X109267816Y-73755051D01*
X109354138Y-73692335D01*
X109439786Y-73630109D01*
X109439788Y-73630106D01*
X109439792Y-73630104D01*
X109590104Y-73479792D01*
X109590106Y-73479788D01*
X109590109Y-73479786D01*
X109715048Y-73307820D01*
X109715047Y-73307820D01*
X109715051Y-73307816D01*
X109719514Y-73299054D01*
X109767488Y-73248259D01*
X109835308Y-73231463D01*
X109901444Y-73253999D01*
X109940486Y-73299056D01*
X109944951Y-73307820D01*
X110069890Y-73479786D01*
X110220213Y-73630109D01*
X110392184Y-73755051D01*
X110392184Y-73755052D01*
X110431793Y-73775233D01*
X110482590Y-73823206D01*
X110499500Y-73885718D01*
X110499500Y-77091330D01*
X110499499Y-77091348D01*
X110499499Y-77257054D01*
X110499498Y-77257054D01*
X110540423Y-77409785D01*
X110562152Y-77447419D01*
X110562153Y-77447423D01*
X110562154Y-77447423D01*
X110619479Y-77546714D01*
X110619481Y-77546717D01*
X110738349Y-77665585D01*
X110738355Y-77665590D01*
X113266583Y-80193819D01*
X113300068Y-80255142D01*
X113295084Y-80324834D01*
X113253212Y-80380767D01*
X113187748Y-80405184D01*
X113178902Y-80405500D01*
X100908154Y-80405500D01*
X100753509Y-80436261D01*
X100753497Y-80436264D01*
X100710832Y-80453936D01*
X100710833Y-80453937D01*
X100607823Y-80496604D01*
X100607820Y-80496606D01*
X100572055Y-80520504D01*
X100479019Y-80582669D01*
X100479012Y-80582674D01*
X100476710Y-80584211D01*
X100476703Y-80584217D01*
X98528080Y-82532842D01*
X97889711Y-83171211D01*
X97837187Y-83223735D01*
X97778209Y-83282712D01*
X97690609Y-83413814D01*
X97690602Y-83413827D01*
X97630264Y-83559498D01*
X97630261Y-83559510D01*
X97599500Y-83714153D01*
X97599500Y-86449106D01*
X97590310Y-86480403D01*
X97582342Y-86512041D01*
X97580388Y-86514191D01*
X97579815Y-86516145D01*
X97560283Y-86539593D01*
X97554642Y-86544877D01*
X97520208Y-86569896D01*
X97405250Y-86684853D01*
X97403775Y-86686236D01*
X97374318Y-86701097D01*
X97345350Y-86716915D01*
X97343262Y-86716765D01*
X97341395Y-86717708D01*
X97308580Y-86714285D01*
X97275658Y-86711931D01*
X97273982Y-86710676D01*
X97271903Y-86710460D01*
X97246143Y-86689836D01*
X97219725Y-86670059D01*
X97218391Y-86667617D01*
X97217361Y-86666792D01*
X97216430Y-86664025D01*
X97202810Y-86639082D01*
X97153797Y-86507671D01*
X97153793Y-86507664D01*
X97067547Y-86392455D01*
X97067544Y-86392452D01*
X96952335Y-86306206D01*
X96952328Y-86306202D01*
X96817482Y-86255908D01*
X96817483Y-86255908D01*
X96757883Y-86249501D01*
X96757881Y-86249500D01*
X96757873Y-86249500D01*
X96757864Y-86249500D01*
X94962129Y-86249500D01*
X94962123Y-86249501D01*
X94902516Y-86255908D01*
X94767671Y-86306202D01*
X94767664Y-86306206D01*
X94652455Y-86392452D01*
X94652452Y-86392455D01*
X94566206Y-86507664D01*
X94566202Y-86507671D01*
X94515908Y-86642517D01*
X94509501Y-86702116D01*
X94509500Y-86702135D01*
X94509500Y-88497870D01*
X94509501Y-88497876D01*
X94515908Y-88557483D01*
X94566202Y-88692328D01*
X94566206Y-88692335D01*
X94652452Y-88807544D01*
X94652455Y-88807547D01*
X94767664Y-88893793D01*
X94767671Y-88893797D01*
X94812618Y-88910561D01*
X94902517Y-88944091D01*
X94962127Y-88950500D01*
X95135500Y-88950499D01*
X95202539Y-88970183D01*
X95248294Y-89022987D01*
X95259500Y-89074499D01*
X95259500Y-101729330D01*
X95259499Y-101729348D01*
X95259499Y-101895054D01*
X95259498Y-101895054D01*
X95300424Y-102047787D01*
X95314432Y-102072049D01*
X95314433Y-102072051D01*
X95379477Y-102184712D01*
X95379481Y-102184717D01*
X95498349Y-102303585D01*
X95498355Y-102303590D01*
X98523425Y-105328660D01*
X98556910Y-105389983D01*
X98557361Y-105392149D01*
X98588261Y-105547491D01*
X98588264Y-105547501D01*
X98648602Y-105693172D01*
X98648609Y-105693185D01*
X98736210Y-105824288D01*
X98736213Y-105824292D01*
X98847707Y-105935786D01*
X98847711Y-105935789D01*
X98978814Y-106023390D01*
X98978827Y-106023397D01*
X99124445Y-106083713D01*
X99124503Y-106083737D01*
X99279153Y-106114499D01*
X99279156Y-106114500D01*
X99279158Y-106114500D01*
X99436844Y-106114500D01*
X99436845Y-106114499D01*
X99591497Y-106083737D01*
X99737179Y-106023394D01*
X99868289Y-105935789D01*
X99979789Y-105824289D01*
X100067394Y-105693179D01*
X100127737Y-105547497D01*
X100158500Y-105392842D01*
X100158500Y-105235158D01*
X100158500Y-105235155D01*
X100158499Y-105235153D01*
X100143528Y-105159890D01*
X100127737Y-105080503D01*
X100108868Y-105034949D01*
X100067397Y-104934827D01*
X100067390Y-104934814D01*
X99979789Y-104803711D01*
X99979786Y-104803707D01*
X99868292Y-104692213D01*
X99868288Y-104692210D01*
X99737185Y-104604609D01*
X99737172Y-104604602D01*
X99591501Y-104544264D01*
X99591491Y-104544261D01*
X99436149Y-104513361D01*
X99374238Y-104480976D01*
X99372660Y-104479425D01*
X96496819Y-101603584D01*
X96463334Y-101542261D01*
X96460500Y-101515903D01*
X96460500Y-89074499D01*
X96480185Y-89007460D01*
X96532989Y-88961705D01*
X96584500Y-88950499D01*
X96757871Y-88950499D01*
X96757872Y-88950499D01*
X96817483Y-88944091D01*
X96952331Y-88893796D01*
X97067546Y-88807546D01*
X97153796Y-88692331D01*
X97202810Y-88560916D01*
X97244681Y-88504984D01*
X97310145Y-88480566D01*
X97378418Y-88495417D01*
X97406673Y-88516569D01*
X97520213Y-88630109D01*
X97692179Y-88755048D01*
X97692181Y-88755049D01*
X97692184Y-88755051D01*
X97881588Y-88851557D01*
X98083757Y-88917246D01*
X98293713Y-88950500D01*
X98293714Y-88950500D01*
X98506286Y-88950500D01*
X98506287Y-88950500D01*
X98716243Y-88917246D01*
X98918412Y-88851557D01*
X99107816Y-88755051D01*
X99194138Y-88692335D01*
X99279786Y-88630109D01*
X99279788Y-88630106D01*
X99279792Y-88630104D01*
X99430104Y-88479792D01*
X99430106Y-88479788D01*
X99430109Y-88479786D01*
X99555048Y-88307820D01*
X99555047Y-88307820D01*
X99555051Y-88307816D01*
X99559514Y-88299054D01*
X99607488Y-88248259D01*
X99675308Y-88231463D01*
X99741444Y-88253999D01*
X99780486Y-88299056D01*
X99784951Y-88307820D01*
X99909890Y-88479786D01*
X100060213Y-88630109D01*
X100232179Y-88755048D01*
X100232181Y-88755049D01*
X100232184Y-88755051D01*
X100421588Y-88851557D01*
X100623757Y-88917246D01*
X100833713Y-88950500D01*
X100833714Y-88950500D01*
X101046286Y-88950500D01*
X101046287Y-88950500D01*
X101256243Y-88917246D01*
X101439986Y-88857543D01*
X101509822Y-88855549D01*
X101569655Y-88891629D01*
X101600484Y-88954330D01*
X101602300Y-88975475D01*
X101602300Y-103439114D01*
X101582615Y-103506153D01*
X101529811Y-103551908D01*
X101460653Y-103561852D01*
X101430848Y-103553675D01*
X101369501Y-103528264D01*
X101369489Y-103528261D01*
X101214845Y-103497500D01*
X101214842Y-103497500D01*
X101057158Y-103497500D01*
X101057155Y-103497500D01*
X100902510Y-103528261D01*
X100902498Y-103528264D01*
X100756827Y-103588602D01*
X100756814Y-103588609D01*
X100625711Y-103676210D01*
X100625707Y-103676213D01*
X100514213Y-103787707D01*
X100514210Y-103787711D01*
X100426609Y-103918814D01*
X100426602Y-103918827D01*
X100366264Y-104064498D01*
X100366261Y-104064510D01*
X100335500Y-104219153D01*
X100335500Y-104376846D01*
X100366261Y-104531489D01*
X100366264Y-104531501D01*
X100426602Y-104677172D01*
X100426609Y-104677185D01*
X100436651Y-104692213D01*
X100512047Y-104805051D01*
X100514602Y-104808874D01*
X100535480Y-104875551D01*
X100535500Y-104877765D01*
X100535500Y-108036234D01*
X100515815Y-108103273D01*
X100514602Y-108105125D01*
X100426609Y-108236814D01*
X100426602Y-108236827D01*
X100366264Y-108382498D01*
X100366261Y-108382510D01*
X100335500Y-108537153D01*
X100335500Y-108694846D01*
X100366261Y-108849489D01*
X100366264Y-108849501D01*
X100426602Y-108995172D01*
X100426609Y-108995185D01*
X100514210Y-109126288D01*
X100514213Y-109126292D01*
X100625707Y-109237786D01*
X100625711Y-109237789D01*
X100756814Y-109325390D01*
X100756827Y-109325397D01*
X100902498Y-109385735D01*
X100902503Y-109385737D01*
X101057153Y-109416499D01*
X101057156Y-109416500D01*
X101057158Y-109416500D01*
X101214844Y-109416500D01*
X101214845Y-109416499D01*
X101369497Y-109385737D01*
X101481206Y-109339465D01*
X101483153Y-109339256D01*
X101484716Y-109338074D01*
X101517737Y-109335538D01*
X101550673Y-109331997D01*
X101552425Y-109332874D01*
X101554381Y-109332724D01*
X101583542Y-109348450D01*
X101613153Y-109363272D01*
X101614700Y-109365252D01*
X101615878Y-109365888D01*
X101620078Y-109372138D01*
X101637177Y-109394031D01*
X101642381Y-109403445D01*
X101643223Y-109406585D01*
X101663710Y-109442069D01*
X101722279Y-109543514D01*
X101722281Y-109543517D01*
X101841149Y-109662385D01*
X101841155Y-109662390D01*
X102841425Y-110662660D01*
X102874910Y-110723983D01*
X102875361Y-110726149D01*
X102906261Y-110881491D01*
X102906264Y-110881501D01*
X102966602Y-111027172D01*
X102966609Y-111027185D01*
X103054210Y-111158288D01*
X103054213Y-111158292D01*
X103165707Y-111269786D01*
X103165711Y-111269789D01*
X103296814Y-111357390D01*
X103296827Y-111357397D01*
X103442498Y-111417735D01*
X103442503Y-111417737D01*
X103597153Y-111448499D01*
X103597156Y-111448500D01*
X103597158Y-111448500D01*
X103754844Y-111448500D01*
X103754845Y-111448499D01*
X103909497Y-111417737D01*
X104055179Y-111357394D01*
X104186289Y-111269789D01*
X104297789Y-111158289D01*
X104385394Y-111027179D01*
X104388953Y-111018588D01*
X104421297Y-110940500D01*
X104445737Y-110881497D01*
X104476500Y-110726842D01*
X104476500Y-110569158D01*
X104476500Y-110569155D01*
X104476499Y-110569153D01*
X104457384Y-110473057D01*
X104445737Y-110414503D01*
X104410533Y-110329512D01*
X104385397Y-110268827D01*
X104385390Y-110268814D01*
X104297789Y-110137711D01*
X104297786Y-110137707D01*
X104186292Y-110026213D01*
X104186288Y-110026210D01*
X104152619Y-110003713D01*
X110249500Y-110003713D01*
X110249500Y-110216287D01*
X110257446Y-110266455D01*
X110280895Y-110414510D01*
X110282754Y-110426243D01*
X110347589Y-110625785D01*
X110348444Y-110628414D01*
X110444951Y-110817820D01*
X110569890Y-110989786D01*
X110720213Y-111140109D01*
X110892182Y-111265050D01*
X110900946Y-111269516D01*
X110951742Y-111317491D01*
X110968536Y-111385312D01*
X110945998Y-111451447D01*
X110900946Y-111490484D01*
X110892182Y-111494949D01*
X110720213Y-111619890D01*
X110569890Y-111770213D01*
X110444951Y-111942179D01*
X110348444Y-112131585D01*
X110282753Y-112333760D01*
X110249500Y-112543713D01*
X110249500Y-112756286D01*
X110277046Y-112930208D01*
X110282754Y-112966243D01*
X110326922Y-113102179D01*
X110348444Y-113168414D01*
X110444951Y-113357820D01*
X110569890Y-113529786D01*
X110720213Y-113680109D01*
X110892182Y-113805050D01*
X110900946Y-113809516D01*
X110951742Y-113857491D01*
X110968536Y-113925312D01*
X110945998Y-113991447D01*
X110900946Y-114030484D01*
X110892182Y-114034949D01*
X110720213Y-114159890D01*
X110569890Y-114310213D01*
X110444951Y-114482179D01*
X110348444Y-114671585D01*
X110282753Y-114873760D01*
X110249500Y-115083713D01*
X110249500Y-115296286D01*
X110277046Y-115470208D01*
X110282754Y-115506243D01*
X110326922Y-115642179D01*
X110348444Y-115708414D01*
X110444951Y-115897820D01*
X110569890Y-116069786D01*
X110720213Y-116220109D01*
X110892182Y-116345050D01*
X110900946Y-116349516D01*
X110951742Y-116397491D01*
X110968536Y-116465312D01*
X110945998Y-116531447D01*
X110900946Y-116570484D01*
X110892182Y-116574949D01*
X110720213Y-116699890D01*
X110569890Y-116850213D01*
X110444951Y-117022179D01*
X110348444Y-117211585D01*
X110282753Y-117413760D01*
X110249500Y-117623713D01*
X110249500Y-117836286D01*
X110282753Y-118046239D01*
X110348444Y-118248414D01*
X110444951Y-118437820D01*
X110569890Y-118609786D01*
X110720213Y-118760109D01*
X110892182Y-118885050D01*
X110900946Y-118889516D01*
X110951742Y-118937491D01*
X110968536Y-119005312D01*
X110945998Y-119071447D01*
X110900946Y-119110484D01*
X110892182Y-119114949D01*
X110720213Y-119239890D01*
X110569890Y-119390213D01*
X110444951Y-119562179D01*
X110348444Y-119751585D01*
X110282753Y-119953760D01*
X110249500Y-120163713D01*
X110249500Y-120376286D01*
X110282753Y-120586239D01*
X110348444Y-120788414D01*
X110444951Y-120977820D01*
X110569890Y-121149786D01*
X110720213Y-121300109D01*
X110892179Y-121425048D01*
X110892181Y-121425049D01*
X110892184Y-121425051D01*
X111081588Y-121521557D01*
X111283757Y-121587246D01*
X111493713Y-121620500D01*
X111493714Y-121620500D01*
X111706286Y-121620500D01*
X111706287Y-121620500D01*
X111916243Y-121587246D01*
X112118412Y-121521557D01*
X112307816Y-121425051D01*
X112329789Y-121409086D01*
X112479786Y-121300109D01*
X112479788Y-121300106D01*
X112479792Y-121300104D01*
X112630104Y-121149792D01*
X112650577Y-121121613D01*
X112705906Y-121078949D01*
X112750894Y-121070500D01*
X144424844Y-121070500D01*
X144424845Y-121070499D01*
X144579497Y-121039737D01*
X144725179Y-120979394D01*
X144856289Y-120891789D01*
X154074034Y-111674043D01*
X154135355Y-111640560D01*
X154205047Y-111645544D01*
X154260980Y-111687416D01*
X154284186Y-111742327D01*
X154301753Y-111853240D01*
X154301754Y-111853243D01*
X154363470Y-112043185D01*
X154367444Y-112055414D01*
X154463951Y-112244820D01*
X154588890Y-112416786D01*
X154702430Y-112530326D01*
X154735915Y-112591649D01*
X154730931Y-112661341D01*
X154689059Y-112717274D01*
X154658083Y-112734189D01*
X154526669Y-112783203D01*
X154526664Y-112783206D01*
X154411455Y-112869452D01*
X154411452Y-112869455D01*
X154325206Y-112984664D01*
X154325202Y-112984671D01*
X154274908Y-113119517D01*
X154268501Y-113179116D01*
X154268501Y-113179123D01*
X154268500Y-113179135D01*
X154268500Y-114974870D01*
X154268501Y-114974876D01*
X154274908Y-115034483D01*
X154325202Y-115169328D01*
X154325206Y-115169335D01*
X154411452Y-115284544D01*
X154411455Y-115284547D01*
X154526664Y-115370793D01*
X154526671Y-115370797D01*
X154661517Y-115421091D01*
X154661516Y-115421091D01*
X154668444Y-115421835D01*
X154721127Y-115427500D01*
X156516872Y-115427499D01*
X156576483Y-115421091D01*
X156711331Y-115370796D01*
X156826546Y-115284546D01*
X156912796Y-115169331D01*
X156963091Y-115034483D01*
X156969500Y-114974873D01*
X156969499Y-113179128D01*
X156963091Y-113119517D01*
X156956626Y-113102184D01*
X156912797Y-112984671D01*
X156912793Y-112984664D01*
X156826547Y-112869455D01*
X156826544Y-112869452D01*
X156711335Y-112783206D01*
X156711328Y-112783202D01*
X156579917Y-112734189D01*
X156523983Y-112692318D01*
X156499566Y-112626853D01*
X156514418Y-112558580D01*
X156535563Y-112530332D01*
X156649104Y-112416792D01*
X156774051Y-112244816D01*
X156870557Y-112055412D01*
X156936246Y-111853243D01*
X156969500Y-111643287D01*
X156969500Y-111430713D01*
X156936246Y-111220757D01*
X156870557Y-111018588D01*
X156774051Y-110829184D01*
X156774049Y-110829181D01*
X156774048Y-110829179D01*
X156649109Y-110657213D01*
X156498786Y-110506890D01*
X156326820Y-110381951D01*
X156326115Y-110381591D01*
X156318054Y-110377485D01*
X156267259Y-110329512D01*
X156250463Y-110261692D01*
X156272999Y-110195556D01*
X156318054Y-110156515D01*
X156326816Y-110152051D01*
X156384026Y-110110486D01*
X156498786Y-110027109D01*
X156498788Y-110027106D01*
X156498792Y-110027104D01*
X156649104Y-109876792D01*
X156649106Y-109876788D01*
X156649109Y-109876786D01*
X156774048Y-109704820D01*
X156774047Y-109704820D01*
X156774051Y-109704816D01*
X156870557Y-109515412D01*
X156936246Y-109313243D01*
X156969500Y-109103287D01*
X156969500Y-108890713D01*
X156936246Y-108680757D01*
X156870557Y-108478588D01*
X156774051Y-108289184D01*
X156774049Y-108289181D01*
X156774048Y-108289179D01*
X156649109Y-108117213D01*
X156498786Y-107966890D01*
X156326817Y-107841949D01*
X156317504Y-107837204D01*
X156266707Y-107789230D01*
X156249912Y-107721409D01*
X156272449Y-107655274D01*
X156317507Y-107616232D01*
X156326558Y-107611620D01*
X156498459Y-107486727D01*
X156498464Y-107486723D01*
X156648723Y-107336464D01*
X156648727Y-107336459D01*
X156773620Y-107164557D01*
X156870095Y-106975217D01*
X156935757Y-106773129D01*
X156935757Y-106773126D01*
X156946231Y-106707000D01*
X156052012Y-106707000D01*
X156084925Y-106649993D01*
X156119000Y-106522826D01*
X156119000Y-106391174D01*
X156084925Y-106264007D01*
X156052012Y-106207000D01*
X156946231Y-106207000D01*
X156935757Y-106140873D01*
X156935757Y-106140870D01*
X156870095Y-105938782D01*
X156773620Y-105749442D01*
X156648727Y-105577540D01*
X156648723Y-105577535D01*
X156498464Y-105427276D01*
X156498459Y-105427272D01*
X156326557Y-105302379D01*
X156137215Y-105205903D01*
X155935124Y-105140241D01*
X155869000Y-105129768D01*
X155869000Y-106023988D01*
X155811993Y-105991075D01*
X155684826Y-105957000D01*
X155553174Y-105957000D01*
X155426007Y-105991075D01*
X155369000Y-106023988D01*
X155369000Y-105129768D01*
X155368999Y-105129768D01*
X155302875Y-105140241D01*
X155100784Y-105205903D01*
X154911442Y-105302379D01*
X154739540Y-105427272D01*
X154739535Y-105427276D01*
X154589276Y-105577535D01*
X154589272Y-105577540D01*
X154464379Y-105749442D01*
X154367904Y-105938782D01*
X154302242Y-106140870D01*
X154302242Y-106140873D01*
X154291769Y-106207000D01*
X155185988Y-106207000D01*
X155153075Y-106264007D01*
X155119000Y-106391174D01*
X155119000Y-106522826D01*
X155153075Y-106649993D01*
X155185988Y-106707000D01*
X154291769Y-106707000D01*
X154302242Y-106773126D01*
X154302242Y-106773129D01*
X154367904Y-106975217D01*
X154464379Y-107164557D01*
X154589272Y-107336459D01*
X154589276Y-107336464D01*
X154739535Y-107486723D01*
X154739540Y-107486727D01*
X154911444Y-107611622D01*
X154920495Y-107616234D01*
X154971292Y-107664208D01*
X154988087Y-107732029D01*
X154965550Y-107798164D01*
X154920499Y-107837202D01*
X154911182Y-107841949D01*
X154739213Y-107966890D01*
X154588890Y-108117213D01*
X154463951Y-108289179D01*
X154367444Y-108478585D01*
X154301753Y-108680760D01*
X154268500Y-108890713D01*
X154268500Y-109103287D01*
X154268499Y-109103287D01*
X154273948Y-109137686D01*
X154264993Y-109206979D01*
X154239156Y-109244764D01*
X144050741Y-119433181D01*
X143989418Y-119466666D01*
X143963060Y-119469500D01*
X112750894Y-119469500D01*
X112683855Y-119449815D01*
X112650577Y-119418387D01*
X112630104Y-119390208D01*
X112479792Y-119239896D01*
X112479786Y-119239890D01*
X112307820Y-119114951D01*
X112307115Y-119114591D01*
X112299054Y-119110485D01*
X112248259Y-119062512D01*
X112231463Y-118994692D01*
X112253999Y-118928556D01*
X112299054Y-118889515D01*
X112307816Y-118885051D01*
X112329789Y-118869086D01*
X112479786Y-118760109D01*
X112479788Y-118760106D01*
X112479792Y-118760104D01*
X112630104Y-118609792D01*
X112630106Y-118609788D01*
X112630109Y-118609786D01*
X112755048Y-118437820D01*
X112755047Y-118437820D01*
X112755051Y-118437816D01*
X112851557Y-118248412D01*
X112917246Y-118046243D01*
X112950500Y-117836287D01*
X112950500Y-117623713D01*
X112917246Y-117413757D01*
X112851557Y-117211588D01*
X112755051Y-117022184D01*
X112755049Y-117022181D01*
X112755048Y-117022179D01*
X112630109Y-116850213D01*
X112479786Y-116699890D01*
X112307820Y-116574951D01*
X112307115Y-116574591D01*
X112299054Y-116570485D01*
X112248259Y-116522512D01*
X112231463Y-116454692D01*
X112253999Y-116388556D01*
X112299054Y-116349515D01*
X112307816Y-116345051D01*
X112447297Y-116243713D01*
X112479786Y-116220109D01*
X112479788Y-116220106D01*
X112479792Y-116220104D01*
X112630104Y-116069792D01*
X112630106Y-116069788D01*
X112630109Y-116069786D01*
X112755048Y-115897820D01*
X112755047Y-115897820D01*
X112755051Y-115897816D01*
X112851557Y-115708412D01*
X112917246Y-115506243D01*
X112950500Y-115296287D01*
X112950500Y-115083713D01*
X112917246Y-114873757D01*
X112851557Y-114671588D01*
X112755051Y-114482184D01*
X112755049Y-114482181D01*
X112755048Y-114482179D01*
X112630109Y-114310213D01*
X112479786Y-114159890D01*
X112307820Y-114034951D01*
X112307115Y-114034591D01*
X112299054Y-114030485D01*
X112248259Y-113982512D01*
X112231463Y-113914692D01*
X112253999Y-113848556D01*
X112299054Y-113809515D01*
X112307816Y-113805051D01*
X112447297Y-113703713D01*
X112479786Y-113680109D01*
X112479788Y-113680106D01*
X112479792Y-113680104D01*
X112630104Y-113529792D01*
X112630106Y-113529788D01*
X112630109Y-113529786D01*
X112755048Y-113357820D01*
X112755047Y-113357820D01*
X112755051Y-113357816D01*
X112851557Y-113168412D01*
X112917246Y-112966243D01*
X112950500Y-112756287D01*
X112950500Y-112543713D01*
X112917246Y-112333757D01*
X112851557Y-112131588D01*
X112755051Y-111942184D01*
X112755049Y-111942181D01*
X112755048Y-111942179D01*
X112630109Y-111770213D01*
X112479786Y-111619890D01*
X112307820Y-111494951D01*
X112307115Y-111494591D01*
X112299054Y-111490485D01*
X112248259Y-111442512D01*
X112231463Y-111374692D01*
X112253999Y-111308556D01*
X112299054Y-111269515D01*
X112307816Y-111265051D01*
X112447297Y-111163713D01*
X112479786Y-111140109D01*
X112479788Y-111140106D01*
X112479792Y-111140104D01*
X112630104Y-110989792D01*
X112630106Y-110989788D01*
X112630109Y-110989786D01*
X112755048Y-110817820D01*
X112755047Y-110817820D01*
X112755051Y-110817816D01*
X112851557Y-110628412D01*
X112917246Y-110426243D01*
X112950500Y-110216287D01*
X112950500Y-110003713D01*
X112917246Y-109793757D01*
X112851557Y-109591588D01*
X112755051Y-109402184D01*
X112755049Y-109402181D01*
X112755048Y-109402179D01*
X112630109Y-109230213D01*
X112516181Y-109116285D01*
X112482696Y-109054962D01*
X112487680Y-108985270D01*
X112529552Y-108929337D01*
X112560529Y-108912422D01*
X112692086Y-108863354D01*
X112692093Y-108863350D01*
X112807187Y-108777190D01*
X112807190Y-108777187D01*
X112893350Y-108662093D01*
X112893354Y-108662086D01*
X112943596Y-108527379D01*
X112943598Y-108527372D01*
X112949999Y-108467844D01*
X112950000Y-108467827D01*
X112950000Y-107820000D01*
X112033012Y-107820000D01*
X112065925Y-107762993D01*
X112100000Y-107635826D01*
X112100000Y-107504174D01*
X112065925Y-107377007D01*
X112033012Y-107320000D01*
X112950000Y-107320000D01*
X112950000Y-106672172D01*
X112949999Y-106672155D01*
X112943598Y-106612627D01*
X112943596Y-106612620D01*
X112893354Y-106477913D01*
X112893350Y-106477906D01*
X112807190Y-106362812D01*
X112807187Y-106362809D01*
X112692093Y-106276649D01*
X112692086Y-106276645D01*
X112557379Y-106226403D01*
X112557372Y-106226401D01*
X112497844Y-106220000D01*
X111850000Y-106220000D01*
X111850000Y-107136988D01*
X111792993Y-107104075D01*
X111665826Y-107070000D01*
X111534174Y-107070000D01*
X111407007Y-107104075D01*
X111350000Y-107136988D01*
X111350000Y-106220000D01*
X110702155Y-106220000D01*
X110642627Y-106226401D01*
X110642620Y-106226403D01*
X110507913Y-106276645D01*
X110507906Y-106276649D01*
X110392812Y-106362809D01*
X110392809Y-106362812D01*
X110306649Y-106477906D01*
X110306645Y-106477913D01*
X110256403Y-106612620D01*
X110256401Y-106612627D01*
X110250000Y-106672155D01*
X110250000Y-107320000D01*
X111166988Y-107320000D01*
X111134075Y-107377007D01*
X111100000Y-107504174D01*
X111100000Y-107635826D01*
X111134075Y-107762993D01*
X111166988Y-107820000D01*
X110250000Y-107820000D01*
X110250000Y-108467844D01*
X110256401Y-108527372D01*
X110256403Y-108527379D01*
X110306645Y-108662086D01*
X110306649Y-108662093D01*
X110392809Y-108777187D01*
X110392812Y-108777190D01*
X110507906Y-108863350D01*
X110507913Y-108863354D01*
X110639470Y-108912422D01*
X110695404Y-108954293D01*
X110719821Y-109019758D01*
X110704969Y-109088031D01*
X110683819Y-109116285D01*
X110569889Y-109230215D01*
X110444951Y-109402179D01*
X110348444Y-109591585D01*
X110282753Y-109793760D01*
X110250088Y-110000000D01*
X110249500Y-110003713D01*
X104152619Y-110003713D01*
X104055185Y-109938609D01*
X104055172Y-109938602D01*
X103909501Y-109878264D01*
X103909491Y-109878261D01*
X103754149Y-109847361D01*
X103692238Y-109814976D01*
X103690660Y-109813425D01*
X102839619Y-108962384D01*
X102806134Y-108901061D01*
X102803300Y-108874703D01*
X102803300Y-88970797D01*
X102822985Y-88903758D01*
X102875789Y-88858003D01*
X102944947Y-88848059D01*
X102965613Y-88852864D01*
X103163757Y-88917246D01*
X103373713Y-88950500D01*
X103373714Y-88950500D01*
X103586286Y-88950500D01*
X103586287Y-88950500D01*
X103796243Y-88917246D01*
X103998412Y-88851557D01*
X104187816Y-88755051D01*
X104274138Y-88692335D01*
X104359786Y-88630109D01*
X104359788Y-88630106D01*
X104359792Y-88630104D01*
X104510104Y-88479792D01*
X104510106Y-88479788D01*
X104510109Y-88479786D01*
X104635048Y-88307820D01*
X104635047Y-88307820D01*
X104635051Y-88307816D01*
X104639514Y-88299054D01*
X104687488Y-88248259D01*
X104755308Y-88231463D01*
X104821444Y-88253999D01*
X104860486Y-88299056D01*
X104864951Y-88307820D01*
X104989890Y-88479786D01*
X105140213Y-88630109D01*
X105312184Y-88755051D01*
X105312184Y-88755052D01*
X105351793Y-88775233D01*
X105402590Y-88823206D01*
X105419500Y-88885718D01*
X105419500Y-95379330D01*
X105419499Y-95379348D01*
X105419499Y-95545054D01*
X105419498Y-95545054D01*
X105460423Y-95697785D01*
X105489358Y-95747900D01*
X105489359Y-95747904D01*
X105489360Y-95747904D01*
X105539479Y-95834714D01*
X105539481Y-95834717D01*
X105658349Y-95953585D01*
X105658355Y-95953590D01*
X118279181Y-108574416D01*
X118312666Y-108635739D01*
X118315500Y-108662097D01*
X118315500Y-110307330D01*
X118315499Y-110307348D01*
X118315499Y-110473054D01*
X118315498Y-110473054D01*
X118339381Y-110562184D01*
X118356423Y-110625785D01*
X118370571Y-110650289D01*
X118413118Y-110723983D01*
X118435479Y-110762715D01*
X118554349Y-110881585D01*
X118554355Y-110881590D01*
X119351425Y-111678660D01*
X119384910Y-111739983D01*
X119385361Y-111742149D01*
X119416261Y-111897491D01*
X119416264Y-111897501D01*
X119476602Y-112043172D01*
X119476609Y-112043185D01*
X119564210Y-112174288D01*
X119564213Y-112174292D01*
X119675707Y-112285786D01*
X119675711Y-112285789D01*
X119806814Y-112373390D01*
X119806827Y-112373397D01*
X119952498Y-112433735D01*
X119952503Y-112433737D01*
X120107153Y-112464499D01*
X120107156Y-112464500D01*
X120107158Y-112464500D01*
X120264844Y-112464500D01*
X120264845Y-112464499D01*
X120419497Y-112433737D01*
X120565179Y-112373394D01*
X120696289Y-112285789D01*
X120807789Y-112174289D01*
X120895394Y-112043179D01*
X120955737Y-111897497D01*
X120977029Y-111790454D01*
X121009413Y-111728544D01*
X121070129Y-111693970D01*
X121074448Y-111693030D01*
X121181497Y-111671737D01*
X121327179Y-111611394D01*
X121458289Y-111523789D01*
X121569789Y-111412289D01*
X121657394Y-111281179D01*
X121717737Y-111135497D01*
X121739029Y-111028454D01*
X121771413Y-110966544D01*
X121832129Y-110931970D01*
X121836448Y-110931030D01*
X121943497Y-110909737D01*
X122089179Y-110849394D01*
X122220289Y-110761789D01*
X122258095Y-110723983D01*
X122331788Y-110650291D01*
X122331789Y-110650289D01*
X122419394Y-110519179D01*
X122479737Y-110373497D01*
X122501029Y-110266454D01*
X122533413Y-110204544D01*
X122594129Y-110169970D01*
X122598448Y-110169030D01*
X122705497Y-110147737D01*
X122851179Y-110087394D01*
X122982289Y-109999789D01*
X123093789Y-109888289D01*
X123181394Y-109757179D01*
X123241737Y-109611497D01*
X123263029Y-109504454D01*
X123295413Y-109442544D01*
X123356129Y-109407970D01*
X123360448Y-109407030D01*
X123467497Y-109385737D01*
X123613179Y-109325394D01*
X123744289Y-109237789D01*
X123855789Y-109126289D01*
X123943394Y-108995179D01*
X124003737Y-108849497D01*
X124034500Y-108694842D01*
X124034500Y-108537158D01*
X124034500Y-108537155D01*
X124034499Y-108537153D01*
X124032553Y-108527372D01*
X124003737Y-108382503D01*
X124003735Y-108382498D01*
X123943397Y-108236827D01*
X123943390Y-108236814D01*
X123855789Y-108105711D01*
X123855786Y-108105707D01*
X123744292Y-107994213D01*
X123744288Y-107994210D01*
X123613185Y-107906609D01*
X123613172Y-107906602D01*
X123467501Y-107846264D01*
X123467491Y-107846261D01*
X123312149Y-107815361D01*
X123250238Y-107782976D01*
X123248660Y-107781425D01*
X122600819Y-107133584D01*
X122567334Y-107072261D01*
X122564500Y-107045903D01*
X122564500Y-105996946D01*
X122564499Y-105996939D01*
X122549109Y-105939501D01*
X122523577Y-105844215D01*
X122494639Y-105794095D01*
X122444520Y-105707284D01*
X122332716Y-105595480D01*
X122332715Y-105595479D01*
X122328385Y-105591149D01*
X122328374Y-105591139D01*
X116816819Y-100079584D01*
X116783334Y-100018261D01*
X116780500Y-99991903D01*
X116780500Y-88885718D01*
X116800185Y-88818679D01*
X116848207Y-88775233D01*
X116887815Y-88755052D01*
X116887815Y-88755051D01*
X116887816Y-88755051D01*
X117024149Y-88656000D01*
X117059786Y-88630109D01*
X117059788Y-88630106D01*
X117059792Y-88630104D01*
X117210104Y-88479792D01*
X117210106Y-88479788D01*
X117210109Y-88479786D01*
X117335048Y-88307820D01*
X117335047Y-88307820D01*
X117335051Y-88307816D01*
X117339514Y-88299054D01*
X117387488Y-88248259D01*
X117455308Y-88231463D01*
X117521444Y-88253999D01*
X117560486Y-88299056D01*
X117564951Y-88307820D01*
X117689890Y-88479786D01*
X117840213Y-88630109D01*
X118012184Y-88755051D01*
X118012184Y-88755052D01*
X118051793Y-88775233D01*
X118102590Y-88823206D01*
X118119500Y-88885718D01*
X118119500Y-92077330D01*
X118119499Y-92077348D01*
X118119499Y-92243054D01*
X118119498Y-92243054D01*
X118160423Y-92395785D01*
X118189358Y-92445900D01*
X118189359Y-92445904D01*
X118189360Y-92445904D01*
X118239479Y-92532714D01*
X118239481Y-92532717D01*
X118358349Y-92651585D01*
X118358355Y-92651590D01*
X127067139Y-101360374D01*
X127067149Y-101360385D01*
X127071479Y-101364715D01*
X127071480Y-101364716D01*
X127183284Y-101476520D01*
X127234845Y-101506288D01*
X127270095Y-101526639D01*
X127270097Y-101526641D01*
X127297152Y-101542261D01*
X127320215Y-101555577D01*
X127472943Y-101596500D01*
X127631057Y-101596500D01*
X133576234Y-101596500D01*
X133643273Y-101616185D01*
X133645125Y-101617398D01*
X133776814Y-101705390D01*
X133776827Y-101705397D01*
X133922498Y-101765735D01*
X133922503Y-101765737D01*
X134077153Y-101796499D01*
X134077156Y-101796500D01*
X134077158Y-101796500D01*
X134234844Y-101796500D01*
X134234845Y-101796499D01*
X134389497Y-101765737D01*
X134535179Y-101705394D01*
X134666289Y-101617789D01*
X134777789Y-101506289D01*
X134865394Y-101375179D01*
X134925737Y-101229497D01*
X134956500Y-101074842D01*
X134956500Y-101003713D01*
X175749500Y-101003713D01*
X175749500Y-101216286D01*
X175773008Y-101364713D01*
X175782754Y-101426243D01*
X175844991Y-101617789D01*
X175848444Y-101628414D01*
X175944951Y-101817820D01*
X176069890Y-101989786D01*
X176220213Y-102140109D01*
X176392182Y-102265050D01*
X176400946Y-102269516D01*
X176451742Y-102317491D01*
X176468536Y-102385312D01*
X176445998Y-102451447D01*
X176400946Y-102490484D01*
X176392182Y-102494949D01*
X176220213Y-102619890D01*
X176069890Y-102770213D01*
X175944951Y-102942179D01*
X175848444Y-103131585D01*
X175782753Y-103333760D01*
X175766067Y-103439114D01*
X175749500Y-103543713D01*
X175749500Y-103756287D01*
X175754477Y-103787711D01*
X175782753Y-103966239D01*
X175848444Y-104168414D01*
X175944951Y-104357820D01*
X176069890Y-104529786D01*
X176220213Y-104680109D01*
X176392182Y-104805050D01*
X176400946Y-104809516D01*
X176451742Y-104857491D01*
X176468536Y-104925312D01*
X176445998Y-104991447D01*
X176400946Y-105030484D01*
X176392182Y-105034949D01*
X176220213Y-105159890D01*
X176069890Y-105310213D01*
X175944951Y-105482179D01*
X175848444Y-105671585D01*
X175782753Y-105873760D01*
X175759054Y-106023390D01*
X175749500Y-106083713D01*
X175749500Y-106296287D01*
X175782754Y-106506243D01*
X175847984Y-106707000D01*
X175848444Y-106708414D01*
X175944951Y-106897820D01*
X176069890Y-107069786D01*
X176220213Y-107220109D01*
X176392182Y-107345050D01*
X176400946Y-107349516D01*
X176451742Y-107397491D01*
X176468536Y-107465312D01*
X176445998Y-107531447D01*
X176400946Y-107570484D01*
X176392182Y-107574949D01*
X176220213Y-107699890D01*
X176069890Y-107850213D01*
X175944951Y-108022179D01*
X175848444Y-108211585D01*
X175782753Y-108413760D01*
X175749500Y-108623713D01*
X175749500Y-108836286D01*
X175763719Y-108926065D01*
X175782754Y-109046243D01*
X175844991Y-109237789D01*
X175848444Y-109248414D01*
X175944951Y-109437820D01*
X176069890Y-109609786D01*
X176220213Y-109760109D01*
X176392182Y-109885050D01*
X176400946Y-109889516D01*
X176451742Y-109937491D01*
X176468536Y-110005312D01*
X176445998Y-110071447D01*
X176400946Y-110110484D01*
X176392182Y-110114949D01*
X176220213Y-110239890D01*
X176069890Y-110390213D01*
X175944951Y-110562179D01*
X175848444Y-110751585D01*
X175848443Y-110751587D01*
X175848443Y-110751588D01*
X175844828Y-110762715D01*
X175782753Y-110953760D01*
X175750359Y-111158288D01*
X175749500Y-111163713D01*
X175749500Y-111376287D01*
X175782754Y-111586243D01*
X175833636Y-111742842D01*
X175848444Y-111788414D01*
X175944951Y-111977820D01*
X176069890Y-112149786D01*
X176220213Y-112300109D01*
X176392182Y-112425050D01*
X176400946Y-112429516D01*
X176451742Y-112477491D01*
X176468536Y-112545312D01*
X176445998Y-112611447D01*
X176400946Y-112650484D01*
X176392182Y-112654949D01*
X176220213Y-112779890D01*
X176069890Y-112930213D01*
X175944951Y-113102179D01*
X175848444Y-113291585D01*
X175782753Y-113493760D01*
X175749500Y-113703713D01*
X175749500Y-113916287D01*
X175753009Y-113938443D01*
X175782753Y-114126239D01*
X175848444Y-114328414D01*
X175944951Y-114517820D01*
X176069890Y-114689786D01*
X176220213Y-114840109D01*
X176392182Y-114965050D01*
X176400946Y-114969516D01*
X176451742Y-115017491D01*
X176468536Y-115085312D01*
X176445998Y-115151447D01*
X176400946Y-115190484D01*
X176392182Y-115194949D01*
X176220213Y-115319890D01*
X176069890Y-115470213D01*
X175944951Y-115642179D01*
X175848444Y-115831585D01*
X175782753Y-116033760D01*
X175749500Y-116243713D01*
X175749500Y-116456287D01*
X175753009Y-116478443D01*
X175782753Y-116666239D01*
X175848444Y-116868414D01*
X175944951Y-117057820D01*
X176069890Y-117229786D01*
X176220213Y-117380109D01*
X176392179Y-117505048D01*
X176392181Y-117505049D01*
X176392184Y-117505051D01*
X176581588Y-117601557D01*
X176783757Y-117667246D01*
X176993713Y-117700500D01*
X176993714Y-117700500D01*
X177206286Y-117700500D01*
X177206287Y-117700500D01*
X177416243Y-117667246D01*
X177618412Y-117601557D01*
X177807816Y-117505051D01*
X177829789Y-117489086D01*
X177979786Y-117380109D01*
X177979788Y-117380106D01*
X177979792Y-117380104D01*
X178130104Y-117229792D01*
X178130106Y-117229788D01*
X178130109Y-117229786D01*
X178255048Y-117057820D01*
X178255047Y-117057820D01*
X178255051Y-117057816D01*
X178351557Y-116868412D01*
X178417246Y-116666243D01*
X178450500Y-116456287D01*
X178450500Y-116243713D01*
X178417246Y-116033757D01*
X178351557Y-115831588D01*
X178255051Y-115642184D01*
X178255049Y-115642181D01*
X178255048Y-115642179D01*
X178130109Y-115470213D01*
X177979786Y-115319890D01*
X177807820Y-115194951D01*
X177807115Y-115194591D01*
X177799054Y-115190485D01*
X177748259Y-115142512D01*
X177731463Y-115074692D01*
X177753999Y-115008556D01*
X177799054Y-114969515D01*
X177807816Y-114965051D01*
X177829789Y-114949086D01*
X177979786Y-114840109D01*
X177979788Y-114840106D01*
X177979792Y-114840104D01*
X178130104Y-114689792D01*
X178130106Y-114689788D01*
X178130109Y-114689786D01*
X178255048Y-114517820D01*
X178255047Y-114517820D01*
X178255051Y-114517816D01*
X178351557Y-114328412D01*
X178417246Y-114126243D01*
X178450500Y-113916287D01*
X178450500Y-113703713D01*
X178417246Y-113493757D01*
X178351557Y-113291588D01*
X178255051Y-113102184D01*
X178255049Y-113102181D01*
X178255048Y-113102179D01*
X178130109Y-112930213D01*
X177979786Y-112779890D01*
X177807820Y-112654951D01*
X177807115Y-112654591D01*
X177799054Y-112650485D01*
X177748259Y-112602512D01*
X177731463Y-112534692D01*
X177753999Y-112468556D01*
X177799054Y-112429515D01*
X177807816Y-112425051D01*
X177878912Y-112373397D01*
X177979786Y-112300109D01*
X177979788Y-112300106D01*
X177979792Y-112300104D01*
X178130104Y-112149792D01*
X178130106Y-112149788D01*
X178130109Y-112149786D01*
X178255048Y-111977820D01*
X178255047Y-111977820D01*
X178255051Y-111977816D01*
X178351557Y-111788412D01*
X178417246Y-111586243D01*
X178450500Y-111376287D01*
X178450500Y-111163713D01*
X178417246Y-110953757D01*
X178351557Y-110751588D01*
X178255051Y-110562184D01*
X178255049Y-110562181D01*
X178255048Y-110562179D01*
X178130109Y-110390213D01*
X177979786Y-110239890D01*
X177807820Y-110114951D01*
X177807115Y-110114591D01*
X177799054Y-110110485D01*
X177748259Y-110062512D01*
X177731463Y-109994692D01*
X177753999Y-109928556D01*
X177799054Y-109889515D01*
X177807816Y-109885051D01*
X177904267Y-109814976D01*
X177979786Y-109760109D01*
X177979788Y-109760106D01*
X177979792Y-109760104D01*
X178130104Y-109609792D01*
X178130106Y-109609788D01*
X178130109Y-109609786D01*
X178255048Y-109437820D01*
X178255047Y-109437820D01*
X178255051Y-109437816D01*
X178351557Y-109248412D01*
X178417246Y-109046243D01*
X178450500Y-108836287D01*
X178450500Y-108623713D01*
X178417246Y-108413757D01*
X178351557Y-108211588D01*
X178255051Y-108022184D01*
X178255049Y-108022181D01*
X178255048Y-108022179D01*
X178130109Y-107850213D01*
X177979786Y-107699890D01*
X177807820Y-107574951D01*
X177807115Y-107574591D01*
X177799054Y-107570485D01*
X177748259Y-107522512D01*
X177731463Y-107454692D01*
X177753999Y-107388556D01*
X177799054Y-107349515D01*
X177807816Y-107345051D01*
X177920760Y-107262993D01*
X177979786Y-107220109D01*
X177979788Y-107220106D01*
X177979792Y-107220104D01*
X178130104Y-107069792D01*
X178130106Y-107069788D01*
X178130109Y-107069786D01*
X178255048Y-106897820D01*
X178255047Y-106897820D01*
X178255051Y-106897816D01*
X178351557Y-106708412D01*
X178417246Y-106506243D01*
X178450500Y-106296287D01*
X178450500Y-106083713D01*
X178417246Y-105873757D01*
X178351557Y-105671588D01*
X178255051Y-105482184D01*
X178255049Y-105482181D01*
X178255048Y-105482179D01*
X178130109Y-105310213D01*
X177979786Y-105159890D01*
X177807820Y-105034951D01*
X177807115Y-105034591D01*
X177799054Y-105030485D01*
X177748259Y-104982512D01*
X177731463Y-104914692D01*
X177753999Y-104848556D01*
X177799054Y-104809515D01*
X177807816Y-104805051D01*
X177829789Y-104789086D01*
X177979786Y-104680109D01*
X177979788Y-104680106D01*
X177979792Y-104680104D01*
X178130104Y-104529792D01*
X178130106Y-104529788D01*
X178130109Y-104529786D01*
X178255048Y-104357820D01*
X178255047Y-104357820D01*
X178255051Y-104357816D01*
X178351557Y-104168412D01*
X178417246Y-103966243D01*
X178450500Y-103756287D01*
X178450500Y-103543713D01*
X178417246Y-103333757D01*
X178351557Y-103131588D01*
X178255051Y-102942184D01*
X178255049Y-102942181D01*
X178255048Y-102942179D01*
X178130109Y-102770213D01*
X177979786Y-102619890D01*
X177807820Y-102494951D01*
X177807115Y-102494591D01*
X177799054Y-102490485D01*
X177748259Y-102442512D01*
X177731463Y-102374692D01*
X177753999Y-102308556D01*
X177799054Y-102269515D01*
X177807816Y-102265051D01*
X177829789Y-102249086D01*
X177979786Y-102140109D01*
X177979788Y-102140106D01*
X177979792Y-102140104D01*
X178130104Y-101989792D01*
X178130106Y-101989788D01*
X178130109Y-101989786D01*
X178255048Y-101817820D01*
X178255047Y-101817820D01*
X178255051Y-101817816D01*
X178351557Y-101628412D01*
X178417246Y-101426243D01*
X178450500Y-101216287D01*
X178450500Y-101003713D01*
X178417246Y-100793757D01*
X178351557Y-100591588D01*
X178255051Y-100402184D01*
X178255049Y-100402181D01*
X178255048Y-100402179D01*
X178130109Y-100230213D01*
X178016181Y-100116285D01*
X177982696Y-100054962D01*
X177987680Y-99985270D01*
X178029552Y-99929337D01*
X178060529Y-99912422D01*
X178192086Y-99863354D01*
X178192093Y-99863350D01*
X178307187Y-99777190D01*
X178307190Y-99777187D01*
X178393350Y-99662093D01*
X178393354Y-99662086D01*
X178443596Y-99527379D01*
X178443598Y-99527372D01*
X178449999Y-99467844D01*
X178450000Y-99467827D01*
X178450000Y-98820000D01*
X177533012Y-98820000D01*
X177565925Y-98762993D01*
X177600000Y-98635826D01*
X177600000Y-98504174D01*
X177565925Y-98377007D01*
X177533012Y-98320000D01*
X178450000Y-98320000D01*
X178450000Y-97672172D01*
X178449999Y-97672155D01*
X178443598Y-97612627D01*
X178443596Y-97612620D01*
X178393354Y-97477913D01*
X178393350Y-97477906D01*
X178307190Y-97362812D01*
X178307187Y-97362809D01*
X178192093Y-97276649D01*
X178192086Y-97276645D01*
X178057379Y-97226403D01*
X178057372Y-97226401D01*
X177997844Y-97220000D01*
X177350000Y-97220000D01*
X177350000Y-98136988D01*
X177292993Y-98104075D01*
X177165826Y-98070000D01*
X177034174Y-98070000D01*
X176907007Y-98104075D01*
X176850000Y-98136988D01*
X176850000Y-97220000D01*
X176202155Y-97220000D01*
X176142627Y-97226401D01*
X176142620Y-97226403D01*
X176007913Y-97276645D01*
X176007906Y-97276649D01*
X175892812Y-97362809D01*
X175892809Y-97362812D01*
X175806649Y-97477906D01*
X175806645Y-97477913D01*
X175756403Y-97612620D01*
X175756401Y-97612627D01*
X175750000Y-97672155D01*
X175750000Y-98320000D01*
X176666988Y-98320000D01*
X176634075Y-98377007D01*
X176600000Y-98504174D01*
X176600000Y-98635826D01*
X176634075Y-98762993D01*
X176666988Y-98820000D01*
X175750000Y-98820000D01*
X175750000Y-99467844D01*
X175756401Y-99527372D01*
X175756403Y-99527379D01*
X175806645Y-99662086D01*
X175806649Y-99662093D01*
X175892809Y-99777187D01*
X175892812Y-99777190D01*
X176007906Y-99863350D01*
X176007913Y-99863354D01*
X176139470Y-99912422D01*
X176195404Y-99954293D01*
X176219821Y-100019758D01*
X176204969Y-100088031D01*
X176183819Y-100116285D01*
X176069889Y-100230215D01*
X175944951Y-100402179D01*
X175848444Y-100591585D01*
X175782753Y-100793760D01*
X175749500Y-101003713D01*
X134956500Y-101003713D01*
X134956500Y-100917158D01*
X134956500Y-100917155D01*
X134956499Y-100917153D01*
X134925738Y-100762510D01*
X134925737Y-100762503D01*
X134925735Y-100762498D01*
X134865397Y-100616827D01*
X134865390Y-100616814D01*
X134777789Y-100485711D01*
X134777786Y-100485707D01*
X134666292Y-100374213D01*
X134666288Y-100374210D01*
X134535185Y-100286609D01*
X134535172Y-100286602D01*
X134389501Y-100226264D01*
X134389491Y-100226261D01*
X134282454Y-100204970D01*
X134220543Y-100172585D01*
X134185969Y-100111869D01*
X134185029Y-100107544D01*
X134179467Y-100079584D01*
X134163737Y-100000503D01*
X134144868Y-99954949D01*
X134103397Y-99854827D01*
X134103390Y-99854814D01*
X134015789Y-99723711D01*
X134015786Y-99723707D01*
X133904292Y-99612213D01*
X133904288Y-99612210D01*
X133773185Y-99524609D01*
X133773172Y-99524602D01*
X133627501Y-99464264D01*
X133627489Y-99464261D01*
X133472845Y-99433500D01*
X133472842Y-99433500D01*
X133315158Y-99433500D01*
X133315155Y-99433500D01*
X133160510Y-99464261D01*
X133160498Y-99464264D01*
X133014827Y-99524602D01*
X133014814Y-99524609D01*
X132883125Y-99612602D01*
X132816447Y-99633480D01*
X132814234Y-99633500D01*
X128106097Y-99633500D01*
X128039058Y-99613815D01*
X128018416Y-99597181D01*
X125766970Y-97345735D01*
X129530082Y-97345735D01*
X129530082Y-97503428D01*
X129560843Y-97658071D01*
X129560846Y-97658083D01*
X129621184Y-97803754D01*
X129621191Y-97803767D01*
X129708792Y-97934870D01*
X129708795Y-97934874D01*
X129820289Y-98046368D01*
X129820293Y-98046371D01*
X129951396Y-98133972D01*
X129951409Y-98133979D01*
X130038134Y-98169901D01*
X130097085Y-98194319D01*
X130251735Y-98225081D01*
X130251738Y-98225082D01*
X130251740Y-98225082D01*
X130409426Y-98225082D01*
X130409427Y-98225081D01*
X130564079Y-98194319D01*
X130709761Y-98133976D01*
X130840871Y-98046371D01*
X130952371Y-97934871D01*
X131039976Y-97803761D01*
X131100319Y-97658079D01*
X131100321Y-97658071D01*
X131102989Y-97644658D01*
X131131220Y-97502732D01*
X131163605Y-97440821D01*
X131165100Y-97439298D01*
X137780319Y-90824080D01*
X137841642Y-90790595D01*
X137911334Y-90795579D01*
X137967267Y-90837451D01*
X137991684Y-90902915D01*
X137992000Y-90911761D01*
X137992000Y-96406000D01*
X157492000Y-96406000D01*
X157492000Y-89906000D01*
X144870597Y-89906000D01*
X144803558Y-89886315D01*
X144757803Y-89833511D01*
X144747859Y-89764353D01*
X144776884Y-89700797D01*
X144782916Y-89694319D01*
X145521249Y-88955986D01*
X153242001Y-88955986D01*
X153252494Y-89058697D01*
X153307641Y-89225119D01*
X153307643Y-89225124D01*
X153399684Y-89374345D01*
X153523654Y-89498315D01*
X153672875Y-89590356D01*
X153672880Y-89590358D01*
X153839302Y-89645505D01*
X153839309Y-89645506D01*
X153942019Y-89655999D01*
X155241999Y-89655999D01*
X155742000Y-89655999D01*
X157041972Y-89655999D01*
X157041986Y-89655998D01*
X157144697Y-89645505D01*
X157311119Y-89590358D01*
X157311124Y-89590356D01*
X157460345Y-89498315D01*
X157584315Y-89374345D01*
X157676356Y-89225124D01*
X157676358Y-89225119D01*
X157731505Y-89058697D01*
X157731506Y-89058690D01*
X157741999Y-88955986D01*
X157742000Y-88955973D01*
X157742000Y-88656000D01*
X155742000Y-88656000D01*
X155742000Y-89655999D01*
X155241999Y-89655999D01*
X155242000Y-89655998D01*
X155242000Y-88656000D01*
X153242001Y-88656000D01*
X153242001Y-88955986D01*
X145521249Y-88955986D01*
X145960278Y-88516957D01*
X147395650Y-87081585D01*
X151706898Y-82770335D01*
X151768219Y-82736852D01*
X151837911Y-82741836D01*
X151882258Y-82770337D01*
X151933707Y-82821786D01*
X151933711Y-82821789D01*
X152064814Y-82909390D01*
X152064827Y-82909397D01*
X152210498Y-82969735D01*
X152210503Y-82969737D01*
X152275147Y-82982595D01*
X152365849Y-83000638D01*
X152427760Y-83033023D01*
X152429339Y-83034574D01*
X152765139Y-83370374D01*
X152765149Y-83370385D01*
X152769479Y-83374715D01*
X152769480Y-83374716D01*
X152881284Y-83486520D01*
X152948801Y-83525500D01*
X152968095Y-83536639D01*
X152968097Y-83536641D01*
X153001661Y-83556019D01*
X153018215Y-83565577D01*
X153170943Y-83606500D01*
X153170946Y-83606500D01*
X153176298Y-83607934D01*
X153181337Y-83611005D01*
X153187226Y-83611411D01*
X153210831Y-83628983D01*
X153235959Y-83644299D01*
X153239761Y-83650518D01*
X153243272Y-83653132D01*
X153254741Y-83675020D01*
X153260270Y-83684064D01*
X153261142Y-83686384D01*
X153307186Y-83825334D01*
X153323089Y-83851118D01*
X153327315Y-83862355D01*
X153329048Y-83885709D01*
X153335229Y-83908300D01*
X153331634Y-83920542D01*
X153332487Y-83932033D01*
X153323274Y-83949011D01*
X153316791Y-83971093D01*
X153307186Y-83986665D01*
X153307186Y-83986666D01*
X153252001Y-84153203D01*
X153252001Y-84153204D01*
X153252000Y-84153204D01*
X153241500Y-84255983D01*
X153241500Y-85356001D01*
X153241501Y-85356019D01*
X153252000Y-85458796D01*
X153252001Y-85458799D01*
X153288791Y-85569821D01*
X153307185Y-85625332D01*
X153307186Y-85625333D01*
X153307186Y-85625334D01*
X153316791Y-85640907D01*
X153335229Y-85708300D01*
X153316791Y-85771093D01*
X153307186Y-85786665D01*
X153290771Y-85836202D01*
X153252001Y-85953203D01*
X153252001Y-85953204D01*
X153252000Y-85953204D01*
X153241500Y-86055983D01*
X153241500Y-87156001D01*
X153241501Y-87156019D01*
X153252000Y-87258796D01*
X153252001Y-87258799D01*
X153301113Y-87407007D01*
X153307186Y-87425334D01*
X153314449Y-87437109D01*
X153317083Y-87441380D01*
X153335522Y-87508773D01*
X153317086Y-87571565D01*
X153307643Y-87586876D01*
X153307642Y-87586877D01*
X153252494Y-87753302D01*
X153252493Y-87753309D01*
X153242000Y-87856013D01*
X153242000Y-88156000D01*
X157741999Y-88156000D01*
X157741999Y-87856028D01*
X157741998Y-87856013D01*
X157731505Y-87753302D01*
X157676358Y-87586880D01*
X157676353Y-87586871D01*
X157666917Y-87571571D01*
X157648477Y-87504178D01*
X157666919Y-87441375D01*
X157676814Y-87425334D01*
X157731999Y-87258797D01*
X157742500Y-87156009D01*
X157742499Y-86055992D01*
X157740627Y-86037671D01*
X157731999Y-85953203D01*
X157731998Y-85953200D01*
X157713942Y-85898712D01*
X157676814Y-85786666D01*
X157667210Y-85771096D01*
X157648770Y-85703706D01*
X157667210Y-85640903D01*
X157676814Y-85625334D01*
X157731999Y-85458797D01*
X157742500Y-85356009D01*
X157742499Y-84255992D01*
X157731999Y-84153203D01*
X157676814Y-83986666D01*
X157667210Y-83971096D01*
X157648770Y-83903706D01*
X157667210Y-83840903D01*
X157676814Y-83825334D01*
X157731999Y-83658797D01*
X157742500Y-83556009D01*
X157742499Y-82455992D01*
X157731999Y-82353203D01*
X157676814Y-82186666D01*
X157667210Y-82171096D01*
X157648770Y-82103706D01*
X157667210Y-82040903D01*
X157676814Y-82025334D01*
X157731999Y-81858797D01*
X157742500Y-81756009D01*
X157742499Y-80655992D01*
X157736767Y-80599883D01*
X157731999Y-80553203D01*
X157731998Y-80553200D01*
X157676814Y-80386666D01*
X157667210Y-80371096D01*
X157648770Y-80303706D01*
X157667210Y-80240903D01*
X157676814Y-80225334D01*
X157731999Y-80058797D01*
X157742500Y-79956009D01*
X157742499Y-79370525D01*
X183024500Y-79370525D01*
X183024500Y-79629474D01*
X183024501Y-79629491D01*
X183058299Y-79886217D01*
X183058300Y-79886222D01*
X183058301Y-79886228D01*
X183090528Y-80006500D01*
X183125324Y-80136364D01*
X183224423Y-80375609D01*
X183224427Y-80375619D01*
X183353906Y-80599883D01*
X183511551Y-80805331D01*
X183511557Y-80805338D01*
X183694661Y-80988442D01*
X183694668Y-80988448D01*
X183900116Y-81146093D01*
X184124380Y-81275572D01*
X184124381Y-81275572D01*
X184124384Y-81275574D01*
X184363634Y-81374675D01*
X184613772Y-81441699D01*
X184870519Y-81475500D01*
X184870526Y-81475500D01*
X185129474Y-81475500D01*
X185129481Y-81475500D01*
X185386228Y-81441699D01*
X185636366Y-81374675D01*
X185875616Y-81275574D01*
X186099884Y-81146093D01*
X186305333Y-80988447D01*
X186488447Y-80805333D01*
X186646093Y-80599884D01*
X186775574Y-80375616D01*
X186874675Y-80136366D01*
X186941699Y-79886228D01*
X186975500Y-79629481D01*
X186975500Y-79370519D01*
X186941699Y-79113772D01*
X186874675Y-78863634D01*
X186775574Y-78624384D01*
X186766380Y-78608460D01*
X186646093Y-78400116D01*
X186488448Y-78194668D01*
X186488442Y-78194661D01*
X186305338Y-78011557D01*
X186305331Y-78011551D01*
X186099883Y-77853906D01*
X185875619Y-77724427D01*
X185875609Y-77724423D01*
X185636364Y-77625324D01*
X185511297Y-77591813D01*
X185386228Y-77558301D01*
X185386222Y-77558300D01*
X185386217Y-77558299D01*
X185129491Y-77524501D01*
X185129486Y-77524500D01*
X185129481Y-77524500D01*
X184870519Y-77524500D01*
X184870513Y-77524500D01*
X184870508Y-77524501D01*
X184613782Y-77558299D01*
X184613775Y-77558300D01*
X184613772Y-77558301D01*
X184560908Y-77572465D01*
X184363635Y-77625324D01*
X184124390Y-77724423D01*
X184124380Y-77724427D01*
X183900116Y-77853906D01*
X183694668Y-78011551D01*
X183694661Y-78011557D01*
X183511557Y-78194661D01*
X183511551Y-78194668D01*
X183353906Y-78400116D01*
X183224427Y-78624380D01*
X183224423Y-78624390D01*
X183125324Y-78863635D01*
X183058302Y-79113769D01*
X183058299Y-79113782D01*
X183024501Y-79370508D01*
X183024500Y-79370525D01*
X157742499Y-79370525D01*
X157742499Y-78855992D01*
X157735206Y-78784602D01*
X157731999Y-78753203D01*
X157731998Y-78753200D01*
X157722598Y-78724834D01*
X157676814Y-78586666D01*
X157667210Y-78571096D01*
X157648770Y-78503706D01*
X157667210Y-78440903D01*
X157676814Y-78425334D01*
X157731999Y-78258797D01*
X157742500Y-78156009D01*
X157742499Y-77055992D01*
X157741893Y-77050063D01*
X157731999Y-76953203D01*
X157731998Y-76953200D01*
X157724066Y-76929264D01*
X157676814Y-76786666D01*
X157666916Y-76770620D01*
X157648476Y-76703232D01*
X157666919Y-76640423D01*
X157676355Y-76625125D01*
X157676358Y-76625119D01*
X157731505Y-76458697D01*
X157731506Y-76458690D01*
X157741999Y-76355986D01*
X157742000Y-76355973D01*
X157742000Y-76056000D01*
X153242001Y-76056000D01*
X153242001Y-76355986D01*
X153252494Y-76458697D01*
X153307641Y-76625119D01*
X153307644Y-76625126D01*
X153317082Y-76640426D01*
X153335523Y-76707818D01*
X153327752Y-76748786D01*
X153323491Y-76760230D01*
X153307186Y-76786666D01*
X153254834Y-76944651D01*
X153254049Y-76946762D01*
X153234436Y-76972995D01*
X153215775Y-76999949D01*
X153213613Y-77000847D01*
X153212212Y-77002722D01*
X153181514Y-77014193D01*
X153151259Y-77026772D01*
X153147273Y-77026988D01*
X153146763Y-77027179D01*
X153146161Y-77027048D01*
X153137841Y-77027500D01*
X148339670Y-77027500D01*
X148339654Y-77027499D01*
X148332058Y-77027499D01*
X148173943Y-77027499D01*
X148108152Y-77045128D01*
X148021214Y-77068423D01*
X148021209Y-77068426D01*
X147884290Y-77147475D01*
X147884282Y-77147481D01*
X147603337Y-77428426D01*
X147542014Y-77461911D01*
X147539848Y-77462362D01*
X147384508Y-77493261D01*
X147384498Y-77493264D01*
X147238827Y-77553602D01*
X147238814Y-77553609D01*
X147107711Y-77641210D01*
X147107707Y-77641213D01*
X146996213Y-77752707D01*
X146996210Y-77752711D01*
X146908609Y-77883814D01*
X146908602Y-77883827D01*
X146848264Y-78029498D01*
X146848261Y-78029510D01*
X146817500Y-78184153D01*
X146817500Y-78341846D01*
X146848261Y-78496489D01*
X146848264Y-78496501D01*
X146908602Y-78642172D01*
X146908609Y-78642185D01*
X146996210Y-78773288D01*
X146996213Y-78773292D01*
X147107707Y-78884786D01*
X147107711Y-78884789D01*
X147238814Y-78972390D01*
X147238827Y-78972397D01*
X147370220Y-79026821D01*
X147384503Y-79032737D01*
X147524282Y-79060541D01*
X147539153Y-79063499D01*
X147539156Y-79063500D01*
X147539158Y-79063500D01*
X147696844Y-79063500D01*
X147707478Y-79061384D01*
X147711717Y-79060541D01*
X147781309Y-79066765D01*
X147836488Y-79109626D01*
X147859735Y-79175515D01*
X147857530Y-79206348D01*
X147833500Y-79327153D01*
X147833500Y-79484846D01*
X147864261Y-79639489D01*
X147864264Y-79639501D01*
X147924602Y-79785172D01*
X147924609Y-79785185D01*
X148012210Y-79916288D01*
X148012213Y-79916292D01*
X148123707Y-80027786D01*
X148123711Y-80027789D01*
X148254814Y-80115390D01*
X148254827Y-80115397D01*
X148400498Y-80175735D01*
X148400503Y-80175737D01*
X148555153Y-80206499D01*
X148555156Y-80206500D01*
X148555158Y-80206500D01*
X148712844Y-80206500D01*
X148712845Y-80206499D01*
X148867497Y-80175737D01*
X149013179Y-80115394D01*
X149052444Y-80089158D01*
X149144875Y-80027398D01*
X149211553Y-80006520D01*
X149213766Y-80006500D01*
X153145130Y-80006500D01*
X153166186Y-80012682D01*
X153188079Y-80014176D01*
X153199051Y-80022333D01*
X153212169Y-80026185D01*
X153226538Y-80042768D01*
X153244151Y-80055862D01*
X153253755Y-80074178D01*
X153257924Y-80078989D01*
X153261168Y-80086782D01*
X153262050Y-80089124D01*
X153307186Y-80225334D01*
X153323070Y-80251087D01*
X153327288Y-80262282D01*
X153329038Y-80285674D01*
X153335229Y-80308300D01*
X153331645Y-80320503D01*
X153332503Y-80331957D01*
X153323287Y-80348966D01*
X153316791Y-80371093D01*
X153307186Y-80386665D01*
X153307186Y-80386666D01*
X153262835Y-80520505D01*
X153223064Y-80577949D01*
X153158549Y-80604772D01*
X153145131Y-80605500D01*
X152342940Y-80605500D01*
X152302019Y-80616464D01*
X152302019Y-80616465D01*
X152264751Y-80626451D01*
X152190214Y-80646423D01*
X152190209Y-80646426D01*
X152053290Y-80725475D01*
X152053282Y-80725481D01*
X151941478Y-80837286D01*
X143849584Y-88929181D01*
X143788261Y-88962666D01*
X143761903Y-88965500D01*
X142366500Y-88965500D01*
X142299461Y-88945815D01*
X142253706Y-88893011D01*
X142242500Y-88841500D01*
X142242499Y-87855998D01*
X142242498Y-87855980D01*
X142231999Y-87753203D01*
X142231998Y-87753200D01*
X142176814Y-87586666D01*
X142166916Y-87570618D01*
X142148476Y-87503232D01*
X142166919Y-87440423D01*
X142176355Y-87425125D01*
X142176358Y-87425119D01*
X142231505Y-87258697D01*
X142231506Y-87258690D01*
X142241999Y-87155986D01*
X142242000Y-87155973D01*
X142242000Y-86856000D01*
X137742001Y-86856000D01*
X137742001Y-87155986D01*
X137752494Y-87258697D01*
X137807641Y-87425119D01*
X137807644Y-87425126D01*
X137817082Y-87440426D01*
X137835523Y-87507818D01*
X137817084Y-87570618D01*
X137807187Y-87586663D01*
X137807186Y-87586665D01*
X137807186Y-87586666D01*
X137752001Y-87753203D01*
X137752001Y-87753204D01*
X137752000Y-87753204D01*
X137741500Y-87855983D01*
X137741500Y-88956001D01*
X137741501Y-88956019D01*
X137752001Y-89058801D01*
X137753418Y-89065420D01*
X137751900Y-89065744D01*
X137752156Y-89073214D01*
X137757596Y-89087795D01*
X137753328Y-89107418D01*
X137754017Y-89127488D01*
X137745851Y-89141804D01*
X137742750Y-89156069D01*
X137721598Y-89184329D01*
X137708647Y-89197281D01*
X137708646Y-89197280D01*
X137708645Y-89197280D01*
X137708642Y-89197286D01*
X130315921Y-96590007D01*
X130254598Y-96623492D01*
X130252432Y-96623943D01*
X130097090Y-96654843D01*
X130097080Y-96654846D01*
X129951409Y-96715184D01*
X129951396Y-96715191D01*
X129820293Y-96802792D01*
X129820289Y-96802795D01*
X129708795Y-96914289D01*
X129708792Y-96914293D01*
X129621191Y-97045396D01*
X129621184Y-97045409D01*
X129560846Y-97191080D01*
X129560843Y-97191092D01*
X129530082Y-97345735D01*
X125766970Y-97345735D01*
X121896819Y-93475584D01*
X121863334Y-93414261D01*
X121860500Y-93387903D01*
X121860500Y-88885718D01*
X121880185Y-88818679D01*
X121928207Y-88775233D01*
X121967815Y-88755052D01*
X121967815Y-88755051D01*
X121967816Y-88755051D01*
X122104149Y-88656000D01*
X122139786Y-88630109D01*
X122139788Y-88630106D01*
X122139792Y-88630104D01*
X122290104Y-88479792D01*
X122290106Y-88479788D01*
X122290109Y-88479786D01*
X122415048Y-88307820D01*
X122415047Y-88307820D01*
X122415051Y-88307816D01*
X122419514Y-88299054D01*
X122467488Y-88248259D01*
X122535308Y-88231463D01*
X122601444Y-88253999D01*
X122640486Y-88299056D01*
X122644951Y-88307820D01*
X122769890Y-88479786D01*
X122920213Y-88630109D01*
X123092179Y-88755048D01*
X123092181Y-88755049D01*
X123092184Y-88755051D01*
X123281588Y-88851557D01*
X123483757Y-88917246D01*
X123693713Y-88950500D01*
X123693714Y-88950500D01*
X123906286Y-88950500D01*
X123906287Y-88950500D01*
X124116243Y-88917246D01*
X124318412Y-88851557D01*
X124507816Y-88755051D01*
X124594138Y-88692335D01*
X124679786Y-88630109D01*
X124679788Y-88630106D01*
X124679792Y-88630104D01*
X124830104Y-88479792D01*
X124830106Y-88479788D01*
X124830109Y-88479786D01*
X124955048Y-88307820D01*
X124955047Y-88307820D01*
X124955051Y-88307816D01*
X124959514Y-88299054D01*
X125007488Y-88248259D01*
X125075308Y-88231463D01*
X125141444Y-88253999D01*
X125180486Y-88299056D01*
X125184951Y-88307820D01*
X125309890Y-88479786D01*
X125460213Y-88630109D01*
X125632179Y-88755048D01*
X125632181Y-88755049D01*
X125632184Y-88755051D01*
X125821588Y-88851557D01*
X126023757Y-88917246D01*
X126233713Y-88950500D01*
X126233714Y-88950500D01*
X126446286Y-88950500D01*
X126446287Y-88950500D01*
X126656243Y-88917246D01*
X126858412Y-88851557D01*
X127047816Y-88755051D01*
X127134138Y-88692335D01*
X127219786Y-88630109D01*
X127219788Y-88630106D01*
X127219792Y-88630104D01*
X127370104Y-88479792D01*
X127370106Y-88479788D01*
X127370109Y-88479786D01*
X127495048Y-88307820D01*
X127495051Y-88307816D01*
X127499793Y-88298508D01*
X127547763Y-88247711D01*
X127615583Y-88230911D01*
X127681719Y-88253445D01*
X127720763Y-88298500D01*
X127725377Y-88307555D01*
X127850272Y-88479459D01*
X127850276Y-88479464D01*
X128000535Y-88629723D01*
X128000540Y-88629727D01*
X128172442Y-88754620D01*
X128361782Y-88851095D01*
X128563871Y-88916757D01*
X128630000Y-88927231D01*
X128630000Y-88033012D01*
X128687007Y-88065925D01*
X128814174Y-88100000D01*
X128945826Y-88100000D01*
X129072993Y-88065925D01*
X129130000Y-88033012D01*
X129130000Y-88927230D01*
X129196126Y-88916757D01*
X129196129Y-88916757D01*
X129398217Y-88851095D01*
X129587557Y-88754620D01*
X129759459Y-88629727D01*
X129759464Y-88629723D01*
X129909723Y-88479464D01*
X129909727Y-88479459D01*
X130034620Y-88307558D01*
X130039232Y-88298507D01*
X130087205Y-88247709D01*
X130155025Y-88230912D01*
X130221161Y-88253447D01*
X130260204Y-88298504D01*
X130264949Y-88307817D01*
X130389890Y-88479786D01*
X130540213Y-88630109D01*
X130712179Y-88755048D01*
X130712181Y-88755049D01*
X130712184Y-88755051D01*
X130901588Y-88851557D01*
X131103757Y-88917246D01*
X131313713Y-88950500D01*
X131313714Y-88950500D01*
X131526286Y-88950500D01*
X131526287Y-88950500D01*
X131736243Y-88917246D01*
X131938412Y-88851557D01*
X132127816Y-88755051D01*
X132214138Y-88692335D01*
X132299786Y-88630109D01*
X132299788Y-88630106D01*
X132299792Y-88630104D01*
X132450104Y-88479792D01*
X132450106Y-88479788D01*
X132450109Y-88479786D01*
X132575048Y-88307820D01*
X132575047Y-88307820D01*
X132575051Y-88307816D01*
X132671557Y-88118412D01*
X132737246Y-87916243D01*
X132770500Y-87706287D01*
X132770500Y-87493713D01*
X132737246Y-87283757D01*
X132671557Y-87081588D01*
X132575051Y-86892184D01*
X132575049Y-86892181D01*
X132575048Y-86892179D01*
X132450109Y-86720213D01*
X132299786Y-86569890D01*
X132127820Y-86444951D01*
X131938414Y-86348444D01*
X131938413Y-86348443D01*
X131938412Y-86348443D01*
X131736243Y-86282754D01*
X131736241Y-86282753D01*
X131736240Y-86282753D01*
X131574957Y-86257208D01*
X131526287Y-86249500D01*
X131313713Y-86249500D01*
X131265042Y-86257208D01*
X131103760Y-86282753D01*
X130901585Y-86348444D01*
X130712179Y-86444951D01*
X130540213Y-86569890D01*
X130389890Y-86720213D01*
X130264949Y-86892182D01*
X130260202Y-86901499D01*
X130212227Y-86952293D01*
X130144405Y-86969087D01*
X130078271Y-86946548D01*
X130039234Y-86901495D01*
X130034622Y-86892444D01*
X129909727Y-86720540D01*
X129909723Y-86720535D01*
X129759464Y-86570276D01*
X129759459Y-86570272D01*
X129587557Y-86445379D01*
X129398215Y-86348903D01*
X129196124Y-86283241D01*
X129130000Y-86272768D01*
X129130000Y-87166988D01*
X129072993Y-87134075D01*
X128945826Y-87100000D01*
X128814174Y-87100000D01*
X128687007Y-87134075D01*
X128630000Y-87166988D01*
X128630000Y-86272768D01*
X128629999Y-86272768D01*
X128563875Y-86283241D01*
X128361784Y-86348903D01*
X128172442Y-86445379D01*
X128000540Y-86570272D01*
X128000535Y-86570276D01*
X127850276Y-86720535D01*
X127850272Y-86720540D01*
X127725378Y-86892443D01*
X127720762Y-86901502D01*
X127672784Y-86952295D01*
X127604963Y-86969087D01*
X127538829Y-86946546D01*
X127499794Y-86901493D01*
X127495051Y-86892184D01*
X127495049Y-86892181D01*
X127495048Y-86892179D01*
X127370109Y-86720213D01*
X127219786Y-86569890D01*
X127047820Y-86444951D01*
X126858414Y-86348444D01*
X126858413Y-86348443D01*
X126858412Y-86348443D01*
X126656243Y-86282754D01*
X126656241Y-86282753D01*
X126656240Y-86282753D01*
X126494957Y-86257208D01*
X126446287Y-86249500D01*
X126233713Y-86249500D01*
X126185042Y-86257208D01*
X126023760Y-86282753D01*
X125821585Y-86348444D01*
X125632179Y-86444951D01*
X125460213Y-86569890D01*
X125309890Y-86720213D01*
X125184949Y-86892182D01*
X125180484Y-86900946D01*
X125132509Y-86951742D01*
X125064688Y-86968536D01*
X124998553Y-86945998D01*
X124959516Y-86900946D01*
X124955050Y-86892182D01*
X124830109Y-86720213D01*
X124679786Y-86569890D01*
X124507820Y-86444951D01*
X124318414Y-86348444D01*
X124318413Y-86348443D01*
X124318412Y-86348443D01*
X124116243Y-86282754D01*
X124116241Y-86282753D01*
X124116240Y-86282753D01*
X123954957Y-86257208D01*
X123906287Y-86249500D01*
X123693713Y-86249500D01*
X123645042Y-86257208D01*
X123483760Y-86282753D01*
X123281585Y-86348444D01*
X123092179Y-86444951D01*
X122920213Y-86569890D01*
X122769890Y-86720213D01*
X122644949Y-86892182D01*
X122640484Y-86900946D01*
X122592509Y-86951742D01*
X122524688Y-86968536D01*
X122458553Y-86945998D01*
X122419516Y-86900946D01*
X122415050Y-86892182D01*
X122290109Y-86720213D01*
X122139786Y-86569890D01*
X121967820Y-86444951D01*
X121778414Y-86348444D01*
X121778413Y-86348443D01*
X121778412Y-86348443D01*
X121576243Y-86282754D01*
X121576241Y-86282753D01*
X121576240Y-86282753D01*
X121414957Y-86257208D01*
X121366287Y-86249500D01*
X121153713Y-86249500D01*
X121105042Y-86257208D01*
X120943760Y-86282753D01*
X120741585Y-86348444D01*
X120552179Y-86444951D01*
X120380213Y-86569890D01*
X120229890Y-86720213D01*
X120104949Y-86892182D01*
X120100484Y-86900946D01*
X120052509Y-86951742D01*
X119984688Y-86968536D01*
X119918553Y-86945998D01*
X119879516Y-86900946D01*
X119875050Y-86892182D01*
X119750109Y-86720213D01*
X119599786Y-86569890D01*
X119427820Y-86444951D01*
X119238414Y-86348444D01*
X119238413Y-86348443D01*
X119238412Y-86348443D01*
X119036243Y-86282754D01*
X119036241Y-86282753D01*
X119036240Y-86282753D01*
X118874957Y-86257208D01*
X118826287Y-86249500D01*
X118613713Y-86249500D01*
X118565042Y-86257208D01*
X118403760Y-86282753D01*
X118201585Y-86348444D01*
X118012179Y-86444951D01*
X117840213Y-86569890D01*
X117689890Y-86720213D01*
X117564949Y-86892182D01*
X117560484Y-86900946D01*
X117512509Y-86951742D01*
X117444688Y-86968536D01*
X117378553Y-86945998D01*
X117339516Y-86900946D01*
X117335050Y-86892182D01*
X117210109Y-86720213D01*
X117059786Y-86569890D01*
X116887820Y-86444951D01*
X116698414Y-86348444D01*
X116698413Y-86348443D01*
X116698412Y-86348443D01*
X116496243Y-86282754D01*
X116496241Y-86282753D01*
X116496240Y-86282753D01*
X116334957Y-86257208D01*
X116286287Y-86249500D01*
X116073713Y-86249500D01*
X116025042Y-86257208D01*
X115863760Y-86282753D01*
X115661585Y-86348444D01*
X115472179Y-86444951D01*
X115300213Y-86569890D01*
X115149890Y-86720213D01*
X115024949Y-86892182D01*
X115020484Y-86900946D01*
X114972509Y-86951742D01*
X114904688Y-86968536D01*
X114838553Y-86945998D01*
X114799516Y-86900946D01*
X114795050Y-86892182D01*
X114670109Y-86720213D01*
X114519786Y-86569890D01*
X114347820Y-86444951D01*
X114158414Y-86348444D01*
X114158413Y-86348443D01*
X114158412Y-86348443D01*
X113956243Y-86282754D01*
X113956241Y-86282753D01*
X113956240Y-86282753D01*
X113794957Y-86257208D01*
X113746287Y-86249500D01*
X113533713Y-86249500D01*
X113485042Y-86257208D01*
X113323760Y-86282753D01*
X113121585Y-86348444D01*
X112932179Y-86444951D01*
X112760213Y-86569890D01*
X112609890Y-86720213D01*
X112484949Y-86892182D01*
X112480484Y-86900946D01*
X112432509Y-86951742D01*
X112364688Y-86968536D01*
X112298553Y-86945998D01*
X112259516Y-86900946D01*
X112255050Y-86892182D01*
X112130109Y-86720213D01*
X111979786Y-86569890D01*
X111807820Y-86444951D01*
X111618414Y-86348444D01*
X111618413Y-86348443D01*
X111618412Y-86348443D01*
X111416243Y-86282754D01*
X111416241Y-86282753D01*
X111416240Y-86282753D01*
X111254957Y-86257208D01*
X111206287Y-86249500D01*
X110993713Y-86249500D01*
X110945042Y-86257208D01*
X110783760Y-86282753D01*
X110581585Y-86348444D01*
X110392179Y-86444951D01*
X110220213Y-86569890D01*
X110069890Y-86720213D01*
X109944949Y-86892182D01*
X109940484Y-86900946D01*
X109892509Y-86951742D01*
X109824688Y-86968536D01*
X109758553Y-86945998D01*
X109719516Y-86900946D01*
X109715050Y-86892182D01*
X109590109Y-86720213D01*
X109439786Y-86569890D01*
X109267820Y-86444951D01*
X109078414Y-86348444D01*
X109078413Y-86348443D01*
X109078412Y-86348443D01*
X108876243Y-86282754D01*
X108876241Y-86282753D01*
X108876240Y-86282753D01*
X108714957Y-86257208D01*
X108666287Y-86249500D01*
X108453713Y-86249500D01*
X108405042Y-86257208D01*
X108243760Y-86282753D01*
X108041585Y-86348444D01*
X107852179Y-86444951D01*
X107680213Y-86569890D01*
X107529890Y-86720213D01*
X107404949Y-86892182D01*
X107400484Y-86900946D01*
X107352509Y-86951742D01*
X107284688Y-86968536D01*
X107218553Y-86945998D01*
X107179516Y-86900946D01*
X107175050Y-86892182D01*
X107050109Y-86720213D01*
X106899786Y-86569890D01*
X106727820Y-86444951D01*
X106538414Y-86348444D01*
X106538413Y-86348443D01*
X106538412Y-86348443D01*
X106336243Y-86282754D01*
X106336241Y-86282753D01*
X106336240Y-86282753D01*
X106174957Y-86257208D01*
X106126287Y-86249500D01*
X105913713Y-86249500D01*
X105865042Y-86257208D01*
X105703760Y-86282753D01*
X105501585Y-86348444D01*
X105312179Y-86444951D01*
X105140213Y-86569890D01*
X104989890Y-86720213D01*
X104864949Y-86892182D01*
X104860484Y-86900946D01*
X104812509Y-86951742D01*
X104744688Y-86968536D01*
X104678553Y-86945998D01*
X104639516Y-86900946D01*
X104635050Y-86892182D01*
X104510109Y-86720213D01*
X104359786Y-86569890D01*
X104187820Y-86444951D01*
X103998414Y-86348444D01*
X103998413Y-86348443D01*
X103998412Y-86348443D01*
X103796243Y-86282754D01*
X103796241Y-86282753D01*
X103796240Y-86282753D01*
X103634957Y-86257208D01*
X103586287Y-86249500D01*
X103373713Y-86249500D01*
X103368372Y-86250346D01*
X103163759Y-86282753D01*
X102965618Y-86347133D01*
X102895777Y-86349128D01*
X102835944Y-86313047D01*
X102805116Y-86250346D01*
X102803300Y-86229202D01*
X102803300Y-83178500D01*
X102822985Y-83111461D01*
X102875789Y-83065706D01*
X102927300Y-83054500D01*
X103350234Y-83054500D01*
X103417273Y-83074185D01*
X103419125Y-83075398D01*
X103550814Y-83163390D01*
X103550827Y-83163397D01*
X103696498Y-83223735D01*
X103696503Y-83223737D01*
X103851153Y-83254499D01*
X103851156Y-83254500D01*
X103851158Y-83254500D01*
X104008844Y-83254500D01*
X104008845Y-83254499D01*
X104163497Y-83223737D01*
X104309179Y-83163394D01*
X104440289Y-83075789D01*
X104551789Y-82964289D01*
X104639394Y-82833179D01*
X104699737Y-82687497D01*
X104730500Y-82532842D01*
X104730500Y-82375158D01*
X104730500Y-82375155D01*
X104730499Y-82375153D01*
X104699738Y-82220510D01*
X104699737Y-82220503D01*
X104682111Y-82177951D01*
X104674643Y-82108483D01*
X104705918Y-82046004D01*
X104766007Y-82010352D01*
X104796673Y-82006500D01*
X137696558Y-82006500D01*
X137763597Y-82026185D01*
X137809352Y-82078989D01*
X137819296Y-82148147D01*
X137808941Y-82182903D01*
X137807186Y-82186665D01*
X137779593Y-82269934D01*
X137752001Y-82353203D01*
X137752001Y-82353204D01*
X137752000Y-82353204D01*
X137741500Y-82455983D01*
X137741500Y-83556001D01*
X137741501Y-83556019D01*
X137752000Y-83658796D01*
X137752001Y-83658799D01*
X137807186Y-83825333D01*
X137807186Y-83825334D01*
X137816791Y-83840907D01*
X137835229Y-83908300D01*
X137816791Y-83971093D01*
X137807186Y-83986665D01*
X137807186Y-83986666D01*
X137752001Y-84153203D01*
X137752001Y-84153204D01*
X137752000Y-84153204D01*
X137741500Y-84255983D01*
X137741500Y-84580755D01*
X137721815Y-84647794D01*
X137669011Y-84693549D01*
X137599853Y-84703493D01*
X137536297Y-84674468D01*
X137502938Y-84628206D01*
X137497394Y-84614821D01*
X137497390Y-84614814D01*
X137409789Y-84483711D01*
X137409786Y-84483707D01*
X137298292Y-84372213D01*
X137298288Y-84372210D01*
X137167185Y-84284609D01*
X137167172Y-84284602D01*
X137021501Y-84224264D01*
X137021489Y-84224261D01*
X136866845Y-84193500D01*
X136866842Y-84193500D01*
X136709158Y-84193500D01*
X136709155Y-84193500D01*
X136554510Y-84224261D01*
X136554498Y-84224264D01*
X136408827Y-84284602D01*
X136408814Y-84284609D01*
X136277125Y-84372602D01*
X136210447Y-84393480D01*
X136208234Y-84393500D01*
X133719766Y-84393500D01*
X133652727Y-84373815D01*
X133650875Y-84372602D01*
X133519185Y-84284609D01*
X133519172Y-84284602D01*
X133373501Y-84224264D01*
X133373489Y-84224261D01*
X133218845Y-84193500D01*
X133218842Y-84193500D01*
X133061158Y-84193500D01*
X133061155Y-84193500D01*
X132906510Y-84224261D01*
X132906498Y-84224264D01*
X132760827Y-84284602D01*
X132760814Y-84284609D01*
X132629711Y-84372210D01*
X132629707Y-84372213D01*
X132518213Y-84483707D01*
X132518210Y-84483711D01*
X132430609Y-84614814D01*
X132430602Y-84614827D01*
X132370264Y-84760498D01*
X132370261Y-84760510D01*
X132339500Y-84915153D01*
X132339500Y-85072846D01*
X132370261Y-85227489D01*
X132370264Y-85227501D01*
X132430602Y-85373172D01*
X132430609Y-85373185D01*
X132518210Y-85504288D01*
X132518213Y-85504292D01*
X132629707Y-85615786D01*
X132629711Y-85615789D01*
X132760814Y-85703390D01*
X132760827Y-85703397D01*
X132906498Y-85763735D01*
X132906503Y-85763737D01*
X133022805Y-85786871D01*
X133061153Y-85794499D01*
X133061156Y-85794500D01*
X133061158Y-85794500D01*
X133218844Y-85794500D01*
X133218845Y-85794499D01*
X133373497Y-85763737D01*
X133519179Y-85703394D01*
X133519185Y-85703390D01*
X133650875Y-85615398D01*
X133717553Y-85594520D01*
X133719766Y-85594500D01*
X136208234Y-85594500D01*
X136275273Y-85614185D01*
X136277125Y-85615398D01*
X136408814Y-85703390D01*
X136408827Y-85703397D01*
X136554498Y-85763735D01*
X136554503Y-85763737D01*
X136670805Y-85786871D01*
X136709153Y-85794499D01*
X136709156Y-85794500D01*
X136709158Y-85794500D01*
X136866844Y-85794500D01*
X136866845Y-85794499D01*
X137021497Y-85763737D01*
X137167179Y-85703394D01*
X137298289Y-85615789D01*
X137409789Y-85504289D01*
X137497394Y-85373179D01*
X137506619Y-85350906D01*
X137550458Y-85296503D01*
X137616752Y-85274436D01*
X137684452Y-85291714D01*
X137732064Y-85342850D01*
X137744539Y-85385755D01*
X137752001Y-85458797D01*
X137752001Y-85458799D01*
X137804022Y-85615786D01*
X137807186Y-85625334D01*
X137814449Y-85637109D01*
X137817083Y-85641380D01*
X137835522Y-85708773D01*
X137817086Y-85771565D01*
X137807643Y-85786876D01*
X137807642Y-85786877D01*
X137752494Y-85953302D01*
X137752493Y-85953309D01*
X137742000Y-86056013D01*
X137742000Y-86356000D01*
X142241999Y-86356000D01*
X142241999Y-86056028D01*
X142241998Y-86056013D01*
X142231505Y-85953302D01*
X142176358Y-85786880D01*
X142176353Y-85786871D01*
X142166917Y-85771571D01*
X142148477Y-85704178D01*
X142166919Y-85641375D01*
X142176814Y-85625334D01*
X142231999Y-85458797D01*
X142242500Y-85356009D01*
X142242499Y-84255992D01*
X142231999Y-84153203D01*
X142176814Y-83986666D01*
X142167210Y-83971096D01*
X142148770Y-83903706D01*
X142167210Y-83840903D01*
X142176814Y-83825334D01*
X142231999Y-83658797D01*
X142242500Y-83556009D01*
X142242499Y-82455992D01*
X142231999Y-82353203D01*
X142176814Y-82186666D01*
X142167210Y-82171096D01*
X142148770Y-82103706D01*
X142156528Y-82062773D01*
X142160790Y-82051311D01*
X142176814Y-82025334D01*
X142228771Y-81868535D01*
X142229551Y-81866441D01*
X142235970Y-81857849D01*
X142258091Y-81821987D01*
X143159786Y-80920292D01*
X143159789Y-80920289D01*
X143247394Y-80789179D01*
X143307737Y-80643497D01*
X143338500Y-80488842D01*
X143338500Y-80331158D01*
X143338500Y-75882135D01*
X161079500Y-75882135D01*
X161079500Y-78517870D01*
X161079501Y-78517876D01*
X161085908Y-78577483D01*
X161136202Y-78712328D01*
X161136206Y-78712335D01*
X161222452Y-78827544D01*
X161222455Y-78827547D01*
X161337664Y-78913793D01*
X161337671Y-78913797D01*
X161472517Y-78964091D01*
X161472516Y-78964091D01*
X161479444Y-78964835D01*
X161532127Y-78970500D01*
X164167872Y-78970499D01*
X164227483Y-78964091D01*
X164362331Y-78913796D01*
X164477546Y-78827546D01*
X164563796Y-78712331D01*
X164614091Y-78577483D01*
X164620500Y-78517873D01*
X164620500Y-78124500D01*
X164640185Y-78057461D01*
X164692989Y-78011706D01*
X164744500Y-78000500D01*
X172000844Y-78000500D01*
X172000845Y-78000499D01*
X172155497Y-77969737D01*
X172268166Y-77923067D01*
X172301172Y-77909397D01*
X172301172Y-77909396D01*
X172301179Y-77909394D01*
X172432289Y-77821789D01*
X177621788Y-72632290D01*
X177621789Y-72632289D01*
X177621892Y-72632135D01*
X183779500Y-72632135D01*
X183779500Y-75267870D01*
X183779501Y-75267876D01*
X183785908Y-75327483D01*
X183836202Y-75462328D01*
X183836206Y-75462335D01*
X183922452Y-75577544D01*
X183922455Y-75577547D01*
X184037664Y-75663793D01*
X184037671Y-75663797D01*
X184172517Y-75714091D01*
X184172516Y-75714091D01*
X184179444Y-75714835D01*
X184232127Y-75720500D01*
X186867872Y-75720499D01*
X186927483Y-75714091D01*
X187062331Y-75663796D01*
X187177546Y-75577546D01*
X187263796Y-75462331D01*
X187314091Y-75327483D01*
X187320500Y-75267873D01*
X187320499Y-72632128D01*
X187314091Y-72572517D01*
X187263884Y-72437906D01*
X187263797Y-72437671D01*
X187263793Y-72437664D01*
X187177547Y-72322455D01*
X187177544Y-72322452D01*
X187062335Y-72236206D01*
X187062328Y-72236202D01*
X186927482Y-72185908D01*
X186927483Y-72185908D01*
X186867883Y-72179501D01*
X186867881Y-72179500D01*
X186867873Y-72179500D01*
X186867864Y-72179500D01*
X184232129Y-72179500D01*
X184232123Y-72179501D01*
X184172516Y-72185908D01*
X184037671Y-72236202D01*
X184037664Y-72236206D01*
X183922455Y-72322452D01*
X183922452Y-72322455D01*
X183836206Y-72437664D01*
X183836202Y-72437671D01*
X183785908Y-72572517D01*
X183779501Y-72632116D01*
X183779501Y-72632123D01*
X183779500Y-72632135D01*
X177621892Y-72632135D01*
X177709394Y-72501179D01*
X177712487Y-72493713D01*
X177735700Y-72437671D01*
X177769737Y-72355497D01*
X177800500Y-72200842D01*
X177800500Y-72064499D01*
X177820185Y-71997460D01*
X177872989Y-71951705D01*
X177924500Y-71940499D01*
X180222871Y-71940499D01*
X180222872Y-71940499D01*
X180282483Y-71934091D01*
X180417331Y-71883796D01*
X180532546Y-71797546D01*
X180618796Y-71682331D01*
X180669091Y-71547483D01*
X180675500Y-71487873D01*
X180675499Y-64052128D01*
X180669091Y-63992517D01*
X180665631Y-63983241D01*
X180618797Y-63857671D01*
X180618793Y-63857664D01*
X180532547Y-63742455D01*
X180532544Y-63742452D01*
X180417335Y-63656206D01*
X180417328Y-63656202D01*
X180282482Y-63605908D01*
X180282483Y-63605908D01*
X180222883Y-63599501D01*
X180222881Y-63599500D01*
X180222873Y-63599500D01*
X180222864Y-63599500D01*
X173777129Y-63599500D01*
X173777123Y-63599501D01*
X173717516Y-63605908D01*
X173582671Y-63656202D01*
X173582664Y-63656206D01*
X173467455Y-63742452D01*
X173467452Y-63742455D01*
X173381206Y-63857664D01*
X173381202Y-63857671D01*
X173330908Y-63992517D01*
X173324502Y-64052104D01*
X173324501Y-64052123D01*
X173324500Y-64052135D01*
X173324500Y-71487870D01*
X173324501Y-71487876D01*
X173330908Y-71547483D01*
X173381202Y-71682328D01*
X173381206Y-71682335D01*
X173467452Y-71797544D01*
X173467455Y-71797547D01*
X173582664Y-71883793D01*
X173582671Y-71883797D01*
X173717517Y-71934091D01*
X173717516Y-71934091D01*
X173724444Y-71934835D01*
X173777127Y-71940500D01*
X175750059Y-71940499D01*
X175817098Y-71960184D01*
X175862853Y-72012987D01*
X175872797Y-72082146D01*
X175843772Y-72145702D01*
X175837740Y-72152180D01*
X171626741Y-76363181D01*
X171565418Y-76396666D01*
X171539060Y-76399500D01*
X164744499Y-76399500D01*
X164677460Y-76379815D01*
X164631705Y-76327011D01*
X164620499Y-76275500D01*
X164620499Y-75882129D01*
X164620498Y-75882123D01*
X164620497Y-75882116D01*
X164614091Y-75822517D01*
X164563796Y-75687669D01*
X164534766Y-75648891D01*
X164510351Y-75583430D01*
X164525202Y-75515157D01*
X164534769Y-75500271D01*
X164563351Y-75462090D01*
X164613597Y-75327376D01*
X164613598Y-75327372D01*
X164619999Y-75267844D01*
X164620000Y-75267827D01*
X164620000Y-74200000D01*
X163450001Y-74200000D01*
X163475021Y-74139598D01*
X163500000Y-74014019D01*
X163500000Y-73885981D01*
X163475021Y-73760402D01*
X163450001Y-73700000D01*
X164620000Y-73700000D01*
X164620000Y-72632172D01*
X164619999Y-72632155D01*
X164613598Y-72572627D01*
X164613596Y-72572620D01*
X164563354Y-72437913D01*
X164563350Y-72437906D01*
X164477190Y-72322812D01*
X164477187Y-72322809D01*
X164362093Y-72236649D01*
X164362086Y-72236645D01*
X164227379Y-72186403D01*
X164227372Y-72186401D01*
X164167844Y-72180000D01*
X163100000Y-72180000D01*
X163100000Y-73349998D01*
X163039598Y-73324979D01*
X162914019Y-73300000D01*
X162785981Y-73300000D01*
X162660402Y-73324979D01*
X162600000Y-73349998D01*
X162600000Y-72180000D01*
X161532155Y-72180000D01*
X161472627Y-72186401D01*
X161472620Y-72186403D01*
X161337913Y-72236645D01*
X161337906Y-72236649D01*
X161222812Y-72322809D01*
X161222809Y-72322812D01*
X161136649Y-72437906D01*
X161136645Y-72437913D01*
X161086403Y-72572620D01*
X161086401Y-72572627D01*
X161080000Y-72632155D01*
X161080000Y-73700000D01*
X162249999Y-73700000D01*
X162224979Y-73760402D01*
X162200000Y-73885981D01*
X162200000Y-74014019D01*
X162224979Y-74139598D01*
X162249999Y-74200000D01*
X161080000Y-74200000D01*
X161080000Y-75267844D01*
X161086401Y-75327372D01*
X161086403Y-75327379D01*
X161136645Y-75462086D01*
X161136646Y-75462088D01*
X161165231Y-75500273D01*
X161189647Y-75565738D01*
X161174795Y-75634011D01*
X161165231Y-75648893D01*
X161136203Y-75687669D01*
X161136202Y-75687671D01*
X161085908Y-75822517D01*
X161083200Y-75847711D01*
X161079501Y-75882123D01*
X161079500Y-75882135D01*
X143338500Y-75882135D01*
X143338500Y-75256013D01*
X153242000Y-75256013D01*
X153242000Y-75556000D01*
X155242000Y-75556000D01*
X155742000Y-75556000D01*
X157741999Y-75556000D01*
X157741999Y-75256028D01*
X157741998Y-75256013D01*
X157731505Y-75153302D01*
X157676358Y-74986880D01*
X157676356Y-74986875D01*
X157584315Y-74837654D01*
X157460345Y-74713684D01*
X157311124Y-74621643D01*
X157311119Y-74621641D01*
X157144697Y-74566494D01*
X157144690Y-74566493D01*
X157041986Y-74556000D01*
X155742000Y-74556000D01*
X155742000Y-75556000D01*
X155242000Y-75556000D01*
X155242000Y-74556000D01*
X153942028Y-74556000D01*
X153942012Y-74556001D01*
X153839302Y-74566494D01*
X153672880Y-74621641D01*
X153672875Y-74621643D01*
X153523654Y-74713684D01*
X153399684Y-74837654D01*
X153307643Y-74986875D01*
X153307641Y-74986880D01*
X153252494Y-75153302D01*
X153252493Y-75153309D01*
X153242000Y-75256013D01*
X143338500Y-75256013D01*
X143338500Y-66707939D01*
X143358185Y-66640900D01*
X143374815Y-66620262D01*
X143650917Y-66344159D01*
X143712238Y-66310676D01*
X143781929Y-66315660D01*
X143837863Y-66357531D01*
X143854778Y-66388508D01*
X143856203Y-66392330D01*
X143856206Y-66392335D01*
X143942452Y-66507544D01*
X143942455Y-66507547D01*
X144057664Y-66593793D01*
X144057671Y-66593797D01*
X144192517Y-66644091D01*
X144192516Y-66644091D01*
X144199444Y-66644835D01*
X144252127Y-66650500D01*
X146047872Y-66650499D01*
X146107483Y-66644091D01*
X146242331Y-66593796D01*
X146357546Y-66507546D01*
X146443796Y-66392331D01*
X146493002Y-66260401D01*
X146534872Y-66204468D01*
X146600337Y-66180050D01*
X146668610Y-66194901D01*
X146696865Y-66216053D01*
X146810535Y-66329723D01*
X146810540Y-66329727D01*
X146982442Y-66454620D01*
X147171782Y-66551095D01*
X147373871Y-66616757D01*
X147440000Y-66627231D01*
X147440000Y-65733012D01*
X147497007Y-65765925D01*
X147624174Y-65800000D01*
X147755826Y-65800000D01*
X147882993Y-65765925D01*
X147940000Y-65733012D01*
X147940000Y-66627230D01*
X148006126Y-66616757D01*
X148006129Y-66616757D01*
X148208217Y-66551095D01*
X148397557Y-66454620D01*
X148569459Y-66329727D01*
X148569464Y-66329723D01*
X148719723Y-66179464D01*
X148719727Y-66179459D01*
X148844620Y-66007558D01*
X148849232Y-65998507D01*
X148897205Y-65947709D01*
X148965025Y-65930912D01*
X149031161Y-65953447D01*
X149070204Y-65998504D01*
X149074949Y-66007817D01*
X149199890Y-66179786D01*
X149350213Y-66330109D01*
X149522179Y-66455048D01*
X149522181Y-66455049D01*
X149522184Y-66455051D01*
X149711588Y-66551557D01*
X149913757Y-66617246D01*
X150123713Y-66650500D01*
X150123714Y-66650500D01*
X150336286Y-66650500D01*
X150336287Y-66650500D01*
X150546243Y-66617246D01*
X150748412Y-66551557D01*
X150937816Y-66455051D01*
X151024138Y-66392335D01*
X151109786Y-66330109D01*
X151109788Y-66330106D01*
X151109792Y-66330104D01*
X151260104Y-66179792D01*
X151260106Y-66179788D01*
X151260109Y-66179786D01*
X151385048Y-66007820D01*
X151385050Y-66007817D01*
X151385051Y-66007816D01*
X151481557Y-65818412D01*
X151547246Y-65616243D01*
X151580500Y-65406287D01*
X151580500Y-65193713D01*
X151547246Y-64983757D01*
X151481557Y-64781588D01*
X151385051Y-64592184D01*
X151385049Y-64592181D01*
X151385048Y-64592179D01*
X151260109Y-64420213D01*
X151109786Y-64269890D01*
X150937820Y-64144951D01*
X150748414Y-64048444D01*
X150748413Y-64048443D01*
X150748412Y-64048443D01*
X150546243Y-63982754D01*
X150546241Y-63982753D01*
X150546240Y-63982753D01*
X150384957Y-63957208D01*
X150336287Y-63949500D01*
X150123713Y-63949500D01*
X150075042Y-63957208D01*
X149913760Y-63982753D01*
X149711585Y-64048444D01*
X149522179Y-64144951D01*
X149350213Y-64269890D01*
X149199890Y-64420213D01*
X149074949Y-64592182D01*
X149070202Y-64601499D01*
X149022227Y-64652293D01*
X148954405Y-64669087D01*
X148888271Y-64646548D01*
X148849234Y-64601495D01*
X148844622Y-64592444D01*
X148719727Y-64420540D01*
X148719723Y-64420535D01*
X148569464Y-64270276D01*
X148569459Y-64270272D01*
X148397557Y-64145379D01*
X148208215Y-64048903D01*
X148006124Y-63983241D01*
X147940000Y-63972768D01*
X147940000Y-64866988D01*
X147882993Y-64834075D01*
X147755826Y-64800000D01*
X147624174Y-64800000D01*
X147497007Y-64834075D01*
X147440000Y-64866988D01*
X147440000Y-63972768D01*
X147439999Y-63972768D01*
X147373875Y-63983241D01*
X147171784Y-64048903D01*
X146982442Y-64145379D01*
X146810541Y-64270271D01*
X146696865Y-64383947D01*
X146635542Y-64417431D01*
X146565850Y-64412447D01*
X146509917Y-64370575D01*
X146493002Y-64339598D01*
X146485154Y-64318557D01*
X146443796Y-64207669D01*
X146443795Y-64207668D01*
X146443793Y-64207664D01*
X146357547Y-64092455D01*
X146357544Y-64092452D01*
X146242335Y-64006206D01*
X146242328Y-64006202D01*
X146107482Y-63955908D01*
X146107483Y-63955908D01*
X146047883Y-63949501D01*
X146047881Y-63949500D01*
X146047873Y-63949500D01*
X146047864Y-63949500D01*
X144252129Y-63949500D01*
X144252123Y-63949501D01*
X144192516Y-63955908D01*
X144057671Y-64006202D01*
X144057664Y-64006206D01*
X143942455Y-64092452D01*
X143942452Y-64092455D01*
X143856206Y-64207664D01*
X143856202Y-64207671D01*
X143805910Y-64342513D01*
X143805909Y-64342517D01*
X143800937Y-64388757D01*
X143774201Y-64453306D01*
X143716809Y-64493154D01*
X143677649Y-64499500D01*
X143484155Y-64499500D01*
X143329510Y-64530261D01*
X143329498Y-64530264D01*
X143183827Y-64590602D01*
X143183814Y-64590609D01*
X143052711Y-64678210D01*
X143052707Y-64678213D01*
X142270701Y-65460221D01*
X142027711Y-65703211D01*
X141971960Y-65758962D01*
X141916209Y-65814712D01*
X141828609Y-65945814D01*
X141828602Y-65945827D01*
X141768264Y-66091498D01*
X141768261Y-66091510D01*
X141737500Y-66246153D01*
X141737500Y-74438158D01*
X141717815Y-74505197D01*
X141665011Y-74550952D01*
X141600898Y-74561516D01*
X141542011Y-74555500D01*
X138441998Y-74555500D01*
X138441981Y-74555501D01*
X138339203Y-74566000D01*
X138339200Y-74566001D01*
X138172668Y-74621185D01*
X138172663Y-74621187D01*
X138023342Y-74713289D01*
X137899289Y-74837342D01*
X137807187Y-74986663D01*
X137807185Y-74986668D01*
X137807115Y-74986880D01*
X137762835Y-75120505D01*
X137723064Y-75177949D01*
X137658549Y-75204772D01*
X137645131Y-75205500D01*
X133396097Y-75205500D01*
X133329058Y-75185815D01*
X133308416Y-75169181D01*
X132093794Y-73954559D01*
X132060309Y-73893236D01*
X132065293Y-73823544D01*
X132107165Y-73767611D01*
X132125183Y-73756392D01*
X132127816Y-73755051D01*
X132127822Y-73755047D01*
X132299786Y-73630109D01*
X132299788Y-73630106D01*
X132299792Y-73630104D01*
X132450104Y-73479792D01*
X132450106Y-73479788D01*
X132450109Y-73479786D01*
X132575048Y-73307820D01*
X132575047Y-73307820D01*
X132575051Y-73307816D01*
X132671557Y-73118412D01*
X132737246Y-72916243D01*
X132770500Y-72706287D01*
X132770500Y-72493713D01*
X132737246Y-72283757D01*
X132671557Y-72081588D01*
X132575051Y-71892184D01*
X132575049Y-71892181D01*
X132575048Y-71892179D01*
X132450109Y-71720213D01*
X132299786Y-71569890D01*
X132127820Y-71444951D01*
X131938414Y-71348444D01*
X131938413Y-71348443D01*
X131938412Y-71348443D01*
X131736243Y-71282754D01*
X131736241Y-71282753D01*
X131736240Y-71282753D01*
X131574957Y-71257208D01*
X131526287Y-71249500D01*
X131313713Y-71249500D01*
X131265042Y-71257208D01*
X131103760Y-71282753D01*
X130901585Y-71348444D01*
X130712179Y-71444951D01*
X130540213Y-71569890D01*
X130389890Y-71720213D01*
X130264949Y-71892182D01*
X130260484Y-71900946D01*
X130212509Y-71951742D01*
X130144688Y-71968536D01*
X130078553Y-71945998D01*
X130039516Y-71900946D01*
X130035050Y-71892182D01*
X129910109Y-71720213D01*
X129759786Y-71569890D01*
X129587820Y-71444951D01*
X129398414Y-71348444D01*
X129398413Y-71348443D01*
X129398412Y-71348443D01*
X129196243Y-71282754D01*
X129196241Y-71282753D01*
X129196240Y-71282753D01*
X129034957Y-71257208D01*
X128986287Y-71249500D01*
X128773713Y-71249500D01*
X128725042Y-71257208D01*
X128563760Y-71282753D01*
X128361585Y-71348444D01*
X128172179Y-71444951D01*
X128000213Y-71569890D01*
X127849890Y-71720213D01*
X127724949Y-71892182D01*
X127720484Y-71900946D01*
X127672509Y-71951742D01*
X127604688Y-71968536D01*
X127538553Y-71945998D01*
X127499516Y-71900946D01*
X127495050Y-71892182D01*
X127370109Y-71720213D01*
X127219786Y-71569890D01*
X127047820Y-71444951D01*
X126858414Y-71348444D01*
X126858413Y-71348443D01*
X126858412Y-71348443D01*
X126656243Y-71282754D01*
X126656241Y-71282753D01*
X126656240Y-71282753D01*
X126494957Y-71257208D01*
X126446287Y-71249500D01*
X126233713Y-71249500D01*
X126185042Y-71257208D01*
X126023760Y-71282753D01*
X125821585Y-71348444D01*
X125632179Y-71444951D01*
X125460213Y-71569890D01*
X125309890Y-71720213D01*
X125184949Y-71892182D01*
X125180484Y-71900946D01*
X125132509Y-71951742D01*
X125064688Y-71968536D01*
X124998553Y-71945998D01*
X124959516Y-71900946D01*
X124955050Y-71892182D01*
X124830109Y-71720213D01*
X124679786Y-71569890D01*
X124507820Y-71444951D01*
X124318414Y-71348444D01*
X124318413Y-71348443D01*
X124318412Y-71348443D01*
X124116243Y-71282754D01*
X124116241Y-71282753D01*
X124116240Y-71282753D01*
X123954957Y-71257208D01*
X123906287Y-71249500D01*
X123693713Y-71249500D01*
X123645042Y-71257208D01*
X123483760Y-71282753D01*
X123281585Y-71348444D01*
X123092179Y-71444951D01*
X122920213Y-71569890D01*
X122769890Y-71720213D01*
X122644949Y-71892182D01*
X122640484Y-71900946D01*
X122592509Y-71951742D01*
X122524688Y-71968536D01*
X122458553Y-71945998D01*
X122419516Y-71900946D01*
X122415050Y-71892182D01*
X122290109Y-71720213D01*
X122139786Y-71569890D01*
X121967820Y-71444951D01*
X121778414Y-71348444D01*
X121778413Y-71348443D01*
X121778412Y-71348443D01*
X121576243Y-71282754D01*
X121576241Y-71282753D01*
X121576240Y-71282753D01*
X121414957Y-71257208D01*
X121366287Y-71249500D01*
X121153713Y-71249500D01*
X121105042Y-71257208D01*
X120943760Y-71282753D01*
X120741585Y-71348444D01*
X120552179Y-71444951D01*
X120380213Y-71569890D01*
X120229890Y-71720213D01*
X120104949Y-71892182D01*
X120100484Y-71900946D01*
X120052509Y-71951742D01*
X119984688Y-71968536D01*
X119918553Y-71945998D01*
X119879516Y-71900946D01*
X119875050Y-71892182D01*
X119750109Y-71720213D01*
X119599786Y-71569890D01*
X119427820Y-71444951D01*
X119238414Y-71348444D01*
X119238413Y-71348443D01*
X119238412Y-71348443D01*
X119036243Y-71282754D01*
X119036241Y-71282753D01*
X119036240Y-71282753D01*
X118874957Y-71257208D01*
X118826287Y-71249500D01*
X118613713Y-71249500D01*
X118565042Y-71257208D01*
X118403760Y-71282753D01*
X118201585Y-71348444D01*
X118012179Y-71444951D01*
X117840213Y-71569890D01*
X117689890Y-71720213D01*
X117564949Y-71892182D01*
X117560484Y-71900946D01*
X117512509Y-71951742D01*
X117444688Y-71968536D01*
X117378553Y-71945998D01*
X117339516Y-71900946D01*
X117335050Y-71892182D01*
X117210109Y-71720213D01*
X117059786Y-71569890D01*
X116887820Y-71444951D01*
X116698414Y-71348444D01*
X116698413Y-71348443D01*
X116698412Y-71348443D01*
X116496243Y-71282754D01*
X116496241Y-71282753D01*
X116496240Y-71282753D01*
X116334957Y-71257208D01*
X116286287Y-71249500D01*
X116073713Y-71249500D01*
X116025042Y-71257208D01*
X115863760Y-71282753D01*
X115661585Y-71348444D01*
X115472179Y-71444951D01*
X115300213Y-71569890D01*
X115149890Y-71720213D01*
X115024949Y-71892182D01*
X115020484Y-71900946D01*
X114972509Y-71951742D01*
X114904688Y-71968536D01*
X114838553Y-71945998D01*
X114799516Y-71900946D01*
X114795050Y-71892182D01*
X114670109Y-71720213D01*
X114519786Y-71569890D01*
X114347820Y-71444951D01*
X114158414Y-71348444D01*
X114158413Y-71348443D01*
X114158412Y-71348443D01*
X113956243Y-71282754D01*
X113956241Y-71282753D01*
X113956240Y-71282753D01*
X113794957Y-71257208D01*
X113746287Y-71249500D01*
X113533713Y-71249500D01*
X113485042Y-71257208D01*
X113323760Y-71282753D01*
X113121585Y-71348444D01*
X112932179Y-71444951D01*
X112760213Y-71569890D01*
X112609890Y-71720213D01*
X112484949Y-71892182D01*
X112480484Y-71900946D01*
X112432509Y-71951742D01*
X112364688Y-71968536D01*
X112298553Y-71945998D01*
X112259516Y-71900946D01*
X112255050Y-71892182D01*
X112130109Y-71720213D01*
X111979786Y-71569890D01*
X111807820Y-71444951D01*
X111618414Y-71348444D01*
X111618413Y-71348443D01*
X111618412Y-71348443D01*
X111416243Y-71282754D01*
X111416241Y-71282753D01*
X111416240Y-71282753D01*
X111254957Y-71257208D01*
X111206287Y-71249500D01*
X110993713Y-71249500D01*
X110945042Y-71257208D01*
X110783760Y-71282753D01*
X110581585Y-71348444D01*
X110392179Y-71444951D01*
X110220213Y-71569890D01*
X110069890Y-71720213D01*
X109944949Y-71892182D01*
X109940484Y-71900946D01*
X109892509Y-71951742D01*
X109824688Y-71968536D01*
X109758553Y-71945998D01*
X109719516Y-71900946D01*
X109715050Y-71892182D01*
X109590109Y-71720213D01*
X109439786Y-71569890D01*
X109267820Y-71444951D01*
X109078414Y-71348444D01*
X109078413Y-71348443D01*
X109078412Y-71348443D01*
X108876243Y-71282754D01*
X108876241Y-71282753D01*
X108876240Y-71282753D01*
X108714957Y-71257208D01*
X108666287Y-71249500D01*
X108453713Y-71249500D01*
X108405042Y-71257208D01*
X108243760Y-71282753D01*
X108041585Y-71348444D01*
X107852179Y-71444951D01*
X107680213Y-71569890D01*
X107529890Y-71720213D01*
X107404949Y-71892182D01*
X107400484Y-71900946D01*
X107352509Y-71951742D01*
X107284688Y-71968536D01*
X107218553Y-71945998D01*
X107179516Y-71900946D01*
X107175050Y-71892182D01*
X107050109Y-71720213D01*
X106899786Y-71569890D01*
X106727815Y-71444948D01*
X106727814Y-71444947D01*
X106688205Y-71424765D01*
X106637409Y-71376791D01*
X106620500Y-71314281D01*
X106620500Y-69615097D01*
X106640185Y-69548058D01*
X106656819Y-69527416D01*
X107571416Y-68612819D01*
X107632739Y-68579334D01*
X107659097Y-68576500D01*
X120241234Y-68576500D01*
X120308273Y-68596185D01*
X120310125Y-68597398D01*
X120441814Y-68685390D01*
X120441827Y-68685397D01*
X120587498Y-68745735D01*
X120587503Y-68745737D01*
X120742153Y-68776499D01*
X120742156Y-68776500D01*
X120742158Y-68776500D01*
X120899844Y-68776500D01*
X120899845Y-68776499D01*
X121054497Y-68745737D01*
X121200179Y-68685394D01*
X121331289Y-68597789D01*
X121442789Y-68486289D01*
X121530394Y-68355179D01*
X121590737Y-68209497D01*
X121621500Y-68054842D01*
X121621500Y-67897158D01*
X121621500Y-67897155D01*
X121621499Y-67897153D01*
X121590738Y-67742510D01*
X121590737Y-67742503D01*
X121534728Y-67607284D01*
X121530397Y-67596827D01*
X121530390Y-67596814D01*
X121442789Y-67465711D01*
X121442786Y-67465707D01*
X121331292Y-67354213D01*
X121331288Y-67354210D01*
X121200185Y-67266609D01*
X121200172Y-67266602D01*
X121054501Y-67206264D01*
X121054489Y-67206261D01*
X120899845Y-67175500D01*
X120899842Y-67175500D01*
X120742158Y-67175500D01*
X120742155Y-67175500D01*
X120587510Y-67206261D01*
X120587498Y-67206264D01*
X120441827Y-67266602D01*
X120441814Y-67266609D01*
X120310125Y-67354602D01*
X120243447Y-67375480D01*
X120241234Y-67375500D01*
X107445669Y-67375500D01*
X107445653Y-67375499D01*
X107438057Y-67375499D01*
X107279943Y-67375499D01*
X107172587Y-67404265D01*
X107127210Y-67416424D01*
X107127209Y-67416425D01*
X107077096Y-67445359D01*
X107077095Y-67445360D01*
X107041853Y-67465707D01*
X106990285Y-67495479D01*
X106990282Y-67495481D01*
X105539481Y-68946282D01*
X105539479Y-68946285D01*
X105489361Y-69033094D01*
X105489359Y-69033096D01*
X105460425Y-69083209D01*
X105460424Y-69083210D01*
X105460423Y-69083215D01*
X105419499Y-69235943D01*
X105419499Y-69235945D01*
X105419499Y-69404046D01*
X105419500Y-69404059D01*
X105419500Y-71314281D01*
X105399815Y-71381320D01*
X105351795Y-71424765D01*
X105312185Y-71444947D01*
X105312184Y-71444948D01*
X105140213Y-71569890D01*
X104989890Y-71720213D01*
X104864949Y-71892182D01*
X104860484Y-71900946D01*
X104812509Y-71951742D01*
X104744688Y-71968536D01*
X104678553Y-71945998D01*
X104639516Y-71900946D01*
X104635050Y-71892182D01*
X104510109Y-71720213D01*
X104359786Y-71569890D01*
X104187820Y-71444951D01*
X103998414Y-71348444D01*
X103998413Y-71348443D01*
X103998412Y-71348443D01*
X103796243Y-71282754D01*
X103796241Y-71282753D01*
X103796240Y-71282753D01*
X103634957Y-71257208D01*
X103586287Y-71249500D01*
X103373713Y-71249500D01*
X103325042Y-71257208D01*
X103163760Y-71282753D01*
X102961585Y-71348444D01*
X102772179Y-71444951D01*
X102600213Y-71569890D01*
X102449890Y-71720213D01*
X102324949Y-71892182D01*
X102320484Y-71900946D01*
X102272509Y-71951742D01*
X102204688Y-71968536D01*
X102138553Y-71945998D01*
X102099516Y-71900946D01*
X102095050Y-71892182D01*
X101970109Y-71720213D01*
X101819786Y-71569890D01*
X101647820Y-71444951D01*
X101458414Y-71348444D01*
X101458413Y-71348443D01*
X101458412Y-71348443D01*
X101256243Y-71282754D01*
X101256241Y-71282753D01*
X101256240Y-71282753D01*
X101094957Y-71257208D01*
X101046287Y-71249500D01*
X100833713Y-71249500D01*
X100785042Y-71257208D01*
X100623760Y-71282753D01*
X100421585Y-71348444D01*
X100232179Y-71444951D01*
X100060213Y-71569890D01*
X99909890Y-71720213D01*
X99784949Y-71892182D01*
X99780484Y-71900946D01*
X99732509Y-71951742D01*
X99664688Y-71968536D01*
X99598553Y-71945998D01*
X99559516Y-71900946D01*
X99555050Y-71892182D01*
X99430109Y-71720213D01*
X99279786Y-71569890D01*
X99107820Y-71444951D01*
X98918414Y-71348444D01*
X98918413Y-71348443D01*
X98918412Y-71348443D01*
X98716243Y-71282754D01*
X98716241Y-71282753D01*
X98716240Y-71282753D01*
X98554957Y-71257208D01*
X98506287Y-71249500D01*
X98293713Y-71249500D01*
X98245042Y-71257208D01*
X98083760Y-71282753D01*
X97881585Y-71348444D01*
X97692179Y-71444951D01*
X97520215Y-71569889D01*
X97406673Y-71683431D01*
X97345350Y-71716915D01*
X97275658Y-71711931D01*
X97219725Y-71670059D01*
X97202810Y-71639082D01*
X97153797Y-71507671D01*
X97153793Y-71507664D01*
X97067547Y-71392455D01*
X97067544Y-71392452D01*
X96952335Y-71306206D01*
X96952328Y-71306202D01*
X96817482Y-71255908D01*
X96817483Y-71255908D01*
X96757883Y-71249501D01*
X96757881Y-71249500D01*
X96757873Y-71249500D01*
X96757864Y-71249500D01*
X94962129Y-71249500D01*
X94962123Y-71249501D01*
X94902516Y-71255908D01*
X94767671Y-71306202D01*
X94767664Y-71306206D01*
X94652455Y-71392452D01*
X94652452Y-71392455D01*
X94566206Y-71507664D01*
X94566202Y-71507671D01*
X94515908Y-71642517D01*
X94509501Y-71702116D01*
X94509500Y-71702135D01*
X93800500Y-71702135D01*
X93800500Y-64504427D01*
X93800816Y-64495581D01*
X93804960Y-64437636D01*
X93807499Y-64402135D01*
X134509500Y-64402135D01*
X134509500Y-66297870D01*
X134509501Y-66297876D01*
X134515908Y-66357483D01*
X134566202Y-66492328D01*
X134566206Y-66492335D01*
X134652452Y-66607544D01*
X134652455Y-66607547D01*
X134767664Y-66693793D01*
X134767671Y-66693797D01*
X134902517Y-66744091D01*
X134902516Y-66744091D01*
X134909444Y-66744835D01*
X134962127Y-66750500D01*
X136857872Y-66750499D01*
X136917483Y-66744091D01*
X137052331Y-66693796D01*
X137167546Y-66607546D01*
X137253796Y-66492331D01*
X137281429Y-66418243D01*
X137283601Y-66412420D01*
X137325471Y-66356486D01*
X137390936Y-66332068D01*
X137459209Y-66346919D01*
X137487464Y-66368071D01*
X137537636Y-66418243D01*
X137537641Y-66418247D01*
X137693192Y-66531260D01*
X137715978Y-66547815D01*
X137844375Y-66613237D01*
X137912393Y-66647895D01*
X137912396Y-66647896D01*
X138017221Y-66681955D01*
X138122049Y-66716015D01*
X138339778Y-66750500D01*
X138339779Y-66750500D01*
X138560221Y-66750500D01*
X138560222Y-66750500D01*
X138777951Y-66716015D01*
X138987606Y-66647895D01*
X139184022Y-66547815D01*
X139362365Y-66418242D01*
X139518242Y-66262365D01*
X139647815Y-66084022D01*
X139747895Y-65887606D01*
X139816015Y-65677951D01*
X139850500Y-65460222D01*
X139850500Y-65239778D01*
X139816015Y-65022049D01*
X139776327Y-64899901D01*
X139747896Y-64812396D01*
X139747895Y-64812393D01*
X139713237Y-64744375D01*
X139647815Y-64615978D01*
X139585540Y-64530263D01*
X139518247Y-64437641D01*
X139518243Y-64437636D01*
X139362363Y-64281756D01*
X139362358Y-64281752D01*
X139184025Y-64152187D01*
X139184024Y-64152186D01*
X139184022Y-64152185D01*
X139066791Y-64092452D01*
X138987606Y-64052104D01*
X138987603Y-64052103D01*
X138777952Y-63983985D01*
X138669086Y-63966742D01*
X138560222Y-63949500D01*
X138339778Y-63949500D01*
X138267201Y-63960995D01*
X138122047Y-63983985D01*
X137912396Y-64052103D01*
X137912393Y-64052104D01*
X137715974Y-64152187D01*
X137537641Y-64281752D01*
X137537636Y-64281756D01*
X137487463Y-64331929D01*
X137426140Y-64365413D01*
X137356448Y-64360428D01*
X137300515Y-64318557D01*
X137283601Y-64287580D01*
X137253797Y-64207671D01*
X137253793Y-64207664D01*
X137167547Y-64092455D01*
X137167544Y-64092452D01*
X137052335Y-64006206D01*
X137052328Y-64006202D01*
X136917482Y-63955908D01*
X136917483Y-63955908D01*
X136857883Y-63949501D01*
X136857881Y-63949500D01*
X136857873Y-63949500D01*
X136857864Y-63949500D01*
X134962129Y-63949500D01*
X134962123Y-63949501D01*
X134902516Y-63955908D01*
X134767671Y-64006202D01*
X134767664Y-64006206D01*
X134652455Y-64092452D01*
X134652452Y-64092455D01*
X134566206Y-64207664D01*
X134566202Y-64207671D01*
X134515908Y-64342517D01*
X134509501Y-64402116D01*
X134509500Y-64402135D01*
X93807499Y-64402135D01*
X93815130Y-64295436D01*
X93817646Y-64277938D01*
X93859356Y-64086199D01*
X93864333Y-64069248D01*
X93932911Y-63885385D01*
X93940259Y-63869298D01*
X94009520Y-63742455D01*
X94034291Y-63697089D01*
X94043845Y-63682221D01*
X94161448Y-63525123D01*
X94173020Y-63511769D01*
X94311769Y-63373020D01*
X94325123Y-63361448D01*
X94482221Y-63243845D01*
X94497089Y-63234291D01*
X94669298Y-63140258D01*
X94685385Y-63132911D01*
X94869248Y-63064333D01*
X94886199Y-63059356D01*
X95077938Y-63017646D01*
X95095436Y-63015130D01*
X95295582Y-63000816D01*
X95304428Y-63000500D01*
X95365892Y-63000500D01*
X186234108Y-63000500D01*
X186295572Y-63000500D01*
X186304418Y-63000816D01*
G37*
%TD.AperFunction*%
%TD*%
M02*
