%TF.GenerationSoftware,KiCad,Pcbnew,9.0.0*%
%TF.CreationDate,2025-06-04T20:24:48+02:00*%
%TF.ProjectId,capibarazeroPCB,63617069-6261-4726-917a-65726f504342,rev?*%
%TF.SameCoordinates,Original*%
%TF.FileFunction,Soldermask,Bot*%
%TF.FilePolarity,Negative*%
%FSLAX46Y46*%
G04 Gerber Fmt 4.6, Leading zero omitted, Abs format (unit mm)*
G04 Created by KiCad (PCBNEW 9.0.0) date 2025-06-04 20:24:48*
%MOMM*%
%LPD*%
G01*
G04 APERTURE LIST*
G04 Aperture macros list*
%AMRoundRect*
0 Rectangle with rounded corners*
0 $1 Rounding radius*
0 $2 $3 $4 $5 $6 $7 $8 $9 X,Y pos of 4 corners*
0 Add a 4 corners polygon primitive as box body*
4,1,4,$2,$3,$4,$5,$6,$7,$8,$9,$2,$3,0*
0 Add four circle primitives for the rounded corners*
1,1,$1+$1,$2,$3*
1,1,$1+$1,$4,$5*
1,1,$1+$1,$6,$7*
1,1,$1+$1,$8,$9*
0 Add four rect primitives between the rounded corners*
20,1,$1+$1,$2,$3,$4,$5,0*
20,1,$1+$1,$4,$5,$6,$7,0*
20,1,$1+$1,$6,$7,$8,$9,0*
20,1,$1+$1,$8,$9,$2,$3,0*%
G04 Aperture macros list end*
%ADD10C,2.390000*%
%ADD11C,3.450000*%
%ADD12R,6.350000X7.340000*%
%ADD13C,2.540000*%
%ADD14R,1.700000X1.700000*%
%ADD15O,1.700000X1.700000*%
%ADD16RoundRect,0.250000X-1.500000X-0.500000X1.500000X-0.500000X1.500000X0.500000X-1.500000X0.500000X0*%
%ADD17C,2.000000*%
%ADD18R,1.800000X1.800000*%
%ADD19C,1.800000*%
%ADD20R,2.540000X2.540000*%
G04 APERTURE END LIST*
D10*
%TO.C,BT1*%
X185000000Y-143030000D03*
D11*
X169000000Y-134700000D03*
X185000000Y-79500000D03*
D12*
X177000000Y-146430000D03*
X177000000Y-67770000D03*
%TD*%
D13*
%TO.C,SW1*%
X126600000Y-132200000D03*
X131750000Y-132200000D03*
%TD*%
D14*
%TO.C,J3*%
X111600000Y-107570000D03*
D15*
X111600000Y-110110000D03*
X111600000Y-112650000D03*
X111600000Y-115190000D03*
X111600000Y-117730000D03*
X111600000Y-120270000D03*
%TD*%
D14*
%TO.C,J6*%
X145150000Y-65300000D03*
D15*
X147690000Y-65300000D03*
X150230000Y-65300000D03*
%TD*%
D14*
%TO.C,J4*%
X155619000Y-114077000D03*
D15*
X155619000Y-111537000D03*
X155619000Y-108997000D03*
X155619000Y-106457000D03*
%TD*%
D14*
%TO.C,J5*%
X177100000Y-98570000D03*
D15*
X177100000Y-101110000D03*
X177100000Y-103650000D03*
X177100000Y-106190000D03*
X177100000Y-108730000D03*
X177100000Y-111270000D03*
X177100000Y-113810000D03*
X177100000Y-116350000D03*
%TD*%
D14*
%TO.C,J1*%
X95860000Y-72600000D03*
D15*
X98400000Y-72600000D03*
X100940000Y-72600000D03*
X103480000Y-72600000D03*
X106020000Y-72600000D03*
X108560000Y-72600000D03*
X111100000Y-72600000D03*
X113640000Y-72600000D03*
X116180000Y-72600000D03*
X118720000Y-72600000D03*
X121260000Y-72600000D03*
X123800000Y-72600000D03*
X126340000Y-72600000D03*
X128880000Y-72600000D03*
X131420000Y-72600000D03*
%TD*%
D14*
%TO.C,J2*%
X95860000Y-87600000D03*
D15*
X98400000Y-87600000D03*
X100940000Y-87600000D03*
X103480000Y-87600000D03*
X106020000Y-87600000D03*
X108560000Y-87600000D03*
X111100000Y-87600000D03*
X113640000Y-87600000D03*
X116180000Y-87600000D03*
X118720000Y-87600000D03*
X121260000Y-87600000D03*
X123800000Y-87600000D03*
X126340000Y-87600000D03*
X128880000Y-87600000D03*
X131420000Y-87600000D03*
%TD*%
D16*
%TO.C,U1*%
X139992000Y-88406000D03*
X139992000Y-86606000D03*
X139992000Y-84806000D03*
X139992000Y-83006000D03*
X139992000Y-81206000D03*
X139992000Y-79406000D03*
X139992000Y-77606000D03*
X139992000Y-75806000D03*
X155492000Y-75806000D03*
X155492000Y-77606000D03*
X155492000Y-79406000D03*
X155492000Y-81206000D03*
X155492000Y-83006000D03*
X155492000Y-84806000D03*
X155492000Y-86606000D03*
X155492000Y-88406000D03*
%TD*%
D17*
%TO.C,SW5_B1*%
X146800000Y-143400000D03*
X153300000Y-143400000D03*
X146800000Y-147900000D03*
X153300000Y-147900000D03*
%TD*%
%TO.C,SW4_T1*%
X146850000Y-127900000D03*
X153350000Y-127900000D03*
X146850000Y-132400000D03*
X153350000Y-132400000D03*
%TD*%
%TO.C,SW3_M1*%
X146800000Y-135650000D03*
X153300000Y-135650000D03*
X146800000Y-140150000D03*
X153300000Y-140150000D03*
%TD*%
%TO.C,SW2_L1*%
X137100000Y-135650000D03*
X143600000Y-135650000D03*
X137100000Y-140150000D03*
X143600000Y-140150000D03*
%TD*%
%TO.C,SW1_R1*%
X156500000Y-135650000D03*
X163000000Y-135650000D03*
X156500000Y-140150000D03*
X163000000Y-140150000D03*
%TD*%
D18*
%TO.C,D1*%
X135910000Y-65350000D03*
D19*
X138450000Y-65350000D03*
%TD*%
D20*
%TO.C,BMS1*%
X162850000Y-73950000D03*
X162850000Y-77200000D03*
X162850000Y-84450000D03*
X162850000Y-87550000D03*
X185550000Y-73950000D03*
X185550000Y-87550000D03*
%TD*%
M02*
