%TF.GenerationSoftware,KiCad,Pcbnew,9.0.0*%
%TF.CreationDate,2025-06-04T20:24:48+02:00*%
%TF.ProjectId,capibarazeroPCB,63617069-6261-4726-917a-65726f504342,rev?*%
%TF.SameCoordinates,Original*%
%TF.FileFunction,Legend,Bot*%
%TF.FilePolarity,Positive*%
%FSLAX46Y46*%
G04 Gerber Fmt 4.6, Leading zero omitted, Abs format (unit mm)*
G04 Created by KiCad (PCBNEW 9.0.0) date 2025-06-04 20:24:48*
%MOMM*%
%LPD*%
G01*
G04 APERTURE LIST*
%ADD10C,0.100000*%
%ADD11C,0.120000*%
G04 APERTURE END LIST*
D10*
X120697000Y-90148000D02*
X163747000Y-90148000D01*
X163747000Y-131148000D01*
X120697000Y-131148000D01*
X120697000Y-90148000D01*
X150230095Y-98448580D02*
X150230095Y-97639057D01*
X150230095Y-97639057D02*
X150277714Y-97543819D01*
X150277714Y-97543819D02*
X150325333Y-97496200D01*
X150325333Y-97496200D02*
X150420571Y-97448580D01*
X150420571Y-97448580D02*
X150611047Y-97448580D01*
X150611047Y-97448580D02*
X150706285Y-97496200D01*
X150706285Y-97496200D02*
X150753904Y-97543819D01*
X150753904Y-97543819D02*
X150801523Y-97639057D01*
X150801523Y-97639057D02*
X150801523Y-98448580D01*
X151801523Y-97448580D02*
X151230095Y-97448580D01*
X151515809Y-97448580D02*
X151515809Y-98448580D01*
X151515809Y-98448580D02*
X151420571Y-98305723D01*
X151420571Y-98305723D02*
X151325333Y-98210485D01*
X151325333Y-98210485D02*
X151230095Y-98162866D01*
X150043734Y-82305800D02*
X149900877Y-82353419D01*
X149900877Y-82353419D02*
X149662782Y-82353419D01*
X149662782Y-82353419D02*
X149567544Y-82305800D01*
X149567544Y-82305800D02*
X149519925Y-82258180D01*
X149519925Y-82258180D02*
X149472306Y-82162942D01*
X149472306Y-82162942D02*
X149472306Y-82067704D01*
X149472306Y-82067704D02*
X149519925Y-81972466D01*
X149519925Y-81972466D02*
X149567544Y-81924847D01*
X149567544Y-81924847D02*
X149662782Y-81877228D01*
X149662782Y-81877228D02*
X149853258Y-81829609D01*
X149853258Y-81829609D02*
X149948496Y-81781990D01*
X149948496Y-81781990D02*
X149996115Y-81734371D01*
X149996115Y-81734371D02*
X150043734Y-81639133D01*
X150043734Y-81639133D02*
X150043734Y-81543895D01*
X150043734Y-81543895D02*
X149996115Y-81448657D01*
X149996115Y-81448657D02*
X149948496Y-81401038D01*
X149948496Y-81401038D02*
X149853258Y-81353419D01*
X149853258Y-81353419D02*
X149615163Y-81353419D01*
X149615163Y-81353419D02*
X149472306Y-81401038D01*
X149138972Y-81353419D02*
X148472306Y-82353419D01*
X148472306Y-81353419D02*
X149138972Y-82353419D01*
X147567544Y-82353419D02*
X148138972Y-82353419D01*
X147853258Y-82353419D02*
X147853258Y-81353419D01*
X147853258Y-81353419D02*
X147948496Y-81496276D01*
X147948496Y-81496276D02*
X148043734Y-81591514D01*
X148043734Y-81591514D02*
X148138972Y-81639133D01*
X147186591Y-81448657D02*
X147138972Y-81401038D01*
X147138972Y-81401038D02*
X147043734Y-81353419D01*
X147043734Y-81353419D02*
X146805639Y-81353419D01*
X146805639Y-81353419D02*
X146710401Y-81401038D01*
X146710401Y-81401038D02*
X146662782Y-81448657D01*
X146662782Y-81448657D02*
X146615163Y-81543895D01*
X146615163Y-81543895D02*
X146615163Y-81639133D01*
X146615163Y-81639133D02*
X146662782Y-81781990D01*
X146662782Y-81781990D02*
X147234210Y-82353419D01*
X147234210Y-82353419D02*
X146615163Y-82353419D01*
X146281829Y-81353419D02*
X145615163Y-81353419D01*
X145615163Y-81353419D02*
X146043734Y-82353419D01*
X144805639Y-81353419D02*
X144996115Y-81353419D01*
X144996115Y-81353419D02*
X145091353Y-81401038D01*
X145091353Y-81401038D02*
X145138972Y-81448657D01*
X145138972Y-81448657D02*
X145234210Y-81591514D01*
X145234210Y-81591514D02*
X145281829Y-81781990D01*
X145281829Y-81781990D02*
X145281829Y-82162942D01*
X145281829Y-82162942D02*
X145234210Y-82258180D01*
X145234210Y-82258180D02*
X145186591Y-82305800D01*
X145186591Y-82305800D02*
X145091353Y-82353419D01*
X145091353Y-82353419D02*
X144900877Y-82353419D01*
X144900877Y-82353419D02*
X144805639Y-82305800D01*
X144805639Y-82305800D02*
X144758020Y-82258180D01*
X144758020Y-82258180D02*
X144710401Y-82162942D01*
X144710401Y-82162942D02*
X144710401Y-81924847D01*
X144710401Y-81924847D02*
X144758020Y-81829609D01*
X144758020Y-81829609D02*
X144805639Y-81781990D01*
X144805639Y-81781990D02*
X144900877Y-81734371D01*
X144900877Y-81734371D02*
X145091353Y-81734371D01*
X145091353Y-81734371D02*
X145186591Y-81781990D01*
X145186591Y-81781990D02*
X145234210Y-81829609D01*
X145234210Y-81829609D02*
X145281829Y-81924847D01*
X145748265Y-92819295D02*
X146224455Y-92819295D01*
X145653027Y-92533580D02*
X145986360Y-93533580D01*
X145986360Y-93533580D02*
X146319693Y-92533580D01*
X146653027Y-93200247D02*
X146653027Y-92533580D01*
X146653027Y-93105009D02*
X146700646Y-93152628D01*
X146700646Y-93152628D02*
X146795884Y-93200247D01*
X146795884Y-93200247D02*
X146938741Y-93200247D01*
X146938741Y-93200247D02*
X147033979Y-93152628D01*
X147033979Y-93152628D02*
X147081598Y-93057390D01*
X147081598Y-93057390D02*
X147081598Y-92533580D01*
X147414932Y-93200247D02*
X147795884Y-93200247D01*
X147557789Y-93533580D02*
X147557789Y-92676438D01*
X147557789Y-92676438D02*
X147605408Y-92581200D01*
X147605408Y-92581200D02*
X147700646Y-92533580D01*
X147700646Y-92533580D02*
X147795884Y-92533580D01*
X148510170Y-92581200D02*
X148414932Y-92533580D01*
X148414932Y-92533580D02*
X148224456Y-92533580D01*
X148224456Y-92533580D02*
X148129218Y-92581200D01*
X148129218Y-92581200D02*
X148081599Y-92676438D01*
X148081599Y-92676438D02*
X148081599Y-93057390D01*
X148081599Y-93057390D02*
X148129218Y-93152628D01*
X148129218Y-93152628D02*
X148224456Y-93200247D01*
X148224456Y-93200247D02*
X148414932Y-93200247D01*
X148414932Y-93200247D02*
X148510170Y-93152628D01*
X148510170Y-93152628D02*
X148557789Y-93057390D01*
X148557789Y-93057390D02*
X148557789Y-92962152D01*
X148557789Y-92962152D02*
X148081599Y-92866914D01*
X148986361Y-93200247D02*
X148986361Y-92533580D01*
X148986361Y-93105009D02*
X149033980Y-93152628D01*
X149033980Y-93152628D02*
X149129218Y-93200247D01*
X149129218Y-93200247D02*
X149272075Y-93200247D01*
X149272075Y-93200247D02*
X149367313Y-93152628D01*
X149367313Y-93152628D02*
X149414932Y-93057390D01*
X149414932Y-93057390D02*
X149414932Y-92533580D01*
X150319694Y-92533580D02*
X150319694Y-93057390D01*
X150319694Y-93057390D02*
X150272075Y-93152628D01*
X150272075Y-93152628D02*
X150176837Y-93200247D01*
X150176837Y-93200247D02*
X149986361Y-93200247D01*
X149986361Y-93200247D02*
X149891123Y-93152628D01*
X150319694Y-92581200D02*
X150224456Y-92533580D01*
X150224456Y-92533580D02*
X149986361Y-92533580D01*
X149986361Y-92533580D02*
X149891123Y-92581200D01*
X149891123Y-92581200D02*
X149843504Y-92676438D01*
X149843504Y-92676438D02*
X149843504Y-92771676D01*
X149843504Y-92771676D02*
X149891123Y-92866914D01*
X149891123Y-92866914D02*
X149986361Y-92914533D01*
X149986361Y-92914533D02*
X150224456Y-92914533D01*
X150224456Y-92914533D02*
X150319694Y-92962152D01*
D11*
%TO.C,BT1*%
X177000000Y-139850000D02*
X177000000Y-137350000D01*
X175750000Y-138600000D02*
X178250000Y-138600000D01*
X187440000Y-145740000D02*
X180440000Y-145740000D01*
X180440000Y-145740000D02*
X180440000Y-150100000D01*
X166560000Y-145740000D02*
X173560000Y-145740000D01*
X187440000Y-68460000D02*
X187440000Y-145740000D01*
X180440000Y-68460000D02*
X187420000Y-68460000D01*
X173560000Y-68460000D02*
X166560000Y-68460000D01*
X166560000Y-68460000D02*
X166560000Y-145740000D01*
X177000000Y-73100000D02*
X177000000Y-75600000D01*
%TO.C,U1*%
D10*
X142992000Y-89906000D02*
X152492000Y-89906000D01*
X152492000Y-75056000D01*
X142992000Y-75056000D01*
X142992000Y-89906000D01*
%TD*%
M02*
